<svg width="22" height="29" viewBox="0 0 22 29" fill="none" xmlns="http://www.w3.org/2000/svg">
<path d="M21.1953 29H0.472656V23.9219L7.44531 16.8711C8.89062 15.3607 10.0104 14.1497 10.8047 13.2383C11.612 12.3268 12.1784 11.5521 12.5039 10.9141C12.8294 10.276 12.9922 9.61198 12.9922 8.92188C12.9922 8.07552 12.7188 7.46354 12.1719 7.08594C11.625 6.70833 10.9805 6.51953 10.2383 6.51953C9.33984 6.51953 8.42839 6.77995 7.50391 7.30078C6.59245 7.80859 5.55729 8.5638 4.39844 9.56641L0.160156 4.60547C1.01953 3.83724 1.93099 3.10807 2.89453 2.41797C3.85807 1.71484 4.9974 1.14193 6.3125 0.699219C7.6276 0.25651 9.22917 0.0351562 11.1172 0.0351562C13.0573 0.0351562 14.737 0.373698 16.1562 1.05078C17.5885 1.72786 18.6953 2.65885 19.4766 3.84375C20.2578 5.01562 20.6484 6.35026 20.6484 7.84766C20.6484 9.5013 20.3424 10.9792 19.7305 12.2812C19.1315 13.5703 18.2266 14.8659 17.0156 16.168C15.8047 17.457 14.2943 18.9219 12.4844 20.5625L10.3945 22.4375V22.6328H21.1953V29Z" fill="white"/>
</svg>
