<svg width="22" height="30" viewBox="0 0 22 30" fill="none" xmlns="http://www.w3.org/2000/svg">
<path d="M20.2383 6.63672C20.2383 7.99089 19.9453 9.16276 19.3594 10.1523C18.7865 11.1289 18.0182 11.9297 17.0547 12.5547C16.1042 13.1797 15.0625 13.6484 13.9297 13.9609V14.0781C16.2083 14.3646 17.9661 15.0612 19.2031 16.168C20.4531 17.2617 21.0781 18.8177 21.0781 20.8359C21.0781 22.3984 20.6615 23.8307 19.8281 25.1328C18.9948 26.4219 17.6992 27.457 15.9414 28.2383C14.1836 29.0065 11.9245 29.3906 9.16406 29.3906C7.3151 29.3906 5.73958 29.2539 4.4375 28.9805C3.13542 28.707 1.8724 28.3294 0.648438 27.8477V21.4414C1.88542 22.0794 3.15495 22.5547 4.45703 22.8672C5.77214 23.1667 6.97005 23.3164 8.05078 23.3164C9.92578 23.3164 11.2018 23.0495 11.8789 22.5156C12.569 21.9818 12.9141 21.2656 12.9141 20.3672C12.9141 19.7161 12.7513 19.1628 12.4258 18.707C12.1003 18.2513 11.4948 17.8997 10.6094 17.6523C9.73698 17.4049 8.48047 17.2812 6.83984 17.2812H5.08203V11.4805H6.87891C8.33724 11.4805 9.48958 11.3503 10.3359 11.0898C11.1953 10.8294 11.8138 10.4779 12.1914 10.0352C12.569 9.57943 12.7578 9.05859 12.7578 8.47266C12.7578 7.71745 12.4648 7.15755 11.8789 6.79297C11.293 6.42839 10.5182 6.24609 9.55469 6.24609C8.69531 6.24609 7.88802 6.36328 7.13281 6.59766C6.3776 6.83203 5.72005 7.09245 5.16016 7.37891C4.60026 7.66536 4.17708 7.89974 3.89062 8.08203L0.6875 2.92578C1.8724 2.11849 3.22656 1.4349 4.75 0.875C6.28646 0.315104 8.29167 0.0351562 10.7656 0.0351562C13.7083 0.0351562 16.0195 0.621094 17.6992 1.79297C19.3919 2.96484 20.2383 4.57943 20.2383 6.63672Z" fill="white"/>
</svg>
