<svg width="21" height="30" viewBox="0 0 21 30" fill="none" xmlns="http://www.w3.org/2000/svg">
<path d="M11.9688 10.2891C13.5573 10.2891 15.0026 10.6471 16.3047 11.3633C17.6068 12.0794 18.6484 13.1211 19.4297 14.4883C20.2109 15.8555 20.6016 17.5221 20.6016 19.4883C20.6016 21.6107 20.1719 23.4141 19.3125 24.8984C18.4661 26.3698 17.1836 27.4896 15.4648 28.2578C13.7591 29.013 11.6042 29.3906 9 29.3906C7.34635 29.3906 5.83594 29.2604 4.46875 29C3.11458 28.7526 1.90365 28.3685 0.835938 27.8477V21.5195C1.83854 21.9753 3.04297 22.3919 4.44922 22.7695C5.86849 23.1341 7.17057 23.3164 8.35547 23.3164C9.30599 23.3164 10.1133 23.1797 10.7773 22.9062C11.4414 22.6328 11.9427 22.2292 12.2812 21.6953C12.6328 21.1615 12.8086 20.5039 12.8086 19.7227C12.8086 18.6419 12.418 17.7956 11.6367 17.1836C10.8555 16.5586 9.67057 16.2461 8.08203 16.2461C7.36589 16.2461 6.66276 16.3177 5.97266 16.4609C5.28255 16.6042 4.67708 16.7604 4.15625 16.9297L1.32422 15.5234L2.39844 0.445312H18.6875V6.87109H8.96094L8.60938 10.6406C9.02604 10.5625 9.44922 10.4844 9.87891 10.4062C10.3216 10.3281 11.0182 10.2891 11.9688 10.2891Z" fill="white"/>
</svg>
