<svg width="22" height="30" viewBox="0 0 22 30" fill="none" xmlns="http://www.w3.org/2000/svg">
<path d="M0.367188 16.9297C0.367188 15.2891 0.484375 13.6615 0.71875 12.0469C0.953125 10.4193 1.3763 8.88932 1.98828 7.45703C2.60026 6.01172 3.46615 4.73568 4.58594 3.62891C5.70573 2.50911 7.14453 1.63021 8.90234 0.992188C10.6602 0.354167 12.8021 0.0351562 15.3281 0.0351562C15.888 0.0351562 16.5716 0.0677083 17.3789 0.132812C18.1862 0.197917 18.8568 0.276042 19.3906 0.367188V6.40234C18.8568 6.29818 18.2578 6.21354 17.5938 6.14844C16.9297 6.07031 16.1159 6.03125 15.1523 6.03125C13.2253 6.03125 11.7018 6.32422 10.582 6.91016C9.47526 7.48307 8.67448 8.3099 8.17969 9.39062C7.6849 10.4714 7.39844 11.7669 7.32031 13.2773H7.55469C7.89323 12.6523 8.30339 12.0924 8.78516 11.5977C9.27995 11.0898 9.88542 10.6927 10.6016 10.4062C11.3177 10.1068 12.1836 9.95703 13.1992 9.95703C14.8659 9.95703 16.2982 10.3216 17.4961 11.0508C18.694 11.7669 19.612 12.8151 20.25 14.1953C20.888 15.5755 21.207 17.2552 21.207 19.2344C21.207 21.3698 20.7969 23.1992 19.9766 24.7227C19.1693 26.2331 18.0104 27.3919 16.5 28.1992C15.0026 28.9935 13.2122 29.3906 11.1289 29.3906C9.59245 29.3906 8.16667 29.1432 6.85156 28.6484C5.54948 28.1536 4.41016 27.3984 3.43359 26.3828C2.47005 25.3542 1.71484 24.0586 1.16797 22.4961C0.634115 20.9206 0.367188 19.0651 0.367188 16.9297ZM10.9531 23.2773C11.7734 23.2773 12.4375 22.9648 12.9453 22.3398C13.4661 21.7148 13.7266 20.7318 13.7266 19.3906C13.7266 18.3099 13.5117 17.4635 13.082 16.8516C12.6654 16.2266 11.9818 15.9141 11.0312 15.9141C10.3932 15.9141 9.85286 16.0703 9.41016 16.3828C8.96745 16.6823 8.62891 17.0664 8.39453 17.5352C8.16016 18.0039 8.04297 18.4922 8.04297 19C8.04297 19.5078 8.09505 20.0156 8.19922 20.5234C8.31641 21.0312 8.49219 21.4935 8.72656 21.9102C8.97396 22.3138 9.27995 22.6458 9.64453 22.9062C10.0091 23.1536 10.4453 23.2773 10.9531 23.2773Z" fill="white"/>
</svg>
