<svg width="156" height="128" viewBox="0 0 156 128" fill="none" xmlns="http://www.w3.org/2000/svg">
<g clip-path="url(#clip0_1132_3642)">
<path d="M79.104 14.1436C59.5553 14.1436 43.741 29.2213 43.741 47.843C43.741 66.4647 59.5878 81.5425 79.104 81.5425C98.6202 81.5425 114.467 66.4647 114.467 47.843C114.467 29.2213 98.6527 14.1436 79.104 14.1436ZM79.104 79.7705C60.6269 79.7705 45.6569 65.4982 45.6569 47.8752C45.6569 30.2523 60.6269 15.98 79.104 15.98C97.5811 15.98 112.551 30.2523 112.551 47.8752C112.551 65.4982 97.5811 79.7705 79.104 79.7705Z" fill="#3FBEAC"/>
<path d="M31.1091 54.2865L38.7403 52.9656L38.9026 53.8677L32.0833 55.0275L32.6678 58.3137L39.4871 57.1538L39.6495 58.0559L32.0184 59.3769L31.1091 54.2865Z" fill="#3FBEAC"/>
<path d="M31.0116 51.8378C30.9142 51.3868 30.8493 50.8069 30.8168 50.0659C30.7843 49.1316 31.0116 48.4872 31.4013 48.0362C31.7585 47.6496 32.3105 47.3918 33.025 47.3596C33.7394 47.3596 34.2914 47.5207 34.6811 47.8751C35.2656 48.3584 35.5578 49.1316 35.5903 50.0659C35.5903 50.3558 35.5903 50.6136 35.5254 50.8069L38.6428 50.7425L38.6752 51.6768L31.0116 51.8378ZM34.7135 50.8391C34.7785 50.6458 34.7785 50.3881 34.7785 50.0659C34.746 48.9383 34.1615 48.2617 33.0899 48.2939C32.0832 48.3261 31.5961 49.0027 31.6286 50.0337C31.6286 50.4525 31.6611 50.7425 31.726 50.9035L34.7135 50.8391Z" fill="#3FBEAC"/>
<path d="M35.5253 39.7886C38.1881 40.1108 39.3571 41.7861 39.0973 43.6225C38.8375 45.5233 37.084 46.6509 34.746 46.361C32.3105 46.071 30.9142 44.4602 31.1739 42.5271C31.4662 40.5618 33.2522 39.4987 35.5253 39.7886ZM34.8758 45.3622C36.532 45.5556 38.0907 44.9112 38.318 43.4614C38.5128 41.9794 37.1814 40.9807 35.4604 40.7874C33.9341 40.5941 32.2131 41.1418 32.0182 42.6882C31.7584 44.2024 33.1548 45.1367 34.8758 45.3622Z" fill="#3FBEAC"/>
<path d="M33.5445 36.2769L32.8951 38.371L32.0833 38.1455L33.642 33.0229L34.4538 33.2485L33.8043 35.3748L40.4288 37.2112L40.169 38.1133L33.5445 36.2769Z" fill="#3FBEAC"/>
<path d="M39.5521 29.8013L38.3831 32.3787L40.9485 33.4418L42.2474 30.5745L43.0267 30.8967L41.3381 34.6017L34.259 31.6377L35.8827 28.0615L36.662 28.3837L35.3956 31.1222L37.6362 32.0565L38.8052 29.4791L39.5521 29.8013Z" fill="#3FBEAC"/>
<path d="M46.0141 25.613C45.9816 25.9996 45.7543 26.6762 45.2997 27.4172C44.1956 29.1569 42.1823 29.769 40.039 28.5126C37.9932 27.2883 37.4087 25.1942 38.6427 23.2611C39.1298 22.4879 39.6169 22.1013 39.8767 21.9724L40.4612 22.5845C40.104 22.8101 39.7143 23.1645 39.3896 23.6799C38.4803 25.1297 38.8375 26.6439 40.5586 27.6749C42.1823 28.6092 43.7734 28.3515 44.7151 26.8695C45.0399 26.3862 45.2347 25.8385 45.2672 25.4197L46.0141 25.613Z" fill="#3FBEAC"/>
<path d="M42.7018 19.4916L41.2405 21.1669L40.5911 20.6514L44.1631 16.5598L44.8125 17.0753L43.3513 18.7828L48.6444 23.0033L48.0274 23.7121L42.7018 19.4916Z" fill="#3FBEAC"/>
<path d="M52.2814 14.2401C54.0675 16.1409 53.8401 18.1384 52.4113 19.3626C50.95 20.6513 48.8393 20.4258 47.2806 18.7505C45.6245 17.0108 45.657 14.9166 47.1507 13.6279C48.6769 12.307 50.7552 12.597 52.2814 14.2401ZM48.06 18.0739C49.164 19.2338 50.7877 19.7493 51.9242 18.7505C53.0608 17.7518 52.7361 16.1731 51.567 14.9166C50.5279 13.8212 48.8718 13.1769 47.6703 14.2401C46.5013 15.271 46.9234 16.8819 48.06 18.0739Z" fill="#3FBEAC"/>
<path d="M51.697 10.374C51.9893 10.0841 52.5413 9.66524 53.0934 9.31085C53.9052 8.79537 54.5222 8.60206 55.1392 8.6665C55.6262 8.69872 56.0809 8.95646 56.4056 9.43972C56.7953 10.0519 56.7628 10.8251 56.2757 11.4694C56.9576 11.2439 57.9968 11.3083 58.6138 12.2104C58.971 12.7581 59.0359 13.2736 58.9385 13.7891C58.7761 14.4656 58.1916 15.0778 57.1525 15.7221C56.6004 16.0765 56.1458 16.302 55.8536 16.4309L51.697 10.374ZM54.2299 12.4037L54.9768 11.9527C55.8211 11.405 56.0484 10.664 55.6262 10.0519C55.1392 9.31085 54.3923 9.37528 53.548 9.89076C53.1583 10.1163 52.9635 10.2774 52.866 10.4062L54.2299 12.4037ZM56.2432 15.3677C56.4056 15.3033 56.6654 15.1744 56.9576 14.9811C57.8019 14.4656 58.354 13.6602 57.7695 12.7581C57.185 11.9205 56.2108 12.0171 55.334 12.5648L54.6521 12.9836L56.2432 15.3677Z" fill="#3FBEAC"/>
<path d="M60.7894 10.954L61.0817 13.3703L60.1724 13.7569L59.2957 5.99254L60.3673 5.50928L65.8877 11.244L64.9459 11.6628L63.1924 9.85864L60.7894 10.954ZM62.7053 9.27872L61.1141 7.63563C60.7569 7.24902 60.4647 6.89463 60.1724 6.57245H60.14C60.2374 7.0235 60.3023 7.47454 60.3673 7.9578L60.627 10.213L62.7053 9.27872Z" fill="#3FBEAC"/>
<path d="M65.5303 3.64053L66.3746 6.63676L69.8817 5.70245L69.0374 2.70623L69.9791 2.44849L71.9925 9.60076L71.0507 9.8585L70.109 6.50789L66.6019 7.44219L67.5437 10.7928L66.6019 11.0506L64.5886 3.89827L65.5303 3.64053Z" fill="#3FBEAC"/>
<path d="M73.4861 1.93298L73.7784 5.05807C73.9083 6.2179 73.9732 7.18443 74.0057 8.18317H74.0382C74.3304 7.37773 74.7201 6.54008 75.1747 5.60577L77.2205 1.57859L78.1947 1.48193L78.9091 8.85973L77.9999 8.95639L77.6752 5.79907C77.5453 4.60703 77.4803 3.73716 77.4803 2.80285H77.4478C77.1556 3.6405 76.7334 4.54259 76.3113 5.41246L74.3629 9.31078L73.3238 9.40743L72.6094 2.02963L73.4861 1.93298Z" fill="#3FBEAC"/>
<path d="M81.8968 1.51422L81.6371 4.63932C81.5396 5.79914 81.4422 6.76567 81.2799 7.76441H81.3123C81.7669 7.02341 82.2865 6.25019 82.9035 5.41253L85.6312 1.77196L86.6054 1.8364L85.9884 9.24641L85.0792 9.18198L85.339 6.02467C85.4364 4.83262 85.5338 3.96275 85.6637 3.02844H85.6312C85.2091 3.80166 84.6246 4.63932 84.04 5.41253L81.3773 8.92424L80.3381 8.8598L80.9551 1.44979L81.8968 1.51422ZM83.2282 0.0644349C83.2607 0.418827 83.3256 0.741002 83.8452 0.805437C84.3648 0.837654 84.4947 0.547697 84.5596 0.161087L85.3065 0.225522C85.1766 0.934307 84.722 1.35313 83.7803 1.2887C82.871 1.22426 82.4813 0.741002 82.4813 0L83.2282 0.0644349Z" fill="#3FBEAC"/>
<path d="M93.8791 3.41496L92.8075 6.34675L96.2497 7.47436L97.3213 4.54257L98.263 4.83253L95.7301 11.8559L94.7884 11.566L95.9899 8.27979L92.5478 7.15218L91.3462 10.4384L90.437 10.1484L92.9699 3.125L93.8791 3.41496Z" fill="#3FBEAC"/>
<path d="M99.1398 10.8895L97.2889 12.5648L96.4121 12.1137L102.387 6.76562L103.426 7.31332L101.933 15.0133L101.023 14.53L101.478 12.1137L99.1398 10.8895ZM101.673 11.3727L102.095 9.14972C102.192 8.63424 102.322 8.21541 102.42 7.79658H102.387C102.062 8.11876 101.738 8.47315 101.38 8.79533L99.6919 10.3095L101.673 11.3727Z" fill="#3FBEAC"/>
<path d="M107.648 16.3665L105.407 17.5908L104.66 16.9464L111.804 13.1448L112.648 13.918L109.271 21.0381L108.524 20.3615L109.596 18.1063L107.648 16.3665ZM109.986 17.3975L110.96 15.3356C111.187 14.8523 111.415 14.4657 111.642 14.0791C111.252 14.3368 110.83 14.5946 110.408 14.8201L108.362 15.9155L109.986 17.3975Z" fill="#3FBEAC"/>
<path d="M119.143 21.0703L113.006 25.5808L112.421 24.8398L117.909 20.8126L116.383 18.9118L114.532 20.2971C113.201 21.2636 111.674 22.3268 110.44 21.9402C110.116 21.8436 109.726 21.618 109.466 21.2959L110.018 20.716C110.246 20.9093 110.57 21.0381 110.83 21.0703C111.674 21.167 112.908 20.3293 113.883 19.6206L116.48 17.7197L119.143 21.0703Z" fill="#3FBEAC"/>
<path d="M118.786 28.2546L117.357 25.8061L114.922 27.127L116.513 29.8655L115.766 30.2521L113.72 26.7082L120.475 23.0999L122.455 26.4827L121.741 26.8693L120.247 24.2919L118.104 25.4517L119.533 27.9003L118.786 28.2546Z" fill="#3FBEAC"/>
<path d="M123.332 28.5125C123.56 28.8991 123.852 29.4145 124.144 30.1233C124.501 30.9932 124.534 31.6698 124.306 32.2175C124.112 32.7007 123.689 33.1195 123.04 33.3773C122.391 33.635 121.806 33.635 121.286 33.4417C120.572 33.184 120.02 32.5396 119.663 31.702C119.565 31.4442 119.468 31.1865 119.436 30.9932L116.545 32.0564L116.188 31.1865L123.332 28.5125ZM120.215 30.671C120.247 30.8643 120.312 31.1221 120.41 31.412C120.832 32.4752 121.644 32.894 122.618 32.5074C123.56 32.153 123.787 31.3476 123.397 30.4133C123.235 30.0267 123.105 29.7689 123.008 29.6078L120.215 30.671Z" fill="#3FBEAC"/>
<path d="M126.612 38.2099L125.8 38.4032L125.086 35.6003L118.364 37.2112L118.136 36.3091L125.67 34.5049L126.612 38.2099Z" fill="#3FBEAC"/>
<path d="M123.202 43.7513L122.845 40.9806L120.085 41.3027L120.475 44.3956L119.63 44.4923L119.143 40.4651L126.839 39.563L127.326 43.4291L126.482 43.5257L126.125 40.5939L123.69 40.8839L124.047 43.6546L123.202 43.7513Z" fill="#3FBEAC"/>
<path d="M127.424 46.5863L124.177 46.4897L124.079 49.9692L127.326 50.0336L127.294 50.9679L119.565 50.7746L119.598 49.8403L123.235 49.937L123.332 46.4575L119.695 46.3608L119.728 45.4265L127.456 45.6198L127.424 46.5863Z" fill="#3FBEAC"/>
<path d="M126.774 54.4154L123.592 53.8032C122.39 53.5777 121.416 53.3522 120.41 53.1267L120.377 53.1589C121.092 53.6744 121.806 54.2543 122.618 54.9308L126.027 57.9593L125.833 58.8614L118.266 57.4116L118.461 56.5417L121.676 57.1538C122.91 57.3794 123.787 57.5727 124.728 57.8304V57.7982C123.982 57.2827 123.202 56.6384 122.455 55.994L119.143 53.0622L119.338 52.0957L126.904 53.5455L126.774 54.4154Z" fill="#3FBEAC"/>
<path d="M73.3239 59.2158C80.3056 52.579 87.2873 45.9099 94.2365 39.2731C93.3272 38.4033 92.353 37.469 91.3464 36.5024C85.3713 42.2049 79.3639 47.9396 73.2914 53.7066C71.1482 51.6447 69.005 49.615 66.8618 47.5853C65.8876 48.5196 64.9459 49.4216 64.0042 50.3237C67.0891 53.2877 70.239 56.284 73.3239 59.2158Z" fill="#3FBEAC"/>
<path d="M73.3239 59.2158C70.239 56.284 67.0891 53.2877 63.9717 50.3237C64.9134 49.4216 65.8551 48.5196 66.8293 47.5853C68.94 49.615 71.1157 51.6447 73.2589 53.7066C79.3314 47.9396 85.3389 42.2049 91.3139 36.5024C92.3206 37.469 93.2947 38.4033 94.204 39.2731C87.2872 45.9099 80.2731 52.579 73.3239 59.2158Z" fill="#3FBEAC"/>
<path d="M76.4737 25.5163L79.1365 23.6799L81.7993 25.5163L80.7602 22.5201L83.4879 20.6837H80.1432L79.1365 17.6553L78.0974 20.6837H74.7852L77.4804 22.5201L76.4737 25.5163Z" fill="#3FBEAC"/>
<path d="M62.6727 29.0603L65.3355 27.2239L67.9983 29.0603L66.9916 26.064L69.6869 24.2277H66.3746L65.3355 21.167L64.3288 24.2277H60.9841L63.7119 26.064L62.6727 29.0603Z" fill="#3FBEAC"/>
<path d="M55.2689 30.7998L54.2622 33.8605L50.9175 33.8282L53.6127 35.6969L52.6061 38.6931L55.2689 36.8245L57.9316 38.6931L56.925 35.6969L59.6202 33.8282H56.2755L55.2689 30.7998Z" fill="#3FBEAC"/>
<path d="M51.567 49.9692L54.2297 51.8056L53.2231 48.8094L55.9183 46.973H52.5736L51.567 43.9124L50.5603 46.973H47.2156L49.9108 48.8094L48.9042 51.8056L51.567 49.9692Z" fill="#3FBEAC"/>
<path d="M56.2755 60.1178L55.2689 57.0894L54.2297 60.1178H50.9175L53.6127 61.9542L52.6061 64.9504L55.2689 63.114L57.9316 64.9504L56.925 61.9542L59.6202 60.1178H56.2755Z" fill="#3FBEAC"/>
<path d="M66.3746 69.7509L65.368 66.7224L64.3613 69.7509H61.0166L63.7119 71.5873L62.7052 74.5835L65.368 72.7471L68.0308 74.5835L67.0241 71.5873L69.7193 69.7509H66.3746Z" fill="#3FBEAC"/>
<path d="M80.1432 73.2303L79.1365 70.2019L78.0974 73.2303H74.7852L77.4804 75.099L76.4737 78.0952L79.1365 76.2266L81.7993 78.0952L80.7602 75.099L83.4879 73.2303H80.1432Z" fill="#3FBEAC"/>
<path d="M93.9117 69.7509L92.9051 66.7224L91.866 69.7509H88.5537L91.249 71.5873L90.2098 74.5835L92.9051 72.7471L95.5679 74.5835L94.5287 71.5873L97.224 69.7509H93.9117Z" fill="#3FBEAC"/>
<path d="M104.011 60.1178L103.004 57.0894L101.965 60.1178H98.6528L101.348 61.9542L100.341 64.9504L103.004 63.114L105.667 64.9504L104.628 61.9542L107.356 60.1178H104.011Z" fill="#3FBEAC"/>
<path d="M110.993 46.9408H107.68L106.641 43.8801L105.635 46.9408H102.29L104.985 48.7772L103.978 51.7734L106.641 49.9048L109.304 51.7734L108.297 48.7772L110.993 46.9408Z" fill="#3FBEAC"/>
<path d="M100.341 38.6609L103.004 36.7922L105.667 38.6609L104.628 35.6646L107.356 33.796H104.011L103.004 30.7676L101.965 33.796H98.6528L101.348 35.6646L100.341 38.6609Z" fill="#3FBEAC"/>
<path d="M92.9376 21.199L91.8984 24.2274H88.5862L91.2814 26.0638L90.2748 29.06L92.9376 27.2236L95.6003 29.06L94.5937 26.0638L97.2889 24.2274H93.9442L92.9376 21.199Z" fill="#3FBEAC"/>
<path d="M106.024 73.198C99.1724 79.8348 89.6253 83.9586 79.1041 83.9586C68.5504 83.9586 59.0358 79.8348 52.184 73.198H20.7827L0 128H156L135.217 73.198H106.024Z" fill="#3FBEAC"/>
<path d="M49.6836 97.5223V90.7566H55.2365V97.5223H54.035V91.8198H50.8526V97.5223H49.6836Z" fill="white"/>
<path d="M56.99 97.5223V90.7566H59.6852C60.4646 90.7566 61.1141 90.9499 61.5687 91.3687C62.0233 91.7876 62.2831 92.3352 62.2831 93.044C62.2831 93.785 62.0233 94.3327 61.5037 94.7516C60.9842 95.1704 60.3347 95.3637 59.5554 95.3637H58.1915V97.5223H56.99ZM58.1915 94.3005H59.5878C60.0425 94.3005 60.3997 94.1716 60.6594 93.9461C60.9192 93.7206 61.0491 93.4306 61.0491 93.044C61.0491 92.6574 60.9192 92.3675 60.6594 92.1419C60.3997 91.9164 60.0425 91.8198 59.5878 91.8198H58.1915V94.3005Z" fill="white"/>
<path d="M69.3298 96.6201C68.6478 97.2967 67.8035 97.6511 66.7644 97.6511C65.7253 97.6511 64.881 97.2967 64.199 96.6201C63.5171 95.9436 63.1924 95.1059 63.1924 94.1394C63.1924 93.1729 63.5171 92.3352 64.199 91.6586C64.881 90.9821 65.7253 90.6277 66.7644 90.6277C67.8035 90.6277 68.6478 90.9499 69.3298 91.6264C70.0117 92.303 70.3364 93.1406 70.3364 94.1072C70.3364 95.1059 70.0117 95.9436 69.3298 96.6201ZM65.1083 95.8469C65.5304 96.3302 66.1149 96.5557 66.7644 96.5557C67.4139 96.5557 67.9984 96.3302 68.4205 95.8469C68.8427 95.3959 69.07 94.816 69.07 94.1394C69.07 93.4628 68.8427 92.9151 68.4205 92.4319C67.9984 91.9486 67.4139 91.7231 66.7644 91.7231C66.0825 91.7231 65.5304 91.9486 65.1083 92.4319C64.6861 92.8829 64.4588 93.4628 64.4588 94.1394C64.4588 94.816 64.6861 95.3959 65.1083 95.8469Z" fill="white"/>
<path d="M71.7976 97.5222V90.7565H72.9666V95.6858L76.4088 90.7565H77.5128V97.5222H76.3438V92.5929L72.9017 97.5222H71.7976ZM75.7268 89.8866C75.467 90.1444 75.1098 90.241 74.6877 90.241C74.2655 90.241 73.9408 90.1122 73.6486 89.8866C73.3888 89.6611 73.1939 89.3067 73.129 88.8879L73.8434 88.759C73.9733 89.2101 74.2331 89.4034 74.6552 89.4034C75.0449 89.4034 75.3372 89.1779 75.467 88.759L76.1814 88.8879C76.149 89.3067 75.9866 89.6289 75.7268 89.8866Z" fill="white"/>
<path d="M79.2988 97.5223V90.7566H80.5003V96.4591H83.1956V90.7566H84.3971V96.4591H87.0923V90.7566H88.2938V97.5223H79.2988Z" fill="white"/>
<path d="M95.7951 96.6201C95.1132 97.2967 94.2689 97.6511 93.2297 97.6511C92.1906 97.6511 91.3463 97.2967 90.6644 96.6201C89.9824 95.9436 89.6577 95.1059 89.6577 94.1394C89.6577 93.1729 89.9824 92.3352 90.6644 91.6586C91.3463 90.9821 92.1906 90.6277 93.2297 90.6277C94.2689 90.6277 95.1132 90.9499 95.7951 91.6264C96.477 92.303 96.8018 93.1406 96.8018 94.1072C96.8018 95.1059 96.477 95.9436 95.7951 96.6201ZM91.6061 95.8469C92.0282 96.3302 92.6127 96.5557 93.2622 96.5557C93.9117 96.5557 94.4962 96.3302 94.9183 95.8469C95.3405 95.3959 95.5678 94.816 95.5678 94.1394C95.5678 93.4628 95.3405 92.9151 94.9183 92.4319C94.4962 91.9486 93.9117 91.7231 93.2622 91.7231C92.5803 91.7231 92.0282 91.9486 91.6061 92.4319C91.1839 92.8829 90.9566 93.4628 90.9566 94.1394C90.9566 94.816 91.1515 95.3959 91.6061 95.8469Z" fill="white"/>
<path d="M98.2632 97.5223V90.7566H101.316C102.095 90.7566 102.68 90.9499 103.102 91.3687C103.394 91.6587 103.556 92.0453 103.556 92.4963C103.556 93.1729 103.232 93.6562 102.582 94.0106C103.491 94.3005 103.946 94.8804 103.946 95.6859C103.946 96.2658 103.719 96.749 103.264 97.0712C102.809 97.3934 102.192 97.5545 101.413 97.5545H98.2632V97.5223ZM99.4322 93.6239H101.056C101.446 93.6239 101.77 93.5595 101.998 93.3984C102.225 93.2373 102.355 93.0118 102.355 92.6896C102.355 92.4319 102.257 92.2064 102.03 92.0453C101.835 91.8842 101.543 91.8198 101.153 91.8198H99.4322V93.6239ZM99.4322 96.4913H101.413C101.835 96.4913 102.16 96.4269 102.387 96.2336C102.615 96.0725 102.744 95.847 102.744 95.5248C102.744 94.9126 102.29 94.6227 101.348 94.6227H99.4647V96.4913H99.4322Z" fill="white"/>
<path d="M24.8418 109.121V102.355H26.1082L28.1865 105.545L30.2648 102.355H31.5312V109.121H30.3622V104.256L28.219 107.445H28.154L26.0108 104.288V109.121H24.8418Z" fill="white"/>
<path d="M33.3821 109.121V102.355H34.5836V109.121H33.3821Z" fill="white"/>
<path d="M36.4021 109.121V102.355H37.6036V105.77L40.8509 102.355H42.3122L39.487 105.255L42.4421 109.121H40.9808L38.6427 106.06L37.5711 107.155V109.121H36.4021Z" fill="white"/>
<path d="M43.4487 109.121V102.355H46.144C46.9233 102.355 47.5728 102.548 48.0274 102.967C48.482 103.386 48.7418 103.934 48.7418 104.642C48.7418 105.383 48.482 105.931 47.9625 106.35C47.4429 106.769 46.7934 106.962 46.0141 106.962H44.6502V109.121H43.4487ZM44.6502 105.899H46.0466C46.5012 105.899 46.8584 105.77 47.1182 105.545C47.378 105.319 47.5078 105.029 47.5078 104.642C47.5078 104.256 47.378 103.966 47.1182 103.74C46.8584 103.515 46.5012 103.418 46.0466 103.418H44.6502V105.899Z" fill="white"/>
<path d="M55.7885 108.219C55.1066 108.895 54.2623 109.249 53.2231 109.249C52.184 109.249 51.3397 108.895 50.6578 108.219C49.9759 107.542 49.6511 106.704 49.6511 105.738C49.6511 104.771 49.9759 103.934 50.6578 103.257C51.3397 102.58 52.184 102.226 53.2231 102.226C54.2623 102.226 55.1066 102.548 55.7885 103.225C56.4704 103.901 56.7952 104.739 56.7952 105.706C56.7952 106.704 56.4704 107.542 55.7885 108.219ZM51.567 107.445C51.9892 107.929 52.5737 108.154 53.2231 108.154C53.8726 108.154 54.4571 107.929 54.8793 107.445C55.3014 106.994 55.5287 106.414 55.5287 105.738C55.5287 105.061 55.3014 104.514 54.8793 104.03C54.4571 103.547 53.8726 103.321 53.2231 103.321C52.5412 103.321 51.9892 103.547 51.567 104.03C51.1449 104.481 50.9176 105.061 50.9176 105.738C50.9176 106.414 51.1449 106.994 51.567 107.445Z" fill="white"/>
<path d="M58.2563 109.121V102.355H63.3546V103.418H59.4578V104.965H61.3413C62.0882 104.965 62.7051 105.158 63.1598 105.512C63.6144 105.867 63.8417 106.382 63.8417 107.027C63.8417 107.703 63.6144 108.219 63.1598 108.573C62.7051 108.927 62.0882 109.121 61.3088 109.121H58.2563ZM59.4254 108.057H61.0165C61.5686 108.057 61.9583 107.993 62.218 107.832C62.4778 107.671 62.6077 107.381 62.6077 106.994C62.6077 106.318 62.1531 105.996 61.2114 105.996H59.4254V108.057Z" fill="white"/>
<path d="M65.238 109.121V102.355H66.4395V109.121H65.238Z" fill="white"/>
<path d="M74.0707 108.219C73.3888 108.895 72.5445 109.249 71.5054 109.249C70.4662 109.249 69.6219 108.895 68.94 108.219C68.2581 107.542 67.9333 106.704 67.9333 105.738C67.9333 104.771 68.2581 103.934 68.94 103.257C69.6219 102.58 70.4662 102.226 71.5054 102.226C72.5445 102.226 73.3888 102.548 74.0707 103.225C74.7527 103.901 75.0774 104.739 75.0774 105.706C75.0774 106.704 74.7527 107.542 74.0707 108.219ZM69.8493 107.445C70.2714 107.929 70.8559 108.154 71.5054 108.154C72.1548 108.154 72.7393 107.929 73.1615 107.445C73.5836 106.994 73.8109 106.414 73.8109 105.738C73.8109 105.061 73.5836 104.514 73.1615 104.03C72.7393 103.547 72.1548 103.321 71.5054 103.321C70.8234 103.321 70.2714 103.547 69.8493 104.03C69.4271 104.481 69.1998 105.061 69.1998 105.738C69.1998 106.414 69.4271 106.994 69.8493 107.445Z" fill="white"/>
<path d="M76.149 109.217C75.8567 109.217 75.5969 109.185 75.3372 109.121L75.467 108.154C75.5969 108.186 75.7268 108.219 75.8567 108.219C76.0191 108.219 76.149 108.186 76.2464 108.154C76.3438 108.122 76.4737 107.993 76.6036 107.8C76.7335 107.606 76.8309 107.381 76.8959 107.059C76.9608 106.737 77.0257 106.318 77.0907 105.738C77.1556 105.19 77.1556 104.514 77.1556 103.708V102.387H81.8317V109.153H80.6302V103.45H78.2597V104.063C78.2597 105.126 78.2272 105.996 78.1298 106.672C78.0324 107.349 77.9025 107.896 77.7077 108.251C77.5128 108.605 77.2855 108.863 77.0582 108.992C76.8309 109.121 76.5062 109.217 76.149 109.217Z" fill="white"/>
<path d="M89.3979 108.219C88.716 108.895 87.8717 109.249 86.8325 109.249C85.7934 109.249 84.9491 108.895 84.2672 108.219C83.5852 107.542 83.2605 106.704 83.2605 105.738C83.2605 104.771 83.5852 103.934 84.2672 103.257C84.9491 102.58 85.7934 102.226 86.8325 102.226C87.8717 102.226 88.716 102.548 89.3979 103.225C90.0798 103.901 90.4045 104.739 90.4045 105.706C90.437 106.704 90.0798 107.542 89.3979 108.219ZM85.2089 107.445C85.631 107.929 86.2155 108.154 86.865 108.154C87.5145 108.154 88.099 107.929 88.5211 107.445C88.9433 106.994 89.1706 106.414 89.1706 105.738C89.1706 105.061 88.9433 104.514 88.5211 104.03C88.099 103.547 87.5145 103.321 86.865 103.321C86.1831 103.321 85.631 103.547 85.2089 104.03C84.7867 104.481 84.5594 105.061 84.5594 105.738C84.5594 106.414 84.7543 106.994 85.2089 107.445Z" fill="white"/>
<path d="M91.866 109.121V102.355H96.4447V103.418H93.035V109.121H91.866Z" fill="white"/>
<path d="M97.7437 109.121V102.355H98.9451V109.121H97.7437Z" fill="white"/>
<path d="M104.758 109.121V106.447C104.011 106.833 103.394 107.027 102.809 107.027C102.127 107.027 101.575 106.833 101.153 106.479C100.763 106.124 100.536 105.577 100.536 104.868V102.355H101.738V104.546C101.738 104.965 101.835 105.319 102.062 105.544C102.29 105.77 102.582 105.899 103.004 105.899C103.621 105.899 104.206 105.738 104.725 105.351V102.323H105.927V109.088H104.758V109.121Z" fill="white"/>
<path d="M107.713 109.121V102.355H108.914V105.158H112.161V102.355H113.363V109.121H112.161V106.286H108.914V109.121H107.713Z" fill="white"/>
<path d="M115.116 109.121V102.355H116.285V107.284L119.728 102.355H120.832V109.121H119.663V104.191L116.221 109.121H115.116Z" fill="white"/>
<path d="M122.618 109.121V102.355H123.787V107.284L127.229 102.355H128.333V109.121H127.164V104.191L123.722 109.121H122.618ZM126.547 101.485C126.287 101.743 125.93 101.839 125.508 101.839C125.086 101.839 124.761 101.711 124.469 101.485C124.209 101.26 124.014 100.905 123.949 100.486L124.664 100.357C124.794 100.808 125.053 101.002 125.476 101.002C125.865 101.002 126.157 100.776 126.287 100.357L127.002 100.486C127.002 100.905 126.839 101.227 126.547 101.485Z" fill="white"/>
<path d="M50.3655 120.719V113.953H51.567V117.368L54.8143 113.953H56.2756L53.4504 116.853L56.4054 120.719H54.9442L52.6061 117.658L51.5345 118.754V120.719H50.3655Z" fill="white"/>
<path d="M62.9325 119.817C62.2506 120.493 61.4063 120.848 60.3672 120.848C59.3281 120.848 58.4838 120.493 57.8018 119.817C57.1199 119.14 56.7952 118.302 56.7952 117.336C56.7952 116.369 57.1199 115.532 57.8018 114.855C58.4838 114.179 59.3281 113.824 60.3672 113.824C61.4063 113.824 62.2506 114.146 62.9325 114.823C63.6145 115.5 63.9392 116.337 63.9392 117.304C63.9717 118.302 63.6145 119.14 62.9325 119.817ZM58.7435 119.043C59.1657 119.527 59.7502 119.752 60.3997 119.752C61.0491 119.752 61.6336 119.527 62.0558 119.043C62.4779 118.592 62.7052 118.012 62.7052 117.336C62.7052 116.659 62.4779 116.112 62.0558 115.628C61.6336 115.145 61.0491 114.92 60.3997 114.92C59.7177 114.92 59.1657 115.145 58.7435 115.628C58.3214 116.079 58.0941 116.659 58.0941 117.336C58.0941 118.012 58.3214 118.592 58.7435 119.043Z" fill="white"/>
<path d="M65.4004 120.719V113.953H66.6019V116.756H69.8492V113.953H71.0507V120.719H69.8492V117.884H66.6019V120.719H65.4004Z" fill="white"/>
<path d="M74.4928 120.719V115.049H72.3171V113.953H77.8375V115.049H75.6618V120.719H74.4928Z" fill="white"/>
<path d="M79.1365 120.719V113.953H81.8317C82.6111 113.953 83.2605 114.146 83.7152 114.565C84.1698 114.984 84.4296 115.532 84.4296 116.241C84.4296 116.982 84.1698 117.529 83.6502 117.948C83.1306 118.367 82.4812 118.56 81.7018 118.56H80.338V120.719H79.1365ZM80.338 117.497H81.7343C82.1889 117.497 82.5461 117.368 82.8059 117.143C83.0657 116.917 83.1956 116.627 83.1956 116.241C83.1956 115.854 83.0657 115.564 82.8059 115.338C82.5461 115.113 82.1889 115.016 81.7343 115.016H80.338V117.497Z" fill="white"/>
<path d="M91.4438 119.817C90.7618 120.493 89.9176 120.848 88.8784 120.848C87.8393 120.848 86.995 120.493 86.3131 119.817C85.6311 119.14 85.3064 118.302 85.3064 117.336C85.3064 116.369 85.6311 115.532 86.3131 114.855C86.995 114.179 87.8393 113.824 88.8784 113.824C89.9176 113.824 90.7618 114.146 91.4438 114.823C92.1257 115.5 92.4504 116.337 92.4504 117.304C92.4829 118.302 92.1257 119.14 91.4438 119.817ZM87.2548 119.043C87.6769 119.527 88.2614 119.752 88.9109 119.752C89.5603 119.752 90.1449 119.527 90.567 119.043C90.9892 118.592 91.2165 118.012 91.2165 117.336C91.2165 116.659 90.9892 116.112 90.567 115.628C90.1449 115.145 89.5603 114.92 88.9109 114.92C88.229 114.92 87.6769 115.145 87.2548 115.628C86.8326 116.079 86.6053 116.659 86.6053 117.336C86.6053 118.012 86.8002 118.592 87.2548 119.043Z" fill="white"/>
<path d="M93.522 120.815C93.2298 120.815 92.97 120.783 92.7102 120.719L92.8401 119.752C92.97 119.784 93.0999 119.817 93.2298 119.817C93.3921 119.817 93.522 119.784 93.6194 119.752C93.7169 119.72 93.8468 119.591 93.9767 119.398C94.1065 119.205 94.204 118.979 94.2689 118.657C94.3339 118.335 94.3988 117.916 94.4637 117.336C94.5287 116.788 94.5287 116.112 94.5287 115.306V113.985H99.2048V120.751H98.0033V115.049H95.6328V115.661C95.6328 116.724 95.6003 117.594 95.5029 118.27C95.4055 118.947 95.2756 119.495 95.0807 119.849C94.8859 120.203 94.6586 120.461 94.4313 120.59C94.204 120.719 93.8792 120.815 93.522 120.815Z" fill="white"/>
<path d="M100.991 120.719V113.953H102.192V116.402H103.751C104.53 116.402 105.147 116.595 105.602 116.949C106.057 117.336 106.284 117.851 106.284 118.528C106.284 119.205 106.057 119.752 105.602 120.139C105.147 120.525 104.53 120.719 103.718 120.719H100.991ZM102.16 119.656H103.686C104.141 119.656 104.465 119.559 104.725 119.366C104.985 119.172 105.082 118.882 105.082 118.496C105.082 118.141 104.952 117.884 104.725 117.69C104.498 117.497 104.141 117.4 103.686 117.4H102.16V119.656Z" fill="white"/>
</g>
<defs>
<clipPath id="clip0_1132_3642">
<rect width="156" height="128" fill="white"/>
</clipPath>
</defs>
</svg>
