<svg width="122" height="122" viewBox="0 0 122 122" fill="none" xmlns="http://www.w3.org/2000/svg">
<g filter="url(#filter0_d_1120_2872)">
<circle cx="56.8426" cy="56.8426" r="52.8426" fill="url(#paint0_linear_1120_2872)"/>
</g>
<path d="M52.9096 33.222C54.8502 42.3749 57.4083 49.2173 57.4083 49.2173C57.4083 49.2173 59.8782 42.3749 61.9071 33.222C64.2005 22.0252 60.3193 18.915 57.3201 18.915C54.4092 18.915 50.5279 22.0252 52.9096 33.222Z" fill="#3EBDAC"/>
<path d="M61.8193 79.7859C59.8787 70.633 57.3205 63.7905 57.3205 63.7905C57.3205 63.7905 54.8506 70.633 52.8218 79.7859C50.44 90.9826 54.3213 94.0928 57.3205 94.0928C60.3197 94.0928 64.201 90.9826 61.8193 79.7859Z" fill="#3EBDAC"/>
<path d="M34.2975 60.9474C43.3833 58.9924 50.1755 56.4154 50.1755 56.4154C50.1755 56.4154 43.3833 53.9272 34.2975 51.8834C23.1829 49.4841 20.0955 53.394 20.0955 56.4154C20.0073 59.5256 23.1829 63.4356 34.2975 60.9474Z" fill="#3EBDAC"/>
<path d="M80.4327 51.9727C71.3469 53.9277 64.5547 56.5047 64.5547 56.5047C64.5547 56.5047 71.3469 58.9929 80.4327 61.0367C91.5473 63.436 94.6346 59.5261 94.6346 56.5047C94.6346 53.4834 91.5473 49.5734 80.4327 51.9727Z" fill="#3EBDAC"/>
<path d="M37.8264 43.2638C45.6771 48.329 52.2048 51.4392 52.2048 51.4392C52.2048 51.4392 49.1174 44.7745 44.0893 36.9545C37.9146 27.3573 32.9747 27.8905 30.8577 30.0232C28.8288 32.0671 28.2996 37.0434 37.8264 43.2638Z" fill="#3EBDAC"/>
<path d="M76.8159 69.7447C68.9651 64.6795 62.4375 61.5693 62.4375 61.5693C62.4375 61.5693 65.5249 68.2341 70.5529 76.054C76.7277 85.6512 81.6675 85.118 83.7846 82.9853C85.8135 80.9415 86.3427 75.9651 76.8159 69.7447Z" fill="#3EBDAC"/>
<path d="M44.1778 76.1424C49.2058 68.2336 52.2932 61.6577 52.2932 61.6577C52.2932 61.6577 45.6774 64.7679 37.9148 69.8331C28.388 76.0535 28.9172 81.0299 31.0343 83.1626C33.0632 85.2064 38.003 85.7396 44.1778 76.1424Z" fill="#3EBDAC"/>
<path d="M70.5529 36.8653C65.5249 44.7741 62.4375 51.35 62.4375 51.35C62.4375 51.35 69.0533 48.2398 76.8159 43.1746C86.3427 36.9542 85.8134 31.9779 83.6964 29.8452C81.6675 27.8013 76.7277 27.2681 70.5529 36.8653Z" fill="#3EBDAC"/>
<defs>
<filter id="filter0_d_1120_2872" x="0" y="0" width="121.685" height="121.685" filterUnits="userSpaceOnUse" color-interpolation-filters="sRGB">
<feFlood flood-opacity="0" result="BackgroundImageFix"/>
<feColorMatrix in="SourceAlpha" type="matrix" values="0 0 0 0 0 0 0 0 0 0 0 0 0 0 0 0 0 0 127 0" result="hardAlpha"/>
<feOffset dx="4" dy="4"/>
<feGaussianBlur stdDeviation="4"/>
<feComposite in2="hardAlpha" operator="out"/>
<feColorMatrix type="matrix" values="0 0 0 0 0 0 0 0 0 0 0 0 0 0 0 0 0 0 0.15 0"/>
<feBlend mode="normal" in2="BackgroundImageFix" result="effect1_dropShadow_1120_2872"/>
<feBlend mode="normal" in="SourceGraphic" in2="effect1_dropShadow_1120_2872" result="shape"/>
</filter>
<linearGradient id="paint0_linear_1120_2872" x1="32.2891" y1="56.6807" x2="68.2891" y2="77.6807" gradientUnits="userSpaceOnUse">
<stop stop-color="#EDEEF1"/>
<stop offset="0.7375" stop-color="#C0C2C7"/>
</linearGradient>
</defs>
</svg>
