<svg width="122" height="122" viewBox="0 0 122 122" fill="none" xmlns="http://www.w3.org/2000/svg">
<g filter="url(#filter0_d_1120_2857)">
<circle cx="56.8426" cy="56.8426" r="52.8426" fill="url(#paint0_linear_1120_2857)"/>
</g>
<path d="M66.9872 83.383C66.9872 83.383 59.7539 39.929 14.3252 30.3318C14.3252 30.3318 38.4068 38.9515 50.3153 83.383H66.9872Z" fill="#3EBDAC"/>
<path d="M50.3154 83.3833L44.317 73.4306L47.6691 74.8525L42.2882 67.0325L45.2874 68.4543L39.4654 60.9898L42.9939 62.8559L37.8776 56.9021L40.3475 57.5242L34.8785 52.0147L37.8776 53.3476L32.0557 47.5715L35.2313 49.0822L28.9683 43.5727L31.35 44.017L25.1752 39.1295L27.7334 40.107L20.4119 34.6864L23.2346 35.6639L15.9131 31.665L18.383 32.2871L37.172 42.4175L45.8166 54.3251C45.8166 54.3251 48.2865 58.8571 48.5512 59.3014C48.8158 59.7457 51.815 66.2327 51.9032 66.4993" fill="#3EBDAC"/>
<path d="M66.9871 83.3833L67.34 70.4982L64.6936 75.2079L62.4884 61.7896L62.1355 68.8098L58.5189 56.9022V61.8785L54.7258 52.3701L54.814 56.1913L51.0209 48.549L51.2856 51.7481L46.875 44.6391L47.3161 47.5715L42.9055 41.1734L43.3466 43.9282L38.0539 37.8855L39.2889 40.9068L33.8198 35.9305L35.2312 38.3298L30.2913 34.4198L31.7027 36.3748L24.5576 32.1982L26.2336 33.8866" fill="#3EBDAC"/>
<path d="M58.6074 80.5393C58.6074 80.5393 67.2521 55.3911 95.3032 54.2358C95.3032 54.2358 80.1309 56.9017 68.5753 82.2277L58.6074 80.5393Z" fill="#3EBDAC"/>
<path d="M68.5752 82.2272L73.1622 76.8954L71.0451 77.4286L75.0146 73.3409L73.074 73.7852L77.3081 69.8753L75.0146 70.5862L78.6313 67.5648L77.1317 67.7426L80.9247 64.9878L78.9841 65.521L83.0418 62.6774L81.013 63.2105L85.3353 60.5447H83.8357L88.0698 58.2342L86.3938 58.6785L91.2454 56.1904L89.4812 56.457L94.2446 54.8574L92.745 54.9463L80.5719 59.1228L74.2207 65.3433C74.2207 65.3433 72.2801 67.8314 72.1036 68.0091C71.9272 68.2757 69.4573 71.8303 69.3691 71.9191" fill="#3EBDAC"/>
<path d="M58.6074 80.5388L59.666 72.8077L60.8127 75.9179L63.459 68.098L63.018 72.3634L66.37 65.6098L65.8407 68.5423L69.0163 63.2994L68.5753 65.521L71.6627 61.3444L71.1334 63.2105L74.4854 59.3894L73.9561 61.1667L77.22 57.7899L76.6907 59.3894L80.3955 56.3681L79.337 58.0565L83.1301 55.5683L82.0716 56.9012L85.4236 55.0351L84.365 56.0126L89.0402 54.3242L87.8935 55.124" fill="#3EBDAC"/>
<path d="M54.7241 73.6091C54.7241 73.6091 53.7538 40.5521 85.6862 26.7783C85.6862 26.7783 69.279 36.6421 66.9855 71.121L54.7241 73.6091Z" fill="#3EBDAC"/>
<path d="M66.8975 71.1205L69.8085 62.8563L67.6032 64.4558L70.4259 57.8799L68.3971 59.3906L71.6609 52.9925L69.3674 54.8586L72.2784 49.7045L70.5142 50.682L73.6898 45.7946L71.6609 47.2164L75.1011 42.0623L72.9841 43.6619L76.7771 38.6855L75.1011 39.3964L78.9824 34.8644L77.3064 35.9308L81.8934 30.8656L79.8645 32.0208L84.7161 28.022L83.0401 28.8217L70.6906 39.041L66.1036 49.0825C66.1036 49.0825 64.9569 52.8148 64.8687 53.1702C64.7804 53.5257 63.5455 58.7686 63.4573 58.9463" fill="#3EBDAC"/>
<path d="M54.7241 73.6093L52.5188 64.1898L55.1651 67.3L54.8123 57.0807L56.1355 62.1459L57.0176 52.9042L57.8115 56.5476L59.1346 48.9942L59.6639 51.8378L61.3399 45.6174L61.6045 48.0167L63.8098 42.0629L63.898 44.3733L66.1915 39.0416L66.3679 41.0854L69.2789 35.9313L68.8378 38.3307L72.1017 33.7986L71.4842 35.7536L74.5716 32.1102L73.7777 33.7986L78.4529 29.7109L77.3943 31.1327" fill="#3EBDAC"/>
<path d="M59.6655 90.1372C65.0731 90.1372 69.4569 85.7211 69.4569 80.2735C69.4569 74.8258 65.0731 70.4097 59.6655 70.4097C54.2578 70.4097 49.874 74.8258 49.874 80.2735C49.874 85.7211 54.2578 90.1372 59.6655 90.1372Z" fill="#3EBDAC"/>
<defs>
<filter id="filter0_d_1120_2857" x="0" y="0" width="121.685" height="121.685" filterUnits="userSpaceOnUse" color-interpolation-filters="sRGB">
<feFlood flood-opacity="0" result="BackgroundImageFix"/>
<feColorMatrix in="SourceAlpha" type="matrix" values="0 0 0 0 0 0 0 0 0 0 0 0 0 0 0 0 0 0 127 0" result="hardAlpha"/>
<feOffset dx="4" dy="4"/>
<feGaussianBlur stdDeviation="4"/>
<feComposite in2="hardAlpha" operator="out"/>
<feColorMatrix type="matrix" values="0 0 0 0 0 0 0 0 0 0 0 0 0 0 0 0 0 0 0.15 0"/>
<feBlend mode="normal" in2="BackgroundImageFix" result="effect1_dropShadow_1120_2857"/>
<feBlend mode="normal" in="SourceGraphic" in2="effect1_dropShadow_1120_2857" result="shape"/>
</filter>
<linearGradient id="paint0_linear_1120_2857" x1="32.2891" y1="56.6807" x2="68.2891" y2="77.6807" gradientUnits="userSpaceOnUse">
<stop stop-color="#EDEEF1"/>
<stop offset="0.7375" stop-color="#C0C2C7"/>
</linearGradient>
</defs>
</svg>
