<svg width="122" height="122" viewBox="0 0 122 122" fill="none" xmlns="http://www.w3.org/2000/svg">
<g filter="url(#filter0_d_1120_2882)">
<circle cx="56.8426" cy="56.8426" r="52.8426" fill="url(#paint0_linear_1120_2882)"/>
</g>
<g clip-path="url(#clip0_1120_2882)">
<path d="M40 36.6807H57.4788C61.8061 36.6807 65.2 37.9096 67.3212 40.1041C69.0182 41.8597 69.8667 44.0542 69.8667 46.8631C69.8667 51.2521 67.5758 53.7099 64.9455 55.29C69.2727 57.0456 71.9879 59.5912 71.9879 64.9457C71.9879 72.0559 66.3879 75.6548 57.903 75.6548H40V36.6807ZM55.697 52.3932C59.3455 52.3932 61.6364 51.1643 61.6364 48.1798C61.6364 45.6342 59.6848 44.1419 56.2061 44.1419H48.0606V52.3932H55.697ZM57.903 68.1058C61.5515 68.1058 63.7576 66.7891 63.7576 63.8046C63.7576 61.1712 61.8909 59.5912 57.6485 59.5912H48.0606V68.1936H57.903V68.1058Z" fill="#3EBDAC"/>
<path d="M71.9883 85.5739L73.7701 83.3794C74.7883 84.345 75.8065 84.8716 76.9095 84.8716C78.2671 84.8716 79.1156 84.1694 79.1156 82.9405C79.1156 81.7994 78.1822 81.0971 76.7398 81.0971C75.8913 81.0971 75.1277 81.3605 74.5337 81.6238L72.8368 80.4827L73.1762 73.7236H81.3216V76.357H75.6368L75.4671 78.7271C75.9762 78.5515 76.4853 78.4637 77.2489 78.4637C79.7943 78.4637 81.9156 79.7804 81.9156 82.9405C81.9156 85.8372 79.8792 87.6806 76.8246 87.6806C74.7883 87.6806 73.261 86.8906 71.9883 85.5739Z" fill="#3EBDAC"/>
</g>
<defs>
<filter id="filter0_d_1120_2882" x="0" y="0" width="121.685" height="121.685" filterUnits="userSpaceOnUse" color-interpolation-filters="sRGB">
<feFlood flood-opacity="0" result="BackgroundImageFix"/>
<feColorMatrix in="SourceAlpha" type="matrix" values="0 0 0 0 0 0 0 0 0 0 0 0 0 0 0 0 0 0 127 0" result="hardAlpha"/>
<feOffset dx="4" dy="4"/>
<feGaussianBlur stdDeviation="4"/>
<feComposite in2="hardAlpha" operator="out"/>
<feColorMatrix type="matrix" values="0 0 0 0 0 0 0 0 0 0 0 0 0 0 0 0 0 0 0.15 0"/>
<feBlend mode="normal" in2="BackgroundImageFix" result="effect1_dropShadow_1120_2882"/>
<feBlend mode="normal" in="SourceGraphic" in2="effect1_dropShadow_1120_2882" result="shape"/>
</filter>
<linearGradient id="paint0_linear_1120_2882" x1="32.2891" y1="56.6807" x2="68.2891" y2="77.6807" gradientUnits="userSpaceOnUse">
<stop stop-color="#EDEEF1"/>
<stop offset="0.7375" stop-color="#C0C2C7"/>
</linearGradient>
<clipPath id="clip0_1120_2882">
<rect width="42" height="51" fill="white" transform="translate(40 36.6807)"/>
</clipPath>
</defs>
</svg>
