<svg width="91" height="86" viewBox="0 0 91 86" fill="none" xmlns="http://www.w3.org/2000/svg">
<g clip-path="url(#clip0_1182_407)">
<path d="M67.9538 63.7266L67.9341 63.965L67.9045 64.1859L67.8651 64.4119L67.8158 64.6428L67.7567 64.8761L67.6878 65.1145L67.6114 65.3553L67.5252 65.5986L67.4291 65.8445L67.3257 66.0927L67.2148 66.3435L67.0941 66.5967L66.966 66.85L66.8305 67.1057L66.6877 67.3615L66.5399 67.6197L66.3847 67.8754L66.2246 68.1311L66.0521 68.3918L65.8822 68.65L65.7024 68.9058L65.5225 69.1615L65.3353 69.4147L65.1481 69.6705L64.9535 69.9212L64.7589 70.172L64.5594 70.4178L64.3599 70.6661L64.1579 70.9069L63.9535 71.1502L63.749 71.3886L63.5446 71.6269L63.3401 71.8579L63.1332 72.0888L62.9287 72.3122L62.7243 72.5357L62.5223 72.7517L62.3203 72.9677L62.1208 73.1762L61.9213 73.3848L61.7291 73.5834L61.5345 73.782L61.3473 73.9732L61.1626 74.1594L60.9828 74.3407L60.8054 74.517L60.633 74.6883L60.4704 74.8496L60.2906 75.021L60.1157 75.1898L59.9384 75.3537L59.761 75.5175L59.5812 75.6739L59.4038 75.8304L59.0393 76.1357L58.6747 76.4287L58.3052 76.7118L57.9333 76.9824L57.5588 77.2431L57.1795 77.4939L56.7977 77.7322L56.4134 77.9606L56.0267 78.1791L55.6375 78.3877L55.2459 78.5863L54.8493 78.775L54.4502 78.9538L54.0512 79.1201L53.6472 79.279L53.2408 79.428L52.8343 79.5645L52.423 79.6936L52.0116 79.8128L51.5978 79.9221L51.1815 80.0214L50.7627 80.1108L50.344 80.1927L49.9228 80.2647L49.4991 80.3268L49.0754 80.3789L48.6493 80.4236L48.2231 80.4583L47.7945 80.4832L47.3659 80.5006L46.9348 80.508H46.5038L46.0727 80.4981L45.6392 80.4807L45.2056 80.4534L44.7721 80.4161L44.3386 80.3714L43.905 80.3193L43.4715 80.2572L43.0355 80.1877L42.602 80.1083L42.1684 80.0214L41.7324 79.927L41.2989 79.8227L40.8654 79.711L40.4318 79.5918L40.0008 79.4652L39.5697 79.3287L39.1386 79.1847L38.71 79.0332L38.2814 78.8743L37.8528 78.708L37.4267 78.5342L37.0005 78.3504L36.5769 78.1592L36.1556 77.9631L35.7344 77.757L35.3157 77.546L34.8994 77.325L34.4855 77.0966L34.0742 76.8632L33.6653 76.6224L33.2564 76.3716L33.0569 76.245L32.8549 76.1184L32.6529 75.9868L32.4534 75.8552L32.2538 75.7211L32.0543 75.587L31.8548 75.448L31.6577 75.309L31.4607 75.1674L31.2636 75.0259L31.069 74.8819L30.8744 74.7379L30.6798 74.589L30.4852 74.44L30.2931 74.2885L30.101 74.1371L29.9113 73.9831L29.7216 73.8292L29.5319 73.6703L29.3423 73.5114L29.1551 73.35L28.9679 73.1886L28.7831 73.0248L28.5984 72.8609L28.4161 72.6921L28.2338 72.5257L28.054 72.3544L27.8742 72.1831L27.6944 72.0093L27.5145 71.8355L27.3372 71.6592L27.1598 71.4829L26.9849 71.3042L26.81 71.1254L26.6376 70.9417L26.4652 70.758L26.2952 70.5717L26.1253 70.3855L25.9578 70.1968L25.7903 70.0081L25.6252 69.817L25.4602 69.6258L25.2951 69.4321L25.1326 69.2385L24.9725 69.0423L24.8123 68.8462L24.6547 68.6451L24.4971 68.444L24.3419 68.2404L24.1867 68.0368L24.034 67.8307L23.8812 67.6246L23.731 67.4161L23.5807 67.2075L23.4329 66.9965L23.2851 66.7854L23.1398 66.5719L22.9945 66.3584L22.8516 66.1424L22.7063 65.9189C22.4008 65.4546 21.7776 65.3255 21.317 65.6359C20.8564 65.9438 20.7283 66.5719 21.0362 67.0362L21.1815 67.2597L21.3318 67.4881L21.4845 67.714L21.6372 67.94L21.7949 68.1634L21.95 68.3869L22.1102 68.6078L22.2703 68.8288L22.4328 69.0473L22.5954 69.2658L22.7605 69.4793L22.9255 69.6928L23.093 69.9039L23.2605 70.1149L23.4305 70.3235L23.6004 70.532L23.7729 70.7381L23.9453 70.9442L24.1202 71.1453L24.2951 71.3489L24.4724 71.5475L24.6498 71.7461L24.8296 71.9423L25.0094 72.1384L25.1917 72.3321L25.374 72.5257L25.5587 72.7169L25.7435 72.9081L25.9307 73.0943L26.1179 73.2805L26.3075 73.4642L26.4972 73.648L26.6893 73.8292L26.8815 74.0105L27.0761 74.1892L27.2707 74.3655L27.4653 74.5393L27.6623 74.7131L27.8594 74.8844L28.0589 75.0557L28.2584 75.2221L28.458 75.3884L28.66 75.5523L28.8619 75.7162L29.0664 75.8775L29.2708 76.0389L29.4753 76.1953L29.6797 76.3518L29.8867 76.5057L30.0936 76.6596L30.3029 76.8086L30.5123 76.9576L30.7242 77.104L30.9335 77.2505L31.1454 77.3921L31.3572 77.5361L31.5715 77.6751L31.7858 77.8141L32.0026 77.9507L32.2194 78.0873L32.6504 78.3504L33.0864 78.6062L33.5249 78.8544L33.9658 79.0953L34.4116 79.3287L34.8575 79.5546L35.3058 79.7731L35.7566 79.9841L36.2098 80.1852L36.6655 80.3789L37.1237 80.5651L37.5819 80.7414L38.0425 80.9102L38.5056 81.0716L38.9687 81.2231L39.4342 81.3671L39.8998 81.5036L40.3653 81.6302L40.8334 81.7494L41.3038 81.8587L41.7743 81.9604L42.2448 82.0523L42.7153 82.1367L43.1858 82.2112L43.6562 82.2758L44.1292 82.3329L44.6021 82.38L45.0726 82.4173L45.5456 82.4446L46.016 82.462L46.4865 82.4719H46.957L47.4275 82.462L47.898 82.4421L48.3685 82.4123L48.8365 82.3726L49.302 82.3229L49.7676 82.2634L50.2307 82.1938L50.6938 82.1144L51.1569 82.025L51.615 81.9232L52.0732 81.8115L52.5289 81.6898L52.9821 81.5582L53.4329 81.4142L53.8812 81.2603L54.3271 81.0964L54.7704 80.9226L55.2114 80.7364L55.6498 80.5378L56.0858 80.3292L56.5194 80.1108L56.948 79.8798L57.3741 79.639L57.7953 79.3858L58.2141 79.1226L58.6279 78.847L59.0393 78.559L59.4457 78.261L59.8472 77.9532L60.2463 77.6329L60.6379 77.3027L60.835 77.1289L61.0296 76.9576L61.2217 76.7788L61.4138 76.6L61.6035 76.4163L61.7907 76.2351L61.9632 76.0637L62.138 75.89L62.3179 75.7112L62.5026 75.525L62.6923 75.3338L62.8869 75.1352L63.0839 74.9316L63.2835 74.7255L63.4879 74.512L63.6924 74.296L63.9017 74.0725L64.1111 73.8491L64.3229 73.6157L64.5373 73.3823L64.7515 73.1415L64.9659 72.9006L65.1802 72.6523L65.3945 72.4041L65.6063 72.1508L65.8206 71.8951L66.03 71.6344L66.2418 71.3712L66.4487 71.1056L66.6556 70.8374L66.8552 70.5668L67.0572 70.2937L67.2518 70.0181L67.4464 69.74L67.6311 69.4594L67.8134 69.1814L67.9932 68.8958L68.1656 68.6103L68.3307 68.3248L68.4908 68.0368L68.6435 67.7463L68.7888 67.4558L68.9268 67.1628L69.0573 66.8674L69.1805 66.5744L69.2963 66.2789L69.4022 65.981L69.4982 65.6831L69.5845 65.3851L69.6608 65.0847L69.7249 64.7843L69.7766 64.4839L69.816 64.181L69.8406 63.9004C69.885 63.374 69.4982 62.9098 68.9785 62.8651C68.4587 62.8104 67.9981 63.2002 67.9538 63.7266Z" fill="#673065"/>
<path d="M46.0185 81.5682L46.2156 81.4837L46.4324 81.377L46.6393 81.2603L46.8413 81.1337L47.0408 80.9971L47.2329 80.8531L47.4177 80.7017L47.6 80.5403L47.7748 80.3739L47.9423 80.2001L48.1049 80.0189L48.2601 79.8327L48.4104 79.6415L48.5557 79.4429L48.6912 79.2393L48.8217 79.0332L48.9449 78.8197L49.0607 78.6037L49.169 78.3827L49.27 78.1568L49.3636 77.9308L49.4499 77.6999L49.5262 77.4665L49.5927 77.2307L49.6518 76.9923L49.7011 76.7515L49.7405 76.5107L49.7701 76.2673L49.7898 76.0215L49.7972 75.7757L49.7947 75.5299L49.7799 75.2817L49.7528 75.0359L49.7134 74.7925L49.6592 74.5467L49.5927 74.3059L49.5114 74.0676L49.4154 73.8317L49.3045 73.6008L49.1789 73.3749L49.036 73.1539L48.8784 72.9428L48.706 72.7392L48.5163 72.5431L48.3143 72.3594L48.0975 72.1856L47.8635 72.0217L47.6271 71.8752L47.4448 71.7734L47.265 71.684L47.0827 71.6021L46.8979 71.5251L46.7107 71.4556L46.5211 71.3936L46.3314 71.3365L46.1368 71.2868L45.9422 71.2421L45.7476 71.2049L45.5505 71.1751L45.3387 71.1502L44.9569 71.1205L44.5554 71.118L44.1736 71.1403L43.9593 71.1627L43.7597 71.1924L43.5651 71.2297L43.3706 71.2719L43.176 71.3216L42.9887 71.3787L42.8139 71.4383L42.6464 71.5003L42.4862 71.5649L42.3311 71.6319L42.1783 71.7039L42.033 71.7784L41.8926 71.8554L41.7547 71.9373L41.6241 72.0217L41.4985 72.1086L41.3753 72.2005L41.2472 72.3048L41.0452 72.4885L40.8482 72.6995L40.6757 72.918L40.5255 73.1464L40.3974 73.3873L40.2964 73.6306L40.22 73.8789L40.1659 74.1346L40.1363 74.3854L40.1289 74.6312L40.1437 74.877L40.1782 75.1153L40.2299 75.3462L40.2989 75.5721L40.3826 75.7857L40.4811 75.9917L40.5945 76.1929L40.7201 76.3791L40.8556 76.5578L41.0058 76.7267L41.1659 76.8831L41.3359 77.0271L41.5182 77.1612L41.7079 77.2803L41.9074 77.3871L42.1192 77.479L42.3384 77.551L42.5651 77.6056L42.804 77.6403L43.0454 77.6503L43.2893 77.6379L43.5405 77.5981L43.7844 77.5311L44.0258 77.4392L44.2622 77.3176L44.4839 77.1711L44.6933 77.0023L44.8928 76.8061L45.0751 76.5926L45.2426 76.3592L45.3978 76.1035L45.521 75.8602C45.7722 75.3636 45.5752 74.7553 45.0825 74.5021C44.5899 74.2488 43.9864 74.4474 43.7351 74.944L43.644 75.1228L43.5701 75.2444L43.4962 75.3462L43.4272 75.4281L43.3656 75.4877L43.3065 75.5349L43.2523 75.5697L43.208 75.592L43.1636 75.6094L43.1193 75.6218L43.0799 75.6292L43.0355 75.6317L42.9863 75.6292L42.9395 75.6218L42.8828 75.6094L42.8237 75.5895L42.7646 75.5647L42.7005 75.5299L42.634 75.4902L42.5725 75.443L42.5084 75.3884L42.4468 75.3288L42.3902 75.2643L42.336 75.1948L42.2867 75.1203L42.2448 75.0483L42.2079 74.9713L42.1759 74.8943L42.1512 74.8199L42.134 74.7429L42.1217 74.6659L42.1168 74.5964L42.1192 74.5219L42.1266 74.4499L42.1389 74.3829L42.1611 74.3109L42.1906 74.2364L42.2276 74.1619L42.2793 74.0825L42.3434 73.998L42.4222 73.9136L42.5355 73.8093L42.5774 73.7746L42.639 73.7299L42.7055 73.6827L42.7794 73.6355L42.8557 73.5884L42.9395 73.5412L43.0306 73.494L43.1267 73.4493L43.2301 73.4046L43.341 73.36L43.4568 73.3153L43.5775 73.2731L43.6982 73.2358L43.8189 73.2035L43.942 73.1762L44.0676 73.1514L44.1957 73.1315L44.3115 73.1166L44.5948 73.0968H44.8633L45.1515 73.1166L45.2722 73.1315L45.4052 73.1514L45.5407 73.1762L45.6737 73.2035L45.8042 73.2358L45.9323 73.2731L46.0604 73.3153L46.1836 73.36L46.3043 73.4096L46.4225 73.4618L46.5358 73.5164L46.6393 73.5735L46.7969 73.6678L46.93 73.7597L47.0531 73.8565L47.1664 73.9583L47.2674 74.0601L47.361 74.1669L47.4448 74.2786L47.5187 74.3903L47.5852 74.5095L47.6443 74.6312L47.696 74.7553L47.7404 74.8869L47.7798 75.0234L47.8118 75.16L47.8364 75.304L47.8537 75.4505L47.8635 75.5995L47.866 75.7534L47.8611 75.9123L47.8487 76.0712L47.829 76.2351L47.8019 76.3989L47.7675 76.5628L47.7256 76.7291L47.6788 76.898L47.6246 77.0643L47.563 77.2307L47.4965 77.397L47.4251 77.5609L47.3462 77.7223L47.2625 77.8812L47.1738 78.0351L47.0777 78.189L46.9768 78.338L46.8733 78.482L46.7649 78.6211L46.6516 78.7551L46.5358 78.8842L46.4151 79.0084L46.2944 79.1251L46.1713 79.2343L46.0456 79.3386L45.9176 79.4354L45.7895 79.5223L45.6589 79.6018L45.5284 79.6738L45.4003 79.7383L45.2475 79.8029C44.7648 80.0114 44.5431 80.5726 44.7475 81.0567C44.9791 81.5508 45.5358 81.7742 46.0185 81.5682Z" fill="#673065"/>
<path d="M49.1567 81.4887L49.3217 81.7842L49.5188 82.0896L49.7282 82.3751L49.9499 82.6457L50.1863 82.899L50.4327 83.1348L50.6888 83.3558L50.9549 83.5619L51.2283 83.753L51.5066 83.9293L51.7924 84.0932L52.083 84.2446L52.3786 84.3837L52.6791 84.5128L52.9797 84.6295L53.2851 84.7362L53.593 84.8331L53.9009 84.9225L54.2088 85.0019L54.5167 85.0739L54.8246 85.1385L55.1301 85.198L55.4355 85.2527L55.7311 85.2998C56.278 85.3867 56.7903 85.0094 56.8765 84.4582C56.9627 83.907 56.5883 83.3905 56.0415 83.3036L55.7607 83.2614L55.4872 83.2143L55.2138 83.1621L54.9429 83.1075L54.6768 83.0479L54.4133 82.9809L54.1522 82.9114L53.896 82.8369L53.6447 82.7549L53.3984 82.668L53.1595 82.5737L52.9279 82.4719L52.7038 82.3627L52.4895 82.246L52.2801 82.1218L52.0806 81.9902L51.8909 81.8512L51.7086 81.6997L51.5362 81.5384L51.3761 81.3695L51.2234 81.1883L51.0805 80.9971L50.9475 80.7935L50.812 80.5502C50.5534 80.0909 49.9745 79.9295 49.5188 80.1902C49.0582 80.4459 48.898 81.0294 49.1567 81.4887Z" fill="#673065"/>
<path d="M46.3683 81.7668L46.3855 81.9853L46.4175 82.2236L46.4619 82.4521L46.5161 82.673L46.5826 82.889L46.6589 83.0951L46.7427 83.2937L46.8363 83.4874L46.9373 83.6711L47.0432 83.8449L47.1565 84.0137L47.2747 84.1751L47.3954 84.3291L47.5211 84.478L47.6467 84.6196L47.7748 84.7561L47.9053 84.8877L48.0384 85.0193L48.2945 85.2601L48.5532 85.4985L48.8118 85.7393C49.2207 86.1142 49.8562 86.0844 50.2282 85.6698C50.6001 85.2576 50.5706 84.6171 50.1592 84.2422L49.8932 84.0013L49.6345 83.7704L49.3907 83.547L49.2798 83.4452L49.1715 83.3434L49.068 83.2416L48.9695 83.1423L48.8808 83.0454L48.797 82.9486L48.7182 82.8518L48.6468 82.7574L48.5803 82.6606L48.5212 82.5638L48.467 82.4669L48.4202 82.3651L48.3783 82.2609L48.3438 82.1541L48.3142 82.0399L48.2896 81.9182L48.2724 81.7916L48.26 81.6278C48.2206 81.1014 47.7649 80.7066 47.2427 80.7464C46.7205 80.7811 46.3289 81.2404 46.3683 81.7668Z" fill="#673065"/>
<path d="M81.243 64.4789L81.4647 64.5062L81.6987 64.5335L81.9451 64.5633L82.1988 64.5931L82.4623 64.6254L82.7333 64.6601L83.0117 64.6974L83.2949 64.7371L83.5831 64.7793L83.8738 64.8265L84.1669 64.8761L84.46 64.9283L84.7606 64.9879L85.0537 65.045L85.3468 65.112L85.635 65.1766L85.9183 65.2511L86.204 65.328L86.4725 65.4075L86.7386 65.4944L86.9947 65.5837L87.2411 65.6781L87.4751 65.7774L87.6968 65.8817L87.9061 65.9884L88.0983 66.0977L88.2732 66.2094L88.4333 66.3236L88.5712 66.4378L88.6944 66.5545L88.8003 66.6687L88.884 66.778L88.953 66.8897L89.0097 66.999L89.0491 67.1057L89.0836 67.2448L89.0885 67.2795L89.0959 67.3391L89.0984 67.4037V67.4732L89.0959 67.5427L89.0885 67.6197L89.0762 67.7016L89.0589 67.786L89.0368 67.8779L89.0097 67.9747L88.9752 68.074L88.9333 68.1808L88.8865 68.2925L88.8323 68.4067L88.7707 68.5284L88.7018 68.655L88.6254 68.7841L88.5392 68.9207L88.4456 69.0597L88.3421 69.2037L88.2288 69.3527L88.1081 69.5066L87.98 69.663L87.8495 69.8145L87.7436 69.9262L87.6278 70.033L87.4874 70.1447L87.3297 70.2589L87.1524 70.3731L86.9553 70.4873L86.7435 70.6015L86.5169 70.7133L86.273 70.8225L86.0168 70.9293L85.7483 71.0336L85.465 71.1353L85.1719 71.2322L84.8714 71.324L84.5586 71.4134L84.2384 71.4978L83.9132 71.5773L83.5807 71.6518L83.2432 71.7213L82.9008 71.7858L82.5535 71.8454L82.2037 71.8976L81.8515 71.9447L81.4992 71.9869L81.147 72.0242L80.7947 72.054L80.4425 72.0763L80.0927 72.0937L79.7478 72.1036L79.4079 72.1086L79.0729 72.1061L78.7428 72.0987L78.4201 72.0838L78.1048 72.0614L77.7994 72.0341L77.5014 71.9994L77.2156 71.9572L76.9422 71.91L76.6811 71.8554L76.4323 71.7958L76.2008 71.7287L75.984 71.6567L75.7845 71.5798L75.6046 71.5003L75.4445 71.4159L75.3017 71.3315L75.1834 71.2496L75.075 71.1577L74.8977 70.9913L74.7154 70.8126L74.5356 70.6288L74.3607 70.4402L74.1907 70.249L74.0232 70.0528L73.8582 69.8517L73.6981 69.6481L73.5404 69.4396L73.3853 69.2261L73.2325 69.01L73.0847 68.7916L72.9369 68.5631L72.7916 68.3372L72.6512 68.1063L72.5108 67.8754L72.3753 67.6395L72.2398 67.4012L72.1093 67.1579L71.9763 66.9145L71.8482 66.6687L71.7201 66.4205L71.5969 66.1697L71.4713 65.9164L71.3506 65.6632L71.2274 65.4075L71.1092 65.1517L70.9885 64.8935L70.8703 64.6353L70.752 64.3746L70.6363 64.1139L70.5205 63.8532L70.4047 63.5925L70.2889 63.3293L70.1732 63.0687L70.0574 62.8055L69.9416 62.5448L69.8259 62.2841L69.7101 62.0234L69.5918 61.7577L69.4711 61.497L69.3554 61.2413L69.2396 60.9856L69.1164 60.7199L68.9908 60.4617L68.8701 60.2159L68.7494 59.9701L68.6238 59.7168L68.5055 59.4859L68.3922 59.2625L68.2789 59.039L68.1656 58.8156L68.0498 58.5896L67.9341 58.3637L67.8183 58.1378L67.7025 57.9118L67.5868 57.6859L67.471 57.46L67.3552 57.234L67.2394 57.0081L67.1212 56.7797L67.003 56.5512L66.8847 56.3228L66.769 56.0944L66.6507 55.866L66.5325 55.6376L66.4142 55.4091L66.296 55.1807L66.1778 54.9523L66.0595 54.7214L65.9413 54.4905L65.8231 54.2621L65.7073 54.0312L65.5891 53.8003L65.4708 53.5694L65.3526 53.3385L65.2343 53.1051L65.1161 52.8742L64.9979 52.6433L64.8821 52.4149L64.7688 52.184L64.653 51.9506L64.5372 51.7172L64.4215 51.4838L64.3057 51.2504L64.1899 51.017L64.0742 50.7836L63.9608 50.5552L63.85 50.3243L63.7367 50.0885L63.6234 49.8526L63.5101 49.6167L63.3968 49.3809L63.2835 49.145L63.1701 48.9091L63.0593 48.6782L62.9509 48.4448L62.8401 48.209L62.7292 47.9731L62.6208 47.7397L62.5149 47.5063L62.4065 47.268L62.2981 47.0296L62.1922 46.7962L62.0888 46.5628L61.9829 46.3245L61.8769 46.0861L61.7735 45.8528L61.6725 45.6169L61.569 45.3785L61.4656 45.1402L61.3646 44.9068L61.266 44.6734L61.1651 44.4326L61.0641 44.1918L60.9655 43.9584L60.8719 43.725L60.7759 43.4841L60.6798 43.2433L60.5862 43.0099L60.495 42.7765L60.4014 42.5357L60.3078 42.2949L60.2167 42.0615L60.1305 41.8281L60.0418 41.5873L59.9531 41.3464L59.8669 41.1131L59.7832 40.8797L59.697 40.6388L59.6107 40.398L59.5295 40.1646L59.4506 39.9312L59.3693 39.6904L59.2881 39.4496L59.2092 39.2162L59.1353 38.9828L59.059 38.742L58.9826 38.5011L58.9087 38.2702L58.8397 38.0368L58.7683 37.796L58.6969 37.5552L58.6254 37.3143C58.4678 36.7805 57.9111 36.4751 57.379 36.6316C56.8494 36.7905 56.5465 37.3516 56.7016 37.8854L56.7731 38.1262L56.8445 38.3671L56.9159 38.6079L56.9898 38.8587L57.0687 39.1094L57.145 39.3503L57.2214 39.5911L57.3002 39.8419L57.384 40.0926L57.4652 40.3334L57.5465 40.5743L57.6303 40.8226L57.719 41.0708L57.8052 41.3117L57.8914 41.5525L57.9801 41.8008L58.0737 42.0491L58.1623 42.2899L58.251 42.5307L58.3446 42.779L58.4407 43.0273L58.5343 43.2681L58.6279 43.509L58.724 43.7548L58.8225 44.0006L58.9186 44.2414L59.0146 44.4822L59.1132 44.728L59.2166 44.9738L59.3176 45.2147L59.4186 45.4555L59.5221 45.7013L59.628 45.9446L59.7314 46.183L59.8349 46.4213L59.9408 46.6646L60.0492 46.908L60.1551 47.1463L60.261 47.3847L60.3694 47.628L60.4803 47.8713L60.5887 48.1096L60.697 48.348L60.8079 48.5913L60.9212 48.8321L61.032 49.068L61.1429 49.3064L61.2562 49.5472L61.372 49.788L61.4853 50.0239L61.5986 50.2598L61.7119 50.4956L61.8252 50.7315L61.9385 50.9674L62.0518 51.2032L62.1676 51.4441L62.2858 51.6824L62.4016 51.9158L62.5174 52.1492L62.6332 52.3826L62.7489 52.616L62.8647 52.8494L62.9805 53.0827L63.0987 53.3211L63.2194 53.557L63.3376 53.7879L63.4559 54.0188L63.5741 54.2497L63.6924 54.4806L63.8106 54.7115L63.9288 54.9424L64.0471 55.1758L64.1653 55.4067L64.2835 55.6376L64.4018 55.8685L64.52 56.0994L64.6382 56.3303L64.7565 56.5587L64.8747 56.7871L64.993 57.0155L65.1112 57.2439L65.2294 57.4724L65.3477 57.7008L65.4659 57.9292L65.5817 58.1551L65.6999 58.3811L65.8181 58.607L65.9339 58.833L66.0497 59.0564L66.1655 59.2799L66.2812 59.5058L66.397 59.7293L66.5103 59.9527L66.6261 60.1762L66.7419 60.3996L66.8527 60.6156L66.9709 60.854L67.0916 61.0998L67.2123 61.3456L67.3281 61.5814L67.4414 61.8248L67.5597 62.0805L67.6779 62.3362L67.7937 62.5845L67.907 62.8377L68.0227 63.0984L68.1385 63.3591L68.2543 63.6174L68.3701 63.8781L68.4858 64.1412L68.6041 64.4044L68.7223 64.6701L68.8406 64.9357L68.9612 65.2014L69.082 65.4671L69.2027 65.7327L69.3283 65.9984L69.4539 66.2665L69.582 66.5322L69.7101 66.7979L69.8406 67.061L69.9737 67.3267L70.1091 67.5899L70.2471 67.8531L70.3899 68.1137L70.5328 68.3744L70.6806 68.6302L70.8284 68.8884L70.9836 69.1416L71.1388 69.3974L71.3013 69.6457L71.4615 69.8914L71.6314 70.1397L71.8038 70.383L71.9812 70.6239L72.161 70.8597L72.3458 71.0931L72.5354 71.324L72.73 71.55L72.9296 71.7734L73.134 71.9919L73.3434 72.2054L73.5601 72.4165L73.7892 72.63L74.006 72.8112L74.2499 72.9826L74.5036 73.134L74.7696 73.2706L75.048 73.3947L75.3362 73.504L75.6317 73.6008L75.9397 73.6877L76.2549 73.7647L76.5776 73.8317L76.9102 73.8888L77.2501 73.936L77.595 73.9757L77.9497 74.008L78.3093 74.0328L78.6739 74.0502L79.0434 74.0601H79.4178L79.7946 74.0551L80.174 74.0427L80.5558 74.0229L80.9376 73.9956L81.3219 73.9608L81.7061 73.9211L82.0904 73.8739L82.4722 73.8218L82.8515 73.7622L83.2284 73.6976L83.6028 73.6256L83.9723 73.5486L84.3393 73.4667L84.7014 73.3773L85.0561 73.283L85.4035 73.1837L85.7459 73.0794L86.0784 72.9677L86.4035 72.851L86.7213 72.7293L87.0268 72.6002L87.3223 72.4661L87.6081 72.3246L87.8815 72.1781L88.1451 72.0242L88.3963 71.8603L88.6328 71.689L88.857 71.5078L89.0688 71.3141L89.2535 71.118L89.426 70.9193L89.5812 70.7306L89.7265 70.5444L89.8644 70.3607L89.995 70.177L90.1181 69.9957L90.2314 69.8145L90.3398 69.6357L90.4384 69.4594L90.5295 69.2832L90.6133 69.1069L90.6872 68.9306L90.7537 68.7568L90.8128 68.5805L90.8645 68.4067L90.9088 68.2329L90.9433 68.0591L90.968 67.8878L90.9852 67.7165L90.9926 67.5427V67.3739L90.9827 67.205L90.963 67.0362L90.931 66.85L90.8571 66.557L90.7438 66.2516L90.6009 65.9686L90.4359 65.7029L90.2462 65.4546L90.0393 65.2287L89.8176 65.0177L89.5787 64.8215L89.3299 64.6428L89.0713 64.4764L88.8003 64.3225L88.522 64.181L88.2362 64.0469L87.9406 63.9227L87.6401 63.8085L87.3347 63.7018L87.0243 63.6025L86.7065 63.5081L86.3937 63.4237L86.0784 63.3393L85.7557 63.2673L85.4355 63.1953L85.1153 63.1332L84.8 63.0711L84.4822 63.014L84.1694 62.9619L83.8615 62.9147L83.5585 62.87L83.2629 62.8278L82.9747 62.7881L82.6939 62.7509L82.4229 62.7161L82.1643 62.6838L81.9155 62.654L81.6815 62.6267L81.4598 62.5994C80.9401 62.5373 80.4671 62.9097 80.4055 63.4361C80.3513 63.9401 80.7208 64.4168 81.243 64.4789Z" fill="#673065"/>
<path d="M29.8768 38.6228L29.7783 38.876L29.6797 39.1293L29.5812 39.3825L29.4827 39.6383L29.3842 39.894L29.2881 40.1472L29.192 40.4005L29.0935 40.6562L28.9974 40.9144L28.9014 41.1702L28.8053 41.4234L28.7092 41.6791L28.6156 41.9374L28.522 42.1931L28.4284 42.4488L28.3323 42.707L28.2387 42.9652L28.1451 43.221L28.0515 43.4767L27.9579 43.7349L27.8643 43.9931L27.7732 44.2489L27.6821 44.5046L27.5884 44.7628L27.4973 45.0235L27.4062 45.2792L27.315 45.5374L27.2239 45.7932L27.1327 46.0489L27.0416 46.3046L26.9505 46.5629L26.8593 46.8235L26.7706 47.0842L26.682 47.3425L26.5933 47.6007L26.5046 47.8589L26.4159 48.1171L26.3273 48.3753L26.2386 48.6335L26.1499 48.8942L26.0612 49.1549L25.975 49.4131L25.8888 49.6713L25.8026 49.9296L25.7164 50.1878L25.6302 50.446L25.5439 50.7042L25.4553 50.9649L25.3691 51.2256L25.2828 51.4838L25.1966 51.742L25.1104 52.0002L25.0242 52.2584L24.938 52.5167L24.8518 52.7749L24.7656 53.0356L24.6793 53.2963L24.5931 53.5545L24.5069 53.8127L24.4207 54.0709L24.3345 54.3291L24.2483 54.5873L24.1621 54.8455L24.0758 55.1062L24.0044 55.3669L23.9182 55.6252L23.8344 55.8834L23.7507 56.1416L23.6645 56.3998L23.5807 56.658L23.497 56.9162L23.4108 57.1744L23.3246 57.4327L23.2408 57.6909L23.1546 57.954L23.0684 58.2123L22.9822 58.4705L22.8959 58.7287L22.8097 58.9869L22.726 59.2451L22.6398 59.5033L22.5536 59.7615L22.4673 60.0198L22.3811 60.278L22.2949 60.5362L22.2087 60.7944L22.1225 61.0526L22.0363 61.3083L21.9501 61.5641L21.8638 61.8223L21.7776 62.0805L21.6914 62.3387L21.6052 62.5969L21.519 62.8551L21.4328 63.1133L21.3441 63.379L21.1988 63.8358L21.0608 64.315L20.9303 64.8017L20.8071 65.2933L20.7505 65.5465L20.6913 65.7948L20.6322 66.0456L20.5731 66.2938L20.514 66.5471L20.4549 66.8003L20.3957 67.0536L20.3366 67.2994L20.275 67.5452L20.211 67.7984L20.147 68.0517L20.0878 68.29L20.0164 68.5259L19.945 68.7767L19.8711 69.0274L19.8021 69.2633L19.7257 69.4942L19.6494 69.7251L19.5656 69.951L19.4843 70.1745L19.3957 70.393L19.307 70.6115L19.2134 70.825L19.1198 71.0336L19.0163 71.2347L18.9203 71.4234L18.6887 71.8206L18.5803 71.9894L18.4621 72.1632L18.3365 72.3321L18.2084 72.4959L18.0754 72.6499L17.9374 72.7988L17.7945 72.9428L17.6468 73.0794L17.4891 73.2085L17.329 73.3326L17.164 73.4493L16.994 73.5586L16.8043 73.6678L16.6048 73.7671L16.3856 73.864L16.1516 73.9533L15.9052 74.0353L15.6441 74.1123L15.3707 74.1818L15.085 74.2438L14.7869 74.2985L14.479 74.3456L14.1637 74.3854L13.8386 74.4152L13.506 74.44L13.1661 74.4549L12.8188 74.4623H12.4665L12.1094 74.4549L11.7473 74.44L11.3827 74.4176L11.0181 74.3878L10.6511 74.3506L10.2816 74.3059L9.9146 74.2538L9.54511 74.1942L9.17808 74.1296L8.81352 74.0576L8.45143 73.9782L8.09179 73.8913L7.73954 73.7994L7.38976 73.7001L7.04737 73.5958L6.71237 73.4841L6.38475 73.3674L6.06453 73.2457L5.75416 73.1166L5.45118 72.9826L5.15805 72.8435L4.87971 72.702L4.61121 72.5555L4.35503 72.4041L4.10871 72.2501L3.87963 72.0912L3.66532 71.9298L3.46826 71.7685L3.28598 71.6046L3.12094 71.4383L2.97561 71.2744L2.83767 71.0981L2.74407 70.9715L2.65292 70.8374L2.56671 70.7058L2.48789 70.5767L2.41645 70.4526L2.34994 70.3309L2.29083 70.2142L2.2391 70.1025L2.1923 69.9908L2.15042 69.884L2.11594 69.7822L2.08638 69.6829L2.05928 69.5861L2.03957 69.4942L2.02233 69.4048L2.01002 69.3179L2.00263 69.236L1.9977 69.1565L1.99524 69.0796L1.9977 69.0076L2.00263 68.9331L2.01002 68.8611L2.01987 68.794L2.02972 68.7469L2.0716 68.5929L2.1184 68.4663L2.17998 68.3397L2.25388 68.2131L2.34009 68.0889L2.44108 67.9623L2.55439 67.8382L2.68248 67.7165L2.82535 67.5948L2.98054 67.4757L3.14804 67.3615L3.33032 67.2497L3.52245 67.1405L3.72444 67.0387L3.93628 66.9394L4.15797 66.845L4.38706 66.7581L4.62353 66.6762L4.86493 66.5992L5.11125 66.5297L5.3625 66.4652L5.61622 66.4081L5.8724 66.3584L6.13104 66.3137L6.38968 66.2765L6.64586 66.2442L6.90204 66.2194L7.15575 66.1995L7.40454 66.1871L7.65087 66.1821H7.89227L8.12628 66.1896L8.35289 66.202L8.57212 66.2218L8.7815 66.2467L8.9958 66.2789C9.54265 66.3609 10.0525 65.9835 10.1363 65.4298C10.22 64.8762 9.84316 64.3647 9.29386 64.2803L9.04507 64.243L8.77165 64.2108L8.4933 64.1884L8.21003 64.1735L7.91936 64.1661H7.62623L7.33064 64.1735L7.03013 64.1884L6.72715 64.2108L6.42417 64.2405L6.11872 64.2778L5.81328 64.3225L5.50784 64.3746L5.20239 64.4342L4.89695 64.5037L4.59397 64.5807L4.29345 64.6651L3.99786 64.7595L3.70473 64.8613L3.41407 64.973L3.1308 65.0922L2.85245 65.2213L2.57903 65.3603L2.31546 65.5093L2.06913 65.6707L1.82034 65.842L1.58141 66.0232L1.35479 66.2169L1.13802 66.4254L0.936037 66.6464L0.748829 66.8798L0.576401 67.1306L0.42368 67.3937L0.290664 67.6718L0.179818 67.9673L0.100993 68.2503L0.0640446 68.4266L0.0394121 68.5855L0.0221693 68.7444L0.00985302 68.9058L0 69.0721L0.00246325 69.236L0.0123163 69.4023L0.029559 69.5712L0.0541916 69.7375L0.0862139 69.9063L0.125626 70.0777L0.169965 70.2465L0.221693 70.4153L0.280811 70.5866L0.347319 70.758L0.421216 70.9293L0.502504 71.1006L0.588718 71.2719L0.682321 71.4432L0.783315 71.617L0.889235 71.7908L1.00254 71.9646L1.12324 72.1409L1.25872 72.3271L1.45578 72.5779L1.67994 72.8286L1.91887 73.067L2.17013 73.2954L2.43862 73.5164L2.71697 73.7274L3.00763 73.9285L3.31061 74.1222L3.62345 74.3059L3.94613 74.4822L4.27867 74.651L4.62107 74.8124L4.97085 74.9663L5.33048 75.1128L5.69504 75.2519L6.06699 75.3835L6.44634 75.5076L6.8306 75.6243L7.21733 75.7335L7.61146 75.8353L8.00804 75.9297L8.40709 76.0166L8.81106 76.096L9.21503 76.168L9.61901 76.2326L10.0254 76.2897L10.4319 76.3369L10.8383 76.3766L11.2448 76.4089L11.6487 76.4312L12.0502 76.4461L12.4493 76.4535L12.8434 76.4511L13.2351 76.4411L13.6218 76.4213L14.0036 76.394L14.3805 76.3567L14.7524 76.3095L15.117 76.2524L15.4742 76.1854L15.8239 76.1084L16.1639 76.0215L16.4964 75.9222L16.8216 75.8105L17.1344 75.6888L17.4374 75.5548L17.733 75.4058L18.0113 75.2444L18.2601 75.083L18.4966 74.9142L18.7232 74.7379L18.94 74.5542L19.1493 74.3605L19.3464 74.1619L19.5361 73.9558L19.7184 73.7423L19.8908 73.5238L20.0534 73.3004L20.211 73.0719L20.3662 72.8286L20.6298 72.3743L20.7603 72.121L20.8835 71.8777L20.9968 71.6269L21.1076 71.3787L21.2086 71.1254L21.3096 70.8722L21.4032 70.614L21.4968 70.3582L21.5806 70.0975L21.6668 69.8343L21.7431 69.5662L21.8146 69.3154L21.886 69.0647L21.9624 68.7965L22.0313 68.5259L22.0954 68.2727L22.1594 68.0194L22.2259 67.7587L22.2875 67.498L22.3466 67.2448L22.4058 66.9915L22.4649 66.7383L22.524 66.4875L22.5807 66.2417L22.6373 65.9984L22.694 65.76L22.8122 65.2883L22.9329 64.8339L23.0585 64.4019L23.194 63.9799L23.2778 63.7291L23.364 63.4709L23.4502 63.2127L23.5364 62.9544L23.6226 62.6962L23.7088 62.438L23.795 62.1798L23.8812 61.9191L23.9675 61.6584L24.0512 61.4002L24.135 61.142L24.2187 60.8838L24.3049 60.6256L24.3887 60.3673L24.4724 60.1091L24.5586 59.8484L24.6424 59.5877L24.7261 59.3295L24.8099 59.0713L24.8936 58.8131L24.9774 58.5549L25.0611 58.2967L25.1449 58.0385L25.2286 57.7802L25.3124 57.522L25.3962 57.2638L25.4799 57.0056L25.5637 56.7474L25.6474 56.4892L25.7312 56.231L25.8149 55.9727L25.8987 55.7145L25.9849 55.4563L26.0686 55.1981L26.1524 54.9399L26.2361 54.6817L26.3223 54.4235L26.4061 54.1653L26.4898 53.907L26.5736 53.6488L26.6598 53.3906L26.746 53.1324L26.8322 52.8742L26.9184 52.616L27.0047 52.3578L27.0909 52.0995L27.1771 51.8413L27.2633 51.5856L27.3495 51.3299L27.4357 51.0717L27.5219 50.8134L27.6082 50.5552L27.6944 50.297L27.7806 50.0388L27.8668 49.7806L27.953 49.5249L28.0392 49.2691L28.1279 49.0109L28.2166 48.7527L28.3053 48.4945L28.3939 48.2363L28.4826 47.9781L28.5713 47.7198L28.6575 47.4666L28.7462 47.2134L28.8349 46.9576L28.926 46.6994L29.0147 46.4437L29.1058 46.1879L29.1945 45.9297L29.2856 45.6715L29.3743 45.4183L29.4654 45.165L29.5566 44.9093L29.6477 44.6536L29.7389 44.4003L29.83 44.1471L29.9236 43.8913L30.0172 43.6356L30.1084 43.3824L30.202 43.1291L30.2956 42.8734L30.3892 42.6176L30.4828 42.3644L30.5764 42.1112L30.6724 41.8554L30.7685 41.6022L30.8621 41.3489L30.9582 41.0982L31.0542 40.8449L31.1503 40.5917L31.2464 40.3409L31.3424 40.0901L31.441 39.8369L31.5395 39.5836L31.638 39.3304C31.8277 38.8388 31.5888 38.2826 31.0986 38.0915C30.6158 37.8879 30.0665 38.1312 29.8768 38.6228Z" fill="#673065"/>
<path d="M30.2907 39.2758L30.4163 39.4818L30.5665 39.7053L30.7291 39.9188L30.9015 40.1274L31.0838 40.331L31.276 40.5271L31.4779 40.7158L31.6898 40.8995L31.909 41.0783L32.1356 41.2521L32.3721 41.4209L32.616 41.5848L32.8672 41.7437L33.1259 41.8976L33.3919 42.0466L33.6653 42.1906L33.9461 42.3296L34.2319 42.4637L34.5225 42.5953L34.8206 42.7219L35.126 42.8436L35.4364 42.9628L35.7517 43.077L36.0719 43.1862L36.3971 43.293L36.7271 43.3948L37.0621 43.4916L37.4021 43.5859L37.7469 43.6753L38.0992 43.7622L38.4489 43.8417L38.8037 43.9211L39.1633 43.9931L39.5229 44.0651L39.89 44.1272L40.2545 44.1893L40.624 44.2439L40.996 44.2985L41.3704 44.3457L41.7448 44.3929L42.1241 44.4301L42.501 44.4674L42.8803 44.4971L43.2597 44.5269L43.6415 44.5468L44.0233 44.5667L44.4051 44.5791L44.7869 44.5915L45.1662 44.5965L45.548 44.6014L45.9274 44.5965L46.3067 44.5915L46.6836 44.5766L47.0605 44.5617L47.4349 44.5394L47.8093 44.517L48.1788 44.4847L48.5483 44.4525L48.9129 44.4102L49.2774 44.368L49.637 44.3184L49.9967 44.2662L50.3489 44.2067L50.7036 44.1446L51.0485 44.0726L51.3884 44.0031L51.7308 43.9236L52.0658 43.8392L52.3959 43.7498L52.721 43.6555L53.0413 43.5562L53.3541 43.4519L53.662 43.3426L53.965 43.2259L54.2606 43.1043L54.5512 42.9777L54.837 42.8436L55.1153 42.7045L55.3863 42.5605L55.6523 42.4091L55.9085 42.2502L56.1573 42.0863L56.3987 41.915L56.6302 41.7362L56.8544 41.55L57.0712 41.3564L57.2756 41.1553L57.4727 40.9467L57.6599 40.7282L57.8348 40.5048L57.9998 40.2714L58.1525 40.0281L58.2905 39.7798L58.4161 39.5241L58.5294 39.2584L58.6181 39.0126C58.8053 38.4887 58.5343 37.9077 58.0146 37.719C57.4948 37.5303 56.9209 37.8035 56.7337 38.3273L56.6672 38.5185L56.6007 38.6774L56.5218 38.8363L56.4356 38.9927L56.3396 39.1442L56.2336 39.2956L56.1179 39.4446L55.9947 39.5886L55.8592 39.7326L55.7139 39.8741L55.5587 40.0132L55.3937 40.1497L55.2188 40.2838L55.0365 40.4154L54.8419 40.5445L54.6399 40.6711L54.4281 40.7928L54.2064 40.9119L53.9773 41.0286L53.7408 41.1404L53.4945 41.2496L53.2408 41.3539L52.9797 41.4532L52.7112 41.55L52.4353 41.6419L52.1545 41.7288L51.8663 41.8132L51.5707 41.8927L51.2702 41.9696L50.9672 42.0416L50.6494 42.1087L50.3366 42.1757L50.0139 42.2328L49.6912 42.2899L49.3612 42.3371L49.0286 42.3867L48.6887 42.4265L48.3512 42.4662L48.0064 42.4985L47.6615 42.5308L47.3117 42.5531L46.962 42.5779L46.6072 42.5928L46.2525 42.6077L45.8954 42.6152L45.5382 42.6226L45.181 42.6201L44.8214 42.6176L44.4618 42.6077L44.1021 42.5978L43.7425 42.5804L43.3828 42.563L43.0257 42.5382L42.666 42.5134L42.3089 42.4786L41.9517 42.4463L41.5995 42.4041L41.2472 42.3619L40.8999 42.3123L40.5501 42.2626L40.2053 42.2055L39.8629 42.1484L39.5254 42.0838L39.1904 42.0193L38.8628 41.9473L38.5302 41.8728L38.21 41.7958L37.8923 41.7139L37.5794 41.6295L37.2715 41.5401L36.9685 41.4482L36.6705 41.3514L36.3798 41.2521L36.0941 41.1503L35.8157 41.0435L35.5423 40.9343L35.2787 40.8226L35.0201 40.7084L34.7688 40.5917L34.5274 40.4725L34.2934 40.3483L34.0668 40.2217L33.8501 40.0926L33.6431 39.961L33.4436 39.827L33.2564 39.6929L33.0766 39.5563L32.9066 39.4173L32.749 39.2783L32.6012 39.1367L32.4632 38.9952L32.3352 38.8537L32.2169 38.7122L32.1085 38.5706L32.0125 38.4291L31.9139 38.2653C31.6405 37.8134 31.0567 37.6719 30.6109 37.945C30.1601 38.238 30.0172 38.8264 30.2907 39.2758Z" fill="#673065"/>
<path d="M17.1541 17.3475L17.3782 17.4865L17.5901 17.6181L17.7994 17.7571L18.0088 17.8962L18.2157 18.0452L18.4251 18.1941L18.632 18.3505L18.8365 18.5045L19.0385 18.6683L19.2429 18.8322L19.4449 19.0035L19.6469 19.1748L19.8464 19.3536L20.0459 19.5324L20.243 19.7161L20.4401 19.8998L20.6347 20.091L20.8292 20.2847L21.0214 20.4833L21.2135 20.6819L21.4007 20.8855L21.5904 21.0891L21.7751 21.3001L21.9623 21.5112L22.1446 21.7272L22.3269 21.9432L22.5067 22.1642L22.6865 22.3851L22.8614 22.6111L23.0388 22.8395L23.2112 23.0729L23.3836 23.3038L23.5536 23.5396L23.7236 23.7755L23.8886 24.0163L24.0561 24.2572L24.2187 24.503L24.3813 24.7488L24.5389 24.9971L24.6966 25.2453L24.8517 25.4986L25.0069 25.7518L25.1597 26.0076L25.3099 26.2633L25.4577 26.5215L25.6055 26.7797L25.7484 27.0404L25.8912 27.3036L26.0316 27.5668L26.172 27.83L26.3075 28.0956L26.443 28.3613L26.5736 28.6294L26.7041 28.8976L26.8322 29.1682L26.9603 29.4388L27.0835 29.7095L27.2066 29.9801L27.3249 30.2532L27.4431 30.5263L27.5589 30.7994L27.6722 31.0725L27.783 31.3456L27.8939 31.6187L27.9998 31.8919L28.1057 32.1674L28.2067 32.443L28.3077 32.7162L28.4038 32.9893L28.4998 33.2624L28.591 33.5355L28.6821 33.8086L28.7683 34.0817L28.8545 34.3548L28.9358 34.6254L29.0171 34.8961L29.0935 35.1667L29.1698 35.4373L29.2413 35.7055L29.3127 35.9736L29.3792 36.2393L29.4457 36.5049L29.5073 36.7706L29.5689 37.0363L29.6255 37.2994L29.6822 37.5626L29.7339 37.8208L29.7856 38.079L29.83 38.3348L29.8768 38.593L29.9162 38.8462L29.9556 39.0995L29.9901 39.3503L30.0246 39.5985L30.0541 39.8443L30.0837 40.1001C30.1502 40.6537 30.6478 41.0485 31.1971 40.9839C31.7464 40.9194 32.1381 40.4154 32.074 39.8617L32.0444 39.606L32.0124 39.3403L31.9755 39.0697L31.9385 38.7991L31.8942 38.526L31.8498 38.2553L31.8006 37.9822L31.7513 37.7066L31.6971 37.4285L31.6429 37.1505L31.5838 36.8699L31.5222 36.5918L31.4557 36.3113L31.3892 36.0307L31.3178 35.7477L31.2464 35.4646L31.17 35.1791L31.0936 34.8961L31.0123 34.6105L30.9311 34.325L30.8448 34.037L30.7586 33.7515L30.6675 33.4635L30.5763 33.178L30.4803 32.8899L30.3842 32.6019L30.2808 32.3139L30.1773 32.0259L30.0689 31.7379L29.9605 31.4499L29.8497 31.1619L29.7388 30.8739L29.6231 30.5859L29.5048 30.2979L29.3841 30.0124L29.2634 29.7268L29.1378 29.4413L29.0122 29.1558L28.8816 28.8727L28.7511 28.5872L28.6156 28.3042L28.4801 28.0211L28.3397 27.7406L28.1993 27.46L28.054 27.1819L27.9086 26.9039L27.7584 26.6283L27.6106 26.3527L27.4579 26.0796L27.3051 25.804L27.1475 25.5333L26.9898 25.2627L26.8273 24.9946L26.6647 24.7264L26.4997 24.4608L26.3346 24.1951L26.1647 23.9319L25.9947 23.6687L25.8198 23.4105L25.6474 23.1523L25.47 22.8991L25.2927 22.6433L25.1104 22.3926L24.9281 22.1418L24.7434 21.896L24.5586 21.6502L24.3689 21.4094L24.1793 21.1685L23.9871 20.9327L23.795 20.6968L23.5979 20.4659L23.4009 20.235L23.2014 20.0091L23.0018 19.7831L22.7974 19.5622L22.5929 19.3412L22.386 19.1277L22.1791 18.9141L21.9697 18.7081L21.7579 18.4995L21.5436 18.2984L21.3293 18.0973L21.1101 17.9036L20.8933 17.71L20.6741 17.5238L20.4524 17.3351L20.2282 17.1563L20.0041 16.9775L19.775 16.8062L19.5484 16.6349L19.3168 16.471L19.0853 16.3072L18.8513 16.1508L18.6172 15.9943L18.3783 15.8479L18.1542 15.7088C17.7083 15.4332 17.1221 15.5747 16.8486 16.0241C16.5678 16.4835 16.7082 17.0719 17.1541 17.3475Z" fill="#673065"/>
<path d="M70.8555 18.7279L70.6905 18.9439L70.5279 19.1401L70.353 19.3337L70.1707 19.5249L69.9811 19.7111L69.7815 19.8973L69.5746 20.0811L69.3603 20.2623L69.1411 20.4436L68.9145 20.6223L68.6854 20.8011L68.4514 20.9798L68.2125 21.1586L67.9711 21.3399L67.7297 21.5211L67.4833 21.7048L67.2395 21.891L66.9931 22.0797L66.7517 22.2709L66.5054 22.4671L66.2689 22.6682L66.0275 22.8742L65.7985 23.0878L65.5718 23.2988L65.2763 23.5918L64.9856 23.8798L64.7072 24.1678L64.4264 24.4558L64.1579 24.7438L63.8894 25.0318L63.6308 25.3198L63.3697 25.6103L63.1209 25.9008L62.8697 26.1913L62.6283 26.4818L62.3893 26.7723L62.1578 27.0652L61.9262 27.3582L61.7021 27.6537L61.4779 27.9491L61.2636 28.2471L61.0493 28.545L60.8424 28.8504L60.6355 29.1508L60.436 29.4562L60.2364 29.7616L60.0443 30.0695L59.8546 30.3773L59.6699 30.6877L59.4851 31.0005L59.3078 31.3158L59.1304 31.6312L58.9605 31.9514L58.7905 32.2717L58.6255 32.597L58.4604 32.9222L58.3028 33.2524L58.1451 33.5827L57.9924 33.9203L57.8397 34.2555L57.6919 34.5981L57.5441 34.9408L57.4012 35.2884L57.2584 35.6359L57.1204 35.991L56.9825 36.346L56.8495 36.7085L56.7164 37.071L56.5884 37.441L56.4603 37.8109L56.3346 38.1883L56.2115 38.5582C56.0366 39.0871 56.3199 39.6606 56.8445 39.8369C57.3692 40.0132 57.9382 39.7276 58.1131 39.1988L58.2363 38.8289L58.357 38.4664L58.4801 38.1113L58.6033 37.7563L58.7289 37.4112L58.857 37.0636L58.9876 36.7234L59.1181 36.3858L59.2536 36.0531L59.3866 35.7228L59.5246 35.3976L59.6625 35.0723L59.8054 34.7521L59.9482 34.4343L60.096 34.1214L60.2438 33.8086L60.3965 33.5007L60.5493 33.1929L60.7094 32.8899L60.867 32.587L61.0321 32.2891L61.1971 31.9912L61.3671 31.6982L61.5395 31.4052L61.7169 31.1147L61.8942 30.8242L62.079 30.5387L62.2637 30.2507L62.4558 29.9677L62.648 29.6821L62.8475 29.3991L63.047 29.1185L63.2539 28.838L63.4608 28.5574L63.6776 28.2793L63.8944 28.0013L64.121 27.7232L64.3451 27.4451L64.5792 27.1695L64.8132 26.8939L65.057 26.6183L65.3009 26.3403L65.5546 26.0622L65.8083 25.7866L66.0719 25.511L66.3355 25.2329L66.6113 24.9548L66.8848 24.6817L67.0843 24.4955L67.2813 24.3118L67.4883 24.1355L67.7001 23.9543L67.9218 23.778L68.1484 23.5967L68.38 23.4205L68.614 23.2392L68.8529 23.0605L69.0943 22.8792L69.3357 22.6955L69.5796 22.5117L69.8259 22.3231L70.0722 22.1319L70.3161 21.9357L70.5599 21.7346L70.8013 21.5286L71.0403 21.3175L71.2743 21.099L71.5034 20.8731L71.7275 20.6397L71.9443 20.3964L72.1537 20.1431L72.3433 19.8973C72.6636 19.4802 72.5872 18.8794 72.1709 18.5566C71.7719 18.2338 71.1757 18.3108 70.8555 18.7279Z" fill="#673065"/>
<path d="M18.1739 17.0495L18.3365 16.7839L18.4966 16.5182L18.6591 16.2526L18.8193 15.9894L18.9794 15.7287L19.1395 15.468L19.2996 15.2073L19.4572 14.9516L19.6149 14.7008L19.7775 14.4451L19.94 14.1893L20.0977 13.9386L20.2578 13.6928L20.4179 13.447L20.5805 13.2037L20.7431 12.9603L20.9081 12.722L21.0731 12.4836L21.2431 12.2478L21.4106 12.0119L21.583 11.781L21.753 11.5501L21.9279 11.3242L22.1028 11.0982L22.2826 10.8772L22.4624 10.6563L22.6472 10.4403L22.8319 10.2243L23.0216 10.0132L23.2112 9.80218L23.4083 9.59611L23.6029 9.39252L23.8049 9.19389L24.0069 8.99527L24.2163 8.80161L24.4256 8.60795L24.6424 8.41925L24.8592 8.23056L25.0833 8.04931L25.3075 7.86806L25.5415 7.69178L25.778 7.51302L26.0144 7.34419L26.2583 7.17536L26.5095 7.00901L26.7657 6.84514L27.0268 6.68624L27.2953 6.52982L27.5343 6.39575L27.7732 6.26168L28.0146 6.13257L28.256 6.00098L28.4999 5.87436L28.7437 5.74773L28.99 5.62608L29.2364 5.50442L29.4852 5.38524L29.7339 5.26607L29.9852 5.15186L30.2364 5.03765L30.4902 4.92592L30.7439 4.81668L30.9976 4.70991L31.2513 4.60315L31.5075 4.50136L31.7661 4.39956L32.0248 4.30025L32.2834 4.20094L32.5445 4.10659L32.8056 4.01224L33.0667 3.92286L33.3303 3.83348L33.5939 3.74658L33.8574 3.65968L34.1235 3.57775L34.3895 3.49581L34.6555 3.41885L34.9216 3.34188L35.1901 3.26739L35.4585 3.19291L35.727 3.12339L35.9955 3.05387L36.2665 2.98932L36.5375 2.92476L36.8084 2.86269L37.0794 2.80062L37.3503 2.74352L37.6213 2.68641L37.8947 2.63427L38.1681 2.58214L38.4415 2.53248L38.715 2.48282L38.9884 2.43813L39.2618 2.39344L39.5377 2.35372L39.8136 2.31399L40.0895 2.27675L40.3653 2.23951L40.6412 2.20723L40.9171 2.17495L41.193 2.14764L41.4689 2.12033L41.7448 2.09799L42.0207 2.07316L42.2965 2.05329L42.5724 2.03343L42.8483 2.01853L43.1242 2.00364L43.4001 1.99371L43.676 1.98378L43.9518 1.97633L44.2277 1.96888L44.5036 1.9664L44.7795 1.96391L45.0554 1.9664L45.3313 1.96888L45.6047 1.97633L45.8806 1.98378L46.154 1.99371L46.4299 2.00364L46.7033 2.01853L46.9767 2.03343L47.2501 2.05329L47.5236 2.07316L47.7945 2.09799L48.0679 2.12281L48.3389 2.15012L48.6099 2.17744L48.8808 2.20971L49.1518 2.24199L49.4203 2.27923L49.6888 2.31647L49.9573 2.35868L50.2257 2.40089L50.4918 2.44558L50.7578 2.49027L51.0214 2.53993L51.2874 2.58958L51.551 2.64421L51.8146 2.69883L52.0757 2.75842L52.3368 2.818L52.5979 2.88007L52.859 2.94463L53.1176 3.01166L53.3763 3.0787L53.6324 3.1507L53.8886 3.2227L54.1423 3.29967L54.3985 3.37664L54.6522 3.45857L54.9059 3.53802L55.1572 3.62244L55.4084 3.70685L55.6572 3.79624L55.906 3.88562L56.1523 3.97996L56.3987 4.07431L56.6425 4.17362L56.8864 4.27294L57.1278 4.37473L57.3692 4.47901L57.6081 4.58577L57.8471 4.69253L58.0835 4.80426L58.32 4.91599L58.554 5.03268L58.788 5.14937L59.0196 5.27103L59.2511 5.39021L59.4777 5.51435L59.7044 5.63849L59.9285 5.7676L60.1527 5.8967L60.3744 6.03078L60.5961 6.16485L60.8153 6.30389L61.0345 6.44292L61.2488 6.58693L61.4656 6.73093L61.6774 6.8799L61.8893 7.02639L62.0986 7.17784L62.308 7.32929L62.5125 7.48571L62.7194 7.64213L62.9214 7.80351L63.1234 7.9649L63.3204 8.13124L63.5175 8.29759L63.7121 8.46891L63.9067 8.64022L64.0988 8.8165L64.2885 8.9903L64.4757 9.16906L64.6629 9.34783L64.8452 9.53156L65.0274 9.71529L65.2073 9.90398L65.3871 10.0927L65.562 10.2863L65.7369 10.48L65.9068 10.6786L66.0768 10.8772L66.2443 11.0808L66.4118 11.2819L66.5744 11.488L66.7369 11.6941L66.8946 11.9051L67.0522 12.1187L67.205 12.3371L67.3577 12.5532L67.5055 12.7741L67.6533 12.9951L67.7962 13.221L67.939 13.447L68.0794 13.6779L68.2174 13.9088L68.3504 14.1446L68.4859 14.3805L68.6139 14.6213L68.7445 14.8622L68.8701 15.108L68.9958 15.3538L69.1165 15.6045L69.2347 15.8553L69.348 16.111L69.4613 16.3668L69.5722 16.6275L69.6805 16.8882L69.784 17.1538L69.8875 17.4195L69.986 17.6901L70.0845 17.9607L70.1781 18.2363L70.2717 18.5119L70.3579 18.7925L70.4441 19.073L70.5254 19.3586L70.6092 19.6565C70.7619 20.1928 71.3186 20.5031 71.8507 20.3492C72.3827 20.1953 72.6906 19.6342 72.5354 19.0979L72.4517 18.7999L72.363 18.4921L72.2694 18.1892L72.1733 17.8863L72.0724 17.5883L71.9714 17.2904L71.8654 16.9974L71.7595 16.7044L71.6462 16.4164L71.5329 16.1284L71.4147 15.8454L71.2964 15.5623L71.1733 15.2843L71.0476 15.0062L70.9171 14.7331L70.7865 14.46L70.6511 14.1918L70.5156 13.9262L70.3752 13.663L70.2348 13.3998L70.087 13.1416L69.9392 12.8834L69.7865 12.6301L69.6337 12.3794L69.4761 12.1336L69.3184 11.8853L69.1559 11.642L68.9933 11.3986L68.8258 11.1628L68.6583 10.9269L68.4859 10.696L68.3134 10.4651L68.1361 10.2392L67.9587 10.0132L67.7764 9.79225L67.5942 9.57128L67.4094 9.35528L67.2222 9.13927L67.0301 8.92823L66.8379 8.71719L66.6409 8.51112L66.4463 8.30752L66.2468 8.10642L66.0472 7.90531L65.8428 7.70916L65.6383 7.51302L65.429 7.32184L65.222 7.13315L65.0299 6.9519L64.8181 6.76569L64.6013 6.58445L64.3845 6.4032L64.1653 6.22692L63.9461 6.05312L63.7244 5.88429L63.5002 5.71297L63.2736 5.54663L63.047 5.38028L62.8154 5.22138L62.5864 5.06248L62.3524 4.90854L62.1183 4.75461L61.8819 4.60564L61.6454 4.45667L61.4065 4.31266L61.1675 4.16866L60.9261 4.02962L60.6823 3.89058L60.4359 3.75651L60.1896 3.62244L59.9408 3.49333L59.692 3.36422L59.4408 3.24008L59.1895 3.11594L58.9358 2.99677L58.6821 2.87759L58.4259 2.76338L58.1697 2.64917L57.9111 2.53993L57.6525 2.43068L57.3914 2.3264L57.1303 2.22213L56.8667 2.12281L56.6031 2.0235L56.3371 1.92915L56.0711 1.83481L55.8026 1.74542L55.5341 1.65604L55.2631 1.56914L54.9946 1.48473L54.7237 1.40279L54.4527 1.32086L54.1793 1.24389L53.9059 1.16693L53.63 1.09492L53.3541 1.02292L53.0782 0.955887L52.7999 0.88885L52.5215 0.82678L52.2432 0.764709L51.9623 0.707604L51.6815 0.650499L51.4007 0.59836L51.1199 0.546221L50.8366 0.499047L50.5534 0.451874L50.2676 0.409666L49.9844 0.367458L49.6986 0.330215L49.4129 0.29049L49.1271 0.255731L48.8414 0.220971L48.5532 0.191177L48.2675 0.163866L47.9793 0.139038L47.6911 0.11421L47.4029 0.0943473L47.1147 0.0744847L46.824 0.0595877L46.5358 0.0446908L46.2476 0.0347595L45.9569 0.0248282L45.6663 0.0173798L45.3756 0.0124141L45.0849 0.00993129L44.7869 0L44.4962 0.00248282L44.2056 0.00496564L43.9149 0.0124141L43.6242 0.0198626L43.3336 0.0322767L43.0429 0.0446908L42.7522 0.0620706L42.4616 0.0794503L42.1709 0.101796L41.8753 0.121658L41.5847 0.146487L41.294 0.171315L41.0033 0.201109L40.7127 0.230902L40.422 0.265662L40.1313 0.300422L39.8407 0.340147L39.55 0.379872L39.2618 0.42208L38.9711 0.464288L38.6829 0.511461L38.3947 0.558635L38.1065 0.610774L37.8183 0.662914L37.5326 0.720019L37.2444 0.777124L36.9587 0.839194L36.6729 0.901265L36.3872 0.965818L36.1015 1.03037L35.8182 1.09989L35.5324 1.16941L35.2492 1.24389L34.9659 1.31838L34.6826 1.39783L34.4018 1.47728L34.121 1.55921L33.8402 1.64115L33.5594 1.72804L33.2786 1.81494L33.0002 1.90681L32.7219 1.99867L32.446 2.0955L32.1701 2.19233L31.8942 2.29165L31.6183 2.39096L31.3449 2.49524L31.0715 2.59952L30.8005 2.70876L30.5296 2.818L30.2611 2.92973L29.9926 3.04146L29.7266 3.15815L29.4605 3.27484L29.197 3.3965L28.9309 3.51816L28.6674 3.64478L28.4038 3.77141L28.1427 3.90051L27.884 4.02962L27.6254 4.16369L27.3668 4.29777L27.1106 4.4368L26.8544 4.57584L26.6007 4.71985L26.347 4.86137L26.0514 5.03516L25.7607 5.21393L25.4774 5.39517L25.1991 5.5789L24.9257 5.7676L24.6547 5.96126L24.3985 6.15492L24.1374 6.35106L23.8862 6.55465L23.6374 6.75824L23.4009 6.96432L23.162 7.17287L22.9304 7.3864L22.6989 7.59992L22.4747 7.82089L22.253 8.04186L22.0387 8.2678L21.8244 8.49125L21.6175 8.71967L21.4106 8.94809L21.2086 9.18644L21.0091 9.41983L20.8145 9.65818L20.6224 9.89653L20.4352 10.1374L20.2479 10.3782L20.0657 10.624L19.8834 10.8698L19.706 11.1181L19.5287 11.3664L19.3538 11.6171L19.1814 11.8679L19.0114 12.1236L18.8414 12.3769L18.6739 12.6351L18.5064 12.8933L18.3365 13.159L18.1739 13.4147L18.0113 13.6704L17.8463 13.9311L17.6812 14.1968L17.5211 14.4575L17.361 14.7182L17.2009 14.9814L17.0383 15.2495L16.8758 15.5152L16.7132 15.7808L16.5531 16.0465C16.2796 16.4959 16.4201 17.0843 16.8659 17.3624C17.3142 17.6405 17.898 17.4989 18.1739 17.0495Z" fill="#673065"/>
<path d="M21.7234 10.485L22.0979 10.7481L22.455 11.0188L22.8048 11.3018L23.1546 11.5898L23.5068 11.8778L23.864 12.1708C24.2975 12.5184 24.9281 12.4464 25.273 12.0094C25.6179 11.5724 25.5464 10.9368 25.1129 10.5892L24.7434 10.2963L24.3665 10.0083L23.9798 9.73018L23.5881 9.45459L23.1915 9.179L22.7999 8.90837C22.3688 8.60795 21.7776 8.71719 21.4796 9.15168C21.1815 9.58618 21.2924 10.1845 21.7234 10.485Z" fill="#673065"/>
<path d="M27.2313 16.4264L27.3372 16.5281L27.4308 16.6175L27.5121 16.697L27.5835 16.7665L27.6451 16.8261L27.6969 16.8782L27.7387 16.9229L27.7732 16.9577L27.8003 16.9875L27.82 17.0098L27.8348 17.0272L27.8299 17.0222L27.9161 17.1315L28.0713 17.34L28.3792 17.7224C28.7339 18.1519 29.3645 18.2115 29.7906 17.854C30.2168 17.4964 30.2759 16.8608 29.9212 16.4313L29.6059 16.0589L29.4187 15.8479L29.2807 15.7039L29.2216 15.6418L29.1797 15.6021L29.1379 15.5648L29.0935 15.5276L29.0467 15.4878L28.995 15.4456L28.9383 15.3985L28.8743 15.3438L28.8029 15.2793L28.7216 15.2073L28.628 15.1229L28.522 15.0236C28.1378 14.6635 27.5367 14.6859 27.182 15.0732C26.8249 15.463 26.847 16.0663 27.2313 16.4264Z" fill="#673065"/>
<path d="M30.5197 21.1661L30.5912 21.4292L30.67 21.6974L30.7513 21.9606L30.835 22.2188L30.9188 22.4745L31.005 22.7278L31.0937 22.9736L31.1824 23.2169L31.276 23.4602L31.3696 23.6961L31.4632 23.9369L31.5568 24.1777C31.7637 24.6966 32.345 24.9474 32.8598 24.7388C33.3747 24.5303 33.6234 23.9443 33.4165 23.4254L33.318 23.1846L33.2195 22.9413L33.1209 22.7029L33.0224 22.472L32.9239 22.2411L32.8254 22.0127L32.7318 21.7892L32.6431 21.5658L32.5593 21.3399L32.483 21.1139L32.4115 20.888L32.345 20.6496C32.2046 20.1407 31.6799 19.8452 31.175 19.9867C30.6749 20.1307 30.3793 20.6571 30.5197 21.1661Z" fill="#673065"/>
<path d="M33.7811 27.7828L33.8574 28.0981L33.9412 28.4209L34.0274 28.7387L34.1136 29.054L34.1998 29.3668L34.2885 29.6747L34.3772 29.9801L34.4659 30.2805L34.5521 30.5834L34.6408 30.8764L34.7245 31.1718L34.8107 31.4772C34.9659 32.0135 35.5226 32.3214 36.0522 32.165C36.5843 32.0085 36.8897 31.4474 36.7345 30.9136L36.6458 30.6107L36.5522 30.2979L36.4537 29.985L36.3527 29.6821L36.2493 29.3792L36.1458 29.0813L36.0448 28.7858L35.9463 28.4929L35.8551 28.1999L35.7689 27.9094L35.6901 27.6214L35.6162 27.3235C35.4906 26.812 34.9758 26.4992 34.4659 26.6258C33.9634 26.7524 33.653 27.2713 33.7811 27.7828Z" fill="#673065"/>
<path d="M35.5595 34.2903L35.5965 34.541L35.6433 34.8042L35.695 35.0575L35.7492 35.3033L35.8059 35.5441L35.865 35.7775L35.9783 36.2194L36.0867 36.6415L36.1852 37.0785C36.3108 37.6222 36.8503 37.9599 37.3897 37.8308C37.9292 37.7041 38.2642 37.1604 38.1361 36.6167L38.0203 36.14L37.8824 35.6682L37.7395 35.2263L37.673 35.0177L37.609 34.8141L37.5523 34.613L37.503 34.4144L37.4636 34.2207L37.4316 34.0072C37.3528 33.4858 36.87 33.1258 36.3527 33.2053C35.8379 33.2822 35.4832 33.7689 35.5595 34.2903Z" fill="#673065"/>
<path d="M36.237 39.4496L36.2493 39.7252L36.2739 40.0156L36.3059 40.2962L36.3429 40.5718L36.3823 40.8399L36.4242 41.1031L36.4685 41.3589L36.5128 41.6047L36.5547 41.8529L36.5991 42.0863L36.6335 42.3222L36.6705 42.5779C36.7567 43.1291 37.2691 43.5065 37.8159 43.4196C38.3627 43.3327 38.7372 42.8163 38.6509 42.2651L38.6091 42.0094L38.5647 41.7362L38.5105 41.4656L38.4563 41.2124L38.3972 40.9616L38.3406 40.7183L38.2864 40.4849L38.2371 40.2565L38.1977 40.033L38.1657 39.8145L38.146 39.601L38.1337 39.3676C38.1115 38.8413 37.6681 38.4316 37.1434 38.454C36.6188 38.4763 36.2148 38.9232 36.237 39.4496Z" fill="#673065"/>
<path d="M64.488 15.3612L64.7614 14.9987L65.0373 14.6511L65.3205 14.311L65.6112 13.9783L65.9093 13.653L66.2147 13.3328L66.5251 13.0199L66.8404 12.7121L67.1631 12.4091L67.4907 12.1087L67.8232 11.8133L68.1705 11.5178C68.5917 11.1553 68.641 10.5172 68.2838 10.0952C67.9242 9.67059 67.2912 9.62094 66.8699 9.98343L66.5103 10.2938L66.1507 10.6165L65.8009 10.9468L65.4585 11.2844L65.1235 11.6295L64.7959 11.9821L64.4757 12.3396L64.1628 12.7046L63.8549 13.0745L63.5519 13.4494L63.2539 13.8318L62.9681 14.2117C62.6504 14.6313 62.7341 15.2321 63.1504 15.5524C63.5766 15.8652 64.1702 15.7808 64.488 15.3612Z" fill="#673065"/>
<path d="M59.3324 21.6055L59.3718 21.4218L59.4137 21.2728L59.4679 21.1214L59.5295 20.9724L59.6009 20.8259L59.6822 20.6769L59.7734 20.528L59.8744 20.3815L59.9852 20.2325L60.1034 20.0835L60.2291 19.9346L60.3547 19.7931L60.6429 19.4852L60.9434 19.1848L61.2562 18.8794L61.574 18.5665L61.8942 18.2438L62.1972 17.9235C62.579 17.5188 62.5642 16.8807 62.1627 16.4959C61.7612 16.111 61.1281 16.1259 60.7463 16.5306L60.4606 16.836L60.165 17.1389L59.8522 17.4542L59.532 17.7845L59.2093 18.132L58.8989 18.4896L58.7363 18.6857L58.5836 18.8819L58.4358 19.083L58.2929 19.2915L58.155 19.5075L58.0244 19.7285L57.9037 19.9594L57.7929 20.2002L57.6944 20.4485L57.6057 20.7043L57.5318 20.9724L57.4801 21.2157C57.3717 21.7321 57.6993 22.2411 58.2117 22.3504C58.7215 22.4522 59.224 22.1219 59.3324 21.6055Z" fill="#673065"/>
<path d="M54.9946 27.6934L55.0513 27.6115L55.1055 27.5345L55.1547 27.465L55.2015 27.3979L55.2459 27.3359L55.2877 27.2788L55.3616 27.1745L55.4257 27.0851L55.4823 27.0081L55.5341 26.9411L55.5784 26.8815L55.6178 26.8294L55.6548 26.7797L55.6893 26.7325L55.7262 26.6854L55.8765 26.4818L56.1203 26.1441L56.3346 25.8387L56.5465 25.5309C56.8593 25.0715 56.7411 24.4409 56.2854 24.1281C55.8297 23.8127 55.204 23.9319 54.8936 24.3912L54.6867 24.7016L54.4798 25.0144L54.2581 25.3645L54.1251 25.5731L54.098 25.6153L54.0684 25.66L54.0389 25.7071L54.0044 25.7593L53.965 25.8189L53.9206 25.8884L53.8689 25.9678L53.8073 26.0597L53.7359 26.1665L53.6965 26.226L53.6546 26.2881L53.6078 26.3552L53.5585 26.4272L53.5044 26.5041L53.4477 26.5861C53.1447 27.0181 53.2457 27.6139 53.6743 27.9193C54.1005 28.2272 54.6916 28.1254 54.9946 27.6934Z" fill="#673065"/>
<path d="M52.1422 34.4715L52.1693 34.3747L52.1939 34.2828L52.2161 34.1984L52.2382 34.1189L52.2579 34.0445L52.2776 33.9774L52.3121 33.8558L52.3417 33.754L52.3663 33.6696L52.3885 33.6L52.4057 33.5429L52.423 33.4958L52.4378 33.456L52.4525 33.4188L52.4673 33.3815L52.519 33.2649L52.5929 33.1035L52.6964 32.8775L52.7604 32.736L52.8343 32.5721L52.9181 32.3835L52.9624 32.2792L53.0092 32.1674L53.0585 32.0483L53.1102 31.9217L53.1669 31.7851L53.226 31.6411C53.4354 31.1247 53.189 30.5362 52.6767 30.3252C52.1643 30.1142 51.5781 30.3624 51.3712 30.8789L51.3145 31.0229L51.2603 31.1569L51.2111 31.2811L51.1643 31.3978L51.1199 31.507L51.078 31.6088L51.0041 31.7975L50.9401 31.9589L50.8859 32.0979L50.7948 32.3288L50.7258 32.5076L50.6691 32.6541L50.6396 32.736L50.6125 32.8155L50.5878 32.8949L50.5657 32.9744L50.5435 33.0588L50.5189 33.1482L50.4942 33.245L50.4672 33.3542L50.4351 33.4784L50.4179 33.5479L50.3982 33.6199L50.3785 33.6993L50.3563 33.7838L50.3317 33.8731L50.3046 33.97C50.1666 34.479 50.4647 35.0053 50.9697 35.1444C51.482 35.2809 52.0042 34.9805 52.1422 34.4715Z" fill="#673065"/>
<path d="M51.9131 42.2998L51.8515 42.0491L51.8047 41.8182L51.7677 41.5898L51.7406 41.3613L51.7234 41.1354L51.7136 40.907L51.7111 40.6786L51.7136 40.4477L51.7234 40.2118L51.7333 39.971L51.7505 39.7227L51.7727 39.4595C51.817 38.9033 51.4056 38.4167 50.8539 38.372C50.3021 38.3273 49.8193 38.742 49.775 39.2981L49.7553 39.5836L49.7405 39.8741L49.7331 40.1621L49.7356 40.4501L49.7454 40.7381L49.7651 41.0262L49.7947 41.3142L49.8341 41.6047L49.8809 41.8951L49.9351 42.1881L49.9991 42.4836L50.0706 42.7666C50.1987 43.2781 50.7135 43.5909 51.2209 43.4618C51.7308 43.3302 52.0387 42.8113 51.9131 42.2998Z" fill="#673065"/>
<path d="M70.3038 18.4474L70.4639 18.8918L70.6215 19.3288L70.7693 19.7682L70.9171 20.2077L71.0575 20.6496L71.1979 21.0941L71.3309 21.541L71.464 21.9879L71.5896 22.4373L71.7152 22.8867L71.8359 23.3385L71.9566 23.7904L72.0699 24.2448L72.1857 24.6991L72.2941 25.156L72.4025 25.6128L72.5084 26.0721L72.6143 26.5314L72.7153 26.9908L72.8163 27.4526L72.9148 27.9144L73.0133 28.3762L73.1094 28.8405L73.2055 29.3048L73.2991 29.769L73.3927 30.2358L73.4863 30.7026L73.5799 31.1669L73.6735 31.6336L73.7646 32.1004L73.8558 32.5672L73.9494 33.0364L74.043 33.5057L74.1366 33.9725L74.2302 34.4392L74.3238 34.9085L74.4223 35.3777L74.5209 35.842L74.6194 36.3063L74.7179 36.778L74.8238 37.2473L74.9273 37.7091L75.0308 38.1709L75.1367 38.6451L75.2524 39.1144L75.3658 39.5737L75.4791 40.033L75.5948 40.4998L75.7205 40.9715L75.8461 41.4408L75.9742 41.91L76.1023 42.3768L76.2353 42.8436L76.3658 43.3104L76.4989 43.7771L76.6319 44.2414L76.7673 44.7057L76.9028 45.17L77.0408 45.6343L77.1787 46.0961L77.3167 46.5579L77.4546 47.0197L77.5925 47.4815L77.7305 47.9433L77.8684 48.4051L78.0064 48.8669L78.1443 49.3287L78.2798 49.788L78.4128 50.2474L78.5458 50.7092L78.6788 51.1735L78.8119 51.6328L78.9424 52.0921L79.073 52.5514L79.1986 53.0132L79.3242 53.4725L79.4449 53.9343L79.5656 54.3962L79.6838 54.858L79.8021 55.3198L79.9129 55.7816L80.0238 56.2434L80.1297 56.7077L80.2356 57.1695L80.3366 57.6338L80.4351 58.098L80.5287 58.5623L80.6199 59.0266L80.7036 59.4934L80.7874 59.9602L80.8637 60.4294L80.9401 60.8962L81.0066 61.3654L81.0731 61.8347L81.1298 62.3039L81.1889 62.7856C81.2579 63.3393 81.7579 63.7316 82.3072 63.6645C82.8565 63.595 83.2457 63.091 83.1767 62.5373L83.1176 62.0557L83.056 61.5641L82.9846 61.0749L82.9132 60.5858L82.8319 60.0992L82.7531 59.615L82.6644 59.1334L82.5757 58.6492L82.4796 58.1676L82.3836 57.6884L82.2801 57.2092L82.1766 56.7325L82.0683 56.2558L81.9599 55.7791L81.8441 55.3049L81.7283 54.8306L81.6076 54.3589L81.4869 53.8872L81.3613 53.4179L81.2357 52.9487L81.1076 52.4794L80.9795 52.0102L80.8465 51.5434L80.7135 51.0766L80.578 50.6098L80.4425 50.148L80.307 49.6862L80.1716 49.2195L80.0312 48.7527L79.8932 48.2909L79.7553 47.8291L79.6173 47.3673L79.4769 46.9055L79.3365 46.4437L79.1961 45.9819L79.0557 45.5201L78.9178 45.0583L78.7798 44.5989L78.6419 44.1396L78.5064 43.6803L78.3709 43.221L78.2354 42.7617L78.1024 42.3023L77.9694 41.843L77.8413 41.3837L77.7132 40.9244L77.5901 40.465L77.4669 40.0082L77.3536 39.5563L77.2378 39.097L77.1221 38.6377L77.0087 38.1883L76.9053 37.7364L76.7994 37.2746L76.6934 36.8128L76.6072 36.3485L76.5087 35.8917L76.4102 35.4274L76.3116 34.9631L76.2131 34.5013L76.117 34.0395L76.021 33.5727L75.9249 33.106L75.8288 32.6417L75.7352 32.1774L75.6416 31.7106L75.548 31.2438L75.4544 30.7771L75.3584 30.3103L75.2623 29.8435L75.1687 29.3768L75.0726 28.9075L74.9741 28.4382L74.8756 27.969L74.7746 27.5022L74.6736 27.033L74.5701 26.5662L74.4667 26.0994L74.3583 25.6327L74.2499 25.1659L74.144 24.7016L74.0307 24.2348L73.9124 23.7705L73.7942 23.3038L73.671 22.8395L73.5479 22.3752L73.4173 21.9134L73.2868 21.4491L73.1488 20.9873L73.0109 20.5255L72.8656 20.0662L72.7202 19.6068L72.565 19.15L72.4098 18.6932L72.2448 18.2388L72.0847 17.7944C71.9049 17.2978 71.3605 17.0421 70.8679 17.2233C70.3801 17.4021 70.1264 17.9508 70.3038 18.4474Z" fill="#673065"/>
<path d="M16.3166 16.3866L16.218 16.692L16.1195 16.9974L16.021 17.3028L15.92 17.6131L15.8215 17.926L15.7254 18.2338L15.6293 18.5417L15.5308 18.8546L15.4347 19.1699L15.3411 19.4802L15.2475 19.7906L15.1515 20.1059L15.0579 20.4237L14.9667 20.7365L14.8756 21.0494L14.782 21.3672L14.6933 21.6875L14.6046 22.0028L14.5159 22.3181L14.4273 22.6384L14.341 22.9611L14.2548 23.2789L14.1686 23.5967L14.0824 23.9195L13.9987 24.2448L13.9149 24.565L13.8312 24.8853L13.7474 25.2106L13.6661 25.5383L13.5873 25.8611L13.5085 26.1838L13.4272 26.5116L13.3484 26.8418L13.272 27.167L13.1956 27.4923L13.1193 27.82L13.0454 28.1502L12.9715 28.4755L12.8976 28.8007L12.8237 29.131L12.7522 29.4636L12.6808 29.7914L12.6094 30.1191L12.5379 30.4518L12.4665 30.787L12.4 31.1147L12.3335 31.4425L12.2645 31.7752L12.198 32.1079L12.134 32.4356L12.0699 32.7658L12.0059 33.0985L11.9443 33.4312L11.8827 33.7589L11.8211 34.0867L11.7596 34.4194L11.7004 34.7545L11.6438 35.0823L11.5871 35.41L11.5305 35.7427L11.4763 36.0754L11.4221 36.4031L11.3679 36.7309L11.3137 37.066L11.262 37.4012L11.2127 37.729L11.1635 38.0567L11.1117 38.3919L11.0649 38.732L11.0181 39.0598L10.9713 39.3875L10.9245 39.7202L10.8802 40.0529L10.8383 40.3831L10.7964 40.7108L10.7521 41.0435L10.7127 41.3762L10.6733 41.7015L10.6338 42.0267L10.5944 42.3594L10.56 42.6896L10.5255 43.0149L10.491 43.3401L10.4565 43.6704L10.4245 44.0006L10.3949 44.3233L10.3654 44.6461L10.3333 44.9763L10.3062 45.3041L10.2791 45.6268L10.252 45.9496L10.2249 46.2773L10.2028 46.6026L10.1806 46.9253L10.1584 47.2456L10.1363 47.5709L10.1141 47.9358L10.0919 48.2959L10.0698 48.6559L10.0476 49.0184L10.0279 49.3833L10.0082 49.7458L9.98848 50.1083L9.96877 50.4708L9.94907 50.8358L9.92936 51.1983L9.90965 51.5608L9.88995 51.9233L9.87024 52.2858L9.85054 52.6507L9.83083 53.0157L9.81112 53.3782L9.78895 53.7407L9.76679 54.1057L9.74462 54.4706L9.72245 54.8306L9.69781 55.1907L9.67318 55.5556L9.64855 55.9206L9.62392 56.2806L9.59436 56.6381L9.5648 57.0031L9.53524 57.3681L9.50568 57.7231L9.47119 58.0782L9.43425 58.4407L9.3973 58.8032L9.36281 59.1557L9.32094 59.5083L9.2766 59.8708L9.23226 60.2333L9.19038 60.5858L9.14112 60.9384L9.09432 61.291L9.04013 61.6435L8.9884 61.9961L8.93174 62.3461L8.87509 62.6962L8.81351 63.0463L8.75192 63.3939L8.68542 63.7415L8.61891 64.0866L8.54501 64.4317L8.47111 64.7843C8.35534 65.3305 8.7002 65.8668 9.23965 65.9835C9.78156 66.1002 10.3136 65.7526 10.4294 65.2064L10.5033 64.8538L10.5797 64.4938L10.6511 64.1313L10.7225 63.7688L10.7866 63.4038L10.8506 63.0413L10.9097 62.6764L10.9689 62.3114L11.023 61.9464L11.0772 61.5814L11.1265 61.214L11.1758 60.8465L11.2201 60.4766L11.2644 60.1141L11.3088 59.7516L11.3531 59.3792L11.3901 59.0043L11.4246 58.6418L11.4615 58.2793L11.4985 57.9069L11.528 57.5344L11.5576 57.1695L11.5871 56.8045L11.6167 56.4345L11.6413 56.0646L11.666 55.6996L11.6906 55.3347L11.7152 54.9647L11.7374 54.5948L11.7596 54.2298L11.7817 53.8648L11.8039 53.4974L11.8236 53.1299L11.8433 52.7649L11.863 52.4L11.8827 52.035L11.9024 51.67L11.9221 51.3075L11.9394 50.945L11.9566 50.5825L11.9763 50.22L11.996 49.8576L12.0157 49.4951L12.0354 49.135L12.0551 48.7775L12.0749 48.4175L12.0946 48.0575L12.1143 47.7025L12.1364 47.3871L12.1586 47.0669L12.1808 46.7466L12.1931 46.4288L12.2177 46.1135L12.2424 45.7907L12.267 45.4679L12.2916 45.1526L12.3212 44.8348L12.3507 44.5096L12.3803 44.1868L12.4099 43.869L12.4419 43.5487L12.4764 43.2234L12.5109 42.8982L12.5429 42.5779L12.5798 42.2576L12.6168 41.9324L12.6537 41.6047L12.6907 41.2844L12.7325 40.9616L12.7744 40.6339L12.8163 40.3061L12.8557 39.9834L12.9 39.6606L12.9444 39.3329L12.9887 39.0051L13.0331 38.6824L13.0799 38.3596L13.1291 38.0319L13.1784 37.7041L13.2252 37.3814L13.2769 37.0586L13.3287 36.7284L13.3804 36.3982L13.4321 36.0729L13.4863 35.7477L13.543 35.4175L13.5996 35.0872L13.6538 34.7645L13.7129 34.4417L13.772 34.114L13.8312 33.7862L13.8903 33.4635L13.9519 33.1407L14.0159 32.813L14.0799 32.4852L14.1415 32.1625L14.208 31.8397L14.2745 31.512L14.341 31.1842L14.4076 30.8615L14.4765 30.5387L14.5455 30.211L14.6145 29.8832L14.6834 29.5605L14.7549 29.2402L14.8288 28.9149L14.9027 28.5897L14.9741 28.2694L15.0505 27.9491L15.1268 27.6239L15.2032 27.2986L15.2771 26.9783L15.3559 26.6605L15.4347 26.3378L15.5136 26.015L15.5924 25.6972L15.6737 25.3819L15.7574 25.0616L15.8387 24.7413L15.92 24.426L16.0037 24.1107L16.0875 23.7929L16.1737 23.4751L16.2575 23.1548L16.3437 22.842L16.4324 22.5266L16.521 22.2113L16.6072 21.8985L16.6959 21.5906L16.7871 21.2778L16.8782 20.965L16.9669 20.6571L17.0605 20.3517L17.1541 20.0413L17.2477 19.731L17.3388 19.4256L17.4349 19.1227L17.531 18.8148L17.627 18.507L17.7231 18.2041L17.8216 17.9036L17.9202 17.5982L18.0187 17.2929L18.1172 16.9875C18.2798 16.4859 18.0088 15.9447 17.5113 15.7808C17.0161 15.612 16.4792 15.8851 16.3166 16.3866Z" fill="#673065"/>
<path d="M33.653 55.9231L33.5594 56.0149L33.4682 56.1043L33.382 56.1887L33.3007 56.2707L33.2244 56.3501L33.1529 56.4246L33.084 56.4966L33.0199 56.5661L32.9608 56.6307L32.9041 56.6928L32.8499 56.7523L32.7958 56.8144L32.7095 56.9187L32.6283 57.0255L32.5519 57.1372L32.4755 57.2737L32.3942 57.4922L32.3647 57.6859L32.4706 58.2073V58.2098V58.2122V58.2147L32.4952 58.2569L32.5494 58.3389L32.6135 58.4158L32.6849 58.4878L32.7613 58.5499L32.8401 58.602L32.9189 58.6443L32.9953 58.6765L33.0347 58.6889H33.0372H33.0396H33.0421H33.0445L33.4362 58.7312L33.5618 58.7138L33.7269 58.6666L33.8476 58.6169L33.9461 58.5673L34.0372 58.5151L34.1259 58.4605L34.2146 58.4034L34.3033 58.3438L34.3944 58.2793L34.4905 58.2073L34.6654 58.0682L34.8452 57.9143L35.0201 57.7529L35.1876 57.5816L35.3477 57.3904L35.4758 57.1968L35.5694 57.0106L35.6359 56.7995L35.6581 56.514L35.5768 56.149L35.3304 55.794L35.0324 55.5954L34.7737 55.5134L34.557 55.4911L34.3772 55.4985L34.2121 55.5184L34.0446 55.5507L33.8476 55.6003L33.5963 55.7046L33.3475 55.8784L33.1652 56.077L33.0322 56.2856L32.9386 56.4966L32.8795 56.6952L32.8426 56.8864L32.8229 57.0776L32.8179 57.2613L32.8253 57.4426L32.8426 57.6238L32.8697 57.8001L32.9066 57.9739L32.9534 58.1477L33.0101 58.3165L33.079 58.4854L33.1628 58.6542L33.2613 58.8181L33.382 58.9819L33.5372 59.1458L33.7269 59.2948L33.9633 59.4214L34.2589 59.5033L34.5299 59.5157L34.7368 59.4909L34.9068 59.4462L35.0644 59.3866L35.2097 59.3121L35.3477 59.2228L35.4684 59.1259L35.5768 59.0216L35.6728 58.9099L35.7541 58.7957L35.8256 58.6815L35.8896 58.5623L35.9512 58.4208L36.0251 58.2098L36.0842 57.9689L36.1187 57.7306L36.1359 57.4922L36.1335 57.2489L36.1113 57.0106L36.0694 56.7722L36.0029 56.5314L35.9118 56.2955L35.7935 56.0621L35.6359 55.8312L35.4684 55.645L35.3255 55.5209L35.195 55.429L35.057 55.3495L34.9092 55.2825L34.7467 55.2279L34.5816 55.1906L34.4141 55.1708L34.2417 55.1683L34.0742 55.1807L33.9091 55.208L33.7441 55.2502L33.5914 55.3024L33.4436 55.3694L33.3056 55.4513L33.1849 55.5407L33.079 55.6351L32.983 55.7369L32.882 55.8635L32.7637 56.0447L32.6554 56.2607L32.5741 56.4743L32.51 56.6878L32.4632 56.9063L32.4312 57.1223L32.4115 57.3408L32.4066 57.5617L32.4139 57.7802L32.4361 57.9987L32.4731 58.2222L32.5273 58.4407L32.5987 58.6592L32.6972 58.8826L32.8229 59.0986L32.9854 59.3097L33.2022 59.5108L33.419 59.6523L33.6086 59.7392L33.7712 59.7888L33.9338 59.8211L34.0988 59.836L34.2663 59.831L34.4264 59.8112L34.5816 59.7789L34.7368 59.7317L34.8846 59.6721L35.0275 59.6001L35.1654 59.5132L35.291 59.4164L35.4068 59.3097L35.5127 59.193L35.6014 59.0738L35.6778 58.9521L35.7443 58.823L35.8108 58.6691L35.8797 58.4506L35.929 58.2023L35.9512 57.9689V57.743L35.9364 57.522L35.9068 57.3135L35.865 57.1124L35.8108 56.9162L35.7467 56.73L35.6728 56.5512L35.5866 56.375L35.4856 56.2061L35.36 56.0373L35.1851 55.861L34.9339 55.6897L34.5422 55.568L34.02 55.6301L33.7687 55.7667C33.3056 56.0745 33.18 56.7002 33.4855 57.167C33.7909 57.6337 34.4116 57.7604 34.8747 57.4525L34.7196 57.5245L34.3033 57.5742L34.0249 57.4897L33.8894 57.3979L33.8328 57.3408L33.8229 57.3284L33.8328 57.3457L33.8525 57.383L33.8771 57.4426L33.9018 57.5121L33.9215 57.5866L33.9387 57.666L33.951 57.743L33.9559 57.8125V57.8746L33.9535 57.9218L33.9486 57.9441L33.9362 57.9813L33.9486 57.9466L33.9559 57.9342L33.9633 57.9218L33.9757 57.9069L33.9929 57.887L34.0101 57.8696L34.0298 57.8547L34.052 57.8398L34.0693 57.8324L34.0816 57.8274L34.0914 57.8249H34.0865L34.1161 57.8224H34.1604L34.2072 57.8274L34.2565 57.8373L34.3107 57.8547L34.3969 57.8969L34.424 57.9193L34.4683 57.9615L34.4831 57.9764L34.4782 57.9689L34.4658 57.9416L34.4486 57.887L34.4314 57.815L34.4166 57.7331L34.4067 57.6387L34.4018 57.5394L34.4043 57.4426L34.4116 57.3457L34.424 57.2539L34.4387 57.1744L34.4585 57.1074L34.4757 57.0577L34.4855 57.0354L34.5028 57.0081L34.4757 57.0428L34.4585 57.0602L34.4363 57.0801L34.4043 57.1024L34.3599 57.1273L34.3082 57.1496L34.3279 57.1421L34.3304 57.1397H34.3279H34.3156H34.291L34.2639 57.1372L34.2343 57.1297L34.1998 57.1173L34.1727 57.1049L34.1505 57.09L34.1284 57.0751L34.089 57.0379L34.1062 57.0528L34.1087 57.0553L34.1234 57.085L34.1432 57.1322L34.1604 57.1918L34.1752 57.2663L34.185 57.3482L34.1875 57.4277L34.1826 57.5071L34.1727 57.5791L34.1604 57.6337L34.1382 57.6983L34.1432 57.6859V57.6884L34.1481 57.6809L34.1604 57.666L34.1776 57.6486L34.2023 57.6288L34.2368 57.6064L34.2737 57.5891L34.3156 57.5742L34.3624 57.5617L34.4387 57.5543L34.5496 57.5617L34.6925 57.6015L34.7836 57.6486L34.8353 57.6884L34.86 57.7157L34.8476 57.6983L34.8304 57.666L34.8107 57.6164L34.791 57.5593L34.7737 57.4972L34.759 57.4277L34.7467 57.3582L34.7393 57.2936L34.7368 57.234V57.1844L34.7393 57.1521L34.7417 57.1347L34.7393 57.1397L34.722 57.1769L34.6851 57.234L34.6161 57.3085L34.5028 57.3879L34.4067 57.4302L34.4683 57.4153L34.5225 57.4028L34.5422 57.4004H34.5176L34.424 57.3904L34.2565 57.3383L34.0249 57.1844L33.818 56.8864L33.7515 56.591L33.7687 56.3874L33.8057 56.2682L33.85 56.1838L33.8303 56.2161L33.7811 56.2732L33.6924 56.365L33.5815 56.4693L33.4584 56.5761L33.3254 56.6828L33.2712 56.725L33.212 56.7672L33.1579 56.8045L33.1111 56.8368L33.0741 56.8591L33.0495 56.874L33.0445 56.8765L33.0766 56.8641L33.1677 56.8392L33.2367 56.8268L33.6283 56.869H33.6259H33.6234H33.6209L33.6554 56.8815L33.7293 56.9112L33.8057 56.951L33.8821 57.0006L33.9559 57.0602L34.0249 57.1273L34.0865 57.2017L34.1382 57.2812L34.1604 57.3209V57.3184V57.3159V57.3135L34.2663 57.8349L34.2392 57.9764L34.1875 58.1204L34.1653 58.1601L34.1703 58.1527L34.1998 58.1154L34.2565 58.0484L34.286 58.0136L34.323 57.9714L34.3673 57.9242L34.4166 57.8721L34.4683 57.815L34.5274 57.7529L34.589 57.6884L34.658 57.6189L34.7319 57.5444L34.8107 57.4649L34.8944 57.383L34.9856 57.2936C35.3625 56.9261 35.3699 56.3203 35.0053 55.9405C34.6284 55.5631 34.0298 55.5556 33.653 55.9231Z" fill="#673065"/>
<path d="M54.3246 55.7865L54.3098 55.8263L54.3049 55.8387V55.8412L54.3098 55.8337L54.3246 55.8114L54.3714 55.7518L54.4305 55.6947L54.598 55.5854L54.8222 55.5134L55.0513 55.5085L55.236 55.5531L55.3444 55.6053L55.4035 55.6425L55.4282 55.6624L55.4134 55.65L55.3666 55.6078L55.0316 55.4141H55.0291H55.0267H55.0242L54.9823 55.4017L54.8887 55.3818L54.7828 55.3694H54.667L54.5439 55.3843L54.4207 55.4166L54.3025 55.4638L54.1965 55.5234L54.1029 55.5929L54.0266 55.6649L53.965 55.7369L53.9157 55.8064L53.8763 55.8709L53.8468 55.9281L53.8246 55.9802L53.8073 56.0274L53.8 56.0497V56.0522V56.0547V56.0572V56.0596V56.0621V56.0646V56.0671V56.0696L53.7556 56.3501V56.437L53.763 56.5512L53.7753 56.658L53.7827 56.7226L53.7901 56.7871L53.8 56.8566L53.8098 56.9311L53.8221 57.0106L53.8369 57.1049L53.864 57.2638L53.9034 57.4525L53.9601 57.6561L54.0389 57.8771L54.167 58.1253L54.332 58.3438L54.534 58.5251L54.7508 58.6492L55.0045 58.7262L55.2754 58.7436L55.539 58.6989L55.7582 58.6145L55.9405 58.5077L56.0982 58.3836L56.2312 58.252L56.3519 58.1129L56.4677 57.9615L56.5785 57.7976L56.6623 57.6462L56.7238 57.4972L56.7657 57.3582L56.7953 57.2241L56.815 57.09L56.8248 56.9336L56.8224 56.7002L56.7879 56.4321L56.7214 56.1664L56.6155 55.8958L56.448 55.6152L56.2509 55.3918L56.0612 55.2378L55.8839 55.1335L55.6917 55.0566L55.4873 55.0044L55.2705 54.9846L55.0414 54.997L54.7828 55.0541L54.5217 55.1683L54.3098 55.3148L54.1374 55.4787L53.9946 55.6549L53.8837 55.8312L53.795 56.0075L53.7211 56.1887L53.6645 56.3675L53.6177 56.5463L53.5832 56.73L53.5586 56.9112L53.5438 57.0925L53.5389 57.2762L53.5462 57.4575L53.5635 57.6412L53.5955 57.8299L53.6423 58.0161L53.7064 58.2048L53.7975 58.4009L53.9207 58.5946L54.0882 58.7858L54.3197 58.9621L54.5512 59.0738L54.7656 59.1334L54.9552 59.1557L55.14 59.1508L55.3173 59.121L55.4873 59.0663L55.6351 58.9968L55.7656 58.9174L55.8839 58.828L55.9824 58.7361L56.0711 58.6418L56.1499 58.5449L56.2312 58.4283L56.3346 58.2569L56.4332 58.0558L56.512 57.8547L56.5785 57.6511L56.6327 57.4401L56.6746 57.2291L56.7041 57.0155L56.7214 56.7946L56.7263 56.5736L56.7164 56.3501L56.6894 56.1217L56.6401 55.8933L56.5662 55.6599L56.4529 55.4166L56.2952 55.1807L56.0809 54.9573L55.7952 54.7686L55.5193 54.6618L55.2804 54.6171L55.071 54.6097L54.8715 54.632L54.6818 54.6792L54.4995 54.7512L54.3419 54.8381L54.2015 54.9349L54.0758 55.0442L53.9675 55.1559L53.8714 55.2701L53.7852 55.3893L53.699 55.5308L53.5856 55.7468L53.4847 55.9951L53.4058 56.2434L53.3467 56.4966L53.3073 56.7548L53.2876 57.013V57.2737L53.3122 57.5419L53.359 57.7827L53.4058 57.9491L53.46 58.0931L53.529 58.2346L53.6127 58.3761L53.7236 58.5201L53.8541 58.6542L54.0093 58.7758L54.1941 58.8826L54.3887 58.9596L54.5931 59.0068L54.805 59.0241L55.002 59.0117L55.1892 58.977L55.3715 58.9223L55.539 58.8553L55.6967 58.7758L55.8518 58.6815L55.9799 58.5946C56.4356 58.2793 56.5514 57.6511 56.2386 57.1893C55.9257 56.73 55.3025 56.6133 54.8444 56.9286L54.768 56.9808L54.7311 57.0031L54.7089 57.0155L54.704 57.018L54.7237 57.013L54.7606 57.0056L54.8173 57.0031L54.8961 57.0106L54.9774 57.0279L55.0587 57.0602L55.14 57.1074L55.1991 57.1546L55.2434 57.2017L55.2754 57.2439L55.2927 57.2713L55.3001 57.2886L55.3025 57.2961L55.3075 57.3184L55.2927 57.2464L55.2878 57.1794V57.085L55.2951 56.9783L55.3124 56.8715L55.337 56.7623L55.3666 56.663L55.3986 56.5835L55.4429 56.5016V56.5041L55.4479 56.4966L55.4503 56.4941L55.4454 56.4991L55.4257 56.5165L55.3986 56.5363L55.3567 56.5587L55.2976 56.581L55.2311 56.5984L55.1597 56.6059L55.0833 56.6034L54.9799 56.581L54.9158 56.5512L54.8148 56.4842L54.7557 56.4246L54.7311 56.3849L54.7237 56.37L54.7311 56.3923L54.7409 56.4395L54.7483 56.5041L54.7532 56.5885V56.6853L54.7458 56.7846L54.7335 56.8889L54.7163 56.9907L54.6941 57.085L54.667 57.1719L54.6399 57.2439L54.6178 57.2936L54.5882 57.3433L54.598 57.3259L54.603 57.3209L54.6128 57.311L54.6325 57.2936L54.6695 57.2663L54.7163 57.239L54.7779 57.2117L54.8592 57.1868L54.9454 57.1719L55.0365 57.1695L55.1326 57.1794L55.2533 57.2142L55.3395 57.2588L55.4405 57.3358L55.4947 57.3954L55.5193 57.4326L55.5267 57.45L55.5218 57.4376L55.5119 57.4053L55.5045 57.3606L55.4971 57.3011L55.4922 57.234V57.162L55.4971 57.085L55.5045 57.0106L55.5168 56.941L55.5316 56.8765L55.5489 56.8219L55.5636 56.7821L55.576 56.7573L55.5784 56.7499L55.5636 56.7648L55.5316 56.7946L55.4725 56.8343L55.3789 56.874L55.3001 56.8939L55.236 56.8988L55.1745 56.8914L55.1129 56.8765L55.0538 56.8517L54.9971 56.8169L54.9183 56.7499L54.9133 56.7399L54.8986 56.7151L54.9035 56.73L54.9133 56.7672L54.9183 56.807V56.874V56.8591V56.8616L54.9207 56.8541L54.9281 56.8343L54.9454 56.7921L54.9774 56.735L54.9183 56.8243L54.8739 56.8839L54.8444 56.9187L54.8345 56.9286L54.8592 56.9112L54.9158 56.8765L55.0168 56.8368L55.172 56.8119L55.342 56.8219L55.4996 56.8715L55.6302 56.946L55.7509 57.0577L55.773 57.0925L55.7829 57.1074L55.7656 57.0602L55.7435 56.9808L55.7238 56.8839L55.7065 56.7772L55.6942 56.7027L55.6819 56.6307L55.672 56.5661L55.6646 56.509L55.6572 56.4594L55.6523 56.4246L55.6449 56.3625V56.3526V56.3551L55.6006 56.6357V56.6332V56.6307V56.6282V56.6257V56.6232V56.6208V56.6183V56.6158L55.5957 56.6332L55.5784 56.6754L55.5587 56.725L55.5316 56.7797L55.4947 56.8392L55.4479 56.9038L55.3888 56.9733L55.3149 57.0428L55.2262 57.1099L55.1227 57.1695L55.0094 57.2166L54.8887 57.2464L54.7705 57.2613H54.6596L54.5586 57.2489L54.47 57.2291L54.4305 57.2166H54.433H54.4355H54.4379H54.4404L54.1054 57.023L54.1448 57.0577L54.1818 57.0925L54.263 57.1595L54.3813 57.239L54.5562 57.3234L54.8124 57.388L55.1129 57.383L55.4134 57.2886L55.6597 57.1273L55.8001 56.9832L55.8888 56.8666L55.9454 56.7772L55.9922 56.6928L56.0341 56.6083L56.0711 56.5214L56.0982 56.447C56.2829 55.9529 56.0366 55.4017 55.5464 55.2155C55.0562 55.0293 54.5094 55.2925 54.3246 55.7865Z" fill="#673065"/>
<path d="M39.7225 51.531L39.8555 51.3125L39.9836 51.1188L40.119 50.9326L40.257 50.7539L40.3999 50.585L40.5477 50.4236L40.7004 50.2697L40.8556 50.1257L41.0157 49.9891L41.1782 49.86L41.3433 49.7409L41.5108 49.6291L41.6832 49.5224L41.8556 49.4255L42.033 49.3362L42.2128 49.2542L42.3926 49.1822L42.5749 49.1177L42.7597 49.0581L42.9444 49.0084L43.1316 48.9662L43.3188 48.9315L43.506 48.9042L43.6957 48.8843L43.8878 48.8719L44.0775 48.8669L44.2696 48.8694L44.4618 48.8793L44.6514 48.8967L44.8436 48.9215L45.0357 48.9538L45.2254 48.9935L45.415 49.0432L45.6047 49.0978L45.7919 49.1599L45.9791 49.2319L46.1663 49.3113L46.3486 49.3957L46.5309 49.4901L46.7132 49.5919L46.8905 49.7011L47.0679 49.8203L47.2428 49.9469L47.4127 50.081L47.5827 50.225L47.7502 50.3765L47.9128 50.5354L48.0827 50.7166C48.4646 51.1188 49.1001 51.1337 49.4991 50.7489C49.8982 50.364 49.9129 49.7235 49.5311 49.3213L49.3341 49.1127L49.1173 48.9017L48.8956 48.703L48.669 48.5119L48.4375 48.3306L48.201 48.1618L47.962 48.0029L47.7157 47.8539L47.4694 47.7174L47.2181 47.5883L46.962 47.4716L46.7058 47.3648L46.4471 47.268L46.1836 47.1836L45.92 47.1091L45.654 47.0445L45.3855 46.9924L45.1195 46.9502L44.851 46.9179L44.58 46.898L44.3115 46.8881H44.043L43.7745 46.898L43.5085 46.9204L43.2425 46.9527L42.9764 46.9949L42.7129 47.0495L42.4517 47.114L42.1931 47.1885L41.9369 47.2729L41.6832 47.3673L41.432 47.474L41.1856 47.5907L40.9442 47.7174L40.7053 47.8539L40.4713 48.0004L40.2422 48.1568L40.0156 48.3257L39.7964 48.5019L39.5821 48.6881L39.3727 48.8868L39.1707 49.0928L38.9736 49.3089L38.784 49.5348L38.6017 49.7707L38.4268 50.014L38.2568 50.2697L38.1041 50.518C37.8307 50.9674 37.9686 51.5558 38.4145 51.8339C38.8628 52.1219 39.4466 51.9804 39.7225 51.531Z" fill="#673065"/>
</g>
<defs>
<clipPath id="clip0_1182_407">
<rect width="91" height="86" fill="white"/>
</clipPath>
</defs>
</svg>
