<svg width="74" height="73" viewBox="0 0 74 73" fill="none" xmlns="http://www.w3.org/2000/svg">
<path d="M37.1858 28.0181C44.4239 28.0181 50.2915 22.1505 50.2915 14.9124C50.2915 7.67428 44.4239 1.80664 37.1858 1.80664C29.9477 1.80664 24.08 7.67428 24.08 14.9124C24.08 22.1505 29.9477 28.0181 37.1858 28.0181Z" stroke="#7B487B" stroke-width="3" stroke-miterlimit="10"/>
<path d="M38.4392 28.0182C38.4392 28.0182 54.6287 29.7528 61.0852 17.1289C63.9761 10.8651 77.4674 14.0452 70.0472 25.8018C62.627 37.5584 50.2922 40.0639 50.2922 40.0639V57.4098H55.7851C57.1342 57.4098 58.1942 56.3497 58.1942 55.0006V53.5551C58.1942 49.7005 61.3743 46.5204 65.2289 46.5204C69.0835 46.5204 72.2636 49.7005 72.2636 53.5551V58.6625C72.2636 65.4081 66.7708 70.901 60.0251 70.901H37.1865H14.3478C7.60216 70.901 2.10931 65.4081 2.10931 58.6625V53.5551C2.10931 49.7005 5.28938 46.5204 9.14402 46.5204C12.9986 46.5204 16.1787 49.7005 16.1787 53.5551V55.0006C16.1787 56.3497 17.2387 57.4098 18.5879 57.4098H24.0807V40.0639C24.0807 40.0639 11.8423 37.6548 4.42209 25.8018C-2.99807 13.9488 10.3968 10.8651 13.3841 17.1289C19.937 29.6564 36.0301 28.0182 36.0301 28.0182" stroke="#7B487B" stroke-width="3" stroke-miterlimit="10"/>
<path d="M24.0815 57.4097C24.0815 57.4097 22.2505 66.5644 29.9598 70.9009" stroke="#7B487B" stroke-width="3" stroke-miterlimit="10"/>
<path d="M50.2931 57.4099C50.2931 57.4099 51.6423 67.721 42.2948 70.9011" stroke="#7B487B" stroke-width="3" stroke-miterlimit="10"/>
<path d="M23.8886 50.6641C23.8886 50.6641 37.1871 43.6294 50.2929 50.6641" stroke="#7B487B" stroke-width="3" stroke-miterlimit="10"/>
<path d="M18.8766 70.9011C18.8766 70.9011 14.0584 64.6373 18.8766 57.4099" stroke="#7B487B" stroke-width="3" stroke-miterlimit="10"/>
<path d="M56.5558 70.9011C56.5558 70.9011 60.9886 64.1555 56.5558 57.4099" stroke="#7B487B" stroke-width="3" stroke-miterlimit="10"/>
<path d="M24.08 55.0001C24.08 55.0001 36.2221 49.0255 50.2915 55.0001" stroke="#7B487B" stroke-width="3" stroke-miterlimit="10"/>
</svg>
