<svg width="77" height="97" viewBox="0 0 77 97" fill="none" xmlns="http://www.w3.org/2000/svg">
<g clip-path="url(#clip0_1182_209)">
<path d="M23.6864 50.8129L23.4329 51.1574L23.1749 51.5089L22.9261 51.8628L22.6773 52.2166L22.4378 52.5728L22.2006 52.9267L21.9704 53.2828L21.7402 53.639L21.5193 53.9975L21.3008 54.356L21.0915 54.7169L20.8822 55.0754L20.6823 55.4362L20.4823 55.7971L20.2917 56.1602L20.101 56.5234L19.9196 56.8889L19.7406 57.252L19.5685 57.6175L19.3965 57.983L19.236 58.3509L19.0756 58.7187L18.9245 59.0865L18.7733 59.4543L18.6315 59.8221L18.4897 60.1923L18.3571 60.5648L18.2246 60.9349L18.1037 61.3074L17.9828 61.6799L17.8712 62.0523L17.7596 62.4271L17.6573 62.802L17.5549 63.1768L17.4619 63.5539L17.3713 63.9287L17.2876 64.3035L17.2038 64.6806L17.1318 65.0578L17.0597 65.4349L16.9969 65.8144L16.9341 66.1915L16.8806 66.571L16.8272 66.9504L16.7853 67.3322L16.7435 67.714L16.7109 68.0958L16.6784 68.4776L16.6551 68.8594L16.6319 69.2411L16.6179 69.6229L16.604 70.0071L16.6016 70.3912L16.5993 70.773L16.6063 71.1571L16.6133 71.5412L16.6295 71.9253L16.6458 72.3094L16.6737 72.6959L16.7016 73.08L16.7388 73.4641L16.776 73.8506L16.8225 74.237L16.869 74.6234L16.9272 75.0099L16.9853 75.3963L17.0504 75.7828L17.1178 76.1692L17.1945 76.5557L17.2713 76.9421L17.3573 77.3309L17.4433 77.7173L17.5387 78.1038L17.634 78.4925L17.741 78.8813L17.8479 79.2701L17.9642 79.6589L18.0804 80.0453L18.206 80.4318L18.3315 80.8205L18.4664 81.2093L18.6013 81.5981L18.7478 81.9868L18.8942 82.3733L19.05 82.7597L19.2058 83.1485L19.3709 83.5373L19.536 83.9261L19.7104 84.3148L19.8848 84.7013L20.0684 85.0877L20.2521 85.4765L20.4474 85.8653L20.6428 86.254L20.8474 86.6428L21.0497 87.0293L21.1892 87.283L21.3287 87.5368L21.4705 87.7835L21.6123 88.0303L21.7565 88.2701L21.9007 88.5075L22.0472 88.738L22.1936 88.9708L22.3424 89.1966L22.4913 89.4224L22.6424 89.6412L22.7935 89.8577L22.947 90.0696L23.1005 90.2814L23.2562 90.4863L23.412 90.6912L23.5701 90.889L23.7282 91.0869L23.8864 91.2778L24.0468 91.4687L24.2096 91.6526L24.3746 91.8412L24.7002 92.1927L25.0303 92.5349L25.3652 92.8655L25.7046 93.1821L26.0464 93.4871L26.3929 93.7781L26.7417 94.0551L27.0928 94.3205L27.4485 94.5742L27.8066 94.8117L28.167 95.0398L28.532 95.254L28.8994 95.4542L29.2691 95.6428L29.6411 95.8197L30.0132 95.9827L30.3875 96.134L30.7665 96.2737L31.1455 96.3994L31.5245 96.5134L31.9082 96.6159L32.2895 96.7067L32.6731 96.7858L33.0591 96.8533L33.4451 96.9069L33.8311 96.9488L34.217 96.979L34.603 96.9977L34.989 97.007L35.375 97.0047L35.7609 96.9907L36.1469 96.9651L36.5329 96.9278L36.9166 96.8813L37.3002 96.8231L37.6839 96.7532L38.0652 96.6741L38.4442 96.5856L38.8232 96.4855L39.1999 96.3761L39.5742 96.2574L39.9486 96.127L40.3183 95.9873L40.688 95.8383L41.0553 95.68L41.4204 95.5124L41.7831 95.3355L42.1435 95.1493L42.5016 94.9537L42.8573 94.7488L43.2108 94.5347L43.5595 94.3135L43.906 94.083L44.2501 93.8433L44.5896 93.5965L44.9267 93.3427L45.2616 93.0797L45.5917 92.8073L45.9172 92.5279L46.2404 92.2393L46.559 91.9436L46.8752 91.641L47.1868 91.3314L47.4937 91.0148L47.796 90.6888L48.0959 90.3559L48.3912 90.0161L48.6819 89.6692L48.9679 89.3153L49.2492 88.9545L49.5259 88.5867L49.7979 88.2119L50.063 87.8301L50.3234 87.4436L50.5792 87.0502L50.8303 86.6498L51.0745 86.2447L51.3139 85.8327L51.5465 85.416L51.6627 85.2018L51.7766 84.9899L51.8883 84.7734L51.9999 84.5593L52.1091 84.3404L52.2161 84.1216L52.3207 83.9004L52.4254 83.6793L52.5277 83.4558L52.63 83.2323L52.73 83.0065L52.8299 82.7784L52.9974 82.3756L53.1555 81.9705L53.302 81.5678L53.4391 81.1651L53.567 80.7647L53.6833 80.3666L53.7902 79.9685L53.8879 79.5727L53.9763 79.1793L54.0576 78.7859L54.132 78.3948L54.1971 78.006L54.2553 77.6172L54.3064 77.2308L54.3506 76.8467L54.3901 76.4625L54.4227 76.0808L54.4506 75.6966L54.4715 75.3195L54.4924 74.94L54.5064 74.5629L54.5203 74.1881L54.5273 73.8133L54.5343 73.4408V73.0683V72.6959L54.532 72.3234L54.5296 71.9532L54.525 71.5831L54.5203 71.2129L54.5134 70.8428L54.5064 70.475L54.5017 70.1048L54.4971 69.737L54.4948 69.3669L54.4924 68.999V68.6289V68.2611L54.4971 67.8909L54.5017 67.5231L54.5134 67.1529L54.525 66.7828L54.5436 66.4103L54.5599 66.0402L54.5854 65.6677L54.611 65.2975L54.6482 64.9227L54.6854 64.5363C54.7366 64.0148 54.3553 63.5516 53.8367 63.5003C53.3159 63.4491 52.8532 63.8309 52.8044 64.3501L52.7672 64.7388L52.7276 65.1392L52.6997 65.5373L52.6718 65.9331L52.6532 66.3242L52.6346 66.713L52.623 67.0994L52.6114 67.4859L52.6067 67.87L52.6021 68.2518V68.6312V69.0084L52.6067 69.3832L52.6114 69.758L52.616 70.1304L52.6207 70.5006L52.6277 70.8707L52.6346 71.2386L52.6393 71.6064L52.6439 71.9719L52.6463 72.3374L52.6486 72.7005V73.0637V73.4245L52.6439 73.7854L52.6393 74.1439L52.6277 74.5024L52.616 74.8586L52.5951 75.2171L52.5742 75.5779L52.5486 75.9318L52.5184 76.288L52.4812 76.6441L52.4393 77.0003L52.3928 77.3565L52.3393 77.7127L52.2789 78.0689L52.2115 78.425L52.1371 78.7835L52.0557 79.1421L51.9673 79.5006L51.8697 79.8614L51.765 80.2222L51.6511 80.5831L51.5279 80.9462L51.3953 81.3117L51.2535 81.6772L51.0977 82.0497L51.007 82.2592L50.914 82.4711L50.8187 82.6806L50.7234 82.8901L50.6257 83.0973L50.5257 83.3045L50.4234 83.5093L50.3234 83.7142L50.2188 83.9144L50.1142 84.1169L50.0072 84.3148L49.9002 84.5127L49.6794 84.9061L49.4561 85.2902L49.226 85.6697L48.9911 86.0445L48.7539 86.4123L48.5098 86.7732L48.2633 87.1294L48.0122 87.4762L47.7564 87.8184L47.496 88.1537L47.231 88.4819L46.9612 88.8032L46.6892 89.1175L46.4125 89.4247L46.1335 89.7251L45.8498 90.0184L45.5638 90.3047L45.2732 90.5841L44.9802 90.8565L44.6849 91.1195L44.385 91.3756L44.0827 91.6247L43.7781 91.8645L43.4712 92.0973L43.1619 92.3231L42.8504 92.5396L42.5365 92.7491L42.2202 92.9493L41.904 93.1402L41.5855 93.3241L41.2646 93.501L40.9437 93.6687L40.6205 93.827L40.295 93.9783L39.9695 94.118L39.6416 94.2506L39.3138 94.374L38.9859 94.4881L38.6558 94.5952L38.3256 94.693L37.9954 94.7814L37.6629 94.8606L37.3304 94.9304L36.9979 94.991L36.6654 95.0422L36.3329 95.0841L36.0004 95.1167L35.6679 95.1399L35.3354 95.1539L35.0053 95.1586L34.6728 95.1516L34.3403 95.1353L34.0101 95.1097L33.6799 95.0724L33.3498 95.0259L33.0219 94.97L32.6917 94.9025L32.3639 94.8257L32.0384 94.7395L31.7105 94.6418L31.385 94.5347L31.0618 94.4159L30.7363 94.2856L30.4131 94.1459L30.0922 93.9946L29.7713 93.8316L29.4505 93.657L29.1319 93.4708L28.8157 93.2729L28.4995 93.0634L28.1856 92.8422L27.874 92.6071L27.5624 92.3603L27.2532 92.1019L26.9463 91.8295L26.6417 91.5455L26.3394 91.2499L26.0395 90.9403L25.7395 90.6143L25.5953 90.4491L25.4489 90.2814L25.3024 90.1068L25.1559 89.9322L25.0094 89.7507L24.8652 89.5691L24.7211 89.3805L24.5769 89.1919L24.4351 88.9964L24.2933 88.8008L24.1514 88.5983L24.0119 88.3981L23.8724 88.1886L23.7329 87.9814L23.5957 87.7649L23.4585 87.5484L23.3237 87.3249L23.1888 87.1037L23.0563 86.8733L22.9237 86.6428L22.7866 86.396L22.6563 86.1609L22.4587 85.7884L22.2611 85.4183L22.0751 85.0481L21.889 84.678L21.7123 84.3078L21.5356 83.9377L21.3682 83.5675L21.2008 83.1974L21.0427 82.8272L20.8846 82.4571L20.7358 82.0869L20.587 81.7168L20.4474 81.3466L20.3079 80.9788L20.1777 80.611L20.0475 80.2432L19.9289 79.8754L19.808 79.5075L19.6964 79.1397L19.5848 78.7719L19.4848 78.4064L19.3848 78.0409L19.2942 77.6754L19.2035 77.3076L19.1221 76.9421L19.0407 76.5766L18.9686 76.2111L18.8966 75.8456L18.8338 75.4801L18.771 75.1146L18.7175 74.7492L18.664 74.386L18.6199 74.0228L18.5757 73.6597L18.5408 73.2965L18.5059 72.9333L18.4804 72.5702L18.4548 72.2093L18.4385 71.8485L18.4222 71.4876L18.4153 71.1268L18.4083 70.766L18.4106 70.4051L18.4129 70.0466L18.4246 69.6881L18.4362 69.3296L18.4571 68.9711L18.478 68.6126L18.5083 68.2541L18.5385 67.8956L18.578 67.5394L18.6175 67.1832L18.6664 66.827L18.7152 66.4709L18.7733 66.1147L18.8315 65.7585L18.8989 65.4046L18.9663 65.0508L19.043 64.6969L19.1198 64.3408L19.2058 63.9869L19.2918 63.633L19.3872 63.2815L19.4825 62.93L19.5871 62.5785L19.6941 62.2269L19.808 61.8754L19.922 61.5239L20.0452 61.1747L20.1684 60.8255L20.3033 60.4763L20.4381 60.1271L20.5823 59.7779L20.7241 59.4287L20.8776 59.0818L21.0287 58.735L21.1915 58.3881L21.3543 58.0412L21.5263 57.6944L21.6984 57.3498L21.8797 57.0053L22.0611 56.6607L22.2518 56.3162L22.4424 55.9717L22.6424 55.6294L22.8424 55.2872L23.0516 54.945L23.2609 54.6028L23.4795 54.2629L23.698 53.9207L23.9259 53.5808L24.1537 53.2409L24.3909 52.9034L24.6281 52.5658L24.8769 52.2283L25.1303 51.8837C25.4233 51.4856 25.3373 50.9246 24.9397 50.6289C24.5397 50.3286 23.9794 50.4124 23.6864 50.8129Z" fill="#673065"/>
<path d="M53.6019 74.3045L53.9204 74.3301L54.2343 74.365L54.5552 74.4116L54.8807 74.4651L55.2109 74.5303L55.5457 74.6048L55.8829 74.6863L56.22 74.7794L56.5595 74.8818L56.8967 74.9913L57.2315 75.11L57.5663 75.238L57.8988 75.373L58.2243 75.5174L58.5475 75.671L58.8637 75.8317L59.173 75.9993L59.4753 76.1762L59.7706 76.3578L60.0542 76.5464L60.3286 76.7419L60.5937 76.9444L60.8448 77.1516L61.0843 77.3658L61.3121 77.587L61.5237 77.8104L61.7214 78.0409L61.905 78.276L62.0701 78.5135L62.2213 78.7556L62.3561 79.0024L62.4724 79.2491L62.577 79.5145L62.6165 79.6286L62.6561 79.7566L62.691 79.887L62.7212 80.0174L62.7468 80.1477L62.7677 80.2804L62.784 80.4155L62.7956 80.5505L62.8026 80.6878L62.8049 80.8275L62.8026 80.9672L62.7956 81.1092L62.784 81.2535L62.7654 81.3979L62.7421 81.5469L62.7142 81.6982L62.6793 81.8495L62.6375 82.0055L62.591 82.1614L62.5375 82.3197L62.477 82.4804L62.4119 82.6433L62.3399 82.8086L62.2608 82.9762L62.1748 83.1462L62.0818 83.3184L61.9795 83.4954L61.8702 83.6746L61.7539 83.8539L61.633 84.0308L61.4214 84.3218L61.2005 84.6012L60.9657 84.8759L60.7192 85.1459L60.4611 85.409L60.1914 85.6674L59.9124 85.9211L59.6217 86.1702L59.3195 86.4147L59.0079 86.6544L58.687 86.8872L58.3569 87.1154L58.0197 87.3365L57.6733 87.553L57.3175 87.7649L56.9571 87.9721L56.5897 88.1723L56.2154 88.3678L55.8341 88.5587L55.4481 88.7426L55.0575 88.9219L54.6622 89.0965L54.2622 89.2641L53.8577 89.4271L53.4508 89.5854L53.0415 89.739L52.63 89.8857L52.2161 90.0277L51.7999 90.165L51.386 90.2954L50.9652 90.4211L50.5466 90.5468L50.1304 90.6609L49.7142 90.775L49.3004 90.8797L48.8842 90.9845L48.4749 91.0823L48.0657 91.1754L47.6611 91.2639L47.2589 91.3477L46.8613 91.4268L46.4683 91.5013L46.08 91.5711L45.6964 91.6363L45.3197 91.6969L44.9477 91.7551L44.5826 91.8086L44.2222 91.8575C43.7037 91.9273 43.3433 92.4046 43.4131 92.9237C43.4828 93.4428 43.9595 93.8037 44.478 93.7338L44.8477 93.6826L45.229 93.6267L45.6173 93.5662L46.0103 93.501L46.4102 93.4312L46.8148 93.3567L47.224 93.2776L47.6379 93.1937L48.0564 93.1053L48.4796 93.0122L48.9051 92.9144L49.3352 92.812L49.7654 92.7025L50.1979 92.5931L50.6327 92.4721L51.0698 92.351L51.5069 92.2207L51.9417 92.0903L52.3812 91.9506L52.8183 91.8063L53.2531 91.6549L53.6879 91.499L54.1204 91.336L54.5506 91.1684L54.9784 90.9938L55.4039 90.8122L55.8248 90.626L56.2433 90.4328L56.6572 90.2326L57.0664 90.0277L57.471 89.8158L57.8709 89.597L58.2639 89.3712L58.6498 89.1384L59.0288 88.8986L59.4009 88.6519L59.7659 88.3981L60.124 88.1374L60.4704 87.8673L60.8099 87.5903L61.1401 87.3063L61.4586 87.013L61.7679 86.7126L62.0655 86.403L62.3515 86.0864L62.6258 85.7605L62.8886 85.4253L63.1327 85.0877L63.2862 84.8642L63.428 84.6454L63.5606 84.4266L63.6861 84.2077L63.8024 83.9889L63.9117 83.7724L64.014 83.5559L64.107 83.3394L64.193 83.1252L64.2697 82.9111L64.3395 82.6969L64.4023 82.485L64.4581 82.2732L64.5046 82.0613L64.5441 81.8518L64.5767 81.6423L64.6022 81.4328L64.6185 81.2256L64.6278 81.0207L64.6301 80.8159L64.6255 80.6133L64.6139 80.4131L64.5953 80.2129L64.5697 80.015L64.5371 79.8195L64.4976 79.6263L64.4511 79.4354L64.3999 79.2468L64.3418 79.0606L64.2744 78.865L64.1372 78.5205L63.9721 78.1713L63.7861 77.8361L63.5838 77.5101L63.3606 77.1935L63.1234 76.8909L62.87 76.5976L62.6026 76.3136L62.3213 76.0435L62.0283 75.7828L61.7237 75.5314L61.4098 75.2916L61.0866 75.0611L60.7518 74.8399L60.41 74.6281L60.0612 74.4279L59.7054 74.237L59.345 74.0554L58.98 73.8831L58.6103 73.7202L58.2383 73.5689L57.8616 73.4245L57.4826 73.2918L57.1036 73.1684L56.7246 73.0544L56.3433 72.9519L55.9643 72.8588L55.5876 72.775L55.2132 72.7029L54.8412 72.64L54.4738 72.5888L54.1088 72.5469L53.7623 72.5189C53.2694 72.477 52.8369 72.8449 52.7951 73.3384C52.7439 73.8296 53.109 74.2649 53.6019 74.3045Z" fill="#673065"/>
<path d="M17.0318 71.7065L16.6667 71.6785L16.2761 71.6669L15.8855 71.6739L15.4949 71.6972L15.1019 71.7367L14.7113 71.7926L14.3207 71.8625L13.93 71.9486L13.5441 72.0487L13.1604 72.1628L12.7791 72.2908L12.4047 72.4328L12.0327 72.5865L11.6653 72.7541L11.3073 72.9333L10.9538 73.1242L10.6074 73.3268L10.2702 73.5409L9.94238 73.7667L9.62384 74.0042L9.31691 74.251L9.01929 74.5094L8.7333 74.7794L8.46126 75.0588L8.20084 75.3474L7.95437 75.6478L7.72418 75.955L7.51026 76.2717L7.31263 76.5999L7.13359 76.9375L6.97315 77.282L6.83364 77.6382L6.71506 78.0013L6.61973 78.3715L6.54765 78.751L6.50347 79.1188L6.48952 79.326L6.48254 79.5215V79.7171L6.48952 79.9126L6.50347 80.1105L6.5244 80.3084L6.5523 80.5063L6.58718 80.7065L6.63135 80.9067L6.68251 81.1069L6.74064 81.3071L6.80574 81.5073L6.87782 81.7052L6.9592 81.9054L7.04756 82.1032L7.14289 82.3011L7.24752 82.499L7.35913 82.6946L7.47771 82.8901L7.6056 83.0857L7.74046 83.2789L7.88229 83.4698L8.03343 83.663L8.19154 83.8516L8.35197 84.0355L8.51473 84.2217L8.83561 84.5756L9.16578 84.9224L9.5006 85.26L9.8424 85.5882L10.1888 85.9072L10.5399 86.2168L10.8957 86.5171L11.2561 86.8081L11.6188 87.0921L11.9862 87.3691L12.3582 87.6369L12.7326 87.8976L13.1116 88.1513L13.4929 88.3981L13.8766 88.6379L14.2649 88.8707L14.6555 89.0965L15.0484 89.3177L15.4437 89.5318L15.8413 89.7414L16.2412 89.9462L16.6435 90.1464L17.0504 90.342L17.455 90.5305L17.8619 90.7191L18.2734 90.9007L18.685 91.0823L19.0989 91.2569L19.5104 91.4315L19.9266 91.6014L20.3428 91.7714L20.7614 91.9366L21.1776 92.1019L21.5961 92.2626L22.0146 92.4232L22.4355 92.5838L22.854 92.7421L23.2725 92.9004L23.6911 93.0587L24.1096 93.217L24.5281 93.3753L24.9466 93.5336L25.3605 93.6919L25.7744 93.8549L26.1929 94.0179L26.6115 94.1808L27.03 94.3438C27.5159 94.5347 28.0647 94.2926 28.2553 93.806C28.446 93.3195 28.2042 92.7701 27.7182 92.5792L27.2997 92.4162L26.8812 92.2532L26.4626 92.0903L26.0395 91.925L25.614 91.7644L25.1954 91.6061L24.7769 91.4478L24.3584 91.2895L23.9398 91.1312L23.5213 90.9729L23.1028 90.8146L22.6866 90.6586L22.2727 90.5003L21.8612 90.342L21.4519 90.1813L21.0427 90.0207L20.6358 89.8554L20.2312 89.6901L19.829 89.5202L19.429 89.3526L19.0314 89.178L18.6362 89.0057L18.2455 88.8265L17.8526 88.6449L17.4666 88.461L17.0829 88.2724L16.7016 88.0792L16.3226 87.8813L15.9483 87.6788L15.5762 87.4716L15.2089 87.2597L14.8461 87.0432L14.4857 86.8197L14.1277 86.5916L13.7742 86.3588L13.4255 86.119L13.0813 85.8722L12.7419 85.6185L12.4047 85.3578L12.0722 85.09L11.7444 84.8153L11.4212 84.5313L11.1026 84.2403L10.7887 83.9423L10.4795 83.6351L10.1749 83.3185L9.87263 82.9902L9.72847 82.8249L9.58198 82.6573L9.4541 82.506L9.33552 82.357L9.22391 82.208L9.11928 82.059L9.02162 81.9123L8.93094 81.7657L8.84723 81.619L8.7705 81.4747L8.70075 81.3304L8.63564 81.1884L8.57751 81.0487L8.52403 80.909L8.47753 80.7693L8.43568 80.632L8.4008 80.4946L8.37057 80.3573L8.345 80.2222L8.32407 80.0872L8.30779 79.9522L8.29849 79.8195L8.29384 79.6868V79.5541L8.29849 79.4237L8.30547 79.3073L8.3357 79.0303L8.38453 78.7719L8.45195 78.5135L8.53334 78.2551L8.63332 78.0013L8.74958 77.7476L8.88211 77.4962L9.03092 77.2494L9.19601 77.005L9.37504 76.7629L9.56803 76.5277L9.77497 76.2973L9.99586 76.0714L10.2284 75.8526L10.4725 75.6408L10.7283 75.4359L10.9934 75.238L11.2677 75.0495L11.5514 74.8679L11.842 74.6979L12.1397 74.535L12.4443 74.3813L12.7535 74.2393L13.0674 74.109L13.3859 73.9879L13.7045 73.8808L14.0277 73.7854L14.3509 73.7016L14.6741 73.6317L14.9973 73.5735L15.3205 73.527L15.639 73.4944L15.9552 73.4757L16.2691 73.4711L16.5761 73.4804L16.8993 73.506C17.3922 73.5433 17.8224 73.1754 17.8619 72.6819C17.8921 72.1767 17.5247 71.7461 17.0318 71.7065Z" fill="#673065"/>
<path d="M53.5368 70.5541L53.2555 70.6147L52.9788 70.6752L52.7021 70.7334L52.4254 70.7916L52.151 70.8451L51.8743 70.8987L51.6 70.9499L51.3256 71.0011L51.0512 71.05L50.7768 71.0989L50.5048 71.1454L50.2304 71.192L49.9584 71.2362L49.6863 71.2805L49.4143 71.32L49.1423 71.3596L48.8702 71.3969L48.5982 71.4341L48.3285 71.469L48.0587 71.5039L47.789 71.5365L47.5193 71.5691L47.2496 71.5994L46.9822 71.6297L46.7148 71.6553L46.4427 71.6832L46.1707 71.7111L45.9056 71.7367L45.6406 71.7577L45.3685 71.7786L45.0965 71.7996L44.8314 71.8206L44.5687 71.8368L44.2966 71.8555L44.0246 71.8718L43.7595 71.8881L43.4944 71.902L43.2224 71.916L42.9504 71.93L42.6853 71.9416L42.4225 71.9509L42.1528 71.9602L41.8831 71.9695L41.618 71.9789L41.353 71.9835L41.0833 71.9882L40.8135 71.9928L40.5485 71.9975H40.2834L40.0114 71.9998L39.7393 72.0021L39.4742 72.0045L39.2092 72.0021L38.9371 71.9998L38.6651 71.9975L38.4 71.9952L38.1326 71.9905L37.8606 71.9858L37.5885 71.9812L37.3211 71.9765L37.0538 71.9672L36.7817 71.9579L36.5097 71.9486L36.2423 71.9416L35.9726 71.93L35.6982 71.9183L35.4238 71.9067L35.1541 71.895L34.8844 71.8811L34.61 71.8671L34.3356 71.8531L34.0636 71.8392L33.7916 71.8229L33.5149 71.8066L33.2382 71.7903L32.9661 71.774L32.6918 71.7554L32.4127 71.7367L32.1337 71.7181L31.8593 71.6995L31.5826 71.6785L31.3036 71.6576L31.0246 71.6366L30.7479 71.6157L30.4689 71.5947L30.1876 71.5715L29.9062 71.5482L29.6272 71.5272L29.3458 71.5039L29.0622 71.4807L28.7785 71.4574L28.4972 71.4341L28.2135 71.4085L27.9275 71.3829L27.6415 71.3573L27.3532 71.3317L26.9649 71.2991L26.5766 71.2665L26.1836 71.2339L25.793 71.2013L25.4 71.1687L25.0094 71.1361L24.6165 71.0989L24.2258 71.0616L23.8352 71.0197L23.4469 70.9778L23.0609 70.9266L22.6726 70.8754L22.2936 70.8195L21.9146 70.7567L21.538 70.6892L21.159 70.6077L20.7916 70.5262L20.4265 70.4377L20.0661 70.3423L19.7127 70.2375L19.3639 70.1235L19.0198 70.0024L18.6827 69.872L18.3362 69.7254C17.8549 69.5205 17.2992 69.744 17.0946 70.2259C16.89 70.7078 17.1132 71.2642 17.5945 71.469L17.9688 71.6273L18.3618 71.781L18.7571 71.9207L19.1547 72.0487L19.5569 72.1674L19.9592 72.2745L20.3638 72.3723L20.7707 72.4608L21.1776 72.5422L21.5845 72.6167L21.9937 72.6842L22.4052 72.7448L22.8098 72.7983L23.2167 72.8519L23.6236 72.8961L24.0282 72.9403L24.4328 72.9776L24.8327 73.0148L25.2326 73.0497L25.6302 73.0823L26.0232 73.1149L26.4138 73.1475L26.7998 73.1801L27.1858 73.2127L27.4718 73.236L27.7578 73.2592L28.0438 73.2825L28.3321 73.3081L28.6181 73.3314L28.9017 73.3547L29.1854 73.378L29.4714 73.4013L29.7551 73.4222L30.0364 73.4432L30.3178 73.4641L30.6014 73.4851L30.8851 73.5037L31.1641 73.5223L31.4431 73.5409L31.7268 73.5619L32.0082 73.5782L32.2872 73.5945L32.5662 73.6108L32.8475 73.6294L33.1289 73.6457L33.4056 73.6597L33.6823 73.6736L33.9636 73.6899L34.2426 73.7039L34.517 73.7155L34.7914 73.7295L35.0704 73.7435L35.3494 73.7528L35.6238 73.7621L35.8981 73.7714L36.1772 73.7807L36.4539 73.7877L36.7259 73.7947L36.9979 73.8017L37.2746 73.8086L37.5513 73.8133L37.8234 73.818L38.0954 73.8226L38.3721 73.8273H38.6488H38.9209H39.1929H39.4696L39.7463 73.8249L40.0183 73.8226L40.2904 73.8203L40.5671 73.818L40.8438 73.811L41.1135 73.804L41.3832 73.797L41.6599 73.79L41.9366 73.7807L42.2063 73.7714L42.476 73.7621L42.7527 73.7504L43.0317 73.7365L43.3038 73.7225L43.5758 73.7085L43.8525 73.6946L44.1315 73.676L44.4036 73.6573L44.6756 73.6387L44.9546 73.6201L45.2337 73.5968L45.5057 73.5735L45.7778 73.5502L46.0568 73.527L46.3381 73.499L46.6102 73.4711L46.8822 73.4432L47.1612 73.4152L47.4402 73.3826L47.7169 73.35L47.9936 73.3151L48.2726 73.2802L48.5517 73.243L48.8307 73.2057L49.1097 73.1661L49.3887 73.1266L49.6677 73.0846L49.9468 73.0427L50.2281 72.9985L50.5094 72.9543L50.7908 72.9077L51.0721 72.8612L51.3535 72.8099L51.6348 72.7587L51.9185 72.7052L52.2022 72.6516L52.4858 72.5958L52.7695 72.5399L53.0555 72.4794L53.3415 72.4212L53.6275 72.3583L53.9088 72.2978C54.3925 72.193 54.6994 71.7158 54.5924 71.2316C54.4971 70.7567 54.0204 70.4494 53.5368 70.5541Z" fill="#673065"/>
<path d="M54.7854 73.1871L54.9831 73.0334L55.1737 72.8938L55.3714 72.7587L55.5737 72.6307L55.7783 72.5096L55.9899 72.3932L56.2061 72.2815L56.4247 72.1767L56.6479 72.0766L56.8734 71.9812L57.1013 71.8927L57.3338 71.8089L57.5687 71.7321L57.8058 71.6599L58.0476 71.5947L58.2918 71.5342L58.5359 71.4783L58.7824 71.4294L59.0312 71.3852L59.28 71.3456L59.5311 71.313L59.7822 71.2851L60.0333 71.2618L60.2844 71.2432L60.5356 71.2292L60.7844 71.2223L61.0331 71.2199L61.2819 71.2223L61.5284 71.2292L61.7749 71.2409L62.019 71.2572L62.2608 71.2781L62.5003 71.3037L62.7375 71.334L62.9723 71.3689L63.2048 71.4085L63.4327 71.4504L63.6559 71.497L63.8768 71.5482L64.0931 71.6017L64.3046 71.6599L64.5116 71.7228L64.7139 71.788L64.9092 71.8555L65.0999 71.9276L65.2859 72.0021L65.4649 72.079L65.637 72.1604L65.8021 72.2442L65.9602 72.3304L66.1113 72.4188L66.2555 72.5096L66.3903 72.6004L66.5182 72.6935L66.6391 72.789L66.7484 72.8821L66.8507 72.9776L66.946 73.073L67.0297 73.1685L67.1065 73.2639L67.1762 73.3593L67.2344 73.4501L67.2855 73.5433L67.3297 73.634L67.3646 73.7225L67.3948 73.8133L67.418 73.9018L67.4343 73.9879L67.4436 74.0787L67.4483 74.1718L67.4459 74.2626L67.4366 74.3604L67.4204 74.4628L67.3948 74.5676L67.3599 74.6793L67.3157 74.7957L67.2623 74.9168L67.1948 75.0448L67.1158 75.1798L67.0251 75.3172L66.9205 75.4615L66.8019 75.6105L66.6693 75.7618L66.5205 75.9201L66.3578 76.0808L66.1787 76.2437L65.9834 76.4113L65.7718 76.5813L65.544 76.7535L65.2998 76.9305L65.0394 77.1074L64.7627 77.2866L64.4651 77.4682L64.1512 77.6521L63.821 77.8361L63.4629 78.027C63.0026 78.2737 62.8282 78.8464 63.0723 79.3073C63.3188 79.7683 63.8908 79.9429 64.3512 79.6984L64.7232 79.4982L65.0859 79.2934L65.4324 79.0885L65.7625 78.8836L66.0787 78.6788L66.3787 78.4739L66.6624 78.2691L66.9321 78.0619L67.1855 77.857L67.425 77.6498L67.6506 77.4403L67.8621 77.2308L68.0598 77.0213L68.2435 76.8094L68.4132 76.5976L68.569 76.3834L68.7108 76.1646L68.8387 75.9457L68.9526 75.7269L69.0526 75.5034L69.1363 75.2799L69.2061 75.0541L69.2596 74.826L69.2968 74.5978L69.3177 74.3697L69.3223 74.1416L69.3107 73.9181L69.2851 73.6969L69.2433 73.4757L69.1875 73.2639L69.1177 73.0567L69.034 72.8518L68.9387 72.6586L68.8317 72.4701L68.7131 72.2862L68.5853 72.1116L68.4481 71.9439L68.3016 71.781L68.1458 71.625L67.9831 71.476L67.811 71.3317L67.6343 71.1943L67.4506 71.0616L67.2599 70.9336L67.0646 70.8125L66.8623 70.6961L66.6531 70.5844L66.4391 70.4796L66.2206 70.3795L65.995 70.2841L65.7672 70.1933L65.5347 70.1072L65.2952 70.0257L65.0534 69.9489L64.8069 69.8767L64.5558 69.8092L64.3023 69.7463L64.0442 69.6881L63.7815 69.6369L63.5164 69.5903L63.249 69.5484L62.977 69.5112L62.7049 69.4786L62.4306 69.4507L62.1515 69.4297L61.8725 69.4134L61.5912 69.4018L61.3075 69.3971H61.0239L60.7402 69.4018L60.4542 69.4134L60.1682 69.4297L59.8822 69.4507L59.5939 69.4786L59.3079 69.5135L59.0219 69.5531L58.7336 69.5997L58.4476 69.6509L58.1616 69.7091L57.8779 69.7743L57.5966 69.8464L57.3152 69.9232L57.0362 70.0071L56.7595 70.0978L56.4851 70.1956L56.2108 70.3004L55.941 70.4121L55.6737 70.5309L55.4086 70.6589L55.1482 70.7939L54.8924 70.9359L54.639 71.0872L54.3902 71.2455L54.146 71.4108L53.9065 71.5854L53.6856 71.7577C53.295 72.0627 53.2253 72.626 53.5299 73.0171C53.8321 73.4222 54.3948 73.4897 54.7854 73.1871Z" fill="#673065"/>
<path d="M18.299 60.8744L18.0177 61.1724L17.734 61.4703L17.4503 61.773L17.169 62.0756L16.8876 62.3829L16.6063 62.6879L16.3249 62.9975L16.0436 63.3071L15.7623 63.6191L15.4809 63.931L15.1996 64.2453L14.9182 64.5596L14.6369 64.8785L14.3579 65.1951L14.0788 65.5117L13.7975 65.8307L13.5185 66.1519L13.2418 66.4708L12.9651 66.7898L12.6861 67.111L12.4071 67.4346L12.1304 67.7559L11.8537 68.0772L11.5746 68.4007L11.298 68.7243L11.0213 69.0479L10.7446 69.3715L10.4679 69.6951L10.1935 70.0187L9.91913 70.3423L9.64476 70.6659L9.37039 70.9895L9.09835 71.313L8.82631 71.6343L8.55426 71.9556L8.28222 72.2768L8.0125 72.5958L7.74278 72.9147L7.47306 73.2336L7.20335 73.5526L6.93595 73.8692L6.66856 74.1858L6.40117 74.5024L6.13377 74.8167L5.8687 75.1263L5.60364 75.4382L5.33857 75.7502L5.07582 76.0575L5.05955 76.0761L5.0456 76.0877L5.027 76.1017L5.00607 76.1157L4.98282 76.1296L4.97352 76.1343L4.87354 76.1785L4.77588 76.2088L4.65032 76.2391L4.50383 76.2647L4.33875 76.2856L4.15506 76.3042L3.95742 76.3182L3.74816 76.3322L3.52029 76.3485L3.05293 76.388L2.54838 76.4625L2.06009 76.5883L1.7648 76.6977L1.4974 76.828L1.26024 76.9747L1.11375 77.0818L0.990518 77.1865L0.87426 77.2983L0.762652 77.4193L0.655695 77.5497L0.548738 77.6987L0.402253 77.9362L0.269719 78.1969L0.165086 78.4623L0.0860309 78.7323L0.0348774 79.0117L0 79.2957L0.00465032 79.5727L0.0418529 79.8521L0.109283 80.1221L0.204614 80.3829L0.330173 80.6366L0.481308 80.8717L0.65802 81.0906L0.862634 81.2954L1.08585 81.4747L1.32767 81.6353L1.59041 81.775L1.8485 81.8844L2.00894 81.9403L2.15775 81.9845L2.30888 82.0241L2.46234 82.0567L2.62278 82.0846L2.78322 82.1056L2.9483 82.1219L3.11804 82.1335L3.28778 82.1382H3.46216L3.6412 82.1312L3.80629 82.1195C4.32712 82.0846 4.72007 81.6307 4.6852 81.1092C4.65032 80.5877 4.19691 80.1943 3.67608 80.2292L3.53889 80.2385L3.42264 80.2432H3.3087L3.19942 80.2409L3.09711 80.2339L2.99946 80.2246L2.90645 80.2129L2.82042 80.199L2.73671 80.1803L2.65766 80.1594L2.58558 80.1384L2.53442 80.1221L2.39026 80.0639L2.28563 80.0081L2.19495 79.9475L2.11822 79.887L2.05777 79.8265L2.00661 79.7636L1.96476 79.7008L1.93453 79.6402L1.91128 79.5727L1.89268 79.5029L1.88338 79.433L1.88105 79.3539L1.88803 79.2678L1.90431 79.1793L1.93221 79.0815L1.97174 78.9768L2.02521 78.8697L2.10427 78.7416L2.12752 78.709L2.16007 78.6695L2.19495 78.6322L2.22983 78.5973L2.26471 78.567L2.28331 78.5507L2.39259 78.4809L2.49025 78.432L2.58093 78.3971L2.90412 78.311L3.25057 78.2597L3.6505 78.2248L3.85512 78.2109L4.07601 78.1946L4.30155 78.1759L4.53406 78.1527L4.77355 78.1201L5.01537 78.0758L5.26184 78.0153L5.5176 77.9315L5.7478 77.8314L5.89428 77.7546L6.02216 77.6778L6.14307 77.5916L6.26166 77.4962L6.37791 77.3868L6.48022 77.275L6.74761 76.9561L7.01268 76.6441L7.27775 76.3322L7.54282 76.0179L7.81021 75.699L8.07761 75.38L8.345 75.0634L8.61239 74.7445L8.88211 74.4232L9.15183 74.102L9.42155 73.7807L9.68894 73.4594L9.95866 73.1359L10.2284 72.8123L10.4981 72.4887L10.7678 72.1651L11.0399 71.8415L11.3119 71.5179L11.5839 71.1943L11.856 70.8707L12.128 70.5471L12.4024 70.2236L12.6768 69.9L12.9488 69.5764L13.2232 69.2551L13.4976 68.9315L13.7719 68.6079L14.0463 68.2867L14.3207 67.9677L14.5974 67.6465L14.874 67.3252L15.1484 67.0086L15.4251 66.6943L15.7041 66.3777L15.9831 66.0611L16.2598 65.7468L16.5365 65.4349L16.8132 65.1229L17.0899 64.8133L17.3666 64.5037L17.6456 64.1987L17.9247 63.8938L18.2037 63.5911L18.4827 63.2885L18.7617 62.9905L19.0407 62.6925L19.3198 62.3969L19.6011 62.0989C19.9406 61.7404 19.9266 61.1724 19.5662 60.8325C19.2058 60.4996 18.6385 60.5159 18.299 60.8744Z" fill="#673065"/>
<path d="M3.43894 80.3782L3.22967 80.4108L2.99716 80.4643L2.77627 80.5342L2.56468 80.618L2.36239 80.7181L2.17405 80.8322L1.99734 80.9579L1.83225 81.0976L1.68344 81.2465L1.54626 81.4025L1.42302 81.5701L1.31607 81.7401L1.22073 81.917L1.13935 82.1009L1.07192 82.2848L1.01612 82.4711L0.971941 82.662L0.941714 82.8505L0.923113 83.0391L0.916138 83.2323L0.920788 83.4209L0.930089 83.6048L0.957991 83.7934L0.995193 83.9773L1.04402 84.1612L1.1068 84.3428L1.18121 84.5197L1.26491 84.692L1.36489 84.8619L1.47418 85.0225L1.59741 85.1762L1.73692 85.3252L1.88573 85.4602L2.04849 85.5859L2.22753 85.7L2.41354 85.7977L2.61118 85.8816L2.82277 85.9491L3.03901 85.9956L3.2599 86.0236L3.49009 86.0329L3.72028 86.0236L3.9528 85.9956L4.18996 85.9491L4.4248 85.8839L4.66197 85.8024L4.90146 85.7023L5.1177 85.5952C5.58506 85.3624 5.77572 84.7944 5.54321 84.3265C5.31069 83.8585 4.74335 83.6676 4.27599 83.9004L4.11091 83.9843L3.9807 84.0401L3.85979 84.082L3.74818 84.1146L3.65285 84.1356L3.56449 84.1472L3.48544 84.1519L3.41801 84.1495L3.35523 84.1426L3.29943 84.1309L3.25292 84.1169L3.20642 84.0983L3.16224 84.0774L3.12271 84.0541L3.08086 84.0238L3.04133 83.9889L3.00413 83.9517L2.96693 83.9074L2.92973 83.8585L2.89717 83.805L2.86462 83.7445L2.83439 83.6793L2.80882 83.6141L2.78789 83.5419L2.76929 83.4674L2.75534 83.3929L2.74604 83.3138L2.74139 83.2346V83.1578L2.74836 83.0787L2.75766 83.0018L2.77162 82.9273L2.79254 82.8529L2.81579 82.783L2.8437 82.7178L2.87625 82.6526L2.91345 82.5921L2.95298 82.5386L2.99948 82.485L3.04831 82.4338L3.09946 82.3896L3.15992 82.3454L3.22735 82.3035L3.29943 82.2662L3.38313 82.2313L3.47614 82.201L3.57612 82.1777L3.72028 82.1545C4.20856 82.0776 4.54106 81.6167 4.46433 81.1278C4.38528 80.6343 3.92722 80.3014 3.43894 80.3782Z" fill="#673065"/>
<path d="M3.84116 84.5849L3.74117 84.8107L3.64817 85.0528L3.56911 85.2902L3.50401 85.5254L3.45286 85.7582L3.41798 85.9863L3.39705 86.2098L3.39008 86.4333L3.39705 86.6498L3.41798 86.8616L3.45518 87.0711L3.50633 87.2714L3.56911 87.4646L3.64817 87.6531L3.73885 87.8301L3.84116 88L3.95741 88.1607L4.08297 88.3096L4.21783 88.447L4.36432 88.575L4.51545 88.6891L4.67356 88.7915L4.84098 88.8823L5.01071 88.9591L5.18277 89.0243L5.36181 89.0779L5.54085 89.1198L5.72221 89.15L5.91055 89.1687L6.09656 89.1733L6.28257 89.1663L6.47091 89.1477L6.65693 89.1151L6.84294 89.0709L7.02895 89.015L7.21031 88.9452L7.38935 88.8637L7.56606 88.7682L7.7358 88.6612L7.90089 88.5424L8.06132 88.4097L8.21246 88.2677L8.35662 88.1141L8.4938 87.9465L8.61936 87.7695L8.73794 87.581L8.84723 87.3808L8.93326 87.1969C9.15182 86.722 8.94721 86.1586 8.47288 85.9398C7.99854 85.7209 7.43585 85.9258 7.21729 86.4007L7.15684 86.5334L7.10568 86.6312L7.04988 86.722L6.99175 86.8034L6.93362 86.8756L6.87084 86.9431L6.80806 87.0036L6.74528 87.0572L6.68018 87.1061L6.61275 87.148L6.54764 87.1829L6.48021 87.2155L6.41278 87.2434L6.34768 87.2644L6.28025 87.283L6.21282 87.297L6.14772 87.3063L6.08029 87.3109H6.01286L5.95008 87.3063L5.8873 87.297L5.82452 87.2853L5.76871 87.2714L5.71059 87.2527L5.65478 87.2295L5.60595 87.2038L5.55712 87.1736L5.51062 87.141L5.46877 87.1084L5.42459 87.0665L5.38739 87.0246L5.35484 86.9804L5.32228 86.9315L5.29206 86.8779L5.26648 86.8221L5.24323 86.7569L5.2223 86.6847L5.20835 86.6079L5.19905 86.5194L5.1944 86.424L5.19673 86.3215L5.20603 86.2075L5.22463 86.0841L5.25253 85.9537L5.29206 85.8117L5.34088 85.6604L5.40134 85.5021L5.48504 85.3159C5.68501 84.8642 5.48272 84.3334 5.02931 84.1332C4.57126 83.9284 4.04112 84.1332 3.84116 84.5849Z" fill="#673065"/>
<path d="M7.10338 86.8709L7.13826 87.0665L7.18244 87.2714L7.23127 87.4669L7.28475 87.6578L7.3452 87.8417L7.41031 88.0186L7.48006 88.1886L7.55679 88.3539L7.6405 88.5122L7.72885 88.6635L7.82651 88.8102L7.92882 88.9475L8.03577 89.0779L8.15203 89.2036L8.27294 89.3177L8.40082 89.4247L8.53801 89.5225L8.67984 89.6087L8.82633 89.6855L8.98211 89.7507L9.1379 89.8042L9.29834 89.8438L9.46342 89.8717L9.62618 89.888L9.78894 89.8903L9.95403 89.881L10.1145 89.8601L10.2726 89.8275L10.4307 89.7856L10.5841 89.7344L10.733 89.6738L10.8818 89.6017L11.0236 89.5225L11.1631 89.4364L11.3003 89.3409L11.4305 89.2385L11.5584 89.1291L11.6839 89.0127L11.8049 88.8893L11.9211 88.7589L12.035 88.6216L12.1443 88.4796L12.2513 88.3306L12.3536 88.1746L12.4513 88.014L12.5466 87.8464L12.6396 87.6718L12.721 87.5042C12.9488 87.0339 12.7535 86.4682 12.2838 86.2377C11.8142 86.0096 11.2491 86.2051 11.019 86.6754L10.9515 86.8174L10.8887 86.9385L10.8236 87.0549L10.7585 87.1643L10.6934 87.2644L10.626 87.3598L10.5586 87.4483L10.4935 87.5298L10.426 87.6043L10.3609 87.6741L10.2982 87.7346L10.2354 87.7905L10.1749 87.8394L10.1191 87.8813L10.0633 87.9185L10.0098 87.9511L9.96101 87.9767L9.9145 87.9977L9.87032 88.014L9.83312 88.0256L9.79592 88.0349L9.76337 88.0419L9.73547 88.0443L9.70756 88.0466H9.68199L9.65874 88.0443L9.63316 88.0396L9.60758 88.0326L9.582 88.0233L9.55178 88.0093L9.53318 87.9907L9.50062 87.9698L9.46342 87.9418L9.42389 87.9069L9.38437 87.8673L9.34251 87.8184L9.30066 87.7649L9.25648 87.702L9.2123 87.6275L9.16813 87.5461L9.12395 87.4553L9.07977 87.3552L9.03792 87.2458L8.99839 87.127L8.96119 86.999L8.92631 86.8616L8.89376 86.7173L8.86353 86.5474C8.77517 86.0608 8.30782 85.7372 7.82186 85.8257C7.3359 85.9165 7.0127 86.3821 7.10338 86.8709Z" fill="#673065"/>
<path d="M67.6947 58.3136L67.4622 58.444L67.2366 58.5697L67.0088 58.6907L66.7809 58.8118L66.553 58.9282L66.3228 59.0469L66.0926 59.161L65.8625 59.2751L65.6323 59.3845L65.3997 59.4939L65.1672 59.5987L64.9347 59.7034L64.6999 59.8058L64.465 59.9083L64.2302 60.0061L63.9954 60.1038L63.7582 60.1969L63.521 60.2924L63.2839 60.3832L63.0467 60.474L62.8072 60.5601L62.5677 60.6462L62.3282 60.73L62.0864 60.8139L61.8446 60.8953L61.6028 60.9768L61.3609 61.0536L61.1191 61.1305L60.875 61.205L60.6308 61.2795L60.3867 61.3516L60.1426 61.4215L59.8961 61.489L59.6496 61.5565L59.4032 61.6217L59.1567 61.6869L58.9079 61.7497L58.6614 61.8126L58.4126 61.8731L58.1638 61.9336L57.9151 61.9895L57.6663 62.0477L57.4151 62.1036L57.164 62.1594L56.9129 62.2106L56.6618 62.2619L56.4107 62.3131L56.1596 62.362L55.9084 62.4085L55.6527 62.4574L55.3969 62.5063L55.1481 62.5529L54.8993 62.5948L54.6412 62.639L54.3831 62.6832L54.132 62.7251L53.8809 62.7647L53.6228 62.8043L53.3647 62.8439L53.1113 62.8834L52.8578 62.9207L52.5997 62.9579L52.3417 62.9952L52.0882 63.0324L51.8348 63.065L51.5743 63.0999L51.3139 63.1349L51.0582 63.1674L50.8024 63.1977L50.542 63.2303L50.2816 63.2629L50.0258 63.2932L49.77 63.3234L49.5096 63.3537L49.2492 63.3839L48.9934 63.4142L48.7377 63.4421L48.4772 63.4701L48.2168 63.498L47.9587 63.526L47.7006 63.5516L47.4402 63.5795L47.1798 63.6074L46.9217 63.6354L46.6636 63.661L46.4032 63.6866L46.1428 63.7122L45.8847 63.7378L45.6266 63.7634L45.3662 63.789L45.1058 63.8146L44.8453 63.8402L44.5872 63.8658L44.3291 63.8915L44.0711 63.9171L43.813 63.9427C43.2921 63.9939 42.9131 64.4571 42.9643 64.9786C43.0154 65.5001 43.4781 65.8795 43.999 65.8283L44.2571 65.8027L44.5152 65.7771L44.7733 65.7515L45.0313 65.7259L45.2918 65.7003L45.5522 65.6747L45.8126 65.6491L46.073 65.6235L46.3334 65.5979L46.5939 65.5723L46.8543 65.5466L47.1147 65.521L47.3751 65.4931L47.6355 65.4652L47.8959 65.4372L48.1587 65.4093L48.4214 65.3814L48.6818 65.3534L48.9423 65.3255L49.205 65.2975L49.4678 65.2673L49.7282 65.237L49.9886 65.2068L50.2513 65.1765L50.5141 65.1439L50.7745 65.1113L51.0349 65.0787L51.3 65.0461L51.5627 65.0089L51.8208 64.974L52.0789 64.939L52.344 64.9018L52.609 64.8622L52.8671 64.8226L53.1252 64.7854L53.3903 64.7458L53.653 64.7039L53.9111 64.662L54.1692 64.6201L54.4343 64.5782L54.697 64.5316L54.9551 64.4874L55.2132 64.4409L55.4783 64.3943L55.741 64.3431L55.9968 64.2942L56.2526 64.2453L56.513 64.1941L56.7734 64.1405L57.0338 64.087L57.2919 64.0311L57.55 63.9753L57.8081 63.9171L58.0662 63.8589L58.3243 63.7983L58.5824 63.7378L58.8405 63.6726L59.0986 63.6098L59.3543 63.5423L59.6101 63.4747L59.8659 63.4049L60.1216 63.3351L60.3774 63.2629L60.6332 63.1907L60.8889 63.1139L61.1424 63.0394L61.3958 62.9603L61.6493 62.8811L61.9027 62.7996L62.1562 62.7181L62.4096 62.632L62.6607 62.5459L62.9118 62.4574L63.1629 62.3689L63.4141 62.2758L63.6652 62.1827L63.914 62.0873L64.1628 61.9918L64.4116 61.8917L64.6603 61.7916L64.9091 61.6869L65.1579 61.5821L65.4044 61.475L65.6509 61.3679L65.895 61.2562L66.1415 61.1444L66.3856 61.028L66.6298 60.9116L66.8739 60.7906L67.1157 60.6695L67.3575 60.5461L67.5994 60.4204L67.8412 60.2924L68.083 60.162L68.3225 60.027L68.555 59.8966C68.9875 59.6545 69.1409 59.1098 68.8991 58.6768C68.6736 58.2275 68.1272 58.0738 67.6947 58.3136Z" fill="#673065"/>
<path d="M57.2826 54.5632L57.6012 54.4724L57.9244 54.3816L58.2499 54.2862L58.5754 54.1931L58.9033 54.0976L59.2288 54.0022L59.5566 53.9044L59.8845 53.809L60.2123 53.7112L60.5402 53.6134L60.868 53.5156L61.1959 53.4179L61.5237 53.3178L61.8516 53.22L62.1794 53.1222L62.5073 53.0221L62.8328 52.922L63.156 52.8219L63.4792 52.7218L63.8024 52.6217L64.1209 52.5239L64.4395 52.4261L64.758 52.3284L65.0766 52.2306C65.5765 52.0746 65.8532 51.5438 65.6997 51.0456C65.5439 50.5451 65.0138 50.2681 64.5162 50.4217L64.1977 50.5219L63.8791 50.622L63.5606 50.7221L63.242 50.8222L62.9188 50.9246L62.5956 51.027L62.2724 51.1318L61.9492 51.2365L61.6237 51.3413L61.2982 51.4461L60.9727 51.5508L60.6495 51.6556L60.3263 51.7603L60.0031 51.8651L59.6799 51.9675L59.3567 52.07L59.0335 52.1701L58.7103 52.2702L58.3894 52.3679L58.0685 52.4657L57.75 52.5612L57.4314 52.6543L57.1152 52.7451L56.7967 52.8359C56.32 52.9709 56.0433 53.4667 56.1782 53.944C56.3107 54.4212 56.806 54.6983 57.2826 54.5632Z" fill="#673065"/>
<path d="M65.902 51.1364L65.8904 50.9968L65.888 50.8804L65.8904 50.7663L65.8973 50.6545L65.909 50.5475L65.9276 50.4404L65.9508 50.3356L65.9764 50.2378L66.0066 50.1401L66.0415 50.0469L66.0787 49.9585L66.1205 49.8723L66.1647 49.7885L66.2112 49.7117L66.2624 49.6372L66.3159 49.5674L66.3693 49.5045L66.4251 49.444L66.4833 49.3881L66.5414 49.3392L66.6019 49.2927L66.6623 49.2508L66.7204 49.2159L66.7786 49.1856L66.8367 49.1577L66.8925 49.1367L66.9483 49.1204L67.0041 49.1064L67.0553 49.0971L67.1087 49.0925L67.1599 49.0901L67.2087 49.0925L67.2599 49.0971L67.311 49.1064L67.3599 49.1181L67.4133 49.1344L67.4668 49.1553L67.5203 49.1809L67.5784 49.2135L67.6389 49.2531L67.6993 49.2997L67.7644 49.3555L67.8319 49.4207L67.8993 49.4952L67.9691 49.5813L68.0411 49.6791L68.1132 49.7862L68.1946 49.9259C68.462 50.3752 69.0433 50.5219 69.492 50.2518C69.9408 49.9841 70.0873 49.4021 69.8176 48.9528L69.7106 48.7759L69.585 48.5896L69.4548 48.415L69.32 48.2521L69.1758 48.0984L69.027 47.9564L68.8735 47.826L68.7108 47.705L68.5457 47.5979L68.376 47.5048L68.1992 47.4233L68.0225 47.3558L67.8412 47.3023L67.6552 47.2603L67.4715 47.2347L67.2878 47.2208H67.1041L66.9251 47.2347L66.7483 47.2603L66.5716 47.2976L66.4019 47.3465L66.2368 47.4047L66.0741 47.4745L65.9183 47.5513L65.7694 47.6375L65.623 47.7329L65.4835 47.8354L65.3509 47.9448L65.223 48.0635L65.1021 48.1869L64.9882 48.3173L64.8789 48.4569L64.7766 48.5989L64.6813 48.7479L64.5906 48.9039L64.5069 49.0622L64.4302 49.2252L64.3604 49.3951L64.3 49.5674L64.2465 49.7443L64.2 49.9282L64.1628 50.1145L64.1325 50.303L64.1116 50.4962L64.1 50.6918L64.0953 50.8897L64.1023 51.0922L64.1163 51.2761C64.1535 51.7696 64.5859 52.1398 65.0789 52.1002C65.5718 52.0606 65.9392 51.63 65.902 51.1364Z" fill="#673065"/>
<path d="M69.9385 49.5162L69.9524 49.3998L69.9664 49.302L69.9827 49.2089L70.0012 49.1204L70.0222 49.0389L70.0385 48.9761L70.0896 48.8224L70.1408 48.706L70.1966 48.6036L70.2524 48.5175L70.3058 48.4499L70.364 48.3917L70.4198 48.3429L70.4733 48.3056L70.5314 48.273L70.5918 48.2451L70.6523 48.2265L70.7197 48.2125L70.7918 48.2032L70.8639 48.1985L70.9429 48.2009L71.0266 48.2102L71.108 48.2241L71.1964 48.2474L71.2847 48.2753L71.3708 48.3103L71.4591 48.3522L71.5452 48.4011L71.6265 48.4546L71.7056 48.5151L71.7823 48.5803L71.8521 48.6478L71.9172 48.7223L71.9776 48.7991L72.0288 48.876L72.0753 48.9574L72.1148 49.0413L72.1474 49.1227L72.1729 49.2112L72.1916 49.2997L72.2032 49.3881L72.2078 49.4812L72.2055 49.579L72.1939 49.6768L72.1706 49.7839L72.1381 49.8979L72.0939 50.0143L72.0334 50.1424L71.959 50.2751L71.8684 50.4124L71.7381 50.5824C71.4219 50.9991 71.5056 51.5927 71.9218 51.9093C72.338 52.2259 72.9309 52.1421 73.2472 51.7254L73.4123 51.5043L73.575 51.2528L73.7145 51.0014L73.8331 50.7477L73.9308 50.4869L74.0028 50.2285L74.054 49.9701L74.0819 49.7094L74.0889 49.4556L74.0749 49.2065L74.0401 48.9598L73.9842 48.7246L73.9122 48.4965L73.8215 48.2753L73.7169 48.0682L73.6006 47.8703L73.4681 47.6817L73.3262 47.5071L73.1751 47.3442L73.0123 47.1905L72.8426 47.0508L72.6659 46.9228L72.4799 46.8064L72.2892 46.704L72.0916 46.6132L71.887 46.5363L71.68 46.4735L71.4684 46.4246L71.2499 46.3897L71.0313 46.3734H70.8104L70.5849 46.392L70.3616 46.4293L70.1408 46.4851L69.9175 46.5643L69.7036 46.6644L69.4967 46.7854L69.2967 46.9298L69.113 47.0927L68.941 47.2743L68.7829 47.4792L68.6434 47.698L68.5201 47.9308L68.4132 48.1822L68.3295 48.4313L68.2876 48.5826L68.2527 48.7246L68.2225 48.869L68.1969 49.0156L68.176 49.1693L68.1597 49.3113C68.1039 49.8025 68.4573 50.2471 68.9503 50.303C69.4386 50.3612 69.8827 50.0074 69.9385 49.5162Z" fill="#673065"/>
<path d="M72.9751 51.7347L73.1356 51.6556L73.2635 51.6044L73.3844 51.5648L73.4983 51.5345L73.6006 51.5159L73.7006 51.5066L73.7936 51.5043L73.8773 51.5089L73.9587 51.5206L74.0354 51.5369L74.1052 51.5578L74.1749 51.5857L74.2423 51.6183L74.3051 51.6556L74.3679 51.6998L74.4284 51.7487L74.4842 51.7999L74.54 51.8581L74.5934 51.921L74.64 51.9862L74.6841 52.0583L74.726 52.1328L74.7609 52.2073L74.7934 52.2865L74.8213 52.3656L74.8422 52.4448L74.8585 52.5239L74.8701 52.6031L74.8771 52.6776L74.8794 52.7521L74.8771 52.8242L74.8701 52.8894L74.8585 52.9546L74.8422 53.0151L74.8236 53.0687L74.8004 53.1199L74.7748 53.1688L74.7492 53.2107L74.7167 53.2526L74.6795 53.2921L74.64 53.3294L74.5911 53.3666L74.5353 53.4039L74.4725 53.4365L74.3935 53.4691L74.3028 53.4993L74.2028 53.5249L74.054 53.5506C73.5401 53.6437 73.2007 54.1372 73.2937 54.6517C73.3867 55.1662 73.8796 55.5061 74.3935 55.4129L74.6074 55.3734L74.8469 55.3105L75.0724 55.2314L75.2887 55.1382L75.4956 55.0265L75.6863 54.9008L75.863 54.7634L76.0281 54.6098L76.1722 54.4468L76.3024 54.2746L76.4164 54.0906L76.5117 53.9044L76.5908 53.7135L76.6535 53.5156L76.7 53.3201L76.7303 53.1222L76.7465 52.922L76.7489 52.7265L76.7396 52.5309L76.7163 52.3353L76.6814 52.1445L76.6349 51.9559L76.5768 51.7696L76.5094 51.5881L76.4303 51.4111L76.3396 51.2365L76.2397 51.0689L76.1304 50.9083L76.0071 50.75L75.8769 50.601L75.7351 50.4613L75.5816 50.3263L75.4189 50.2052L75.2468 50.0935L75.0631 49.9911L74.8725 49.9026L74.6725 49.8281L74.4609 49.7676L74.247 49.7234L74.0261 49.6954L73.7959 49.6861L73.5657 49.6954L73.3332 49.721L73.096 49.7653L72.8612 49.8281L72.6264 49.9073L72.3892 50.0074L72.1776 50.1121C71.7335 50.331 71.5521 50.8687 71.7707 51.3134C71.9962 51.7696 72.5334 51.9536 72.9751 51.7347Z" fill="#673065"/>
<path d="M73.5425 55.3873L73.7564 55.4432L73.9355 55.4991L74.1005 55.5596L74.2517 55.6225L74.3865 55.6876L74.5098 55.7552L74.6214 55.825L74.7167 55.8948L74.8027 55.9647L74.8772 56.0345L74.9399 56.0997L74.9934 56.1672L75.0376 56.2324L75.0725 56.2929L75.1004 56.3534L75.1236 56.4116L75.1399 56.4652L75.1515 56.5211L75.1585 56.5746L75.1608 56.6235L75.1585 56.6747L75.1538 56.7259L75.1445 56.7748L75.1306 56.826L75.112 56.8772L75.0911 56.9261L75.0632 56.9773L75.0329 57.0286L74.9981 57.0751L74.9562 57.124L74.9097 57.1729L74.8609 57.2171L74.8051 57.2614L74.7446 57.3056L74.6795 57.3452L74.6074 57.3824L74.5284 57.4173L74.447 57.4476L74.3563 57.4755L74.261 57.4988L74.161 57.5174L74.0517 57.5314L73.9378 57.5384H73.8192L73.6913 57.5314L73.5588 57.5174L73.4216 57.4965L73.2519 57.4592C72.7403 57.3521 72.2404 57.6827 72.1335 58.1949C72.0265 58.707 72.3567 59.2075 72.8682 59.3146L73.0868 59.3589L73.3263 59.3961L73.5588 59.4171L73.789 59.4264L74.0168 59.424L74.2377 59.4078L74.454 59.3798L74.6679 59.3379L74.8725 59.2844L75.0701 59.2215L75.2631 59.1447L75.4468 59.0586L75.6235 58.9608L75.7933 58.8514L75.9514 58.735L76.1002 58.6093L76.242 58.4719L76.3699 58.3276L76.4885 58.1763L76.5978 58.0156L76.6931 57.8503L76.7768 57.6781L76.8489 57.4965L76.9047 57.3126L76.9465 57.1263L76.9744 56.9331L76.9884 56.7399L76.9861 56.5467L76.9675 56.3488L76.9349 56.1556L76.8861 55.9623L76.821 55.7691L76.7419 55.5829L76.6489 55.4013L76.5373 55.2244L76.4141 55.0568L76.2792 54.8938L76.1281 54.7378L75.9653 54.5912L75.7909 54.4515L75.6026 54.3188L75.405 54.1977L75.1957 54.0837L74.9725 53.9789L74.74 53.8835L74.4958 53.795L74.2377 53.7158L73.9866 53.6507C73.5076 53.5249 73.0193 53.8136 72.8938 54.2932C72.7775 54.7727 73.0659 55.2616 73.5425 55.3873Z" fill="#673065"/>
<path d="M67.3227 59.4287L67.3901 59.6289L67.4715 59.8431L67.5622 60.048L67.6598 60.2458L67.7668 60.439L67.8807 60.623L67.9993 60.7999L68.1272 60.9698L68.2597 61.1305L68.3992 61.2818L68.5457 61.4261L68.6968 61.5611L68.8526 61.6869L69.0154 61.8056L69.1805 61.915L69.3502 62.0151L69.5246 62.1059L69.7013 62.185L69.8827 62.2549L70.0687 62.3154L70.257 62.362L70.4477 62.3992L70.643 62.4248L70.836 62.4365L71.0313 62.4341L71.2289 62.4178L71.4242 62.3899L71.6172 62.348L71.8125 62.2898L72.0009 62.2176L72.1846 62.1315L72.3659 62.0267L72.538 61.9103L72.7031 61.78L72.8612 61.6333L73.0077 61.4773L73.1449 61.3097L73.2751 61.1281L73.3913 60.9372L73.4983 60.737L73.5959 60.5229L73.6797 60.3017L73.7541 60.0712L73.8192 59.8268L73.8726 59.5754L73.9168 59.3146L73.9494 59.0423L73.9703 58.7792C74.0098 58.2577 73.6192 57.8038 73.0984 57.7642C72.5775 57.7246 72.1241 58.1157 72.0846 58.6372L72.0683 58.8607L72.0474 59.0492L72.0195 59.2262L71.9846 59.3891L71.9451 59.5381L71.9009 59.6755L71.8544 59.8012L71.8056 59.9106L71.7521 60.0107L71.6986 60.1015L71.6451 60.1783L71.5893 60.2482L71.5335 60.311L71.4801 60.3622L71.4242 60.4088L71.3684 60.4484L71.315 60.481L71.2568 60.5112L71.1964 60.5368L71.1383 60.5554L71.0755 60.5717L71.008 60.5834L70.9429 60.5904L70.8709 60.5927L70.7965 60.5904L70.722 60.5834L70.6407 60.5694L70.557 60.5508L70.4756 60.5275L70.3896 60.4972L70.3012 60.46L70.2152 60.4181L70.1268 60.3692L70.0385 60.3133L69.9524 60.2528L69.8664 60.183L69.7804 60.1085L69.6967 60.0293L69.6153 59.9409L69.5362 59.8477L69.4595 59.75L69.3851 59.6429L69.3153 59.5311L69.2502 59.4147L69.1898 59.2914L69.1316 59.161L69.0805 59.0283L69.027 58.87C68.8712 58.3997 68.3643 58.146 67.8947 58.302C67.4203 58.451 67.1669 58.9585 67.3227 59.4287Z" fill="#673065"/>
<path d="M18.7199 78.7789L18.9826 78.8115L19.243 78.8464L19.5035 78.8836L19.7569 78.9209L20.0103 78.9628L20.2591 79.0047L20.5079 79.0513L20.7497 79.0955L20.9916 79.149L21.2287 79.1979L21.4659 79.2561L21.724 79.319C22.2309 79.44 22.7424 79.1281 22.8633 78.6183C22.9842 78.1108 22.6727 77.5986 22.1634 77.4775L21.9053 77.417L21.6263 77.3518L21.3473 77.3006L21.0729 77.2517L20.7986 77.2145L20.5289 77.1796L20.2591 77.1493L19.9964 77.1214L19.729 77.0934L19.4663 77.0632L19.2035 77.0329L18.9408 77.0003C18.4502 76.9398 18.0037 77.289 17.941 77.7802C17.8805 78.2714 18.2293 78.7184 18.7199 78.7789Z" fill="#673065"/>
<path d="M25.3605 79.4773L25.5791 79.4703L25.779 79.4726L25.9837 79.4843L26.1906 79.5029L26.3999 79.5308L26.6091 79.5611L27.0602 79.6333L27.2857 79.6705L27.5252 79.7054L27.7671 79.7357L28.0019 79.766C28.5204 79.8265 28.9901 79.4563 29.0529 78.9372C29.1133 78.418 28.7436 77.9478 28.2251 77.8849L27.9903 77.8593L27.7647 77.8337L27.5415 77.8058L27.3043 77.7802L26.8347 77.7336L26.5835 77.7127L26.3324 77.6964L26.0767 77.6847L25.8162 77.6778H25.5488L25.2954 77.6871C24.8001 77.7057 24.4142 78.1201 24.4328 78.6159C24.4491 79.1071 24.8653 79.4959 25.3605 79.4773Z" fill="#673065"/>
<path d="M31.8686 79.7939L32.1197 79.7846L32.3755 79.7729L32.6313 79.7636L32.8824 79.759H33.1312L33.3753 79.7636L33.6125 79.7729L33.8403 79.7869L34.0589 79.8079L34.2682 79.8335L34.4612 79.8684L34.6704 79.9196C35.1796 80.0383 35.6865 79.7194 35.8051 79.2096C35.9214 78.6997 35.6051 78.1922 35.0959 78.0735L34.8285 78.013L34.5309 77.9641L34.238 77.9315L33.9473 77.9152L33.659 77.9106L33.3753 77.9152L33.0963 77.9268L32.8219 77.9431L32.5545 77.9594L32.2964 77.9757L32.0453 77.9897L31.8012 78.0013C31.3059 78.02 30.9223 78.439 30.9432 78.9325C30.9572 79.4307 31.3734 79.8148 31.8686 79.7939Z" fill="#673065"/>
<path d="M38.8023 79.8265L39.0301 79.7636L39.2417 79.7217L39.4696 79.6915L39.7114 79.6705L39.9625 79.6589L40.2229 79.6542H40.4973H40.7787L41.0577 79.6519L41.353 79.6472L41.6413 79.6333L41.9157 79.6193C42.4365 79.589 42.8364 79.1421 42.8062 78.6206C42.776 78.0991 42.3295 77.6987 41.8087 77.729L41.5343 77.7453L41.2762 77.7616L41.0112 77.7685L40.7298 77.7802L40.4462 77.7942L40.1555 77.8104L39.8532 77.8314L39.5486 77.8617L39.2394 77.8989L38.9278 77.9478L38.6116 78.0153L38.3279 78.0945C37.8513 78.2248 37.5699 78.7184 37.7025 79.1956C37.8327 79.6752 38.3256 79.9568 38.8023 79.8265Z" fill="#673065"/>
<path d="M45.2453 79.582L45.5941 79.5634L45.9312 79.5657L46.2823 79.5844L46.6474 79.6053L47.0264 79.6193L47.4054 79.6216C47.9285 79.6216 48.3494 79.1956 48.3494 78.6718C48.3494 78.148 47.9239 77.7243 47.4007 77.7266L47.0403 77.7313H46.6822L46.3102 77.7383L45.9242 77.7499L45.5243 77.7639L45.136 77.7895C44.6431 77.8174 44.2664 78.2435 44.2943 78.737C44.3292 79.2328 44.7524 79.61 45.2453 79.582Z" fill="#673065"/>
<path d="M50.735 79.5262L51.121 79.5215H51.5162L51.9115 79.5192L52.3114 79.5169L52.7114 79.4959L53.0973 79.4703C53.6182 79.433 54.0088 78.9791 53.9716 78.4553C53.9344 77.9338 53.481 77.5427 52.9578 77.58L52.5742 77.6126L52.2045 77.6475L51.8371 77.6754L51.4651 77.7057L51.0907 77.7197L50.7048 77.729C50.2095 77.7383 49.8165 78.1457 49.8258 78.6415C49.8328 79.1421 50.2397 79.5355 50.735 79.5262Z" fill="#673065"/>
<path d="M33.7381 4.93765L33.4474 4.98886L33.1452 5.04241L32.8476 5.10293L32.5523 5.16346L32.2616 5.23097L31.971 5.29848L31.685 5.37065L31.399 5.44282L31.1176 5.52197L30.8363 5.60112L30.5596 5.68726L30.2829 5.77339L30.0109 5.86651L29.7388 5.95963L29.4714 6.05741L29.204 6.15751L28.9413 6.26227L28.6809 6.36703L28.4228 6.47644L28.1647 6.58819L27.9112 6.70459L27.6578 6.82098L27.409 6.94437L27.1625 7.06775L26.9207 7.19579L26.6766 7.32383L26.4371 7.45885L26.1999 7.59387L25.9674 7.73355L25.7349 7.87323L25.507 8.01757L25.2792 8.1619L25.0559 8.31322L24.8327 8.46454L24.6142 8.62051L24.3979 8.77649L24.184 8.93712L23.9701 9.09775L23.7608 9.26304L23.5516 9.42832L23.347 9.59827L23.1447 9.76821L22.947 9.94281L22.7494 10.1174L22.5564 10.2967L22.3634 10.4759L22.1751 10.6598L21.9867 10.8437L21.803 11.0323L21.6194 11.2209L21.4403 11.4141L21.2613 11.6073L21.0869 11.8052L20.9148 12.0007L20.7451 12.2009L20.5754 12.4012L20.4103 12.606L20.2452 12.8109L20.0848 13.0204L19.9266 13.2276L19.7732 13.4394L19.6197 13.6513L19.4709 13.8678L19.3221 14.0843L19.1779 14.3031L19.0338 14.5219L18.8943 14.7431L18.7548 14.9666L18.6199 15.1924L18.485 15.4182L18.3548 15.6464L18.2246 15.8745L18.0991 16.105L17.9735 16.3378L17.8526 16.5729L17.7317 16.808L17.6154 17.0455L17.4992 17.2829L17.3876 17.5227L17.276 17.7625L17.169 18.0046L17.062 18.2467L16.9597 18.4912L16.8574 18.7356L16.7598 18.9824L16.6621 19.2291L16.5691 19.4782L16.4761 19.7273L16.3877 19.9787L16.2994 20.2302L16.2157 20.4839L16.132 20.7377L16.0529 20.9937L15.9739 21.2498L15.8995 21.5082L15.8251 21.7643L15.7553 22.0227L15.6855 22.2811L15.6204 22.5418L15.5553 22.8026L15.4949 23.0656L15.4344 23.3264L15.3786 23.5894L15.3228 23.8525L15.2717 24.1179L15.2205 24.3833L15.174 24.6487L15.1275 24.9141L15.0857 25.1818L15.0438 25.4495L15.0066 25.7172L14.9694 25.9849L14.9368 26.255L14.9043 26.5227L14.8764 26.7927L14.8485 27.0628L14.8229 27.3328L14.7997 27.6029L14.7787 27.8752L14.7601 28.1453L14.7439 28.4177L14.7276 28.69L14.716 28.9624L14.7043 29.2348L14.6974 29.5072L14.6904 29.7795L14.6881 30.0519L14.6857 30.3243L14.6881 30.5967L14.6904 30.869L14.6974 31.1414L14.7043 31.4138L14.716 31.6862L14.7276 31.9585L14.7415 32.2309L14.7578 32.5033L14.7764 32.7756L14.795 33.048L14.8183 33.3204L14.8415 33.5928L14.8694 33.8651L14.8973 34.1375L14.9299 34.4076L14.9624 34.6776L14.9996 34.9477L15.0368 35.2177L15.0787 35.4877L15.1205 35.7578L15.167 36.0278L15.2112 36.2956L15.26 36.5633L15.3089 36.831L15.3624 37.0987L15.4158 37.3664L15.474 37.6318L15.5321 37.8972L15.5949 38.1626L15.6576 38.428L15.7251 38.6911L15.7925 38.9541L15.8623 39.2148L15.932 39.4756L16.0064 39.7363L16.0808 39.997L16.1599 40.2555L16.2389 40.5139L16.3226 40.7699L16.4063 41.026L16.4947 41.2798L16.5831 41.5358L16.6737 41.7896L16.7667 42.0433L16.8621 42.2948L16.9574 42.5462L17.0574 42.7953L17.1574 43.0444L17.262 43.2911L17.3666 43.5379L17.4759 43.7823L17.5852 44.0268L17.6968 44.2689L17.8107 44.511L17.927 44.7508L18.0433 44.9906L18.1642 45.228L18.2851 45.4631L18.4106 45.6959L18.5362 45.9311L18.6664 46.1615L18.7966 46.392L18.9315 46.6202L19.0663 46.8506L19.2361 47.1253L19.4174 47.4L19.6058 47.6677L19.8011 47.9308L20.0034 48.1892L20.2126 48.443L20.4289 48.6921L20.6521 48.9365L20.88 49.1763L21.1125 49.4114L21.352 49.6419L21.5961 49.8677L21.8449 50.0912L22.0983 50.31L22.3564 50.5242L22.6168 50.7337L22.8819 50.9409L23.154 51.1457L23.4237 51.3413L23.698 51.5392L23.9771 51.7301L24.2561 51.921L24.5398 52.1049L24.8234 52.2888L25.1094 52.468L25.3954 52.6473L25.6861 52.8196L25.9767 52.9918L26.2697 53.1595L26.5603 53.3247L26.8533 53.4854L27.1463 53.646L27.4392 53.802L27.7299 53.9579L28.0205 54.1093L28.3112 54.2606L28.5995 54.4073L28.8878 54.5539L29.1738 54.6959L29.4575 54.8379L29.7388 54.9753L30.0202 55.1126L30.2969 55.2453L30.5712 55.378L30.8409 55.5084L31.1107 55.6364L31.3734 55.7621L31.6385 55.8878L31.8826 56.0042L32.1291 56.1206L32.3848 56.237L32.6406 56.3534L32.9034 56.4675L33.1638 56.5816L33.4312 56.6957L33.6986 56.8097L33.9729 56.9215L34.2473 57.0332L34.5263 57.1426L34.8053 57.252L35.089 57.3568L35.3727 57.4616L35.661 57.564L35.9493 57.6664L36.2423 57.7642L36.5329 57.862L36.8282 57.9551L37.1235 58.0482L37.4211 58.1343L37.7188 58.2205L38.0187 58.302L38.3187 58.3834L38.6209 58.4579L38.9232 58.5324L39.2278 58.5999L39.5324 58.6675L39.837 58.7257L40.1416 58.7839L40.4462 58.8351L40.7531 58.8863L41.0577 58.9282L41.3646 58.9701L41.6692 59.0027L41.9738 59.0353L42.2761 59.0586L42.5807 59.0818L42.8829 59.0935L43.1875 59.1051H43.4875H43.7828L44.0851 59.0958L44.3827 59.0795L44.678 59.0562L44.9733 59.0283L45.2686 58.991L45.5592 58.9491L45.8498 58.9003L46.1382 58.8514L46.4242 58.8002L46.7102 58.7466L46.9915 58.6907L47.2705 58.6349L47.5472 58.5743L47.8239 58.5138L48.096 58.451L48.368 58.3881L48.6377 58.3206L48.9051 58.2531L49.1702 58.1832L49.4352 58.1111L49.6957 58.0366L49.9561 57.9621L50.2142 57.8853L50.4699 57.8061L50.7234 57.7246L50.9768 57.6431L51.2256 57.557L51.4744 57.4709L51.7209 57.3824L51.965 57.2939L52.2068 57.2032L52.4487 57.11L52.6858 57.0146L52.923 56.9191L53.1578 56.8214L53.3903 56.7236L53.6205 56.6235L53.8507 56.5211L54.0763 56.4163L54.3018 56.3115L54.525 56.2021L54.7459 56.095L54.9645 55.9833L55.183 55.8715L55.397 55.7575L55.6109 55.6434L55.8225 55.5247L56.034 55.406L56.4456 55.1662L56.8525 54.9194L57.2501 54.668L57.6407 54.4096L58.0244 54.1442L58.4011 53.8741L58.7684 53.5994L59.1288 53.3178L59.4823 53.0314L59.8287 52.7404L60.1682 52.4448L60.4984 52.1445L60.8215 51.8395L61.1378 51.5275L61.4447 51.2133L61.7446 50.8943L62.0376 50.5684L62.3236 50.2402L62.6026 49.9073L62.8747 49.5697L63.1374 49.2275L63.3932 48.8829L63.642 48.5338L63.8838 48.1799L64.1186 47.8237L64.3465 47.4629L64.5651 47.0997L64.7766 46.7319L64.9813 46.3617L65.1789 45.9893L65.3696 45.6121L65.5532 45.2327L65.73 44.8509L65.8997 44.4644L66.0625 44.0757L66.2183 43.6846L66.3671 43.2911L66.5089 42.8954L66.6438 42.4973L66.7716 42.0969L66.8925 41.6941L67.0065 41.2891L67.1134 40.884L67.2134 40.4743L67.3064 40.0646L67.3925 39.6525L67.4715 39.2381L67.5436 38.8237L67.611 38.407L67.6715 37.9903L67.7249 37.5713L67.7715 37.1522L67.811 36.7309L67.8435 36.3095L67.8714 35.8882L67.8924 35.4645L67.9063 35.0408L67.9133 34.6171L67.9156 34.1911L67.911 33.765L67.8993 33.339L67.8807 32.913L67.8575 32.487L67.8273 32.061L67.7901 31.6349L67.7482 31.2089L67.6994 30.7829L67.6436 30.3569L67.5831 29.9332L67.5157 29.5095L67.4413 29.0858L67.3622 28.6621L67.2762 28.2407L67.1855 27.8194L67.0879 27.398L66.9855 26.979L66.8763 26.5599L66.7623 26.1432L66.6414 25.7265L66.5135 25.3121L66.381 24.9001L66.2438 24.488L66.0997 24.0783L65.9509 23.6709L65.7951 23.2658L65.6346 22.8608L65.4672 22.458L65.2952 22.0576L65.1161 21.6595L64.9324 21.2638L64.7441 20.8704L64.5488 20.4793L64.3488 20.0905L64.1442 19.704L63.9326 19.3199L63.7164 18.9381L63.4955 18.561L63.2676 18.1862L63.0351 17.8137L62.7979 17.4436L62.5538 17.0781L62.305 16.7149L62.0516 16.3564L61.7911 16.0002L61.5261 15.6487L61.2564 15.2995L60.982 14.955L60.7006 14.6151L60.4146 14.2775L60.124 13.9446L59.8287 13.6164L59.5288 13.2904L59.2218 12.9692L58.9103 12.6526L58.594 12.3406L58.2732 12.0333L57.9477 11.7307L57.6175 11.4327L57.2827 11.1394L56.9432 10.8507L56.5991 10.569L56.248 10.2897L55.8922 10.0173L55.5318 9.74959L55.1668 9.48652L54.7971 9.23045L54.4227 8.97902L54.0437 8.73226L53.6601 8.49248L53.2718 8.25968L52.8788 8.03153L52.4812 7.81038L52.0789 7.59387L51.672 7.38436L51.2605 7.18182L50.8466 6.98627L50.4258 6.79538L50.0026 6.61147L49.5748 6.43454L49.1423 6.2646L48.7051 6.10164L48.2634 5.94566L47.8169 5.79667L47.3682 5.65467L46.9148 5.51964L46.4567 5.3916L45.994 5.27288L45.5313 5.16113L45.2941 5.10759L45.0593 5.05637L44.8221 5.00749L44.585 4.9586L44.3455 4.91437L44.106 4.87014L43.8642 4.83056L43.6223 4.79098L43.3782 4.75374L43.1364 4.71649L42.8922 4.6839L42.6458 4.65131L42.3993 4.62337L42.1528 4.59543L41.9041 4.57215L41.6553 4.54888L41.4041 4.52792L41.153 4.50697L40.8996 4.49068L40.6461 4.47438L40.3904 4.46274L40.1369 4.4511L39.8812 4.44412L39.6254 4.43713L39.3673 4.4348L39.1092 4.43248L38.8488 4.4348L38.5884 4.43713L38.328 4.44179L38.0652 4.44877L37.8025 4.45808L37.5397 4.46972L37.2747 4.48369L37.0096 4.49999L36.7422 4.51861L36.4748 4.53723L36.2051 4.56051L35.9354 4.58379L35.6656 4.61173L35.3959 4.63967L35.1239 4.67226L34.8518 4.70485L34.5775 4.7421L34.3031 4.77935L34.0264 4.82125L33.759 4.86315C33.2428 4.94463 32.8894 5.42885 32.9708 5.94566C33.0522 6.46248 33.5358 6.81633 34.052 6.73485L34.3194 6.69295L34.5798 6.65337L34.8379 6.61612L35.096 6.5812L35.3517 6.54861L35.6098 6.51602L35.8656 6.48808L36.1214 6.46015L36.3748 6.43687L36.6283 6.41359L36.8794 6.39496L37.1305 6.37634L37.3816 6.36237L37.6304 6.3484L37.8769 6.33909L38.1233 6.32978L38.3698 6.32512L38.6163 6.32047L38.8604 6.31814L39.1046 6.31581L39.3464 6.31814L39.5882 6.32047L39.8277 6.32745L40.0695 6.33444L40.309 6.34608L40.5462 6.35772L40.7833 6.37168L41.0205 6.38565L41.2553 6.40428L41.4902 6.4229L41.7227 6.44618L41.9552 6.46946L42.1854 6.49507L42.4156 6.52068L42.6434 6.55094L42.8736 6.5812L43.1015 6.61612L43.3294 6.65104L43.5549 6.68829L43.7805 6.72554L44.0037 6.76744L44.2269 6.80934L44.4478 6.85358L44.6687 6.89781L44.8872 6.9467L45.1035 6.99326L45.5406 7.09801L45.9708 7.20976L46.3963 7.32848L46.8194 7.4542L47.238 7.58689L47.6518 7.72424L48.0634 7.86858L48.4703 8.0199L48.8726 8.1782L49.2725 8.34348L49.6678 8.51343L50.0584 8.69035L50.4444 8.87426L50.828 9.06283L51.207 9.25838L51.5814 9.45859L51.9511 9.66345L52.3161 9.8753L52.6788 10.0941L53.0369 10.3176L53.3903 10.5458L53.7391 10.7809L54.0832 11.0207L54.4227 11.2651L54.7575 11.5142L55.09 11.7679L55.4156 12.0264L55.7388 12.2917L56.0573 12.5618L56.3712 12.8342L56.6804 13.1135L56.985 13.3975L57.285 13.6839L57.5803 13.9749L57.8709 14.2705L58.1569 14.5708L58.4383 14.8758L58.715 15.1831L58.987 15.495L59.2544 15.8116L59.5171 16.1306L59.7752 16.4542L60.0287 16.7824L60.2775 17.113L60.5216 17.4459L60.7611 17.7834L60.9959 18.1233L61.2238 18.4679L61.447 18.8147L61.6656 19.1639L61.8795 19.5155L62.0888 19.8716L62.2934 20.2302L62.491 20.591L62.684 20.9542L62.8723 21.3197L63.056 21.6875L63.2351 22.0576L63.4071 22.4301L63.5745 22.8049L63.7373 23.182L63.8954 23.5615L64.0466 23.941L64.193 24.3227L64.3349 24.7069L64.4697 25.091L64.5999 25.4774L64.7255 25.8662L64.8441 26.255L64.958 26.6461L65.0673 27.0372L65.1696 27.4306L65.2673 27.824L65.3603 28.2198L65.4463 28.6155L65.5277 29.0113L65.6021 29.4071L65.6718 29.8051L65.7346 30.2032L65.7927 30.6013L65.8439 30.9994L65.8904 31.3975L65.9299 31.7956L65.9648 32.1937L65.9927 32.5917L66.016 32.9898L66.0322 33.3879L66.0439 33.786L66.0485 34.1841V34.5798L66.0415 34.9756L66.0299 35.3713L66.0113 35.7648L65.9857 36.1582L65.9555 36.5516L65.9183 36.9427L65.8741 37.3338L65.8253 37.7226L65.7695 38.1091L65.709 38.4955L65.6416 38.8796L65.5672 39.2614L65.4881 39.6432L65.4021 40.0227L65.3091 40.3998L65.2115 40.7746L65.1068 41.1494L64.9952 41.5195L64.8766 41.8897L64.7534 42.2575L64.6232 42.6207L64.486 42.9838L64.3442 43.3447L64.1954 43.7009L64.0396 44.0547L63.8768 44.4062L63.7094 44.7554L63.535 45.1023L63.3537 45.4468L63.1653 45.7867L62.97 46.1243L62.7677 46.4595L62.5608 46.7901L62.3469 47.1183L62.126 47.4419L61.8981 47.7632L61.6633 48.0798L61.4214 48.3941L61.1726 48.7037L60.9169 49.0087L60.6541 49.3113L60.3867 49.6093L60.1101 49.9026L59.8264 50.1936L59.5381 50.4776L59.2404 50.7593L58.9358 51.0363L58.6266 51.3087L58.3081 51.5764L57.9825 51.8395L57.65 52.0979L57.3106 52.3516L56.9641 52.6007L56.6107 52.8452L56.248 53.085L55.8783 53.3201L55.5016 53.5482L55.1156 53.774L54.9226 53.8811L54.7273 53.9905L54.5273 54.0976L54.3274 54.2047L54.1251 54.3071L53.9205 54.4119L53.7135 54.5143L53.5066 54.6144L53.295 54.7122L53.0834 54.81L52.8695 54.9054L52.6533 55.0009L52.4347 55.094L52.2161 55.1871L51.9929 55.2756L51.7697 55.3641L51.5442 55.4502L51.3163 55.5363L51.0861 55.6201L50.8559 55.7039L50.6211 55.7831L50.3862 55.8622L50.1491 55.9391L49.9096 56.0159L49.6678 56.0904L49.4259 56.1649L49.1795 56.2347L48.933 56.3046L48.6819 56.3721L48.4308 56.4396L48.175 56.5048L47.9216 56.5699L47.6635 56.6305L47.4054 56.691L47.1426 56.7469L46.8799 56.8027L46.6125 56.8563L46.3474 56.9098L46.0777 56.961L45.808 57.0099L45.5336 57.0565L45.2593 57.1031L45.0105 57.1403L44.7617 57.1706L44.5082 57.1962L44.2525 57.2148L43.9944 57.2288L43.7386 57.2381H43.4689L43.2038 57.2404L42.9364 57.2311L42.6667 57.2218L42.3947 57.2008L42.1203 57.1799L41.8436 57.1519L41.5669 57.124L41.2902 57.0868L41.0112 57.0495L40.7322 57.003L40.4508 56.9564L40.1695 56.9028L39.8881 56.8493L39.6068 56.7864L39.3254 56.7236L39.0441 56.6538L38.7604 56.5839L38.4791 56.5094L38.1977 56.4349L37.9187 56.3534L37.6374 56.272L37.3584 56.1858L37.0793 56.0974L36.8027 56.0042L36.526 55.9135L36.2539 55.818L35.9795 55.7226L35.7098 55.6225L35.4401 55.5224L35.1727 55.4199L34.9076 55.3175L34.6472 55.2127L34.3868 55.1056L34.131 54.9986L33.8753 54.8891L33.6242 54.7797L33.373 54.6703L33.1289 54.5586L32.8848 54.4468L32.6476 54.3351L32.4081 54.2233L32.1477 54.1L31.8849 53.9742L31.6175 53.8462L31.3502 53.7182L31.0758 53.5855L30.8037 53.4551L30.527 53.3201L30.2504 53.1851L29.9713 53.0477L29.6923 52.9104L29.411 52.7684L29.1296 52.6263L28.846 52.4797L28.5646 52.333L28.2833 52.1817L28.0019 52.0327L27.7206 51.8791L27.4392 51.7254L27.1602 51.5671L26.8812 51.4088L26.6045 51.2458L26.3301 51.0829L26.0581 50.9153L25.786 50.7477L25.5187 50.5754L25.2513 50.4031L24.9908 50.2239L24.7304 50.0469L24.477 49.863L24.2212 49.6768L23.9747 49.4906L23.7306 49.302L23.4911 49.1088L23.2563 48.9132L23.0284 48.7153L22.8052 48.5151L22.5866 48.3126L22.375 48.1077L22.1681 47.9005L21.9681 47.6887L21.7751 47.4768L21.5868 47.2603L21.4054 47.0415L21.2311 46.8204L21.0636 46.5969L20.9032 46.3687L20.7521 46.1406L20.6056 45.9055L20.4824 45.6936L20.3568 45.4818L20.2359 45.2653L20.115 45.0488L19.9987 44.8299L19.8801 44.6111L19.7662 44.3899L19.6523 44.1688L19.543 43.9453L19.4337 43.7218L19.3291 43.496L19.2221 43.2679L19.1198 43.0374L19.0175 42.8092L18.9198 42.5788L18.8222 42.3483L18.7292 42.1132L18.6339 41.8781L18.5432 41.6406L18.4525 41.4055L18.3665 41.168L18.2804 40.9306L18.199 40.6908L18.1153 40.4487L18.0363 40.2066L17.9572 39.9645L17.8828 39.72L17.8084 39.4756L17.7387 39.2311L17.6666 38.9844L17.5992 38.7376L17.5317 38.4908L17.4689 38.2418L17.4062 37.9927L17.348 37.7436L17.2899 37.4921L17.2318 37.2477L17.176 36.9963L17.1248 36.7425L17.0737 36.4911L17.0272 36.2374L16.9807 35.9836L16.9365 35.7275L16.8923 35.4738L16.8528 35.2177L16.8133 34.9616L16.7784 34.7055L16.7435 34.4495L16.7133 34.1934L16.683 33.9373L16.6575 33.6812L16.6319 33.4252L16.6086 33.1667L16.5854 32.9083L16.5668 32.6499L16.5482 32.3915L16.5342 32.1331L16.5203 31.8747L16.511 31.6163L16.5017 31.3579L16.4947 31.0995L16.4877 30.8411L16.4854 30.5827L16.4831 30.3243L16.4854 30.0659L16.4877 29.8075L16.4947 29.5491L16.5017 29.2907L16.511 29.0323L16.5203 28.7738L16.5342 28.5178L16.5482 28.2594L16.5668 28.0033L16.5854 27.7472L16.6086 27.4911L16.6319 27.2351L16.6598 26.9813L16.6877 26.7252L16.7179 26.4715L16.7481 26.2177L16.783 25.964L16.8179 25.7102L16.8574 25.4588L16.897 25.2074L16.9411 24.956L16.9853 24.7045L17.0341 24.4554L17.083 24.2064L17.1364 23.9596L17.1899 23.7105L17.2457 23.4637L17.3015 23.217L17.362 22.9725L17.4224 22.7281L17.4875 22.486L17.5527 22.2415L17.6224 21.9994L17.6922 21.7573L17.7666 21.5175L17.841 21.2777L17.92 21.0403L17.9991 20.8028L18.0805 20.5677L18.1618 20.3326L18.2479 20.0998L18.3339 19.867L18.4246 19.6365L18.5153 19.4061L18.6106 19.1779L18.7059 18.9498L18.8059 18.724L18.9059 18.4981L19.0105 18.2747L19.1152 18.0512L19.2221 17.83L19.3291 17.6088L19.4407 17.3923L19.5523 17.1758L19.6685 16.9617L19.7848 16.7475L19.9057 16.5357L20.0266 16.3238L20.1522 16.1166L20.2777 15.9094L20.4079 15.7046L20.5382 15.4997L20.673 15.2972L20.8056 15.0946L20.9427 14.8968L21.0799 14.6989L21.2218 14.5033L21.3636 14.3078L21.5101 14.1146L21.6566 13.9237L21.8077 13.7351L21.9588 13.5465L22.1146 13.3626L22.2704 13.1787L22.4308 12.9971L22.5889 12.8179L22.7517 12.6409L22.9145 12.464L23.0819 12.2917L23.2516 12.1195L23.4237 11.9495L23.5957 11.7819L23.7725 11.619L23.9492 11.456L24.1305 11.2954L24.3119 11.1347L24.4979 10.9788L24.6839 10.8228L24.8746 10.6715L25.0652 10.5201L25.2606 10.3735L25.4559 10.2268L25.6558 10.0848L25.8535 9.94281L26.0558 9.80546L26.2581 9.66811L26.465 9.53541L26.6743 9.40272L26.8882 9.27468L27.0998 9.14664L27.316 9.02325L27.5322 8.89987L27.7531 8.78347L27.9763 8.66475L28.2042 8.553L28.4297 8.44126L28.6599 8.33417L28.8901 8.22709L29.125 8.12465L29.3621 8.02222L29.604 7.92445L29.8434 7.82667L30.0876 7.73588L30.3317 7.64509L30.5805 7.56128L30.8316 7.47515L31.0874 7.396L31.3408 7.31684L31.6013 7.24235L31.8594 7.16785L32.1244 7.10034L32.3895 7.03283L32.6592 6.96998L32.9289 6.90712L33.2033 6.85125L33.4777 6.79538L33.7567 6.74649L34.0473 6.69527C34.5356 6.60914 34.8611 6.14587 34.7751 5.65699C34.6891 5.16812 34.224 4.85151 33.7381 4.93765Z" fill="#673065"/>
<path d="M40.9554 31.3858L40.8019 31.4836L40.6578 31.5791L40.5276 31.6699L40.409 31.7583L40.2997 31.8445L40.1997 31.9283L40.1067 32.0144L40.016 32.1098L39.9277 32.2193L39.8393 32.3613L39.7533 32.5778L39.7207 32.892L39.83 33.2832L40.0997 33.5951L40.3601 33.7348L40.5624 33.7837L40.7229 33.7953L40.8484 33.7883L40.96 33.7744L41.0647 33.7534L41.1623 33.7278L41.2577 33.6999L41.353 33.6673L41.4599 33.6254L41.6343 33.5462L41.8273 33.4415L42.0157 33.3204L42.2017 33.1761L42.3877 32.9968L42.5365 32.8106L42.6341 32.6523L42.7039 32.5033L42.7574 32.3403L42.7923 32.1611L42.8016 31.9632L42.7806 31.7676L42.7318 31.5744L42.6528 31.3882L42.5528 31.2252L42.4388 31.0786L42.3086 30.9482L42.1807 30.8411L42.0552 30.755L41.9296 30.6875L41.8041 30.6362L41.6808 30.5967L41.5553 30.5687L41.4065 30.5501L41.2112 30.5454L40.9949 30.5664L40.7973 30.6083L40.6113 30.6665L40.4299 30.7433L40.2625 30.8318L40.1021 30.9342L39.9463 31.0553L39.7998 31.1996L39.6603 31.3765L39.5487 31.5744L39.4743 31.7676L39.4254 31.9539L39.3975 32.1355L39.3882 32.3054L39.3906 32.466L39.4022 32.622L39.4208 32.7663L39.4464 32.9037L39.4766 33.0364L39.5091 33.1598L39.5463 33.2785L39.5882 33.4042L39.6393 33.5346L39.6975 33.6696L39.7696 33.8116L39.8533 33.9536L39.9556 34.1003L40.0858 34.2493L40.2416 34.3913L40.4345 34.5216L40.6717 34.6287L40.9089 34.6846L41.1112 34.7032L41.2995 34.6986L41.4809 34.673L41.6576 34.6287L41.8296 34.5635L41.9854 34.4844L42.1273 34.3936L42.2598 34.2888L42.3761 34.1794L42.4807 34.0654L42.576 33.9443L42.6597 33.8209L42.7341 33.6952L42.8016 33.5648L42.8597 33.4345L42.9108 33.3018L42.9573 33.1668L42.9992 33.0131L43.055 32.757L43.0922 32.4753L43.1062 32.196L43.0969 31.9143L43.0643 31.628L43.0038 31.3486L42.9155 31.0692L42.7876 30.7899L42.6388 30.5548L42.5156 30.4011L42.397 30.2777L42.2668 30.166L42.1226 30.0659L41.9622 29.9774L41.7924 29.9076L41.6157 29.854L41.4297 29.8191L41.2437 29.8051L41.0577 29.8075L40.8694 29.8284L40.695 29.8633L40.5485 29.9053L40.4136 29.9588L40.2927 30.0193L40.1811 30.0892L40.0741 30.166L39.9579 30.2661L39.8137 30.4151L39.6719 30.599L39.5556 30.7852L39.4557 30.9761L39.372 31.174L39.3022 31.3719L39.2441 31.5744L39.1976 31.7816L39.1627 31.9888L39.1394 32.196L39.1278 32.4078V32.6173L39.1394 32.8269L39.1673 33.0387L39.2115 33.2482L39.272 33.4577L39.358 33.6719L39.4719 33.8814L39.6207 34.0863L39.8184 34.2819L40.0253 34.4239L40.1881 34.5077L40.3229 34.5682L40.4601 34.6194L40.5996 34.6613L40.7461 34.6939L40.8949 34.7149L41.0484 34.7218L41.2088 34.7125L41.3669 34.6869L41.5227 34.6427L41.6762 34.5798L41.8134 34.503L41.9389 34.4145L42.0529 34.3121L42.1482 34.2074L42.2296 34.1003L42.2993 33.9885L42.3691 33.8558L42.4435 33.6719L42.5016 33.4647L42.5388 33.2692L42.5597 33.0829L42.569 32.899L42.5667 32.7268L42.5551 32.5615L42.5365 32.3985L42.5109 32.2449L42.476 32.0959L42.4272 31.9399L42.3551 31.77L42.2877 31.6559L42.0645 31.4091H42.0622L42.0598 31.4068L42.0575 31.4045L42.0552 31.4021L42.0529 31.3998L42.0226 31.3765L41.9575 31.3323L41.8808 31.2904L41.7948 31.2531L41.6971 31.2206L41.5902 31.1996L41.4762 31.1903L41.3623 31.195L41.3042 31.2019H41.3018H41.2995H41.2972H41.2949H41.2925C40.7763 31.2788 40.4206 31.7606 40.4973 32.2775C40.5741 32.7943 41.0554 33.1505 41.5739 33.0736H41.5762H41.5785H41.5809H41.5832H41.5855L41.5343 33.0806L41.4251 33.0829L41.3181 33.0736L41.2181 33.0527L41.1274 33.0247L41.0461 32.9898L40.9763 32.9526L40.9182 32.913L40.8949 32.8944L40.8973 32.8967L40.8996 32.899L40.9019 32.9014L40.9042 32.9037H40.9066L40.6833 32.6569L40.6694 32.6267L40.6485 32.5801L40.6554 32.6127L40.6647 32.6639L40.6717 32.7268L40.6764 32.7966L40.6787 32.8664L40.6764 32.9316L40.6694 32.9898L40.6624 33.0341L40.6578 33.0527L40.6461 33.0783L40.6647 33.041L40.6787 33.0201L40.6973 32.9968L40.7229 32.9689L40.7601 32.934L40.8019 32.9037L40.8508 32.8758L40.9066 32.8525L40.9577 32.8385L41.0019 32.8315L41.0437 32.8292H41.0693L41.0809 32.8315H41.0833L41.0693 32.8269L41.0437 32.8176L41.0089 32.8013L40.9879 32.7919L41.0135 32.8129L41.053 32.8525L41.067 32.8688L41.0647 32.8641L41.0554 32.8408L41.0414 32.7919L41.0275 32.7244L41.0182 32.6453L41.0135 32.5522V32.4521L41.0182 32.3496L41.0298 32.2402L41.0461 32.1331L41.067 32.0307L41.0949 31.9329L41.1251 31.8445L41.1553 31.77L41.1879 31.7071L41.2158 31.6605L41.2321 31.6373L41.26 31.6093L41.2367 31.6303L41.2251 31.6396L41.2112 31.6489L41.1902 31.6582L41.16 31.6699L41.1205 31.6815L41.1646 31.6722L41.1832 31.6699H41.1926L41.1809 31.6675L41.1693 31.6652L41.1577 31.6605L41.1437 31.6512L41.1367 31.6466L41.1344 31.6442V31.6419L41.1205 31.621L41.1623 31.6815L41.1879 31.7374L41.2158 31.8235L41.2391 31.9283L41.253 32.047L41.2577 32.1774L41.253 32.3124L41.2367 32.4427L41.2065 32.5848L41.1949 32.6243L41.1786 32.6755L41.16 32.7244L41.1414 32.7687L41.1228 32.8036L41.1042 32.8362L41.0879 32.8618L41.0763 32.8781L41.067 32.8897L41.0623 32.8944L41.067 32.892L41.074 32.8874L41.0856 32.8827L41.1065 32.8758L41.1251 32.8711L41.1437 32.8688H41.1623L41.1879 32.8734L41.2507 32.8897L41.3251 32.9223L41.3669 32.9502L41.3855 32.9665L41.3902 32.9712L41.3786 32.9549L41.36 32.9246L41.339 32.8827L41.3158 32.8292L41.2925 32.7687L41.2716 32.7058L41.253 32.643L41.2367 32.5848L41.2228 32.5289L41.2112 32.473L41.2042 32.4195L41.1995 32.3752V32.338V32.3124V32.3054L41.1972 32.3124L41.1879 32.3333L41.1646 32.3729L41.1391 32.4078L41.1367 32.4102L41.1507 32.3985L41.1763 32.3822L41.2065 32.3659L41.2367 32.352L41.2646 32.3426L41.2832 32.338H41.2809L41.2949 32.3403L41.2484 32.3357L41.2205 32.3287L41.1902 32.3194L41.1577 32.3054L41.1181 32.2844L41.074 32.2542L41.0972 32.2728L41.0926 32.2682L41.0763 32.2495L41.0554 32.2123L41.0298 32.1518L41.0112 32.0842L41.0042 32.0121L41.0089 31.9352L41.0205 31.877L41.0344 31.8328L41.0507 31.7979L41.0809 31.7537L41.06 31.7839L41.0344 31.8072L40.981 31.8491L40.9112 31.8933L40.8368 31.9352L40.7484 31.9748L40.7275 31.9818L40.6996 31.9911L40.6764 31.9981L40.6624 32.0028L40.6787 32.0004L40.7205 31.9981L40.8089 32.0051L40.9531 32.04L41.1693 32.1564L41.4088 32.4358L41.5064 32.785L41.4785 33.048L41.4181 33.2017L41.3762 33.2692L41.3576 33.2948L41.36 33.2925L41.3832 33.2692L41.4251 33.2319L41.4855 33.1854L41.5646 33.1272L41.6599 33.0597L41.7738 32.9828L41.9133 32.8944C42.3296 32.629 42.4528 32.0749 42.1877 31.6559C41.925 31.2415 41.3716 31.1205 40.9554 31.3858Z" fill="#673065"/>
<path d="M57.5989 27.412L57.6105 27.5214L57.6337 27.6564L57.6686 27.7891L57.7174 27.9288L57.7942 28.0801L57.9011 28.2314L58.0499 28.3804L58.2546 28.5108L58.4847 28.5899L58.7173 28.6132L58.9335 28.5876L59.1079 28.5341L59.2497 28.4666L59.3706 28.3874L59.4683 28.3083L59.552 28.2291L59.6287 28.1453L59.7078 28.0452L59.8101 27.8939L59.9101 27.7123L59.9938 27.5237L60.0635 27.3258L60.117 27.1093L60.1496 26.8835L60.1589 26.6437L60.1333 26.383L60.0752 26.1525L60.0077 25.9803L59.9333 25.8406L59.845 25.7102L59.7403 25.5868L59.6171 25.4704L59.4846 25.3727L59.3404 25.2889L59.1869 25.219L59.0312 25.1678L58.873 25.1306L58.7103 25.105L58.5498 25.0933H58.3941L58.2313 25.1096L58.0685 25.1445L57.9081 25.1981L57.7477 25.2772L57.6012 25.375L57.4687 25.4891L57.3524 25.6218L57.2617 25.7568L57.1896 25.8941L57.1338 26.0361L57.0943 26.1712L57.0687 26.3015L57.0524 26.4319L57.0455 26.5553V26.674L57.0501 26.7927L57.0617 26.9231L57.092 27.1303L57.1408 27.3515L57.2013 27.5633L57.271 27.7705L57.3501 27.9754L57.4361 28.1709L57.5291 28.3595L57.6291 28.5434L57.736 28.7157L57.85 28.8809L57.9755 29.0392L58.115 29.1882L58.2825 29.3349L58.5173 29.4792L58.8033 29.5723L59.0102 29.5956H59.1683L59.3241 29.5817L59.4776 29.5537L59.631 29.5095L59.7729 29.4536L59.9077 29.3861L60.0356 29.307L60.1496 29.2208L60.2542 29.1277L60.3495 29.0276L60.4495 28.9042L60.5751 28.718L60.6913 28.4991L60.782 28.2803L60.8518 28.0592L60.9052 27.8333L60.9424 27.6099L60.9657 27.3864L60.9773 27.1629L60.975 26.9417L60.961 26.7229L60.9331 26.5041L60.8936 26.2922L60.8401 26.0827L60.7681 25.8709L60.675 25.666L60.5541 25.4611L60.3891 25.2563L60.21 25.0956L60.0728 24.9979L59.9659 24.9304L59.8589 24.8698L59.7473 24.814L59.631 24.7651L59.5125 24.7232L59.3869 24.6882L59.252 24.6626L59.1149 24.6487H58.973L58.8242 24.665L58.6359 24.7092L58.4127 24.8L58.1755 24.9606L57.9988 25.1399L57.8663 25.3261L57.7663 25.5123L57.6965 25.6893L57.6454 25.8592L57.6058 26.0268L57.5779 26.1875L57.5593 26.3434L57.5454 26.4971L57.5384 26.6577L57.5361 26.9254L57.5454 27.1792L57.5593 27.3817C57.5942 27.9032 58.0476 28.2966 58.5685 28.2617C59.0893 28.2268 59.4822 27.7728 59.4474 27.2513L59.4357 27.0814L59.4288 26.9022L59.4311 26.6996L59.4357 26.6205L59.4427 26.5367L59.452 26.4575L59.4636 26.39L59.4753 26.3388L59.4846 26.3039L59.4892 26.2899L59.4799 26.3062L59.452 26.3434L59.3939 26.3993L59.2962 26.4645L59.2311 26.4948L59.1265 26.5204L59.0684 26.5273H59.0242L58.9893 26.5227L58.9614 26.518L58.9498 26.5134H58.9475L58.9544 26.5157L58.973 26.525L59.0009 26.5413L59.0358 26.5623L59.0474 26.5693L59.0242 26.546L59.0009 26.518L59.0056 26.5273L59.0219 26.5623L59.0428 26.6205L59.0637 26.7019L59.0823 26.7974L59.0963 26.9022L59.1056 27.0162L59.1079 27.1326L59.1032 27.249L59.0916 27.3631L59.0753 27.4702L59.0544 27.5656L59.0288 27.6494L59.0033 27.7169L58.9823 27.7612L58.9498 27.8101L58.9637 27.7938L58.9661 27.7914L58.9707 27.7868L58.98 27.7798L58.9963 27.7705L59.0126 27.7635L59.0312 27.7565L59.0544 27.7495L59.073 27.7472H59.087H59.0986L59.1521 27.7565L59.3009 27.8077L59.3869 27.859L59.3962 27.8659L59.3706 27.8403L59.3265 27.7868L59.2707 27.7076L59.2102 27.6122L59.1497 27.5051L59.0893 27.3864L59.0312 27.263L58.98 27.1373L58.9358 27.0139L58.901 26.8952L58.8754 26.7904L58.8591 26.6833L58.8568 26.6624L58.8544 26.6344V26.6112V26.5972V26.5949L58.8521 26.6018L58.8475 26.6181L58.8358 26.6484L58.8172 26.6857L58.787 26.7276L58.7452 26.7764L58.6987 26.8183L58.6475 26.8533L58.5917 26.8789L58.5475 26.8928L58.515 26.8998L58.494 26.9022H58.4917L58.5266 26.9045L58.5429 26.9068L58.5498 26.9091L58.5452 26.9068L58.5266 26.8975L58.5033 26.8835L58.4778 26.8649L58.4475 26.837L58.4243 26.809L58.4057 26.7811L58.3894 26.7508L58.3685 26.695L58.3755 26.7066V26.7019L58.3731 26.7276L58.3662 26.7695L58.3545 26.8183L58.3359 26.8742L58.3127 26.9254L58.2918 26.9627L58.2639 27.0046L58.2755 26.9883L58.2825 26.9813L58.2964 26.9673L58.3243 26.9464L58.3755 26.9138L58.4499 26.8789L58.5568 26.8463L58.708 26.8277L58.8777 26.844L59.0474 26.9022L59.1962 26.9976L59.2939 27.093L59.352 27.1769L59.3846 27.242L59.3962 27.277L59.3985 27.2886L59.3962 27.2816L59.3916 27.2281C59.3381 26.7369 58.8963 26.3807 58.4057 26.4342C57.9011 26.4761 57.5454 26.9184 57.5989 27.412Z" fill="#673065"/>
<path d="M47.2961 40.1903L47.4821 40.3858L47.6751 40.579L47.8681 40.7606L48.0611 40.9329L48.254 41.0935L48.447 41.2448L48.64 41.3869L48.8353 41.5195L49.0307 41.6383L49.2283 41.7477L49.4283 41.8478L49.6282 41.9363L49.8282 42.0154L50.0305 42.0829L50.2328 42.1388L50.435 42.183L50.642 42.2156L50.8466 42.2366L51.0489 42.2459L51.2535 42.2436L51.4535 42.2296L51.6534 42.204L51.8534 42.1667L52.0464 42.1202L52.237 42.0643L52.4277 41.9968L52.6114 41.9223L52.7928 41.8385L52.9718 41.7454L53.1462 41.6453L53.3182 41.5382L53.488 41.4241L53.6531 41.303L53.8158 41.175L53.9763 41.04L54.1344 40.9003L54.2902 40.756L54.446 40.6047L54.5971 40.4487L54.7482 40.2857L54.897 40.1181L55.0435 39.9458L55.19 39.7689L55.3365 39.5873L55.4806 39.4011L55.6248 39.2102L55.7666 39.0146L55.9061 38.8191C56.2084 38.3931 56.1061 37.8018 55.6783 37.4991C55.2505 37.1965 54.6622 37.2989 54.3599 37.7273L54.2297 37.9135L54.1018 38.0904L53.9763 38.2604L53.8507 38.4257L53.7251 38.584L53.5996 38.7376L53.4764 38.8843L53.3531 39.024L53.2299 39.1566L53.109 39.2847L52.9904 39.4057L52.8718 39.5198L52.7532 39.6269L52.637 39.727L52.5207 39.8201L52.4068 39.9063L52.2952 39.9831L52.1836 40.0552L52.0743 40.1204L51.9697 40.1786L51.865 40.2298L51.7581 40.2741L51.6581 40.3113L51.5581 40.3439L51.4581 40.3695L51.3628 40.3905L51.2651 40.4044L51.1675 40.4138L51.0698 40.4161L50.9698 40.4138L50.8675 40.4068L50.7652 40.3928L50.6583 40.3719L50.5467 40.3439L50.435 40.309L50.3165 40.2648L50.1932 40.2112L50.0677 40.1507L49.9375 40.0785L49.8026 39.997L49.6654 39.9063L49.5236 39.8038L49.3771 39.6921L49.2283 39.5687L49.0748 39.4337L48.919 39.287L48.7609 39.1287L48.5912 38.9518C48.2494 38.5933 47.6821 38.5793 47.324 38.9215C46.9682 39.2661 46.9543 39.8318 47.2961 40.1903Z" fill="#673065"/>
<path d="M16.3994 38.7399L16.2226 38.7958L16.0366 38.8587L15.8576 38.9262L15.6832 38.9983L15.5135 39.0752L15.3507 39.1543L15.1926 39.2381L15.0368 39.3266L14.888 39.4197L14.7438 39.5152L14.6043 39.6153L14.4718 39.7177L14.3439 39.8248L14.2207 39.9365L14.1044 40.0506L13.9928 40.167L13.8859 40.288L13.7766 40.4254L13.6045 40.6675L13.4441 40.9352L13.3092 41.2076L13.1953 41.487L13.1046 41.7733L13.0372 42.062L12.9907 42.3506L12.9651 42.644L12.9604 42.935L12.9767 43.2236L13.0116 43.5123L13.0674 43.7963L13.1395 44.0757L13.2302 44.3527L13.3371 44.6204L13.4604 44.8835L13.6022 45.1419L13.758 45.3887L13.93 45.6261L14.1184 45.8566L14.3207 46.0754L14.5369 46.2826L14.7694 46.4781L15.0159 46.6597L15.274 46.8273L15.5484 46.981L15.832 47.116L16.1273 47.2347L16.4366 47.3348L16.7551 47.414L17.083 47.4722L17.4224 47.5094L17.7666 47.5234L18.1177 47.5164L18.4781 47.4862L18.8268 47.4326L19.0245 47.393L19.2105 47.3488L19.3965 47.2999L19.5825 47.2441L19.7708 47.1812L19.9452 47.1183C20.4358 46.9391 20.6893 46.3943 20.5102 45.9031C20.3312 45.4119 19.7871 45.1582 19.2965 45.3374L19.1477 45.391L19.0152 45.4352L18.8826 45.4748L18.7524 45.5097L18.6245 45.54L18.5129 45.5633L18.2525 45.6052L18.013 45.6284L17.7828 45.6331L17.5619 45.6238L17.3504 45.6005L17.1457 45.5633L16.9481 45.5144L16.7598 45.4562L16.5761 45.3863L16.3994 45.3048L16.2319 45.2141L16.0715 45.1116L15.9181 45.0022L15.7762 44.8858L15.639 44.7578L15.5111 44.6251L15.3949 44.4854L15.2856 44.3387L15.1856 44.1874L15.0973 44.0338L15.0182 43.8731L14.9508 43.7102L14.895 43.5472L14.8485 43.3819L14.8136 43.2143L14.7903 43.0514L14.7787 42.8861V42.7231L14.7903 42.5648L14.8136 42.4065L14.8485 42.2505L14.895 42.0992L14.9554 41.9479L15.0275 41.7989L15.1112 41.6569L15.2228 41.5009L15.2693 41.4451L15.3275 41.3775L15.3902 41.31L15.4577 41.2425L15.5274 41.1773L15.6042 41.1122L15.6855 41.047L15.7692 40.9841L15.8599 40.9236L15.9553 40.8631L16.0552 40.8049L16.1622 40.749L16.2738 40.6931L16.3901 40.6419L16.5133 40.5907L16.6412 40.5418L16.7737 40.4952L16.9248 40.4487C17.3969 40.302 17.6619 39.7992 17.5154 39.3266C17.3736 38.8587 16.8714 38.5956 16.3994 38.7399Z" fill="#673065"/>
<path d="M38.1744 6.45782L38.4256 6.50671L38.6627 6.56258L38.9022 6.62543L39.1417 6.6976L39.3789 6.77675L39.616 6.86522L39.8509 6.95834L40.0834 7.05844L40.3136 7.16785L40.5415 7.28193L40.7647 7.40298L40.9832 7.53102L41.1972 7.66604L41.4041 7.80572L41.6064 7.95238L41.8017 8.1037L41.99 8.25968L42.1714 8.42031L42.3458 8.5856L42.5109 8.75321L42.6667 8.92548L42.8131 9.10008L42.9503 9.27701L43.0782 9.45626L43.1968 9.63784L43.3014 9.81943L43.3968 10.0057L43.4828 10.1919L43.5549 10.3781L43.6153 10.5667L43.6665 10.7553L43.7037 10.9415L43.7293 11.1324L43.7455 11.3233L43.7479 11.5119L43.7386 11.7051L43.7153 11.9006L43.6804 12.0962L43.6293 12.2987L43.5642 12.5036L43.4851 12.7085L43.3875 12.9203L43.2735 13.1368L43.141 13.3533L42.9875 13.5768L42.8155 13.8026L42.6225 14.0307L42.4039 14.2635L42.3179 14.345L42.2272 14.4195L42.1272 14.4894L42.0203 14.5545L41.9087 14.6127L41.7877 14.6663L41.6599 14.7152L41.5273 14.7547L41.3878 14.7897L41.2437 14.8176L41.0948 14.8386L40.9391 14.8525L40.7809 14.8618L40.6205 14.8642L40.4554 14.8572L40.288 14.8455L40.1229 14.8269L39.9555 14.8013L39.7881 14.7687L39.623 14.7291L39.4579 14.6826L39.2952 14.6314L39.1371 14.5755L38.9813 14.5126L38.8278 14.4451L38.6813 14.373L38.5395 14.2938L38.4046 14.2123L38.2768 14.1285L38.1558 14.0377L38.0419 13.9446L37.9373 13.8515L37.8396 13.7537L37.7513 13.6559L37.6745 13.5582L37.6048 13.4581L37.5443 13.358L37.4932 13.2602L37.4513 13.1601L37.4164 13.06L37.3909 12.9645L37.3746 12.8644L37.3653 12.762V12.6596L37.3746 12.5501L37.3909 12.4361L37.4188 12.3173L37.4629 12.18L37.5048 12.0706L37.5513 11.9612L37.6025 11.8564L37.6559 11.7586L37.7117 11.6678L37.7722 11.5817L37.8326 11.5002L37.8931 11.4281L37.9582 11.3582L38.0233 11.2954L38.0884 11.2395L38.1558 11.1883L38.2233 11.1417L38.2884 11.0998L38.3535 11.0626L38.4186 11.03L38.4814 11.0044L38.5441 10.9811L38.6046 10.9625L38.6604 10.9485L38.7162 10.9392L38.7697 10.9322L38.8185 10.9299L38.8673 10.9322L38.9138 10.9369L38.9534 10.9438L38.9929 10.9532L39.0301 10.9648L39.0627 10.9788L39.0952 10.9951L39.1278 11.0137L39.1557 11.0323L39.1859 11.0556L39.2161 11.0835L39.244 11.1138L39.2719 11.151L39.2998 11.1929L39.3277 11.2395L39.3556 11.2977L39.3812 11.3629L39.4045 11.435L39.4254 11.5189L39.444 11.612L39.4579 11.7121L39.4672 11.8261L39.4719 11.9495L39.4696 12.0822L39.4603 12.2452C39.43 12.7666 39.8253 13.216 40.3485 13.2462C40.8693 13.2788 41.3181 12.8807 41.3483 12.3569L41.3599 12.1497L41.3622 11.9262L41.3553 11.7121L41.3367 11.5026L41.3064 11.2954L41.2669 11.0975L41.2181 10.9043L41.1553 10.7157L41.0832 10.5364L40.9995 10.3642L40.9042 10.1966L40.7996 10.0406L40.6856 9.89392L40.5601 9.75424L40.4275 9.62853L40.2857 9.51446L40.1346 9.4097L39.9811 9.32124L39.8207 9.24441L39.6532 9.17923L39.4858 9.12801L39.3161 9.08844L39.1417 9.0605L38.9697 9.04421L38.7976 9.03955L38.6232 9.04654L38.4535 9.06516L38.2837 9.0931L38.114 9.13267L37.9489 9.18156L37.7861 9.23976L37.6234 9.3096L37.4676 9.38642L37.3141 9.47256L37.163 9.568L37.0165 9.67276L36.8747 9.78451L36.7352 9.90789L36.6026 10.0383L36.4748 10.1756L36.3515 10.3223L36.2353 10.4759L36.126 10.6365L36.0213 10.8065L35.9237 10.9811L35.833 11.1627L35.7493 11.3536L35.6726 11.5584L35.5935 11.8122L35.5331 12.0776L35.5098 12.3383L35.4912 12.599L35.4959 12.8598L35.5214 13.1135L35.5656 13.3603L35.6307 13.6047L35.7121 13.8375L35.8098 14.061L35.9237 14.2775L36.0492 14.4824L36.1864 14.6779L36.3376 14.8642L36.4957 15.0411L36.6631 15.2087L36.8421 15.367L37.0258 15.516L37.2165 15.6557L37.4164 15.7884L37.6211 15.9094L37.8303 16.0235L38.0466 16.1306L38.2651 16.2284L38.4883 16.3168L38.7162 16.3983L38.9464 16.4681L39.1789 16.531L39.4161 16.5845L39.6532 16.6288L39.8904 16.6637L40.1322 16.6893L40.3717 16.7056L40.6112 16.7126L40.853 16.7079L41.0925 16.694L41.332 16.6683L41.5715 16.6311L41.8063 16.5822L42.0389 16.5217L42.2714 16.4472L42.4969 16.3611L42.7178 16.2609L42.9364 16.1446L43.1456 16.0142L43.3479 15.8698L43.5432 15.7069L43.7269 15.53L43.9966 15.2366L44.2478 14.9387L44.4733 14.6383L44.6802 14.3357L44.8639 14.0284L45.0244 13.7211L45.1662 13.4115L45.2871 13.0972L45.3848 12.7829L45.4615 12.471L45.5173 12.1544L45.5499 11.8424L45.5638 11.5328L45.5568 11.2232L45.5313 10.9206L45.4871 10.6226L45.4243 10.3269L45.3452 10.0383L45.2522 9.75657L45.1429 9.47721L45.0197 9.20717L44.8825 8.9441L44.7314 8.6857L44.5686 8.4366L44.3966 8.19449L44.2129 7.95704L44.0199 7.7289L43.8176 7.50774L43.6037 7.29124L43.3828 7.08405L43.1549 6.88384L42.9178 6.69062L42.676 6.50438L42.4272 6.32513L42.1714 6.15518L41.911 5.99222L41.6459 5.83625L41.3739 5.68726L41.0995 5.54991L40.8205 5.41954L40.5368 5.29616L40.2531 5.18209L39.9671 5.07733L39.6765 4.98188L39.3859 4.89575L39.0929 4.81892L38.7976 4.75141L38.5162 4.69554C38.0303 4.60009 37.5606 4.91902 37.4653 5.40324C37.3723 5.89212 37.6908 6.36237 38.1744 6.45782Z" fill="#673065"/>
<path d="M30.7828 5.54292L30.6061 5.48938L30.4479 5.43816L30.2945 5.38462L30.148 5.32875L30.0085 5.27288L29.8736 5.21468L29.7457 5.15415L29.6248 5.09362L29.5086 5.03077L29.397 4.96558L29.2923 4.9004L29.2017 4.83987L29.0017 4.69088L28.832 4.54655L28.6738 4.39057L28.5274 4.22761L28.3925 4.05767L28.2646 3.87609L28.1437 3.68287L28.0298 3.478L27.9205 3.25917L27.8159 3.0287L27.7136 2.78427L27.6159 2.52353L27.5182 2.25116L27.4229 1.96482L27.3276 1.66218L27.2276 1.35023L27.1299 1.02198L27.03 0.679771C26.8811 0.176927 26.3557 -0.109415 25.8534 0.039576C25.3535 0.188567 25.0675 0.714691 25.214 1.21753L25.3186 1.5644L25.4209 1.90429L25.5256 2.23719L25.6302 2.56311L25.7395 2.88204L25.8558 3.19399L25.979 3.49896L26.1092 3.79927L26.2487 4.09026L26.3998 4.37661L26.5649 4.65596L26.744 4.92601L26.9369 5.18674L27.1485 5.44049L27.3764 5.68027L27.6229 5.90842L27.8903 6.12492L28.1623 6.32047L28.3204 6.42523L28.4739 6.51835L28.632 6.60914L28.7948 6.69527L28.9622 6.77908L29.1342 6.85823L29.3109 6.93506L29.4946 7.00955L29.6806 7.07939L29.8736 7.1469L30.0713 7.20976L30.2666 7.26796C30.7409 7.40996 31.2385 7.13992 31.3803 6.66501C31.5245 6.18545 31.2548 5.68493 30.7828 5.54292Z" fill="#673065"/>
<path d="M27.695 6.95601L27.3555 6.85591L27.0184 6.75115L26.6859 6.63708L26.3603 6.51369L26.0488 6.37867L25.7511 6.23434L25.4721 6.08069L25.2164 5.91773L24.9676 5.73149L24.8722 5.65467L24.7722 5.56388L24.6769 5.47076L24.5886 5.37298L24.5095 5.27521L24.4188 5.15182C24.1096 4.73046 23.5167 4.642 23.0958 4.95162C22.675 5.26124 22.5866 5.85487 22.8958 6.27624L23.0191 6.4392L23.1679 6.61845L23.3237 6.78607L23.4841 6.94437L23.6538 7.09336L23.8399 7.24235L24.184 7.48213L24.5583 7.70096L24.9373 7.89186L25.321 8.05947L25.707 8.20846L26.0883 8.34116L26.465 8.46221L26.8347 8.57396L27.1881 8.67639C27.6624 8.81607 28.16 8.54369 28.2995 8.06878C28.4414 7.59155 28.1693 7.09336 27.695 6.95601Z" fill="#673065"/>
</g>
<defs>
<clipPath id="clip0_1182_209">
<rect width="77" height="97" fill="white"/>
</clipPath>
</defs>
</svg>
