<svg width="71" height="97" viewBox="0 0 71 97" fill="none" xmlns="http://www.w3.org/2000/svg">
<g clip-path="url(#clip0_1182_381)">
<path d="M13.9646 51.9016L13.8306 52.1904L13.6942 52.4864L13.5579 52.7896L13.4215 53.0929L13.2875 53.4033L13.1536 53.7113L13.022 54.0266L12.8904 54.3419L12.7612 54.6643L12.632 54.9868L12.5052 55.3141L12.3784 55.6414L12.254 55.9735L12.1296 56.308L12.0076 56.6473L11.8856 56.9866L11.7683 57.3308L11.6511 57.6749L11.5363 58.0214L11.4214 58.3704L11.3114 58.7217L11.2013 59.0731L11.0961 59.4293L10.9908 59.7854L10.8903 60.144L10.7898 60.505L10.6941 60.8684L10.5984 61.2317L10.5075 61.5975L10.4166 61.9633L10.3257 62.3291L10.2396 62.6997L10.1606 63.0727L10.0817 63.4458L10.0075 63.8212L9.93335 64.1942L9.86636 64.5696L9.79937 64.945L9.73717 65.3228L9.67497 65.6983L9.62233 66.0785L9.5697 66.4563L9.52185 66.8366L9.474 67.2168L9.43572 67.597L9.39745 67.9772L9.36634 68.3575L9.33524 68.7377L9.31132 69.1179L9.28739 69.5006L9.27304 69.8808L9.25868 70.261L9.2539 70.6413L9.24911 71.0215L9.25151 71.3993L9.2539 71.7796L9.26586 72.1574L9.27782 72.5376L9.30175 72.9154L9.32328 73.2933L9.35438 73.6687L9.38788 74.0441L9.43094 74.4171L9.474 74.7901L9.52903 75.1607L9.58166 75.5289L9.64387 75.902L9.71085 76.2701L9.78502 76.6359L9.86397 77.0017L9.9477 77.3651L10.0386 77.7261L10.1343 78.0847L10.2372 78.4432L10.3472 78.7994L10.4621 79.1532L10.5841 79.5045L10.7133 79.8535L10.8473 80.2L10.9884 80.5441L11.1367 80.8859L11.2922 81.2252L11.4549 81.5621L11.6248 81.8942L11.7994 82.2239L11.9837 82.5512L12.1751 82.8737L12.3712 83.1937L12.577 83.5114L12.7899 83.8242L13.01 84.1347L13.2373 84.4427L13.4717 84.7459L13.7134 85.0444L13.9646 85.3404L14.223 85.6291L14.4957 85.9227L14.778 86.2163L15.0675 86.5075L15.3642 86.7963L15.668 87.0851L15.9814 87.3715L16.2996 87.6554L16.6274 87.937L16.9623 88.2162L17.302 88.4929L17.6489 88.7673L18.003 89.0392L18.3619 89.3087L18.7279 89.5759L19.1011 89.8406L19.4791 90.1029L19.8643 90.3628L20.2543 90.6179L20.649 90.8706L21.0486 91.1208L21.4529 91.3663L21.862 91.6094L22.2759 91.8476L22.6945 92.0811L23.118 92.3121L23.5462 92.5383L23.9793 92.7597L24.4147 92.9787L24.8525 93.1929L25.075 93.2988L25.2975 93.4022L25.52 93.5057L25.7425 93.6092L25.9674 93.7103L26.1923 93.8113L26.4196 93.91L26.6468 94.0063L26.8741 94.1025L27.1014 94.1988L27.3311 94.2927L27.5607 94.3865L27.7904 94.4755L28.0201 94.5646L28.2521 94.6512L28.4842 94.7379L28.7163 94.8221L28.9483 94.9063L29.1828 94.9881L29.4173 95.07L29.6517 95.1494L29.8862 95.2288L30.1206 95.3058L30.3575 95.3828L30.5943 95.455L30.8312 95.5272L31.068 95.597L31.3049 95.6668L31.5417 95.7342L31.7786 95.8015L32.0178 95.8665L32.2547 95.9315L32.4939 95.9917L32.7332 96.0518L32.9724 96.1096L33.214 96.1673L33.6901 96.2756L34.1686 96.3767L34.6495 96.4706L35.128 96.5572L35.6065 96.6366L36.0873 96.7088L36.5658 96.7738L37.0443 96.8315L37.5228 96.8821L37.9989 96.923L38.475 96.9567L38.9487 96.9832L39.4224 97L39.8937 97.0096H40.365L40.8315 97.0024L41.298 96.9856L41.7622 96.9591L42.2239 96.923L42.6833 96.8797L43.1402 96.8243L43.5924 96.7593L44.0422 96.6871L44.4895 96.6029L44.9321 96.5091L45.3723 96.4056L45.8078 96.2925L46.2384 96.1673L46.6666 96.0326L47.0901 95.8858L47.5088 95.7269L47.9227 95.5585L48.3318 95.378L48.7337 95.1855L49.1308 94.9833L49.5232 94.7667L49.9084 94.5405L50.2864 94.3023L50.6596 94.052L51.0256 93.7897L51.3845 93.5153L51.7362 93.2266L52.0807 92.9257L52.4156 92.6129L52.7434 92.2856L53.0616 91.9463L53.3726 91.5949L53.6765 91.2291L53.9683 90.8537L54.1334 90.6251L54.2913 90.3869L54.442 90.139L54.588 89.8815L54.7291 89.6144L54.8631 89.34L54.9923 89.0584L55.1143 88.7673L55.2315 88.4713L55.3416 88.1704L55.4445 87.8624L55.5401 87.5496L55.6287 87.2319L55.71 86.9118L55.7842 86.5893L55.8512 86.2645L55.9086 85.9372L55.9564 85.6099L55.9947 85.2826L56.0234 84.9529L56.0426 84.6256L56.0521 84.2983L56.0497 83.971L56.0354 83.6486L56.0091 83.3285L55.9684 83.0108L55.9134 82.7004L55.844 82.3924L55.7603 82.0891L55.6598 81.7931L55.5425 81.5044L55.4038 81.2204L55.2459 80.9509L55.0688 80.6909L54.8679 80.4431L54.6454 80.2145L54.4037 80.0027L54.1358 79.8078L53.8702 79.6489L53.7028 79.5647L53.5473 79.4949L53.3894 79.4323L53.2267 79.3746L53.0592 79.324L52.8893 79.2807L52.7171 79.2446L52.5401 79.2133L52.3606 79.1893L52.1764 79.1724L51.9874 79.1628L51.7984 79.158L51.6046 79.1604L51.406 79.17L51.2075 79.1869L51.0041 79.2085L50.796 79.2374L50.5807 79.2735L50.3462 79.3216L50.1117 79.3842L49.8892 79.4564L49.6739 79.5382L49.4658 79.6297L49.2672 79.7283L49.0758 79.8342L48.8916 79.9473L48.7193 80.0653L48.5543 80.188L48.394 80.3155L48.2337 80.4551L47.9609 80.7126L47.6978 80.9869L47.4561 81.2589L47.2289 81.526L47.0112 81.7859L46.803 82.0338L46.602 82.2672L46.4059 82.4814L46.2097 82.6739L46.0159 82.8448L45.8245 82.9892L45.6068 83.1239L45.5255 83.1673L45.425 83.213L45.3173 83.2563L45.2073 83.2924L45.0948 83.3237L44.9728 83.3502L44.8436 83.3694L44.7072 83.3814L44.5613 83.3863L44.4058 83.3839L44.2407 83.3742L44.0541 83.3526L43.8986 83.3309L43.724 83.302L43.535 83.2683L43.334 83.2298L43.1211 83.1865L42.8962 83.136L42.6617 83.083L42.4153 83.0253L42.1593 82.9627L41.8938 82.8977L41.621 82.8279L41.3387 82.7557L41.0468 82.6787L40.7478 82.5993L40.4416 82.5175L40.1281 82.4333L39.8076 82.3466L39.4822 82.2576L39.1496 82.1686L38.8123 82.0771L38.4678 81.9833L38.1185 81.8894L37.7644 81.7955L37.4056 81.6993L37.0419 81.6054L36.6783 81.5092L36.3074 81.4129L35.9366 81.3166L35.561 81.2228L35.1854 81.1289L34.805 81.0375L34.4246 80.946L34.0418 80.857L33.6566 80.768L33.2715 80.6837L32.8863 80.5995L32.5011 80.5201L32.1135 80.4407L31.726 80.3661L31.3384 80.2915L30.9532 80.2241L30.568 80.1567L30.1852 80.0965L29.8024 80.0364L29.4244 79.9858L29.044 79.9353L28.6708 79.8944L28.3 79.8535L27.9268 79.8198L27.5607 79.7933L27.1971 79.7717L26.8382 79.7572L26.4818 79.7476L26.1301 79.7452L25.7832 79.75L25.4387 79.762L25.1013 79.7813L24.7688 79.8102L24.441 79.8463L24.1204 79.892L23.8046 79.9449L23.4936 80.0099L23.1898 80.0845L22.8907 80.1687L22.5965 80.265L22.3118 80.3733L22.0342 80.4936L21.7639 80.6284L21.5031 80.7752L21.2519 80.9364L21.0079 81.1145L20.7782 81.307L20.5605 81.514L20.3548 81.7402L20.1658 81.9784L19.9911 82.2311L19.8332 82.5007L19.6944 82.7822L19.5724 83.0734L19.4672 83.3814L19.3786 83.6943L19.3117 84.0216L19.2638 84.3633L19.2351 84.7123L19.2231 85.0708L19.2303 85.4414L19.2542 85.8217L19.2949 86.2115L19.3547 86.6158L19.4313 87.0225L19.4767 87.2415L19.527 87.4581L19.582 87.6771L19.6394 87.8985L19.7016 88.1247L19.7686 88.3533L19.8404 88.5844L19.9169 88.8202L19.9983 89.0584L20.0844 89.2991L20.1753 89.5446L20.2686 89.7876C20.4624 90.293 21.0246 90.5433 21.527 90.3508C22.0295 90.1558 22.2783 89.5903 22.0869 89.0849L21.9983 88.8515L21.917 88.6277L21.8404 88.4087L21.7663 88.1945L21.6969 87.9851L21.6323 87.7806L21.5725 87.5784L21.5175 87.3811L21.4672 87.1886L21.4194 87.0009L21.3763 86.818L21.3404 86.6471L21.2734 86.2933L21.2256 85.9661L21.1921 85.6556L21.173 85.3596L21.1682 85.0853L21.1777 84.8254L21.1969 84.5799L21.228 84.3537L21.2711 84.1419L21.3237 83.9446L21.3859 83.7641L21.4577 83.5932L21.5366 83.432L21.6227 83.2852L21.7184 83.1456L21.8237 83.0132L21.9361 82.8905L22.0606 82.7726L22.1945 82.6595L22.3381 82.5536L22.496 82.4525L22.6634 82.3563L22.8405 82.2672L23.0319 82.183L23.2352 82.106L23.4482 82.0362L23.673 81.9712L23.9099 81.9135L24.1539 81.8629L24.4099 81.8196L24.6755 81.7811L24.9482 81.7498L25.2329 81.7258L25.5248 81.7089L25.8238 81.6993L26.1301 81.6945L26.4435 81.6969L26.7641 81.7041L27.0918 81.7185L27.4244 81.7378L27.7617 81.7619L28.1014 81.7931L28.4531 81.8316L28.8024 81.8701L29.1589 81.9183L29.5177 81.9664L29.8814 82.0218L30.2474 82.0771L30.6159 82.1421L30.9843 82.2047L31.3551 82.2744L31.7283 82.3442L32.1016 82.4212L32.4772 82.4982L32.8528 82.5801L33.2284 82.6619L33.6016 82.7485L33.9772 82.8352L34.3504 82.9242L34.7237 83.0132L35.0945 83.1047L35.4653 83.1961L35.8314 83.29L36.1974 83.3839L36.5563 83.4777L36.9175 83.5716L37.2716 83.6654L37.6233 83.7593L37.9702 83.8531L38.3123 83.9446L38.6496 84.036L38.9822 84.1251L39.3099 84.2141L39.6305 84.3007L39.9463 84.385L40.2549 84.4668L40.5588 84.5462L40.8554 84.6232L41.1449 84.6978L41.4272 84.77L41.7024 84.8374L41.9703 84.9024L42.2287 84.9649L42.4799 85.0227L42.7239 85.0756L42.9584 85.1238L43.1833 85.1671L43.401 85.208L43.6115 85.2417L43.8197 85.2706L44.0804 85.2995L44.3436 85.3163L44.5972 85.3187L44.846 85.3091L45.09 85.285L45.3245 85.2489L45.5518 85.2008L45.7743 85.1406L45.9872 85.0708L46.1906 84.9914L46.3891 84.9L46.5949 84.7893L46.925 84.5823L47.2456 84.3392L47.5351 84.0841L47.8007 83.8218L48.0495 83.5523L48.2815 83.2852L48.5016 83.0229L48.7146 82.7678L48.9227 82.5247L49.1261 82.2937L49.327 82.0819L49.5423 81.8774L49.6356 81.7979L49.7385 81.7137L49.8438 81.6343L49.9514 81.5597L50.0591 81.4923L50.1716 81.4298L50.2864 81.372L50.4036 81.3215L50.528 81.2757L50.6572 81.2348L50.7912 81.1987L50.9419 81.1674L51.095 81.141L51.2457 81.1193L51.3941 81.1025L51.5352 81.0904L51.6692 81.0832L51.7984 81.0808L51.9228 81.0832L52.04 81.0904L52.1525 81.1001L52.2601 81.1145L52.3606 81.1313L52.4587 81.153L52.552 81.1771L52.6381 81.2035L52.7219 81.2324L52.8008 81.2637L52.875 81.2974L52.93 81.3239L53.0855 81.4153L53.2075 81.5044L53.3224 81.6054L53.43 81.7161L53.5281 81.8365L53.6214 81.9736L53.7099 82.1228L53.7889 82.2841L53.8607 82.4597L53.9253 82.6499L53.9803 82.8496L54.0281 83.0638L54.0664 83.2876L54.0951 83.5186L54.1143 83.7617L54.1262 84.012L54.1286 84.267L54.1214 84.5294L54.1071 84.7965L54.0832 85.066L54.0497 85.3404L54.009 85.6171L53.9612 85.8939L53.9061 86.1706L53.8439 86.4474L53.7745 86.7193L53.698 86.9912L53.6166 87.2584L53.5281 87.5207L53.4348 87.7782L53.3367 88.0285L53.2339 88.2715L53.1262 88.5049L53.0161 88.7312L52.9037 88.9453L52.7889 89.1499L52.6716 89.3424L52.5544 89.5181L52.4372 89.6793L52.1788 90.0114L51.9156 90.3291L51.6453 90.6347L51.3678 90.9307L51.0831 91.2123L50.7912 91.4842L50.4945 91.7465L50.1907 91.9968L49.8797 92.2351L49.5615 92.4637L49.2385 92.6827L48.9083 92.8921L48.5734 93.0918L48.2313 93.2795L47.882 93.4576L47.5279 93.626L47.1691 93.7849L46.803 93.9341L46.4322 94.0737L46.0566 94.2036L45.6762 94.3239L45.291 94.437L44.901 94.5405L44.5063 94.6344L44.1068 94.7186L43.7024 94.7956L43.2933 94.863L42.8818 94.9208L42.4655 94.9713L42.0445 95.0122L41.621 95.0459L41.1952 95.07L40.7645 95.0868L40.3315 95.094H39.8961L39.4583 95.0868L39.0181 95.0724L38.5755 95.0483L38.1305 95.017L37.6855 94.9785L37.2381 94.9328L36.7883 94.8798L36.3385 94.8197L35.8864 94.7523L35.4342 94.6777L34.9796 94.5959L34.5251 94.5068L34.0705 94.4106L33.6136 94.3095L33.3887 94.2566L33.1614 94.2036L32.9341 94.1459L32.7068 94.0881L32.4796 94.0279L32.2523 93.9678L32.025 93.9052L31.8001 93.8426L31.5752 93.7752L31.3479 93.7079L31.1231 93.6381L30.8982 93.5683L30.6733 93.4961L30.4484 93.4239L30.2235 93.3493L29.9986 93.2747L29.7761 93.1977L29.5536 93.1207L29.3311 93.0413L29.1086 92.9618L28.8861 92.8776L28.6636 92.7934L28.4435 92.7067L28.2234 92.6201L28.0033 92.5311L27.7832 92.442L27.5655 92.3506L27.3478 92.2591L27.1301 92.1653L26.9124 92.0714L26.6971 91.9752L26.4818 91.8789L26.2688 91.7802L26.0535 91.6816L25.8406 91.5829L25.6301 91.4842L25.2066 91.2797L24.7903 91.0703L24.3764 90.8585L23.9673 90.6419L23.563 90.4229L23.1611 90.1991L22.7639 89.9729L22.3716 89.7419L21.984 89.5085L21.6036 89.2726L21.228 89.032L20.8572 88.7889L20.4911 88.5434L20.1323 88.2956L19.7782 88.0453L19.4313 87.7926L19.0892 87.5375L18.7542 87.28L18.4265 87.0201L18.1059 86.7602L17.7925 86.4979L17.4862 86.2356L17.1872 85.9709L16.8953 85.7037L16.613 85.4366L16.3379 85.1695L16.0699 84.9L15.8115 84.6304L15.5627 84.3609L15.3307 84.101L15.1082 83.8387L14.8905 83.5716L14.6799 83.302L14.4766 83.0301L14.2804 82.7533L14.089 82.4718L13.9048 82.1878L13.7277 81.9014L13.5555 81.6102L13.3904 81.3166L13.2325 81.0206L13.0794 80.7222L12.9335 80.4214L12.7947 80.1158L12.6607 79.8078L12.5339 79.4973L12.4119 79.1845L12.2947 78.8692L12.1846 78.5515L12.0794 78.2291L11.9789 77.9042L11.8856 77.5793L11.797 77.2496L11.7133 76.9175L11.6344 76.5854L11.5626 76.2509L11.4956 75.914L11.4334 75.5747L11.376 75.2378L11.3257 74.8912L11.2755 74.5471L11.2348 74.2005L11.1942 73.854L11.1631 73.505L11.1678 73.1585L11.1463 72.8047L11.1248 72.4534L11.1128 72.0996L11.1009 71.7459L11.0985 71.3897L11.0961 71.0311L11.1009 70.6726L11.1056 70.314L11.12 69.9554L11.1343 69.5968L11.1559 69.2359L11.1774 68.8749L11.2061 68.5139L11.2348 68.1529L11.2731 67.792L11.3114 67.431L11.3568 67.07L11.4023 66.7066L11.4525 66.3456L11.5028 65.9846L11.5602 65.6237L11.6176 65.2627L11.6822 64.9041L11.7468 64.5431L11.8186 64.1846L11.888 63.826L11.9645 63.4698L12.0411 63.1137L12.1224 62.7599L12.2038 62.4037L12.2923 62.05L12.3808 61.6962L12.4741 61.3473L12.5674 60.9983L12.6655 60.6518L12.7636 60.3052L12.8665 59.9611L12.9693 59.617L13.0746 59.2776L13.1799 58.9383L13.2899 58.6038L13.4 58.2669L13.5124 57.9348L13.6249 57.6027L13.7421 57.2754L13.8593 56.9481L13.9789 56.6281L14.0986 56.3056L14.2206 55.9879L14.3426 55.6727L14.467 55.3622L14.5914 55.0518L14.7182 54.7486L14.845 54.4429L14.9742 54.1445L15.1034 53.8461L15.235 53.5549L15.3665 53.2637L15.4981 52.9798L15.6321 52.691C15.8474 52.2265 15.6489 51.6754 15.1871 51.4588C14.7302 51.2374 14.1799 51.4372 13.9646 51.9016Z" fill="#673065"/>
<path d="M10.9501 70.5402L11.1966 70.5258L11.4382 70.5113L11.6798 70.4993L11.9215 70.4873L12.1631 70.48L12.4071 70.4728L12.6511 70.468L12.8952 70.4632L13.1392 70.4608L13.3832 70.4584H13.6273H13.8713L14.1153 70.4608L14.3641 70.4632L14.6129 70.4656L14.857 70.468L15.101 70.4704L15.3498 70.4752L15.5986 70.48L15.845 70.4849L16.0915 70.4897L16.3403 70.4945L16.5891 70.4993L16.8403 70.5041L17.0915 70.5065L17.3403 70.5089L17.5891 70.5113L17.8379 70.5137L18.0867 70.5161L18.326 70.5113L18.5748 70.5137L18.8356 70.5161L19.0963 70.5137L19.3452 70.5113L19.594 70.5065L19.8428 70.5017L20.0916 70.4993L20.3404 70.4969L20.5892 70.4921L20.8619 70.4873L21.1347 70.4704L21.3835 70.4536L21.6299 70.4367L21.8763 70.4199L22.1252 70.403L22.3716 70.3862L22.6204 70.3693L22.8859 70.3525L23.1539 70.326L23.4051 70.2995L23.6563 70.2731L23.9147 70.2466L24.1731 70.2153L24.4219 70.1864L24.6707 70.1576L24.9267 70.1263L25.1827 70.0902L25.4315 70.0565L25.6803 70.0228L25.9363 69.9891L26.1899 69.9506L26.4387 69.9145L26.6875 69.876L26.9435 69.8375L27.1971 69.7966L27.4435 69.7557L27.6899 69.7148L27.9435 69.6738L28.1971 69.6281L28.4435 69.5848L28.69 69.5415L28.9412 69.4958L29.1924 69.4476L29.4388 69.4019L29.6852 69.3538L29.9364 69.3057L30.1876 69.2551L30.434 69.2046L30.6781 69.154L30.9293 69.1035L31.1781 69.0506L31.4221 68.9976L31.6661 68.9447L31.915 68.8917L32.1638 68.8364L32.4078 68.781L32.6518 68.7257L32.9006 68.6703L33.1494 68.6126L33.3935 68.5548L33.6375 68.4971L33.8863 68.4393L34.1327 68.3791L34.3768 68.319L34.6208 68.2588L34.8672 68.1987L35.1136 68.1361L35.3553 68.0735L35.5969 68.0109L35.8433 67.9484L36.0897 67.8834L36.3314 67.8184L36.573 67.7534L36.8194 67.6885L37.0635 67.6211L37.3051 67.5561L37.5467 67.4911L37.7908 67.4237L38.0348 67.3564L38.2764 67.289L38.518 67.2216L38.7621 67.1542L39.0061 67.0844L39.2477 67.0146L39.4894 66.9448L39.7334 66.8751L39.975 66.8053L40.2167 66.7355L40.4559 66.6657L40.6999 66.5959L40.9416 66.5237L41.1808 66.4515L41.4201 66.3793L41.6593 66.3071L41.8985 66.2349L42.1378 66.1627L42.377 66.0905L42.6187 66.0183L42.8603 65.9437L43.0995 65.8715L43.3388 65.7993L43.578 65.7271L43.8173 65.6549L44.0565 65.5827L44.2958 65.5106L44.5374 65.4384L44.779 65.3638L45.0183 65.2892L45.2575 65.2145L45.4967 65.1399L45.736 65.0653L45.9752 64.9907L46.2145 64.9161L46.4537 64.8439C46.9681 64.6851 47.2576 64.1388 47.0997 63.6214C46.9418 63.104 46.3987 62.8128 45.8843 62.9717L45.6451 63.0463L45.4058 63.1209L45.1666 63.1955L44.9274 63.2701L44.6881 63.3447L44.4489 63.4193L44.2096 63.4939L43.9728 63.5685L43.7335 63.6407L43.4943 63.7129L43.2551 63.7851L43.0158 63.8573L42.7766 63.9295L42.5373 64.0017L42.2981 64.0739L42.0612 64.146L41.8244 64.2158L41.5851 64.288L41.3459 64.3602L41.1067 64.4324L40.8674 64.5046L40.6282 64.5768L40.3889 64.649L40.1521 64.7212L39.9152 64.791L39.6736 64.8608L39.4343 64.9306L39.1975 65.0004L38.9583 65.0702L38.7166 65.1399L38.475 65.2097L38.2381 65.2771L37.9989 65.3445L37.7573 65.4119L37.5156 65.4793L37.2788 65.5467L37.0395 65.6116L36.7979 65.679L36.5563 65.7464L36.3194 65.8114L36.0826 65.8763L35.8409 65.9413L35.5993 66.0063L35.3624 66.0713L35.1232 66.1338L34.8816 66.1964L34.6399 66.259L34.4007 66.3216L34.1614 66.3817L33.9198 66.4419L33.6782 66.502L33.4389 66.5622L33.1997 66.62L32.9557 66.6777L32.7116 66.7355L32.4724 66.7932L32.2331 66.8486L31.9891 66.9039L31.7451 66.9593L31.5058 67.0146L31.2666 67.0676L31.0226 67.1205L30.7785 67.1759L30.5393 67.2288L30.3001 67.2794L30.056 67.3299L29.812 67.3804L29.5728 67.431L29.3335 67.4791L29.0871 67.5272L28.8407 67.5754L28.6014 67.6235L28.3598 67.6668L28.1134 67.7125L27.867 67.7583L27.6277 67.8016L27.3861 67.8425L27.1397 67.8858L26.8933 67.9267L26.6516 67.9676L26.41 68.0061L26.1612 68.0446L25.9124 68.0831L25.6707 68.1216L25.4291 68.1553L25.1803 68.1914L24.9315 68.2275L24.6898 68.2612L24.4482 68.2925L24.1994 68.3238L23.9506 68.3551L23.7089 68.3864L23.4649 68.4128L23.2137 68.4393L22.9625 68.4658L22.7304 68.4922L22.4888 68.5019L22.24 68.5187L21.9936 68.5356L21.7448 68.5524L21.4959 68.5693L21.2495 68.5861L21.0007 68.6029L20.7782 68.6198L20.5533 68.6222L20.3045 68.627L20.0557 68.6318L19.8069 68.6366L19.5581 68.6415L19.3093 68.6463L19.0605 68.6511L18.826 68.6559L18.5891 68.6535L18.3403 68.6511L18.0915 68.6487L17.8427 68.6463L17.5939 68.6439L17.3451 68.6415L17.0963 68.639L16.8499 68.6366L16.6034 68.6318L16.3546 68.627L16.1058 68.6222L15.857 68.6174L15.6082 68.6126L15.3594 68.6102L15.1106 68.6078L14.857 68.6029L14.6058 68.6005L14.3569 68.5981L14.1081 68.5957L13.8569 68.5933H13.6033L13.3521 68.5957L13.1009 68.5981L12.8473 68.6005L12.5937 68.6053L12.3401 68.6126L12.0865 68.6222L11.8329 68.6318L11.5793 68.6439L11.3257 68.6559L11.0721 68.6703L10.8257 68.6848C10.3185 68.7161 9.93096 69.1564 9.96206 69.6666C10.0051 70.1816 10.4429 70.5715 10.9501 70.5402Z" fill="#673065"/>
<path d="M31.8216 80.9677L31.7762 80.6982L31.7307 80.4431L31.6949 80.188L31.659 79.9329L31.6303 79.6778L31.6015 79.4203L31.58 79.1628L31.5585 78.9053L31.5441 78.6478L31.5298 78.3903L31.5226 78.1328L31.5154 77.8729L31.513 77.613L31.5106 77.3531L31.5154 77.0932L31.5202 76.8333L31.5298 76.5734L31.5393 76.3111L31.5537 76.0487L31.5681 75.7888L31.5872 75.5289L31.6063 75.2666L31.6279 75.0043L31.6494 74.742L31.6757 74.4797L31.702 74.2174L31.7307 73.9551L31.7594 73.6903L31.7905 73.4256L31.8216 73.1609L31.8551 72.8962L31.8886 72.6315L31.9221 72.3668L31.9556 72.102L31.9891 71.8373L32.025 71.5702L32.0585 71.3055L32.092 71.0384L32.1255 70.7712L32.1614 70.5017L32.1949 70.2346L32.2284 69.9674L32.2619 69.7003L32.2954 69.4284L32.3265 69.1564L32.3576 68.8917L32.3887 68.627L32.4198 68.3623C32.4796 67.8256 32.0968 67.3395 31.5609 67.2794C31.0274 67.2192 30.5441 67.6042 30.4843 68.1433L30.4556 68.408L30.4269 68.6727L30.3982 68.9374L30.3694 69.1974L30.3383 69.4573L30.3049 69.7244L30.2714 69.9915L30.2379 70.2562L30.2044 70.5209L30.1709 70.7881L30.1374 71.0552L30.1039 71.3223L30.0704 71.5894L30.0369 71.859L30.0058 72.1285L29.9747 72.398L29.9436 72.6676L29.9125 72.9395L29.8838 73.2114L29.8551 73.4834L29.8288 73.7553L29.8024 74.0297L29.7809 74.304L29.757 74.5784L29.7378 74.8527L29.7187 75.1295L29.702 75.4062L29.6852 75.683L29.6733 75.9597L29.6613 76.2365L29.6541 76.5132L29.6469 76.7924L29.6445 77.0715L29.6422 77.3507L29.6469 77.6298L29.6517 77.909L29.6613 78.1881L29.6709 78.4697L29.6876 78.7513L29.7044 79.0328L29.7283 79.3144L29.7522 79.596L29.7833 79.8775L29.8144 80.1615L29.8551 80.4455L29.8957 80.7294L29.946 81.0134L29.9938 81.2829C30.0824 81.7859 30.5584 82.1252 31.0609 82.0362C31.5752 81.952 31.9102 81.4731 31.8216 80.9677Z" fill="#673065"/>
<path d="M45.5566 63.8837L45.5661 64.0185L45.5805 64.1653L45.5996 64.3073L45.6235 64.4469L45.6523 64.584L45.6905 64.7332L45.7671 64.9739L45.8724 65.2218L45.9944 65.4504L46.1355 65.6622L46.2982 65.8595L46.4753 66.0328L46.6666 66.1844L46.8724 66.3143L47.0829 66.4178L47.2982 66.4996L47.5207 66.5622L47.7408 66.6031L47.961 66.6248L48.1834 66.6296L48.3988 66.6176L48.6117 66.5911L48.8246 66.5502L49.0304 66.4948L49.2313 66.4298L49.4323 66.3504L49.6261 66.2614L49.8127 66.1603L49.9969 66.0472L50.1716 65.9245L50.3414 65.7921L50.5041 65.6477L50.6572 65.4937L50.8008 65.3277L50.9347 65.1472L51.0544 64.9595L51.162 64.7597L51.2553 64.5455L51.3319 64.3241L51.3893 64.0931L51.4252 63.85L51.4371 63.6046L51.4252 63.3543L51.3869 63.0968L51.3223 62.8465L51.2338 62.5987L51.119 62.3532L50.9826 62.1173L50.8247 61.8911L50.6405 61.6697L50.4586 61.482C50.083 61.097 49.4658 61.0898 49.083 61.4676C48.7002 61.8454 48.693 62.4663 49.0686 62.8513L49.2002 62.9861L49.2864 63.0872L49.3533 63.1834L49.406 63.2725L49.4419 63.3495L49.4682 63.4217L49.4849 63.4891L49.4945 63.5468L49.4969 63.607L49.4945 63.6672L49.4873 63.7225L49.473 63.7851L49.4538 63.85L49.4275 63.9126L49.3916 63.9824L49.3486 64.0522L49.2983 64.122L49.2385 64.1942L49.1739 64.264L49.1021 64.3314L49.0232 64.3963L48.9395 64.4589L48.8533 64.5142L48.7624 64.5672L48.6691 64.6129L48.5758 64.6514L48.4801 64.6851L48.3868 64.7116L48.2983 64.7308L48.2098 64.7453L48.126 64.7525H48.0519L47.9801 64.7477L47.9131 64.7381L47.8581 64.7236L47.8054 64.7044L47.7576 64.6827L47.7169 64.6586L47.6763 64.6274L47.6356 64.5889L47.5973 64.5455L47.5566 64.4878L47.516 64.4156L47.4801 64.3289L47.4394 64.2014L47.4274 64.1557L47.4131 64.0907L47.4011 64.0185L47.3892 63.9391L47.3796 63.8573L47.3724 63.7538C47.3365 63.2436 46.8963 62.8586 46.3891 62.8947C45.9035 62.9283 45.5207 63.3736 45.5566 63.8837Z" fill="#673065"/>
<path d="M49.1069 62.6949L49.205 62.8152L49.3151 62.9428L49.4251 63.0631L49.5376 63.1786L49.6548 63.2893L49.784 63.4024L50.0136 63.5829L50.2649 63.7514L50.5185 63.8958L50.7768 64.0185L51.0424 64.1172L51.308 64.1918L51.5735 64.2447L51.8415 64.276L52.1046 64.2856L52.363 64.276L52.6214 64.2471L52.8702 64.199L53.1118 64.134L53.3487 64.0522L53.576 63.9559L53.7937 63.8452L54.0042 63.7201L54.2028 63.5829L54.3918 63.4337L54.5712 63.2701L54.7363 63.0968L54.8918 62.9139L55.0353 62.7166L55.1621 62.512L55.2746 62.2978L55.3727 62.0692L55.4516 61.8358L55.5114 61.5951L55.5497 61.3424L55.5665 61.0874L55.5593 60.8299L55.5258 60.5651L55.4684 60.3052L55.3846 60.0477L55.2722 59.7926L55.1358 59.5496L54.9755 59.3161L54.7889 59.0899L54.5808 58.8806L54.3511 58.6832L54.0975 58.4955L53.8391 58.3319L53.6836 58.2428L53.5329 58.1634L53.3774 58.0888L53.2171 58.0166L53.052 57.9468L52.8917 57.8843C52.3893 57.6917 51.8271 57.9444 51.6357 58.4498C51.4443 58.9552 51.6955 59.5207 52.1979 59.7132L52.3319 59.7638L52.4467 59.8119L52.5568 59.86L52.6597 59.9106L52.7554 59.9611L52.8319 60.0044L53.009 60.1151L53.1453 60.2138L53.2602 60.3124L53.3583 60.4087L53.4348 60.5002L53.497 60.5892L53.5473 60.6734L53.5831 60.7504L53.6095 60.8299L53.6286 60.9069L53.6382 60.9815L53.6406 61.0609L53.6382 61.1403L53.6286 61.2197L53.6095 61.3039L53.5831 61.3906L53.5497 61.4748L53.5042 61.5638L53.4516 61.6529L53.3918 61.7395L53.3224 61.8262L53.2458 61.9104L53.1645 61.9874L53.0736 62.062L52.9779 62.1318L52.8798 62.1944L52.7745 62.2497L52.6645 62.3002L52.5544 62.3412L52.4396 62.3748L52.3223 62.3989L52.2075 62.4158L52.0879 62.423L51.9683 62.4206L51.851 62.4085L51.729 62.3845L51.6046 62.3508L51.4802 62.3075L51.351 62.2497L51.2194 62.1775L51.0902 62.0909L50.9419 61.973L50.8869 61.9224L50.8199 61.8574L50.7505 61.7877L50.6811 61.7131L50.6118 61.6336L50.5328 61.5374C50.2122 61.1403 49.6309 61.0777 49.2361 61.4002C48.8461 61.7131 48.7863 62.2954 49.1069 62.6949Z" fill="#673065"/>
<path d="M52.7075 59.5159L52.9707 59.5255L53.2554 59.5159L53.5281 59.487L53.7937 59.4389L54.0521 59.3691L54.2961 59.2825L54.5282 59.1766L54.7507 59.0514L54.954 58.9118L55.143 58.7578L55.3177 58.5894L55.4732 58.4113L55.6119 58.2236L55.7363 58.0238L55.8416 57.8217L55.9325 57.6123L56.0091 57.3957L56.0689 57.1791L56.1143 56.9602L56.143 56.7363L56.1574 56.5149V56.2935L56.143 56.0697L56.1143 55.8507L56.0713 55.6317L56.0139 55.4128L55.9421 55.201L55.856 54.9916L55.7531 54.7846L55.6382 54.5873L55.5091 54.3972L55.3607 54.2119L55.198 54.041L55.021 53.8798L54.8272 53.7306L54.6215 53.5982L54.4014 53.4803L54.1645 53.3792L53.9205 53.2974L53.6669 53.2348L53.3989 53.1915L53.1286 53.1699H52.8511L52.564 53.1891L52.2745 53.23L51.9802 53.2926L51.6788 53.3768L51.3989 53.4731C50.8917 53.6488 50.6213 54.2071 50.796 54.7173C50.9706 55.2274 51.5257 55.4994 52.0329 55.3237L52.2577 55.2443L52.442 55.1914L52.6166 55.1553L52.7769 55.1312L52.9204 55.1192H53.0568L53.1812 55.1288L53.2913 55.1456L53.3941 55.1697L53.4898 55.201L53.5736 55.2347L53.6549 55.2756L53.7315 55.3213L53.7985 55.3718L53.8655 55.4296L53.9277 55.4922L53.9827 55.5571L54.0353 55.6317L54.0856 55.7112L54.1286 55.793L54.1669 55.882L54.2004 55.9735L54.2267 56.0673L54.2482 56.166L54.2626 56.2647L54.2722 56.3633L54.2746 56.4644L54.2698 56.5631L54.2602 56.6569L54.2435 56.7532L54.2219 56.8446L54.1956 56.9289L54.1621 57.0131L54.1238 57.0925L54.0808 57.1647L54.0305 57.2345L53.9755 57.2995L53.9181 57.3572L53.8511 57.4126L53.7769 57.4655L53.698 57.5112L53.6071 57.5546L53.5066 57.5931L53.3965 57.6219L53.2697 57.646L53.131 57.6605L52.9803 57.6653L52.7817 57.658C52.2745 57.6388 51.8462 58.0383 51.8271 58.5509C51.8032 59.0659 52.2003 59.4966 52.7075 59.5159Z" fill="#673065"/>
<path d="M52.5544 54.5223L52.6118 54.2697L52.6573 54.0025L52.686 53.745L52.7003 53.4923L52.6979 53.2445L52.6812 53.0062L52.6477 52.7728L52.5975 52.5442L52.5305 52.3276L52.4467 52.1182L52.3439 51.9161L52.2266 51.7308L52.0951 51.5575L51.9467 51.3963L51.7888 51.2543L51.6214 51.1291L51.4371 51.0184L51.2529 50.927L51.0639 50.8524L50.8677 50.7946L50.6716 50.7537L50.4754 50.7272L50.2744 50.7152L50.0759 50.7176L49.8797 50.7321L49.6811 50.7585L49.4873 50.7994L49.2959 50.85L49.1045 50.915L48.9179 50.9896L48.7337 51.0762L48.5519 51.1749L48.3748 51.2856L48.2026 51.4059L48.0351 51.5382L47.8748 51.6802L47.7217 51.8342L47.5734 52.0003L47.4346 52.176L47.3054 52.3613L47.1834 52.5586L47.0734 52.7656L46.9753 52.9798L46.8867 53.206L46.8126 53.4394L46.7504 53.6801L46.7001 53.9327L46.669 54.1638C46.5973 54.7004 46.9729 55.1914 47.5064 55.2636C48.0399 55.3357 48.528 54.9579 48.5997 54.4213L48.6213 54.248L48.6476 54.1108L48.6811 53.9785L48.7193 53.8533L48.7624 53.7378L48.8126 53.6271L48.8677 53.5212L48.9251 53.4226L48.9897 53.3287L49.0567 53.2397L49.1261 53.1578L49.2002 53.0808L49.2768 53.0086L49.3533 52.9437L49.4347 52.8835L49.5184 52.8281L49.5998 52.78L49.6835 52.7367L49.7672 52.7006L49.8486 52.6717L49.9299 52.6477L50.0113 52.6284L50.0854 52.6164L50.1596 52.6091L50.2314 52.6067L50.2936 52.6091L50.3558 52.6164L50.4108 52.626L50.4586 52.638L50.5041 52.6549L50.5448 52.6717L50.5783 52.691L50.6118 52.715L50.6429 52.7415L50.6692 52.768L50.6979 52.8041L50.7266 52.845L50.7529 52.8907L50.7768 52.9509L50.8008 53.0231L50.8199 53.1025L50.8342 53.2012L50.8438 53.3119L50.8462 53.4346L50.839 53.5766L50.8223 53.733L50.7936 53.9015L50.7481 54.1084C50.6357 54.6066 50.9467 55.1047 51.4443 55.2178C51.9467 55.3357 52.442 55.0205 52.5544 54.5223Z" fill="#673065"/>
<path d="M48.4634 54.1878L48.4251 53.9351L48.37 53.6704L48.3031 53.4201L48.2241 53.1795L48.1308 52.9485L48.0279 52.7319L47.9131 52.5273L47.7839 52.3324L47.6428 52.1543L47.492 51.9883L47.3293 51.8367L47.1595 51.7019L46.9824 51.5816L46.7958 51.4757L46.6044 51.389L46.4107 51.3192L46.2097 51.2639L46.0111 51.2278L45.8125 51.2061L45.6116 51.1989L45.413 51.2085L45.2168 51.2302L45.0207 51.2687L44.8317 51.3192L44.6474 51.3818L44.4656 51.4612L44.291 51.5503L44.1235 51.6513L43.9584 51.7669L43.8029 51.892L43.657 52.0292L43.5182 52.1808L43.3914 52.342L43.2742 52.5129L43.1665 52.6958L43.0732 52.8859L42.9919 53.0856L42.9249 53.2974L42.8746 53.514L42.8388 53.7354L42.8196 53.9664L42.8172 54.1975L42.8292 54.4333L42.8603 54.674L42.9081 54.9146L42.9727 55.1577L43.0541 55.4031L43.1426 55.6221C43.346 56.1227 43.913 56.3633 44.4106 56.1588C44.9082 55.9542 45.1475 55.3839 44.9465 54.8833L44.8795 54.7197L44.8364 54.5921L44.8029 54.4694L44.779 54.3539L44.7647 54.248L44.7575 54.1469V54.0531L44.7647 53.9688L44.7766 53.887L44.7934 53.81L44.8149 53.7402L44.8412 53.6728L44.8699 53.6079L44.9034 53.5501L44.9417 53.4923L44.9824 53.437L45.0254 53.3889L45.0733 53.3407L45.1235 53.2974L45.1738 53.2589L45.2288 53.2228L45.2862 53.1915L45.3412 53.1651L45.4011 53.141L45.4609 53.1217L45.5183 53.1073L45.5781 53.0977L45.6379 53.0929H45.6929L45.7503 53.0977L45.8078 53.1049L45.8604 53.1169L45.9154 53.1362L45.9704 53.1578L46.0207 53.1843L46.0757 53.218L46.1307 53.2589L46.1834 53.3046L46.2384 53.3624L46.2934 53.4298L46.3461 53.5044L46.3987 53.5958L46.4489 53.6993L46.4968 53.8148L46.5398 53.9472L46.5805 54.094L46.614 54.2552L46.6427 54.4574C46.7169 54.9627 47.1858 55.3141 47.6906 55.2371C48.193 55.1673 48.5399 54.6956 48.4634 54.1878Z" fill="#673065"/>
<path d="M43.5852 54.4886L43.2814 54.5993L42.9871 54.7076L42.6928 54.8087L42.3986 54.9098L42.1019 55.0036L41.8052 55.0975L41.5086 55.1841L41.2119 55.2708L40.9153 55.3502L40.6162 55.4296L40.3172 55.5018L40.0157 55.5764L39.7143 55.6438L39.4152 55.7112L39.1138 55.7713L38.8123 55.8315L38.5109 55.8844L38.207 55.9374L37.9032 55.9855L37.5994 56.0336L37.2955 56.0745L36.9917 56.1155L36.6878 56.1516L36.384 56.1877L36.0778 56.2165L35.7739 56.2454L35.4677 56.2695L35.1615 56.2935L34.8552 56.3104L34.549 56.3272L34.2428 56.3393L33.9366 56.3513L33.6303 56.3585L33.3241 56.3657H33.0179H32.7092L32.4006 56.3609L32.0944 56.3561L31.7882 56.3465L31.4795 56.3369L31.1709 56.3224L30.8623 56.308L30.5537 56.2887L30.245 56.2695L29.9364 56.2454L29.6278 56.2213L29.3192 56.1925L29.0106 56.1636L28.7019 56.1299L28.3957 56.0986L28.0895 56.0601L27.7808 56.024L27.4746 55.9831L27.166 55.9422L26.8574 55.8965L26.5511 55.8507L26.2449 55.8002L25.9387 55.7497L25.6324 55.6967L25.3262 55.6438L25.02 55.586L24.7138 55.5283L24.4099 55.4681L24.1037 55.4079L23.7998 55.343L23.496 55.278L23.1922 55.2106L22.8883 55.1432L22.5845 55.071L22.2807 54.9988L21.9792 54.9242L21.6778 54.8496L21.3763 54.7726L21.0749 54.6956L20.783 54.6282L20.4816 54.5488L20.1825 54.467L19.8834 54.3852L19.5844 54.2985L19.2853 54.2119L18.9887 54.1229L18.692 54.0338L18.3954 53.9424L18.0987 53.8509L17.8044 53.7571L17.5102 53.6656L17.2159 53.5694L16.9216 53.4731L16.6297 53.3744L16.3379 53.2758L16.0484 53.1771L15.7565 53.0784L15.467 52.9773L15.1775 52.8763L14.8905 52.7728L14.601 52.6693C14.0938 52.4888 13.5387 52.7535 13.3569 53.2637C13.1751 53.7739 13.4406 54.3322 13.9454 54.5151L14.2373 54.6186L14.5316 54.7245L14.8283 54.828L15.1249 54.9314L15.4216 55.0325L15.7182 55.1336L16.0173 55.2323L16.3163 55.3309L16.6178 55.4296L16.9192 55.5283L17.2231 55.6245L17.5245 55.7208L17.8284 55.8146L18.1322 55.9085L18.4384 55.9999L18.7447 56.0914L19.0533 56.178L19.3595 56.2647L19.6681 56.3489L19.9768 56.4331L20.2878 56.5149L20.5988 56.5968L20.9098 56.6762L21.2208 56.7556L21.5318 56.8302L21.8452 56.9048L22.1586 56.977L22.4721 57.0492L22.7879 57.1166L23.1013 57.1864L23.4171 57.2513L23.7329 57.3163L24.0487 57.3789L24.3645 57.4415L24.6827 57.4992L24.9985 57.557L25.3166 57.6099L25.6348 57.6629L25.953 57.7134L26.2712 57.7639L26.5918 57.8097L26.91 57.8554L27.2306 57.8963L27.5512 57.9372L27.8718 57.9733L28.1923 58.0094L28.5129 58.0407L28.8335 58.072L29.1541 58.1008L29.4771 58.1273L29.8 58.149L30.123 58.1706L30.446 58.1875L30.769 58.2043L31.092 58.2164L31.4149 58.2284L31.7379 58.2356L32.0609 58.2428L32.3839 58.2452L32.7068 58.2476L33.0298 58.2452L33.3528 58.2428L33.6758 58.2332L33.9988 58.2236L34.3217 58.2091L34.6447 58.1947L34.9677 58.1754L35.2907 58.1562L35.6136 58.1297L35.9366 58.1033L36.2596 58.072L36.5802 58.0407L36.9008 58.0022L37.2237 57.9637L37.5443 57.9179L37.8673 57.8722L38.1879 57.8217L38.5085 57.7712L38.8291 57.7134L39.1496 57.6556L39.4702 57.5907L39.7908 57.5257L40.1114 57.4535L40.4296 57.3813L40.7478 57.3043L41.066 57.2249L41.3842 57.1382L41.7024 57.0516L42.0182 56.9577L42.334 56.8639L42.6498 56.7628L42.9656 56.6617L43.2814 56.5534L43.5972 56.4452L43.9106 56.3296L44.2144 56.2165C44.6929 56.0409 44.9369 55.5066 44.7623 55.0277C44.5924 54.5584 44.0637 54.313 43.5852 54.4886Z" fill="#673065"/>
<path d="M10.5243 75.1054L10.8544 75.1006L11.1774 75.0982L11.5004 75.103L11.8258 75.1078L12.1511 75.1174L12.4813 75.1271L12.8114 75.1391L13.144 75.1487L13.4765 75.1559L13.8115 75.1607L14.1464 75.1631L14.4766 75.1656C15.0149 75.1656 15.4479 74.7252 15.4479 74.1861C15.4479 73.6446 15.0101 73.2066 14.4742 73.209L14.144 73.2115L13.8186 73.2139H13.4933L13.1631 73.2163L12.8354 73.2187L12.5028 73.2235L12.1727 73.2283L11.8377 73.2331L11.5028 73.2379L11.1654 73.2403L10.8281 73.2476L10.498 73.2524C9.98837 73.2596 9.58166 73.6807 9.58884 74.1909C9.59602 74.7011 10.0147 75.1126 10.5243 75.1054Z" fill="#673065"/>
<path d="M17.5771 74.8046L17.881 74.7998L18.18 74.7974H18.4791L18.7805 74.7998L19.082 74.807L19.3834 74.8118L19.6873 74.819L19.9911 74.8238L20.2949 74.8262L20.6036 74.8238L20.9122 74.819L21.216 74.8142C21.7543 74.8022 22.1802 74.3546 22.1682 73.8131C22.1562 73.2716 21.7113 72.8432 21.173 72.8553L20.8691 72.8625L20.5725 72.8697L20.2758 72.8745L19.9767 72.8842L19.6777 72.8914L19.3762 72.901L19.0748 72.9106L18.771 72.9203L18.4671 72.9275L18.1609 72.9323L17.8547 72.9395L17.5532 72.9467C17.0436 72.9564 16.6393 73.3775 16.6465 73.8877C16.6489 74.4051 17.0676 74.8142 17.5771 74.8046Z" fill="#673065"/>
<path d="M26.6444 74.6313L26.9004 74.6048L27.1373 74.5904L27.3741 74.5856L27.611 74.588L27.8478 74.5976L28.0847 74.6145L28.3311 74.6361L28.5775 74.6578L28.8287 74.6842L29.0871 74.7083L29.3527 74.7348L29.623 74.7613C30.1589 74.8094 30.6302 74.4123 30.6781 73.8732C30.7259 73.3342 30.3312 72.8601 29.7953 72.812L29.5249 72.7903L29.2522 72.7687L28.9866 72.7494L28.7115 72.7326L28.4412 72.7229L28.1708 72.7133L27.8909 72.7109L27.6086 72.7157L27.3239 72.7253L27.0344 72.7398L26.7401 72.7638L26.4554 72.7951C25.9482 72.8481 25.5822 73.3029 25.6324 73.8131C25.6851 74.3136 26.1373 74.6842 26.6444 74.6313Z" fill="#673065"/>
<path d="M50.6979 36.5865L50.5376 36.6466L50.3582 36.7285L50.1907 36.8199L50.0304 36.9258L49.8773 37.0485L49.7385 37.1857L49.6141 37.3397L49.5065 37.5154L49.4251 37.6983L49.3677 37.8884L49.3342 38.0833L49.3246 38.271L49.3342 38.4491L49.3605 38.6224L49.4012 38.7812L49.4514 38.9328L49.5112 39.0772L49.5782 39.212L49.65 39.342L49.729 39.4695L49.8103 39.5898L49.894 39.7053L49.9825 39.8184L50.0806 39.9364L50.2625 40.1409L50.461 40.3431L50.662 40.5356L50.863 40.7185L51.0639 40.8918L51.2577 41.053L51.4443 41.2022L51.619 41.337L51.7745 41.4549L51.8486 41.5102L51.9156 41.5584L51.9754 41.6017L52.0281 41.6402L52.0735 41.6739L52.119 41.7076L52.1884 41.7581L52.2697 41.8135L52.3511 41.8664L52.4372 41.9169L52.5281 41.9675L52.6214 42.018L52.7171 42.0686L52.8176 42.1191L52.9228 42.1696L53.0329 42.2226L53.1477 42.2755L53.2697 42.3309L53.5138 42.4367L53.7793 42.5475L54.0592 42.6606L54.3535 42.7737L54.6621 42.8892L54.9827 43.0047L55.3153 43.1202L55.6598 43.2357L56.0139 43.3512L56.3751 43.4667L56.7459 43.5823L57.1215 43.6954L57.5043 43.8061L57.8919 43.9144L58.2819 44.0202L58.6766 44.1213L59.0714 44.22L59.4709 44.3138L59.8633 44.4005L60.2604 44.4871L60.6504 44.5617L61.0427 44.6363L61.4255 44.6965L61.8035 44.7566L62.1815 44.8072L62.55 44.8481L62.9088 44.8794L63.2605 44.9034L63.605 44.9155L63.9376 44.9179L64.2629 44.9083L64.5787 44.8866L64.885 44.8481L65.1816 44.7951L65.4735 44.723L65.7319 44.6363L65.8874 44.5713L66.0238 44.5064L66.1553 44.4318L66.2845 44.3499L66.4113 44.2561L66.531 44.1526L66.6434 44.0371L66.7511 43.9071L66.8468 43.77L66.9305 43.6232L67.0023 43.4643L67.0573 43.3055L67.098 43.1443L67.1243 42.9806L67.1362 42.8218L67.1338 42.6654L67.1195 42.5114L67.0956 42.3646L67.0621 42.2226L67.0214 42.083L66.9736 41.953L66.9209 41.8255L66.8611 41.7028L66.7893 41.5704L66.6625 41.361L66.5118 41.1444L66.3515 40.9423L66.1817 40.7474L66.0046 40.5597L65.8228 40.3816L65.6362 40.2107L65.4472 40.0471L65.2582 39.8906L65.0716 39.7414L64.8874 39.6019L64.7079 39.4695L64.5357 39.3468L64.3706 39.2337L64.2151 39.1302L64.0715 39.0363L63.94 38.9545L63.8203 38.8823L63.6337 38.7764L63.4352 38.6681L63.2294 38.5598L63.0165 38.4515L62.794 38.3456L62.5667 38.2398L62.3322 38.1363L62.0906 38.0328L61.8418 37.9293L61.5882 37.8282L61.3298 37.7272L61.0619 37.6285L60.7939 37.5322L60.5212 37.436L60.2413 37.3445L59.9614 37.2531L59.6719 37.1665L59.3848 37.0798L59.0929 36.998L58.7986 36.9162L58.4996 36.8392L58.2005 36.7622L57.8991 36.6924L57.5976 36.6226L57.2938 36.56L56.99 36.4974L56.6861 36.4421L56.3799 36.3867L56.0761 36.341L55.7722 36.2953L55.4708 36.2568L55.1669 36.2183L54.8679 36.1918L54.5664 36.1653L54.2722 36.1485L53.9827 36.1316L53.686 36.1244L53.3965 36.122L53.1118 36.1268L52.8295 36.1389L52.5496 36.1581L52.2745 36.1846L52.0041 36.2183L51.7362 36.2592L51.4754 36.3097L51.2194 36.3675L50.9658 36.4373L50.7409 36.5095C50.229 36.6755 49.9467 37.2266 50.1117 37.7416C50.2768 38.2566 50.8247 38.5406 51.3367 38.3745L51.5209 38.3144L51.6931 38.2662L51.8797 38.2229L52.0735 38.1844L52.2769 38.1531L52.4898 38.1267L52.7099 38.105L52.9372 38.0906L53.1717 38.0809L53.4133 38.0761H53.6597L53.9085 38.0833L54.1717 38.0978L54.4301 38.1122L54.6956 38.1363L54.9636 38.1603L55.2363 38.194L55.5114 38.2277L55.789 38.2686L56.0665 38.3096L56.3464 38.3601L56.6263 38.4106L56.9062 38.4684L57.1885 38.5261L57.4684 38.5911L57.7484 38.6561L58.0259 38.7259L58.3034 38.7981L58.5761 38.8751L58.8513 38.9521L59.1192 39.0339L59.3872 39.1157L59.6479 39.2L59.9087 39.2842L60.1599 39.3732L60.4135 39.4623L60.6552 39.5513L60.892 39.6428L61.1241 39.7342L61.3514 39.8281L61.5691 39.9219L61.7796 40.0158L61.983 40.1096L62.1767 40.2011L62.3634 40.2925L62.5404 40.384L62.7055 40.473L62.8634 40.5621L62.9519 40.615L63.0595 40.68L63.1816 40.757L63.3131 40.8436L63.4543 40.9399L63.6026 41.0458L63.7557 41.1565L63.9113 41.2744L64.0691 41.3971L64.2247 41.5247L64.3754 41.6546L64.5213 41.787L64.6601 41.9193L64.7869 42.0517L64.9017 42.1817L65.0022 42.3068L65.0859 42.4223L65.1601 42.545L65.1768 42.5787L65.1984 42.6221L65.2151 42.6606L65.2271 42.6942L65.2343 42.7207L65.239 42.7424L65.2414 42.7592V42.7664V42.7713L65.2438 42.764L65.2462 42.7592L65.2486 42.752L65.251 42.7496L65.2438 42.7568L65.2319 42.7664L65.2175 42.7785L65.1912 42.7953L65.1577 42.8146L65.117 42.8338L65.0859 42.8483L64.9424 42.8988L64.7893 42.9373L64.6051 42.971L64.3969 42.9975L64.1672 43.0143L63.9136 43.0239H63.6433L63.3562 43.0143L63.0524 42.9951L62.7366 42.9686L62.4088 42.9325L62.0739 42.8892L61.7174 42.8338L61.3657 42.7809L61.0021 42.7135L60.636 42.6461L60.2628 42.5667L59.8848 42.4873L59.5116 42.4007L59.136 42.3092L58.7604 42.2129L58.3871 42.1143L58.0163 42.0132L57.6503 41.9073L57.289 41.8014L56.9349 41.6931L56.588 41.5848L56.2507 41.4741L55.9253 41.3634L55.6095 41.2527L55.3057 41.1444L55.0162 41.0362L54.7435 40.9303L54.4851 40.8268L54.2459 40.7281L54.0234 40.6319L53.9253 40.5885L53.8296 40.5428L53.7387 40.4995L53.6525 40.4586L53.5736 40.4201L53.5018 40.3816L53.4372 40.3455L53.3798 40.3142L53.3296 40.2853L53.2889 40.2588L53.2602 40.2396L53.2315 40.2179L53.1956 40.1915L53.1453 40.153L53.0903 40.112L53.0329 40.0687L52.9707 40.023L52.9061 39.9749L52.7602 39.8642L52.6046 39.7438L52.4396 39.6115L52.2721 39.4719L52.1046 39.3275L51.9396 39.1783L51.7817 39.0267L51.6357 38.8751L51.497 38.7187L51.4443 38.6561L51.3917 38.5887L51.3438 38.5237L51.3008 38.4612L51.2673 38.4058L51.2386 38.3553L51.217 38.312L51.2027 38.2807L51.1955 38.2566L51.1907 38.2446V38.2494V38.2614L51.1883 38.2831L51.1812 38.3192L51.1716 38.3529L51.1572 38.3842L51.1381 38.413L51.1261 38.4275L51.1237 38.4299L51.1309 38.4251L51.1572 38.4082L51.2003 38.3842L51.2601 38.3577L51.3654 38.3168C51.8415 38.1363 52.0831 37.602 51.9037 37.1231C51.7051 36.649 51.174 36.406 50.6979 36.5865Z" fill="#673065"/>
<path d="M49.461 38.5165L49.394 38.8197L49.3318 39.1398L49.2744 39.4599L49.2218 39.7823L49.1715 40.1048L49.1237 40.4249L49.0734 40.745L49.0256 41.0578L48.9706 41.3707L48.9179 41.6739L48.8509 41.9723L48.7839 42.2707L48.7098 42.5474L48.626 42.817L48.5327 43.0769L48.4323 43.3248L48.3222 43.5558L48.2002 43.7748L48.0662 43.9817L47.9227 44.1719L47.7504 44.3644L47.6786 44.4366L47.5901 44.516L47.4968 44.593L47.3987 44.6676L47.2959 44.7398L47.1834 44.8096L47.071 44.8746L46.9561 44.9371L46.8389 44.9973L46.7193 45.0526L46.5973 45.1056L46.4824 45.1513L46.2193 45.2452L45.9609 45.3246L45.6929 45.3944L45.4178 45.4593L45.1355 45.5171L44.846 45.5725L44.5494 45.6254L44.2455 45.6783L43.9321 45.7337L43.6235 45.7939L43.3005 45.8588L42.9823 45.9382L42.6498 46.0225L42.3244 46.1332L42.0038 46.2439L41.6641 46.3883L41.3315 46.5543L41.0205 46.7348L40.8459 46.8479L40.6856 46.961L40.5277 47.0813L40.3722 47.2089L40.2167 47.3437L40.0683 47.4832L39.8817 47.6709L39.7023 47.8563L39.53 48.0416L39.3626 48.2269L39.2023 48.4146L39.0468 48.5999L38.8984 48.7852L38.7549 48.9729L38.6185 49.1606L38.4869 49.3483L38.3601 49.536L38.2333 49.7309L38.0085 50.0991L37.7955 50.477L37.6017 50.8548L37.4247 51.235L37.262 51.6177L37.1113 52.0003L36.9725 52.3853L36.8434 52.7728L36.7213 53.1627L36.6065 53.5549L36.4964 53.952L36.3888 54.3515L36.2835 54.7558L36.1783 55.1649L36.0706 55.5812L35.9605 56.0024L35.8481 56.4307L35.7261 56.8711C35.5825 57.3933 35.8888 57.9324 36.4055 58.0744C36.9247 58.2188 37.4582 57.9107 37.6017 57.3909L37.7238 56.9409L37.841 56.5005L37.951 56.0721L38.0563 55.6558L38.1592 55.2491L38.2621 54.8544L38.3649 54.4694L38.4678 54.0964L38.5731 53.733L38.6831 53.3768L38.798 53.0303L38.92 52.691L39.0492 52.3589L39.1879 52.034L39.3363 51.7115L39.4965 51.3939L39.6688 51.081L39.8626 50.7585L39.9583 50.6093L40.0636 50.4529L40.1736 50.2965L40.2884 50.14L40.4081 49.9836L40.5325 49.8248L40.6617 49.666L40.798 49.5071L40.9392 49.3483L41.0875 49.1871L41.2406 49.0258L41.4009 48.8646L41.5014 48.7659L41.5995 48.6769L41.7024 48.5926L41.8052 48.5132L41.9081 48.4386L42.0014 48.3761L42.2311 48.2389L42.4536 48.1258L42.6761 48.0295L42.9321 47.9405L43.1833 47.8514L43.4393 47.7865L43.7096 47.7167L43.9871 47.6613L44.279 47.6012L44.5709 47.5458L44.8723 47.4905L45.181 47.4327L45.4968 47.3701L45.8173 47.3003L46.1427 47.2233L46.4729 47.1343L46.8078 47.0284L47.1308 46.9105L47.3078 46.8383L47.4777 46.7637L47.6451 46.6843L47.8126 46.6L47.9801 46.5086L48.1476 46.4099L48.3198 46.2992L48.4897 46.1789L48.65 46.0538L48.8031 45.9238L48.9514 45.789L49.1021 45.6374L49.3462 45.3607L49.5782 45.0526L49.7816 44.7374L49.961 44.4125L50.1189 44.078L50.2553 43.7411L50.3749 43.4018L50.4802 43.0576L50.5711 42.7087L50.6453 42.3718L50.7194 42.0325L50.7792 41.6883L50.8366 41.3538L50.8869 41.0217L50.9371 40.6968L50.985 40.3768L51.0328 40.0663L51.0807 39.7655L51.1309 39.4743L51.1859 39.1976L51.2481 38.9184C51.3606 38.4178 51.0472 37.9221 50.5496 37.8114C50.0639 37.7031 49.5711 38.016 49.461 38.5165Z" fill="#673065"/>
<path d="M64.9041 43.474L64.7749 43.6954L64.6481 43.9192L64.5285 44.1382L64.416 44.3523L64.3108 44.5641L64.2127 44.7711L64.1194 44.9756L64.0333 45.1778L63.9543 45.3775L63.8825 45.5749L63.8155 45.7698L63.7557 45.9599L63.7031 46.15L63.6553 46.3377L63.6146 46.523L63.5787 46.7059L63.55 46.8864L63.5285 47.0645L63.5117 47.2402L63.5021 47.4159L63.4974 47.5867L63.4998 47.7552L63.5069 47.9236L63.5237 48.1041L63.5667 48.4073L63.6361 48.7202L63.7246 49.0162L63.8299 49.3002L63.9543 49.5745L64.0931 49.8344L64.2438 50.0823L64.4089 50.3205L64.5811 50.5468L64.7606 50.7633L64.9496 50.9703L65.141 51.17L65.3371 51.3626L65.5381 51.5503L65.7391 51.7332L65.9424 51.9137L66.1458 52.0917L66.3467 52.2674L66.5477 52.4431L66.7439 52.614L66.9401 52.7896L67.1291 52.9605L67.3133 53.1386L67.4975 53.3167L67.6674 53.4923L67.8324 53.6752L67.9903 53.8605L68.1411 54.0507L68.2798 54.2432L68.4114 54.4429L68.5334 54.6475L68.6435 54.8568L68.7439 55.0758L68.8349 55.3021L68.9114 55.5355L68.9808 55.793L69.0167 55.959L69.0502 56.1371L69.0789 56.32L69.1028 56.5053L69.1196 56.6906L69.1339 56.8807L69.1435 57.0733L69.1483 57.2682V57.4655L69.1435 57.6653L69.1339 57.8674L69.122 58.0648L69.0837 58.4883L69.031 58.9094L68.964 59.3402L68.8875 59.7758L68.8014 60.2138L68.7057 60.6566L68.6028 61.1018L68.4951 61.5494L68.3851 61.9994L68.2726 62.4494L68.1602 62.8995L68.0501 63.3495L67.9425 63.7971L67.8396 64.2447L67.7439 64.6875L67.6578 65.1279L67.5812 65.5659L67.519 65.9895L67.4975 66.1459L67.476 66.2999L67.4544 66.4611L67.4305 66.6272L67.4066 66.8005L67.3803 66.9785L67.3539 67.1638L67.3252 67.354L67.2965 67.5489L67.2678 67.7486L67.2367 67.9556L67.2032 68.1674L67.1362 68.6053L67.0645 69.0626L67.0262 69.2984L66.9879 69.5343L66.9472 69.7773L66.9066 70.0204L66.8635 70.2731L66.8204 70.5234L66.775 70.7809L66.7295 71.0384L66.6817 71.3031L66.6338 71.5678L66.5836 71.8373L66.5333 72.1069L66.4807 72.3812L66.4281 72.6555L66.3754 72.9347L66.3228 73.2139L66.2678 73.4954L66.2128 73.777L66.1553 74.0634L66.0979 74.3497L66.0381 74.6385L65.9783 74.9273L65.9161 75.2161L65.8539 75.5049L65.7893 75.7961L65.7247 76.0873L65.6577 76.3784L65.5907 76.6696L65.5213 76.9608L65.452 77.252L65.3802 77.5432L65.3108 77.832L65.2366 78.1184L65.1625 78.4096L65.0883 78.7007L65.0165 78.9847L64.94 79.2639L64.861 79.5503L64.7821 79.8366L64.7055 80.1134L64.6266 80.3829L64.5428 80.6621L64.4591 80.9412L64.3778 81.2132L64.294 81.4779L64.2103 81.745L64.1242 82.0073L64.038 82.2696L63.9495 82.5247L63.861 82.7798L63.7725 83.0277L63.684 83.2756L63.5931 83.5162L63.5021 83.7545L63.4088 83.9855L63.3155 84.2165L63.2222 84.4403L63.1289 84.6617L63.0332 84.8735L62.9399 85.0805L62.7461 85.4872L62.5523 85.8674L62.3562 86.2211L62.1552 86.5581L62.0619 86.7049L61.9638 86.8517L61.8657 86.9912L61.7676 87.126L61.6719 87.2511L61.5762 87.3691L61.4805 87.4798L61.3872 87.5808L61.2939 87.6747L61.203 87.7613L61.1145 87.8359L61.026 87.9057L60.8968 88.002L60.7652 88.0934L60.6336 88.1801L60.4996 88.2619L60.3681 88.3389L60.2437 88.4063L59.9637 88.5483L59.6934 88.6662L59.4159 88.7721L59.136 88.8635L58.8537 88.9429L58.5642 89.0103L58.2699 89.0681L57.9709 89.1162L57.6646 89.1547L57.356 89.1884L57.0426 89.2149L56.722 89.2341L56.399 89.2486L56.0713 89.2606L55.7387 89.2678L55.4014 89.275L55.0593 89.2823L54.7172 89.2895L54.3655 89.2967L54.0138 89.3111L53.6717 89.3256C53.1358 89.3472 52.7171 89.8045 52.741 90.3459C52.7625 90.885 53.2171 91.3061 53.7554 91.2821L54.0975 91.2676L54.4301 91.2532L54.7626 91.246L55.1023 91.2388L55.4397 91.2315L55.7818 91.2243L56.1287 91.2147L56.478 91.2027L56.8273 91.1858L57.179 91.1642L57.5354 91.1353L57.8919 91.0968L58.2508 91.0486L58.612 90.9909L58.9733 90.9187L59.3345 90.8321L59.6982 90.7286L60.0618 90.6083L60.4231 90.4711L60.7867 90.3123L61.1336 90.139L61.3226 90.0355L61.4997 89.932L61.6767 89.8213L61.8514 89.7058L62.026 89.5831L62.2007 89.4531L62.3514 89.3352L62.4997 89.2052L62.6433 89.0705L62.7844 88.9285L62.9232 88.7793L63.0572 88.6253L63.1887 88.4664L63.3179 88.3004L63.4447 88.1295L63.5691 87.9539L63.6911 87.771L63.8155 87.576L64.0428 87.1934L64.2701 86.7819L64.4902 86.3511L64.7031 85.9083L64.8084 85.6701L64.9113 85.4366L65.0118 85.1936L65.1122 84.9529L65.2103 84.705L65.3084 84.4572L65.4041 84.1997L65.4998 83.9446L65.5931 83.6823L65.6864 83.42L65.7773 83.1528L65.8683 82.8857L65.9568 82.6114L66.0453 82.337L66.1314 82.0579L66.2175 81.7763L66.3013 81.4899L66.3826 81.2108L66.464 80.9316L66.5501 80.6428L66.6314 80.3468L66.708 80.0604L66.7869 79.7741L66.8659 79.4781L66.9424 79.1772L67.0166 78.886L67.0908 78.5949L67.1649 78.2989L67.2367 78.0004L67.3085 77.702L67.3779 77.4036L67.4473 77.1052L67.5142 76.8068L67.5812 76.5084L67.6458 76.2124L67.7104 75.9164L67.7726 75.6204L67.8348 75.3244L67.8946 75.0308L67.9544 74.7372L68.0119 74.446L68.0693 74.1548L68.1243 73.8684L68.1793 73.5821L68.232 73.2981L68.2846 73.0141L68.3372 72.735L68.3875 72.4558L68.4377 72.1815L68.488 71.9071L68.5358 71.64L68.5837 71.3729L68.6291 71.1105L68.6746 70.8482L68.7176 70.5931L68.7607 70.3381L68.8014 70.0902L68.842 69.8423L68.8803 69.6017L68.9186 69.361L68.9904 68.8989L69.0574 68.4561L69.0885 68.2396L69.1196 68.0302L69.1483 67.8256L69.177 67.6259L69.2033 67.431L69.2296 67.2433L69.2535 67.0604L69.2775 66.8847L69.3014 66.7138L69.3229 66.5502L69.3444 66.3913L69.3636 66.2494L69.4186 65.8595L69.4856 65.4672L69.5645 65.0629L69.6531 64.6466L69.7488 64.2231L69.8516 63.7899L69.9593 63.3495L70.0693 62.9019L70.1818 62.447L70.2918 61.9874L70.4019 61.5229L70.5072 61.0561L70.6052 60.5868L70.6962 60.1127L70.7775 59.6386L70.8493 59.1621L70.9067 58.6832L70.9474 58.214L70.9617 57.9661L70.9713 57.7254L70.9761 57.4872V57.2489L70.9713 57.0083L70.9593 56.77L70.9426 56.5318L70.9187 56.2935L70.8876 56.0577L70.8517 55.8219L70.8062 55.586L70.7512 55.343L70.6603 55.0012L70.5478 54.6619L70.4186 54.3394L70.2775 54.0314L70.1196 53.7354L69.9521 53.4538L69.7751 53.1843L69.5885 52.9268L69.3947 52.6813L69.1961 52.4479L68.9904 52.2241L68.7798 52.0051L68.5717 51.8054L68.3635 51.6032L68.1506 51.4107L67.9425 51.223L67.7343 51.0401L67.531 50.862L67.33 50.6887L67.1362 50.5179L66.9472 50.3494L66.7654 50.1834L66.5932 50.0197L66.4281 49.8585L66.2726 49.6972L66.129 49.5384L65.995 49.3796L65.873 49.2208L65.7654 49.0643L65.6673 48.9055L65.5812 48.7467L65.5094 48.5878L65.4472 48.4218L65.3969 48.2533L65.3587 48.0801L65.3323 47.8779L65.3252 47.7985L65.3204 47.6998V47.5963L65.3228 47.4905L65.33 47.3822L65.3395 47.2691L65.3539 47.1511L65.373 47.0308L65.3969 46.9033L65.4257 46.7733L65.4591 46.6385L65.4998 46.499L65.5453 46.3546L65.5955 46.2054L65.6529 46.0489L65.7151 45.8901L65.7845 45.7265L65.8611 45.5556L65.9424 45.3799L66.0309 45.2018L66.129 45.0165L66.2319 44.8264L66.3419 44.6315L66.464 44.4245C66.7223 43.9841 66.5788 43.4162 66.141 43.1539C65.7271 42.8868 65.1625 43.0336 64.9041 43.474Z" fill="#673065"/>
<path d="M48.3796 45.2018L48.6308 45.4377L48.9012 45.6759L49.1763 45.9046L49.4586 46.1236L49.7481 46.3353L50.0424 46.5375L50.3414 46.7324L50.6452 46.9177L50.9539 47.0958L51.2673 47.2642L51.5855 47.4255L51.9061 47.5795L52.2314 47.7263L52.5616 47.8659L52.8941 47.9982L53.2291 48.1234L53.5688 48.2413L53.9085 48.352L54.2506 48.4579L54.5975 48.5566L54.9444 48.648L55.2937 48.7346L55.6454 48.814L55.9971 48.8887L56.3512 48.956L56.7053 49.0186L57.0593 49.0764L57.4134 49.1269L57.7699 49.1726L58.1287 49.2135L58.4804 49.2472L58.8369 49.2809L59.191 49.305L59.5451 49.3266L59.8968 49.3411L60.2484 49.3531L60.5977 49.3579L60.947 49.3627L61.2939 49.3579L61.6408 49.3531L61.9829 49.3411L62.3227 49.329L62.6576 49.3098L62.9949 49.2905L63.3251 49.2641L63.6553 49.2376L63.9782 49.2039L64.2892 49.1726C64.8228 49.1173 65.2127 48.636 65.1577 48.0969C65.1027 47.5578 64.6242 47.168 64.0883 47.2233L63.7773 47.257L63.4758 47.2883L63.1672 47.3148L62.8586 47.3413L62.5452 47.3605L62.2294 47.3798L61.9088 47.3918L61.5906 47.4038L61.2676 47.4086L60.9446 47.4135L60.624 47.4086L60.2963 47.4062L59.9661 47.3966L59.6384 47.387L59.3082 47.3677L58.9805 47.3485L58.6503 47.3196L58.3177 47.2907L57.9924 47.257L57.6646 47.2185L57.3369 47.1752L57.0091 47.1271L56.6837 47.0741L56.3607 47.0164L56.0378 46.9514L55.7172 46.8816L55.399 46.807L55.0832 46.7276L54.7698 46.641L54.4588 46.5495L54.1525 46.4532L53.8487 46.3522L53.5496 46.2439L53.253 46.1284L52.9635 46.008L52.6764 45.8805L52.3941 45.7481L52.1166 45.6086L51.8438 45.4618L51.5759 45.3101L51.3151 45.1513L51.0591 44.9853L50.8079 44.8144L50.5639 44.6363L50.3247 44.451L50.0926 44.2585L49.8677 44.0612L49.638 43.8446C49.2672 43.4956 48.6835 43.5149 48.3366 43.8903C47.9873 44.2657 48.0064 44.8529 48.3796 45.2018Z" fill="#673065"/>
<path d="M54.7722 36.4565L54.7889 36.2736L54.8105 36.1004L54.8368 35.9199L54.8679 35.7346L54.9038 35.5444L54.9445 35.3543L55.0378 34.9428L55.143 34.5145L55.2579 34.0644L55.3775 33.5952L55.4373 33.3497L55.4971 33.1018L55.5545 32.8443L55.6143 32.5844L55.6694 32.3173L55.7244 32.0454L55.7746 31.7638L55.8249 31.4798L55.8655 31.1838L55.9062 30.8926L55.9421 30.5846L55.9708 30.2717L55.9947 29.9541L56.0115 29.6292L56.021 29.2971L56.0234 28.9578L56.0163 28.6112L56.0019 28.2575L55.978 27.8989L55.9445 27.5331L55.9014 27.1577L55.8464 26.7775L55.7818 26.39L55.7052 25.9929L55.6167 25.5886L55.5162 25.1771L55.4038 24.7584L55.277 24.3324L55.1382 23.8992L54.9851 23.4564L54.8176 23.0064L54.6382 22.5516L54.5377 22.3158L54.4396 22.0823L54.332 21.8441L54.2267 21.6082L54.1167 21.3724L54.009 21.139L53.899 20.9079L53.7889 20.6769L53.6789 20.4507L53.5712 20.2148L53.4588 19.991L53.3463 19.7672L53.2339 19.5458L53.1214 19.3244L53.0066 19.1054L52.8917 18.8864L52.6621 18.4557L52.4276 18.0297L52.1908 17.611L51.9515 17.1971L51.7099 16.788L51.4659 16.3861L51.2194 15.989L50.9706 15.5991L50.7194 15.2141L50.4634 14.8363L50.2051 14.4632L49.9443 14.0975L49.6811 13.7365L49.4156 13.3827L49.1452 13.0338L48.8725 12.692L48.5973 12.3551L48.3198 12.0254L48.0375 11.7005L47.7528 11.3829L47.4657 11.07L47.1738 10.7644L46.8796 10.4636L46.5829 10.17L46.2815 9.88121L45.9752 9.59965L45.6666 9.3253L45.3556 9.05577L45.0398 8.79346L44.7216 8.53837L44.401 8.28809L44.0757 8.04262L43.7479 7.80438L43.4154 7.57335L43.078 7.34714L42.7383 7.12814L42.3962 6.91637L42.0493 6.7094L41.6976 6.50966L41.3435 6.31714L40.9846 6.12943L40.621 5.94894L40.2262 5.76123L39.8243 5.58315L39.4224 5.41228L39.0157 5.25105L38.6066 5.09703L38.1951 4.95264L37.7812 4.81787L37.3625 4.69033L36.9438 4.57241L36.5228 4.46171L36.0993 4.35822L35.6735 4.26437L35.2452 4.17774L34.8146 4.10073L34.3839 4.03094L33.9509 3.96837L33.5155 3.91542L33.0801 3.8697L32.6446 3.83119L32.2068 3.80232L31.769 3.78066L31.3312 3.76622L30.891 3.759H30.4508L30.0106 3.76622L29.5704 3.78066L29.1302 3.80472L28.69 3.8336L28.2498 3.87211L27.8096 3.91783L27.3694 3.96837L26.9291 4.02853L26.4913 4.09591L26.0535 4.16811L25.6157 4.24752L25.1803 4.33416L24.7449 4.42801L24.3118 4.52909L23.8788 4.63738L23.4482 4.75049L23.0175 4.87082L22.5893 4.99836L22.1634 5.13313L21.7376 5.27271L21.3165 5.4195L20.8978 5.57352L20.4792 5.73235L20.0629 5.8984L19.6514 6.06927L19.2399 6.24735L18.8332 6.43265L18.4289 6.62277L18.0269 6.82011L17.6298 7.02225L17.235 7.22922L16.8427 7.4434L16.4551 7.66239L16.0771 7.89342L15.6943 8.12444L15.3163 8.36028L14.9431 8.60334L14.5723 8.85122L14.2062 9.10631L13.845 9.36621L13.4885 9.63093L13.1368 9.90046L12.7899 10.1748L12.4454 10.4564L12.1081 10.7427L11.7755 11.0339L11.4454 11.3299L11.1224 11.6308L10.8042 11.9364L10.4908 12.2492L10.1846 12.5669L9.88311 12.8894L9.58885 13.2167L9.29936 13.5488L9.01706 13.8857L8.73953 14.2274L8.46919 14.5739L8.20602 14.9253L7.94764 15.2815L7.69644 15.6424L7.45241 16.0082L7.21556 16.3788L6.98589 16.7519L6.76339 17.1297L6.54807 17.5123L6.34233 17.8998L6.14615 18.2896L5.95475 18.6867L5.77293 19.0862L5.59828 19.4905L5.43081 19.8996L5.27291 20.3111L5.13893 20.6841L5.01214 21.0668L4.89491 21.4542L4.78486 21.8489L4.68437 22.2508L4.59107 22.6575L4.50494 23.069L4.42599 23.4853L4.35422 23.9065L4.28962 24.3324L4.23221 24.7632L4.18196 25.1964L4.1389 25.6319L4.10062 26.0723L4.06952 26.5151L4.0432 26.9604L4.02406 27.408L4.0121 27.858L4.00493 28.3104L4.00253 28.7653L4.00732 29.2201L4.01689 29.6749L4.03124 30.1298L4.05038 30.587L4.0767 31.0394L4.10301 31.4943L4.1389 31.9491L4.17479 32.4039L4.22024 32.8564L4.26331 33.3064L4.31594 33.7516L4.36857 34.1992L4.42838 34.642L4.4882 35.0824L4.55518 35.518L4.62217 35.9511L4.69634 36.3771L4.7705 36.8055L4.84945 37.2242L4.9284 37.6429L5.01453 38.0496L5.10066 38.4539L5.19157 38.8558L5.28487 39.2481L5.38057 39.6331L5.47627 40.0134L5.57436 40.3864L5.67484 40.7522L5.78967 41.1468L5.9093 41.5391L6.03609 41.9242L6.16768 42.3068L6.30405 42.6846L6.4452 43.0576L6.59114 43.4258L6.74425 43.7916L6.90215 44.1502L7.06484 44.5064L7.23231 44.8577L7.40456 45.2043L7.5816 45.5484L7.76343 45.8877L7.95003 46.2222L8.14143 46.5543L8.33761 46.8816L8.53857 47.2041L8.74432 47.5242L8.95485 47.8394L9.17017 48.1499L9.39028 48.4579L9.61516 48.7635L9.84244 49.0643L10.0745 49.3603L10.3114 49.6539L10.553 49.9427L10.797 50.2291L11.0458 50.5107L11.3018 50.7922L11.5578 51.0642L11.8186 51.3385L12.0865 51.6056L12.3545 51.8728L12.6296 52.1351L12.9047 52.395L13.1871 52.6501L13.4694 52.9052L13.7588 53.1554L14.0483 53.4033L14.3474 53.6464L14.644 53.8894L14.9479 54.1277L15.2517 54.3659L15.5627 54.5994L15.8737 54.8328L16.1919 55.0614L16.503 55.2828C16.9408 55.5957 17.5484 55.4922 17.8595 55.0518C18.1705 54.6114 18.0676 54.0001 17.6298 53.6873L17.3188 53.4659L17.0173 53.2493L16.7231 53.0303L16.4288 52.8113L16.1417 52.5875L15.8546 52.3637L15.5723 52.1351L15.2924 51.9064L15.0197 51.673L14.7469 51.4396L14.4814 51.2013L14.2158 50.9631L13.9574 50.72L13.7014 50.477L13.4526 50.2291L13.2038 49.9812L12.9622 49.7261L12.7181 49.4686L12.4837 49.2135L12.254 48.9536L12.0267 48.6889L11.8042 48.4218L11.5865 48.1523L11.3712 47.8779L11.1607 47.6012L10.9549 47.322L10.754 47.038L10.5554 46.7517L10.3592 46.446L10.1702 46.1524L9.98599 45.8564L9.80656 45.5556L9.62952 45.2524L9.45726 44.9444L9.28979 44.6339L9.12711 44.3187L8.96921 43.9986L8.81609 43.6761L8.66776 43.3488L8.52422 43.0167L8.38546 42.6822L8.25148 42.3429L8.1199 41.9988L7.9931 41.6522L7.87109 41.2985L7.75386 40.9423L7.6438 40.5813L7.53615 40.2131L7.44045 39.869L7.34714 39.5152L7.25384 39.1542L7.16293 38.786L7.07441 38.4106L6.98828 38.0304L6.90455 37.6381L6.8232 37.2483L6.74665 36.8488L6.67009 36.4493L6.59831 36.0402L6.52654 35.6311L6.46195 35.2123L6.39735 34.796L6.33993 34.3725L6.28251 33.9489L6.23227 33.5206L6.18203 33.0922L6.13897 32.659L6.09591 32.2282L6.06241 31.7951L6.02892 31.3619L6.00499 30.9263L5.98107 30.4883L5.96193 30.0552L5.94758 29.622L5.93801 29.1888L5.93322 28.758L5.93561 28.3297L5.94279 27.9013L5.95475 27.4753L5.9715 27.0542L5.99542 26.6355L6.02413 26.2191L6.05763 25.8076L6.0983 25.4009L6.14375 24.999L6.19639 24.602L6.2562 24.2097L6.32319 23.8246L6.39496 23.4444L6.47152 23.0714L6.55525 22.7032L6.64616 22.3446L6.74425 21.9933L6.84713 21.6491L6.95718 21.3146L7.07441 20.9873L7.21795 20.6143L7.36868 20.2437L7.52897 19.8755L7.69405 19.5121L7.8663 19.1536L8.04812 18.7974L8.23713 18.4436L8.4333 18.0947L8.63666 17.7482L8.84719 17.4064L9.06251 17.0695L9.28501 16.735L9.51468 16.4029L9.74914 16.0756L9.99077 15.7531L10.2396 15.4331L10.4932 15.1178L10.754 14.8074L11.0195 14.4993L11.2899 14.1985L11.5674 13.9001L11.8521 13.6065L12.1416 13.3177L12.4358 13.0314L12.7349 12.7498L13.0387 12.473L13.3497 12.2011L13.6631 11.934L13.9813 11.6717L14.3043 11.4142L14.6321 11.1615L14.9646 10.9136L15.302 10.6706L15.6441 10.4323L15.9886 10.2013L16.3379 9.97507L16.6896 9.75366L17.046 9.53708L17.4073 9.3253L17.7709 9.11834L18.137 8.9186L18.5078 8.72367L18.881 8.53355L19.2566 8.34825L19.637 8.17017L20.0174 7.9969L20.4002 7.82844L20.7878 7.6672L21.1778 7.51078L21.5677 7.36157L21.9601 7.21718L22.3548 7.08001L22.752 6.94765L23.1515 6.82251L23.551 6.70219L23.953 6.58908L24.3573 6.48319L24.7616 6.38212L25.1659 6.28826L25.5726 6.19922L25.9794 6.1174L26.3861 6.0428L26.7952 5.97301L27.2043 5.91044L27.6134 5.85509L28.0225 5.80696L28.4316 5.76364L28.8407 5.72754L29.2498 5.69866L29.6589 5.677L30.068 5.66256L30.4771 5.65534L30.8838 5.65294L31.2905 5.65775L31.6973 5.66978L32.1016 5.68904L32.5059 5.71551L32.9078 5.7492L33.3097 5.79011L33.7093 5.83824L34.1088 5.89359L34.506 5.95616L34.9007 6.02595L35.2931 6.10296L35.6854 6.18719L36.073 6.28104L36.4606 6.38212L36.8457 6.49041L37.2261 6.60592L37.6065 6.72866L37.9822 6.85861L38.3554 6.99819L38.7262 7.14499L39.0946 7.299L39.4583 7.46024L39.8195 7.63111L40.1497 7.79475L40.4775 7.96561L40.8028 8.14129L41.1234 8.32419L41.4416 8.5119L41.7574 8.70682L42.0684 8.90657L42.377 9.11353L42.6833 9.3253L42.9871 9.5443L43.2862 9.7681L43.5828 9.99913L43.8771 10.235L44.1666 10.478L44.4537 10.7259L44.7384 10.981L45.0207 11.2409L45.3006 11.508L45.5781 11.78L45.8532 12.0591L46.126 12.3455L46.3939 12.6367L46.6595 12.9327L46.9226 13.2359L47.1834 13.5464L47.4418 13.8616L47.6978 14.1841L47.9514 14.5114L48.2026 14.8459L48.4514 15.1876L48.6978 15.5342L48.9419 15.8855L49.1835 16.2441L49.4227 16.6099L49.6596 16.9805L49.894 17.3583L50.1285 17.7409L50.3606 18.1308L50.5902 18.5279L50.8175 18.9298L51.0424 19.3389L51.2649 19.7552L51.375 19.9646L51.485 20.1739L51.5951 20.3881L51.7051 20.6023L51.8128 20.8189L51.9204 21.0355L52.0281 21.2545L52.1357 21.4735L52.241 21.6949L52.3463 21.9187L52.4515 22.1449L52.5568 22.3687L52.6573 22.5925L52.7554 22.8115L52.8463 23.0257L52.9348 23.2375L53.1023 23.661L53.2554 24.0725L53.3942 24.4744L53.521 24.8667L53.6334 25.2517L53.7339 25.6271L53.8224 25.9929L53.9014 26.3515L53.9683 26.7029L54.0258 27.047L54.0736 27.3839L54.1119 27.7112L54.1406 28.0337L54.1621 28.3489L54.1741 28.657L54.1789 28.9602L54.1765 29.2562L54.1669 29.545L54.1526 29.8289L54.1334 30.1081L54.1071 30.3824L54.076 30.6496L54.0377 30.9167L54.0018 31.1814L53.9564 31.4341L53.9109 31.6892L53.8607 31.9347L53.8104 32.1849L53.7554 32.4256L53.7004 32.6686L53.643 32.9021L53.5855 33.1379L53.4683 33.6L53.3535 34.0548L53.2434 34.5048L53.143 34.9452L53.0951 35.1738L53.052 35.3976L53.0138 35.6215L52.9803 35.8453L52.9539 36.0715L52.9348 36.2833C52.887 36.7934 53.2602 37.2435 53.7674 37.2916C54.2746 37.3421 54.7243 36.9667 54.7722 36.4565Z" fill="#673065"/>
<path d="M20.0892 35.4241L20.149 35.2894L20.2136 35.1016L20.2567 34.8875L20.2615 34.6227L20.1777 34.2834L20.0126 34.0139L19.7973 33.8166L19.6179 33.7179L19.448 33.6601L19.2901 33.6313L19.1418 33.6216L19.0126 33.6288L18.893 33.6457L18.7782 33.6698L18.6729 33.6914L18.5676 33.7251L18.46 33.766L18.3379 33.8166L18.1872 33.896L18.0365 34.0043L17.9097 34.1222L17.802 34.2473L17.7111 34.3821L17.6394 34.5144L17.5819 34.6492L17.5365 34.7888L17.503 34.926L17.4815 35.0631L17.4695 35.2051L17.4719 35.3808L17.503 35.6311L17.5939 35.9295L17.7231 36.1725L17.8571 36.3506L17.9887 36.483L18.137 36.5961L18.3021 36.69L18.4863 36.7621L18.6872 36.8103L18.9145 36.8319L19.1633 36.8151L19.393 36.7621L19.6035 36.6803L19.7973 36.572L19.9648 36.4493L20.1107 36.3145L20.2399 36.1653L20.35 36.0137L20.4433 35.8549L20.5246 35.6888L20.5892 35.5204L20.6419 35.3471L20.6801 35.1642L20.7017 34.9813L20.7088 34.7912L20.6969 34.5915L20.661 34.3917L20.6012 34.1896L20.5079 33.9826L20.3835 33.7877L20.2232 33.6048L20.0246 33.4435L19.8284 33.3304L19.6633 33.2582L19.5078 33.2053L19.3523 33.1644L19.192 33.1379L19.0222 33.1259L18.8547 33.1331L18.6872 33.1596L18.5174 33.2053L18.3595 33.2703L18.2135 33.3497L18.0772 33.4484L17.9599 33.5542L17.8571 33.6649L17.7662 33.7853L17.692 33.9056L17.6274 34.0259L17.5724 34.1511L17.5221 34.2979L17.4671 34.512L17.4288 34.7551L17.4169 34.9933L17.424 35.2292L17.4504 35.465L17.4982 35.6961L17.5652 35.9247L17.6585 36.1557L17.7781 36.3771L17.9312 36.5937L18.1346 36.8007L18.3427 36.9547L18.5246 37.0509L18.6825 37.1111L18.8451 37.152L19.015 37.1761L19.192 37.1809L19.3571 37.1664L19.5102 37.1376L19.6586 37.0942L19.7997 37.0389L19.9337 36.9715L20.0629 36.8921L20.1801 36.8055L20.2878 36.7092L20.3883 36.6033L20.4744 36.4974L20.5509 36.3867L20.6179 36.2712L20.6849 36.1316L20.7639 35.9295L20.8261 35.6961L20.862 35.4674L20.8787 35.2412L20.8763 35.0126L20.8548 34.7912L20.8141 34.5722L20.7591 34.3532L20.6873 34.1414L20.5988 33.9345L20.4863 33.7275L20.3524 33.5326L20.1897 33.3449L19.9887 33.1692L19.7567 33.0224L19.4887 32.9117L19.1849 32.8491L18.9097 32.8467L18.6944 32.8756L18.5102 32.9237L18.3379 32.9887L18.1777 33.0705L18.0269 33.1692L17.893 33.2751L17.7733 33.3882L17.6657 33.5109L17.5724 33.6361L17.491 33.7636L17.4193 33.8936L17.3499 34.0452L17.2637 34.2786L17.1968 34.5409L17.1561 34.796L17.1369 35.0487L17.1417 35.3038L17.1681 35.5517L17.2207 35.8019L17.314 36.0618L17.4336 36.2832L17.5652 36.4589L17.704 36.5937L17.8738 36.7116L18.0772 36.8079L18.314 36.8656L18.5485 36.8753L18.771 36.8416L18.9767 36.7742L19.1466 36.6875L19.2949 36.5889L19.4289 36.4782L19.5461 36.3627L19.6514 36.2399L19.7519 36.1076L19.8476 35.968L19.9409 35.8188L20.0318 35.6576L20.1155 35.4963C20.3619 35.0174 20.1777 34.4254 19.6992 34.1775C19.2231 33.9273 18.6346 34.115 18.3882 34.5939L18.3212 34.7238L18.2662 34.8225L18.2159 34.9019L18.1729 34.9645L18.1418 35.0078L18.1202 35.0343L18.1107 35.0439L18.125 35.0319L18.1585 35.0102L18.2207 34.9789L18.3212 34.9452L18.4432 34.926L18.582 34.9332L18.7303 34.9693L18.8499 35.0246L18.9432 35.0896L19.0126 35.1546L19.0796 35.246L19.0868 35.2653L19.0916 35.2797L19.0844 35.246L19.0772 35.1859L19.0748 35.1113L19.082 35.0246L19.094 34.9404L19.1131 34.8682L19.1466 34.7816L19.1538 34.7647L19.1609 34.7527L19.1657 34.7455L19.1633 34.7479L19.1585 34.7527L19.149 34.7599L19.1298 34.7719L19.1107 34.7816L19.0892 34.7888L19.0652 34.796L19.0198 34.8008L18.9935 34.796L18.9217 34.7816L18.8715 34.7623L18.8404 34.7431L18.826 34.731L18.8332 34.7383L18.8499 34.7623L18.8691 34.7984L18.893 34.8514L18.9145 34.9139L18.9313 34.9813L18.9456 35.0559L18.9528 35.1305L18.9552 35.1979L18.9504 35.2605L18.9432 35.311L18.9361 35.3423L18.9169 35.388L18.9265 35.3664L18.9289 35.3615L18.9337 35.3567L18.9408 35.3471L18.9552 35.3327L18.9695 35.3206L18.9863 35.3086L19.0078 35.2942L19.027 35.2845L19.0461 35.2773L19.0652 35.2725L19.0796 35.2701L19.1083 35.2677L19.1538 35.2701L19.1968 35.2773L19.2399 35.2894L19.283 35.3062L19.3547 35.3471L19.3595 35.3543L19.381 35.376L19.3763 35.3688L19.3595 35.3399L19.3404 35.2966L19.3212 35.234L19.3045 35.1618L19.2949 35.0896L19.2925 35.015L19.2949 34.9476L19.3021 34.8971L19.3188 34.8345L19.3141 34.8514L19.3117 34.8562L19.3045 34.8658L19.2901 34.8851L19.271 34.9067L19.2447 34.9308L19.2064 34.9572L19.1657 34.9789L19.1227 34.9958L19.0748 35.0078L19.0365 35.0126H19.0054L18.9815 35.0102L18.9743 35.0078H18.9791L18.9959 35.0126L19.0078 35.0174L18.9863 35.003L18.9384 34.9621L18.9026 34.9212L18.8786 34.8826L18.8619 34.8466L18.8571 34.8273V34.8225V34.8249V34.8417L18.8547 34.8658L18.8499 34.8923L18.8404 34.9236L18.8284 34.9548L18.8164 34.9789L18.8021 35.003L18.7901 35.0198L18.7853 35.027L18.7949 35.0222L18.8212 35.0078L18.8547 34.9958L18.8978 34.9861L18.9528 34.9837L18.9791 34.9861L19.0413 35.0006L19.0987 35.0222L19.149 35.0511L19.1944 35.0872L19.2375 35.1281L19.2925 35.2051L19.2973 35.222L19.3117 35.2677V35.2508L19.3141 35.2918V35.299V35.3038L19.3117 35.311L19.3069 35.3254L19.2997 35.3399L19.2877 35.3591L19.2686 35.376L19.2423 35.4073L19.204 35.441L19.1514 35.4795L19.1083 35.5035L19.1394 35.4891L19.1753 35.4771L19.1992 35.4698L19.2112 35.4674H19.2064L19.1873 35.4698L19.1466 35.4722L19.0796 35.4674L18.9935 35.4506L18.8858 35.4121L18.759 35.3423L18.5868 35.1811L18.4839 35.003L18.4289 34.7816V34.6588L18.4384 34.6059L18.4408 34.5963L18.4121 34.654C18.2016 35.1209 18.4049 35.6696 18.8691 35.8814C19.3332 36.0955 19.8787 35.8886 20.0892 35.4241Z" fill="#673065"/>
<path d="M38.774 31.8239L38.7884 31.9707L38.8123 32.132L38.8434 32.286L38.8841 32.4376L38.9391 32.5916L39.0085 32.7384L39.097 32.8852L39.2119 33.032L39.3482 33.1644L39.5109 33.2775L39.6999 33.3665L39.8913 33.4195L40.0803 33.4411L40.2645 33.4339L40.4272 33.4026L40.5731 33.3569L40.7071 33.2991L40.8531 33.2149L41.0253 33.0874L41.2 32.9213L41.3459 32.7457L41.4703 32.5579L41.578 32.351L41.6617 32.132L41.7215 31.8889L41.7454 31.6074L41.7215 31.3523L41.6641 31.1405L41.5875 30.972L41.4871 30.8132L41.3626 30.6688L41.2143 30.5413L41.0564 30.4426L40.8937 30.368L40.7239 30.3151L40.5588 30.2838L40.3961 30.2669L40.231 30.2645L40.0731 30.2741L39.9248 30.2958L39.7765 30.3343L39.6401 30.3872L39.5133 30.4522L39.3937 30.5316L39.2597 30.6447L39.1186 30.8012L38.987 31.0009L38.8937 31.1958L38.8291 31.3908L38.786 31.5881L38.7645 31.7806L38.7597 31.9732L38.774 32.1705L38.8099 32.3654L38.8673 32.5628L38.9583 32.7673L39.0851 32.9671L39.2597 33.1596L39.4989 33.3328L39.7813 33.4484L40.0875 33.4941L40.3937 33.4652L40.6258 33.3954L40.7837 33.3256L40.9033 33.2606L41.0134 33.1885L41.1186 33.1114L41.2215 33.0272L41.3363 32.9213L41.4823 32.7625L41.6234 32.5579L41.7311 32.3389L41.8052 32.1055L41.8387 31.8576L41.834 31.6218L41.7957 31.4004L41.7287 31.1886L41.6402 31.0033L41.5373 30.8373L41.4201 30.6833L41.2933 30.5485L41.1593 30.4282L41.0134 30.3199L40.8626 30.226L40.7047 30.1442L40.5373 30.0744L40.365 30.019L40.1832 29.9781L39.987 29.9541L39.7884 29.9517L39.5803 29.9733L39.3626 30.0263L39.1712 30.1033L39.0205 30.1827L38.8937 30.2669L38.7788 30.3608L38.6712 30.4619L38.5731 30.575L38.4678 30.7242L38.3554 30.9359L38.2645 31.1934L38.2166 31.4437L38.1999 31.6868L38.2118 31.925L38.2453 32.1488L38.2979 32.3654L38.3673 32.5772L38.4511 32.7769L38.5492 32.9695L38.664 33.1572L38.7932 33.3328L38.9367 33.4989L39.1018 33.6577L39.2836 33.7997L39.487 33.9273L39.7238 34.0331L39.9822 34.1029L40.2621 34.1318L40.5636 34.1077L40.8291 34.0355L41.0421 33.9465L41.2287 33.8502L41.4009 33.742L41.5612 33.6168L41.7119 33.4748L41.8435 33.3208L41.956 33.1548L42.0517 32.9767L42.1234 32.7962L42.1761 32.6133L42.2096 32.4256L42.2239 32.2475L42.2215 32.0742L42.2048 31.9034L42.1761 31.7421L42.1378 31.5881L42.0876 31.4365L42.0301 31.2945L41.9655 31.1597L41.8938 31.0274L41.8172 30.9022L41.7359 30.7843L41.6473 30.6688L41.5397 30.5437L41.3579 30.3608L41.133 30.1803L40.9153 30.0455L40.7478 29.9637L40.5947 29.9059L40.432 29.8626L40.255 29.8362L40.0564 29.8337L39.853 29.8602L39.6449 29.9204L39.4344 30.0239L39.2501 30.1586L39.0946 30.3175L38.9678 30.498L38.8745 30.6784L38.8075 30.8613L38.7597 31.049L38.731 31.2343L38.7142 31.4197L38.7118 31.6122L38.719 31.7854C38.7429 32.3245 39.1975 32.7432 39.7334 32.7192C40.2693 32.6951 40.6856 32.2379 40.6617 31.6988L40.6569 31.5809V31.5111L40.6617 31.463L40.6664 31.4365V31.4389L40.6569 31.4606L40.6354 31.5039L40.5899 31.5689L40.5253 31.6338L40.4416 31.6964L40.3387 31.7469L40.243 31.7758L40.1593 31.7878L40.0851 31.7854L40.0372 31.7782L40.0061 31.771L39.987 31.7638L39.9559 31.7469L40.0085 31.7782L40.0516 31.8119L40.1234 31.8865L40.1353 31.9034L40.1616 31.9371L40.188 31.9732L40.2119 32.0092L40.231 32.0429L40.2478 32.079L40.2621 32.1127L40.2717 32.1392L40.2789 32.1633L40.2837 32.1825V32.1921V32.197L40.2861 32.1873L40.2884 32.1777L40.2932 32.1657L40.3028 32.1512L40.3076 32.144L40.2908 32.156L40.2621 32.1753L40.2215 32.197L40.1808 32.2162L40.2167 32.209L40.2884 32.2042L40.3387 32.209L40.3698 32.2186L40.3841 32.2258L40.3746 32.221L40.3507 32.2042L40.3219 32.1777L40.2861 32.1344L40.2478 32.0839L40.2119 32.0285L40.1784 31.9659L40.1497 31.9034L40.1305 31.8456L40.1162 31.7903L40.109 31.7445L40.1066 31.7181V31.7036L40.1042 31.706L40.0947 31.7325L40.0971 31.7301L40.0636 31.7806L40.0468 31.7999L40.0301 31.8143L40.0133 31.8264L39.9966 31.836L39.9679 31.8504L39.9463 31.8576L39.9057 31.8673L39.8841 31.8697H39.8746H39.8698L39.8793 31.8721L39.8961 31.8769L39.9128 31.8841L39.9344 31.8961L39.9559 31.9082L39.9726 31.9178L39.987 31.9298L39.9966 31.9395V31.9371L39.9918 31.9298L39.9846 31.9106L39.9726 31.8721L39.9655 31.8264V31.771L39.975 31.706L39.9918 31.6531L40.0109 31.6146L40.0301 31.5905L40.0133 31.6074L39.9942 31.6242L39.9679 31.6459L39.9487 31.6603L39.9392 31.6675L39.9415 31.6651L39.9894 31.6459L40.0133 31.6435L40.1305 31.6338L40.2669 31.6531L40.3985 31.706L40.5062 31.783L40.5684 31.8504L40.5995 31.901L40.6138 31.9371L40.6162 31.9467V31.9419V31.9322V31.9154L40.6186 31.901V31.8986L40.6162 31.9034L40.6066 31.9226L40.5779 31.9659L40.5588 31.99L40.4942 32.0453L40.4487 32.0742L40.4009 32.0983L40.3483 32.1175L40.2908 32.132L40.2358 32.1392L40.2789 32.1368H40.2956L40.2789 32.132L40.2382 32.12L40.188 32.0959L40.1282 32.0574L40.0612 31.9996L40.0061 31.9346L39.9607 31.8649L39.9272 31.7903L39.8985 31.6772V31.6362L39.9033 31.5833V31.5761L39.8985 31.5905L39.8865 31.6122L39.8674 31.6386L39.8506 31.6603L39.8482 31.6651L39.8339 31.6723L39.8841 31.6411L39.9224 31.6242L39.9726 31.6074L40.042 31.5953L40.1329 31.5905L40.231 31.6001L40.3339 31.629L40.4368 31.6772L40.5157 31.7325L40.5731 31.7903L40.6138 31.8432L40.633 31.8769L40.6401 31.8913L40.633 31.8673L40.6234 31.8239L40.6138 31.7638L40.6042 31.6627C40.5588 31.1525 40.1114 30.7771 39.6042 30.8228C39.1042 30.8637 38.7286 31.3138 38.774 31.8239Z" fill="#673065"/>
<path d="M24.9243 42.367L25.1396 42.6509L25.3693 42.9325L25.6037 43.1972L25.843 43.4499L26.087 43.6881L26.3358 43.9095L26.587 44.1189L26.8454 44.3138L27.1062 44.4919L27.3693 44.658L27.6373 44.8096L27.9076 44.9443L28.1804 45.0671L28.4579 45.1754L28.7354 45.2692L29.0153 45.3486L29.2976 45.4136L29.5799 45.4618L29.8622 45.4954L30.1469 45.5147L30.4292 45.5195L30.7092 45.5123L30.9915 45.4906L31.269 45.4545L31.5441 45.404L31.8192 45.339L32.0896 45.262L32.3552 45.173L32.6207 45.0695L32.8791 44.954L33.1351 44.8288L33.3887 44.6893L33.6351 44.5401L33.8767 44.3788L34.116 44.2055L34.348 44.0226L34.5753 43.8301L34.7978 43.6256L35.0131 43.4114L35.2237 43.19L35.4294 42.9566L35.628 42.7135L35.8218 42.4632L36.0084 42.2033L36.1878 41.9338L36.3601 41.657L36.5275 41.3707L36.6807 41.0891C36.9366 40.615 36.762 40.0206 36.2883 39.7607C35.817 39.5032 35.2261 39.6789 34.9677 40.1554L34.8313 40.4104L34.6949 40.6439L34.5538 40.8701L34.4079 41.0891L34.2595 41.2985L34.1064 41.5006L33.9485 41.6931L33.7882 41.876L33.6255 42.0493L33.4581 42.2153L33.2906 42.3718L33.1183 42.5186L32.9461 42.6581L32.7714 42.7857L32.5944 42.906L32.415 43.0167L32.2379 43.1178L32.0561 43.2092L31.8743 43.2935L31.6924 43.3657L31.5082 43.4306L31.324 43.486L31.1422 43.5317L30.9556 43.5678L30.769 43.5943L30.5848 43.6135L30.3981 43.6208H30.2115L30.0249 43.6111L29.8359 43.5895L29.6469 43.5606L29.4603 43.5197L29.2689 43.4691L29.0775 43.409L28.8861 43.3368L28.6947 43.2526L28.501 43.1563L28.3096 43.0504L28.1158 42.9301L27.922 42.7977L27.7282 42.6533L27.5344 42.4945L27.3406 42.3212L27.1492 42.1359L26.9578 41.9362L26.7664 41.722L26.5774 41.4934L26.3813 41.2359C26.0702 40.8292 25.4913 40.7546 25.0894 41.065C24.6898 41.3779 24.6133 41.9603 24.9243 42.367Z" fill="#673065"/>
<path d="M25.9817 6.07408L26.2401 6.10296L26.4746 6.14387L26.7138 6.20163L26.9579 6.27382L27.2019 6.36046L27.4483 6.46153L27.6947 6.57464L27.9411 6.70219L28.1876 6.84417L28.4316 6.99819L28.6732 7.16424L28.9125 7.34232L29.1469 7.53003L29.3766 7.72737L29.6015 7.93674L29.8216 8.15332L30.0321 8.37713L30.2379 8.61056L30.4364 8.85122L30.623 9.09668L30.8025 9.34937L30.9723 9.60687L31.1302 9.86677L31.2786 10.1315L31.4149 10.3986L31.5393 10.6657L31.6518 10.9353L31.7523 11.2048L31.8384 11.4719L31.9102 11.7391L31.97 12.0038L32.0154 12.2637L32.0441 12.5236L32.0609 12.7787V13.0265L32.0465 13.272L32.0178 13.5103L31.9748 13.7413L31.915 13.9699L31.8408 14.1913L31.7523 14.4055L31.6374 14.6317L31.5848 14.7207L31.5202 14.8218L31.4532 14.9205L31.3791 15.0216L31.3001 15.1202L31.2164 15.2189L31.1278 15.3152L31.0345 15.409L30.9341 15.5029L30.8288 15.5967L30.7187 15.6882L30.6063 15.7724L30.4819 15.859L30.3647 15.9288L30.2427 15.9914L30.1159 16.0467L29.9891 16.0925L29.8575 16.131L29.7235 16.1623L29.5895 16.1839L29.4508 16.1984L29.3096 16.2056H29.1685L29.0249 16.1959L28.8814 16.1791L28.7378 16.1574L28.5943 16.1262L28.4507 16.0901L28.3096 16.0467L28.1684 15.9962L28.0297 15.9384L27.8957 15.8759L27.7641 15.8061L27.6349 15.7315L27.5129 15.6521L27.3933 15.5654L27.2784 15.474L27.1732 15.3801L27.0727 15.2815L26.977 15.1804L26.8909 15.0769L26.8095 14.971L26.7354 14.8627L26.6708 14.7544L26.6133 14.6437L26.5631 14.533L26.5224 14.4247L26.4889 14.3116L26.465 14.1985L26.4483 14.0878L26.4387 13.9747L26.4363 13.8592L26.4435 13.7461L26.4602 13.6258L26.4842 13.503L26.52 13.3803L26.5679 13.2504L26.6277 13.1156L26.6995 12.9784L26.7904 12.8292L26.8645 12.7185L26.9411 12.6174L27.0153 12.5284L27.087 12.449L27.154 12.384L27.2186 12.3287L27.2808 12.2805L27.3359 12.2444L27.3885 12.2155L27.4363 12.1915L27.477 12.1746L27.5153 12.1626L27.5488 12.1554L27.5751 12.1506L27.6014 12.1482H27.6253L27.6445 12.1506L27.666 12.1554L27.6875 12.1602L27.7043 12.1674L27.7258 12.177L27.7474 12.1891L27.7689 12.2035L27.7928 12.2228L27.8167 12.2444L27.8407 12.2685L27.867 12.2974L27.8933 12.3311L27.9172 12.3672L27.9411 12.4081L27.9651 12.4538L27.9866 12.5019L28.0057 12.5549L28.0225 12.6126L28.0368 12.6728L28.0488 12.7378L28.056 12.8076L28.0608 12.8773V12.9544L28.0584 13.0338L28.0512 13.1132L28.0368 13.1998L28.0177 13.2889L27.9938 13.3779L27.9627 13.4718L27.9268 13.568L27.8837 13.6667L27.8239 13.7894C27.5847 14.2731 27.7808 14.8603 28.2641 15.101C28.745 15.3416 29.3287 15.1443 29.568 14.6582L29.6493 14.4921L29.7307 14.302L29.8001 14.1143L29.8599 13.9266L29.9101 13.7365L29.9484 13.5488L29.9771 13.3635L29.9962 13.1758L30.0034 12.9929L30.001 12.8124L29.9891 12.6319L29.9675 12.4562L29.9388 12.2733L29.8981 12.1024L29.8503 11.9364L29.7929 11.7752L29.7235 11.6163L29.6469 11.4647L29.5632 11.3179L29.4675 11.1759L29.3646 11.0436L29.2546 10.916L29.1326 10.7957L29.0034 10.685L28.867 10.5839L28.7211 10.4901L28.5703 10.4106L28.4124 10.3409L28.245 10.2831L28.0751 10.2398L27.9005 10.2085L27.7186 10.1917L27.5392 10.1892L27.3598 10.2013L27.1756 10.2302L26.9985 10.2735L26.8239 10.3288L26.6492 10.401L26.4794 10.4853L26.3143 10.5815L26.1516 10.6898L25.9961 10.8101L25.8454 10.9401L25.6994 11.0845L25.5583 11.2385L25.4219 11.4021L25.2903 11.5778L25.1611 11.7679L25.0152 12.0086L24.8836 12.2613L24.7736 12.5164L24.6803 12.7739L24.6061 13.0362L24.5535 13.2961L24.52 13.5536L24.5056 13.8135L24.5104 14.0686L24.5319 14.3189L24.5702 14.5667L24.6252 14.8074L24.6946 15.0408L24.7807 15.2694L24.8788 15.4884L24.9889 15.7002L25.1133 15.9072L25.2473 16.1021L25.3908 16.2898L25.5463 16.4703L25.709 16.6412L25.8789 16.8048L26.0583 16.9612L26.2425 17.1056L26.4339 17.2428L26.6349 17.3727L26.8382 17.4907L27.0464 17.6014L27.2641 17.7024L27.4842 17.7915L27.7067 17.8709L27.9364 17.9407L28.1684 17.9984L28.4029 18.0466L28.6421 18.0827L28.8814 18.1067L29.123 18.1188H29.367L29.611 18.1043L29.8551 18.0779L30.1015 18.0345L30.3431 17.9768L30.5848 17.9046L30.8264 17.8155L31.0609 17.7121L31.2905 17.5917L31.5178 17.4546L31.7283 17.3078L31.9006 17.173L32.0609 17.0382L32.214 16.9011L32.3599 16.7615L32.5011 16.6171L32.6351 16.4703L32.7619 16.3211L32.8839 16.1671L32.9963 16.0106L33.104 15.8518L33.2045 15.6882L33.305 15.5101L33.4652 15.19L33.6064 14.8435L33.7212 14.4945L33.8122 14.1408L33.8767 13.7822L33.9174 13.4236L33.9366 13.0651L33.9342 12.7017L33.9102 12.3431L33.8672 11.9869L33.805 11.6308L33.7236 11.277L33.6279 10.9281L33.5155 10.5791L33.3863 10.2374L33.2451 9.89806L33.0872 9.56355L32.9174 9.23626L32.7356 8.91379L32.5394 8.59612L32.3336 8.28568L32.1159 7.98246L31.8886 7.68646L31.6518 7.39767L31.4054 7.11852L31.1494 6.84658L30.8838 6.58667L30.6111 6.33639L30.3288 6.09574L30.0417 5.86712L29.7474 5.64813L29.446 5.44116L29.1397 5.24864L28.8287 5.07056L28.5105 4.90451L28.1876 4.7553L27.8598 4.62294L27.5272 4.50502L27.1923 4.40636L26.8526 4.32694L26.5081 4.26678L26.1923 4.23068C25.6875 4.17533 25.2305 4.54112 25.1755 5.0489C25.1109 5.55908 25.4745 6.01632 25.9817 6.07408Z" fill="#673065"/>
<path d="M22.4888 5.08018L22.3716 5.09222L22.283 5.09703H22.1945L22.1084 5.09222L22.0271 5.08259L21.9457 5.06815L21.8644 5.05371L21.7878 5.03205L21.7113 5.00558L21.6347 4.9767L21.5605 4.94301L21.4864 4.90451L21.4122 4.86119L21.3404 4.81547L21.2687 4.76493L21.1993 4.70958L21.1323 4.65182L21.0773 4.60129L20.9337 4.45449L20.8117 4.30769L20.6945 4.14645L20.5868 3.97318L20.4887 3.79269L20.4002 3.60498L20.3213 3.41246L20.2567 3.21994L20.2016 3.0226L20.1586 2.82767L20.1275 2.63996L20.1107 2.45466L20.1059 2.27898L20.1131 2.11775L20.137 1.92763C20.1992 1.39097 19.8165 0.904855 19.2829 0.842285C18.7494 0.779716 18.2662 1.16476 18.204 1.70142L18.1752 1.96854L18.1657 2.27898L18.1776 2.58702L18.2087 2.89506L18.2614 3.2055L18.3331 3.51113L18.4241 3.81435L18.5341 4.11517L18.6609 4.40876L18.8045 4.69514L18.9695 4.9767L19.1514 5.24623L19.3499 5.50373L19.57 5.75161L19.7925 5.96819L19.9289 6.08852L20.0605 6.19441L20.1945 6.29308L20.3332 6.38693L20.4792 6.47597L20.6275 6.55779L20.7806 6.6348L20.9409 6.70459L21.1036 6.76476L21.2687 6.8177L21.4409 6.86342L21.6156 6.89952L21.7926 6.9284L21.9744 6.94765L22.1562 6.95728H22.3405L22.5295 6.94525L22.6945 6.92599C23.1993 6.87064 23.5654 6.411 23.5104 5.90322C23.4482 5.39063 22.9936 5.02483 22.4888 5.08018Z" fill="#673065"/>
<path d="M18.2542 6.7431L17.8666 6.6324L17.5078 6.51448L17.1609 6.38452L16.8259 6.24494L16.5077 6.09093L16.2039 5.92969L15.9168 5.75883L15.6489 5.57593L15.3953 5.38341L15.1584 5.18126L14.9407 4.96948L14.7302 4.73605L14.6464 4.63257L14.5579 4.51706L14.4718 4.39673L14.3904 4.274L14.3139 4.14886L14.2421 4.02131L14.1727 3.88895L14.1081 3.75659L14.0483 3.61942L13.9909 3.47744L13.9407 3.33304L13.8928 3.18384L13.8498 3.02982L13.8115 2.8734L13.778 2.71216L13.7493 2.54611L13.7253 2.37765L13.7086 2.20438L13.6942 2.0263L13.6847 1.8434L13.6823 1.65329L13.6847 1.45836L13.6919 1.26102L13.7086 1.04443C13.7445 0.505371 13.3402 0.0385043 12.8043 -1.73459e-07C12.2684 -0.0360981 11.8042 0.370605 11.766 0.909668L11.7492 1.15513L11.7396 1.41023L11.7372 1.66051L11.742 1.90838L11.754 2.15384L11.7731 2.39209L11.7994 2.62793L11.8329 2.86136L11.876 3.08998L11.9239 3.31379L11.9813 3.53519L12.0459 3.75178L12.1152 3.96355L12.1918 4.17292L12.2755 4.37507L12.3665 4.57481L12.4645 4.76974L12.5674 4.95986L12.6775 5.14516L12.7947 5.32565L12.9191 5.50614L13.0459 5.677L13.1799 5.84305L13.3258 6.01392L13.6057 6.30992L13.9167 6.5987L14.2421 6.86583L14.5818 7.11611L14.9383 7.34954L15.3067 7.56372L15.6871 7.76346L16.0819 7.94636L16.4862 8.11241L16.9001 8.26643L17.3259 8.40601L17.747 8.52634C18.2375 8.66591 18.747 8.38194 18.8858 7.8886C19.027 7.39527 18.7423 6.88268 18.2542 6.7431Z" fill="#673065"/>
<path d="M55.4899 27.3021L55.6382 27.2371L55.7626 27.189L55.8847 27.1481L56.0019 27.1144L56.1119 27.0879L56.2196 27.0686L56.3225 27.0542L56.4206 27.047L56.5163 27.0446L56.6096 27.047L56.6981 27.0542L56.7842 27.0662L56.8679 27.0831L56.9469 27.1047L57.0282 27.1312L57.1072 27.1601L57.1837 27.1938L57.2603 27.2323L57.3369 27.2756L57.411 27.3213L57.4852 27.3743L57.5594 27.4296L57.6287 27.4898L57.7005 27.5548L57.7699 27.6246L57.8369 27.6992L57.9039 27.7786L57.9685 27.8628L58.0307 27.9494L58.0833 28.0289L58.2101 28.2358L58.3178 28.4428L58.4158 28.6642L58.5044 28.8952L58.5809 29.1334L58.6455 29.3813L58.6982 29.634L58.7388 29.8891L58.7651 30.1466L58.7795 30.4041V30.6568L58.7675 30.9071L58.7412 31.1501L58.7029 31.3836L58.6527 31.6074L58.5905 31.8215L58.5187 32.0189L58.4254 32.2186L58.3871 32.2884L58.3393 32.3678L58.289 32.4448L58.2364 32.5194L58.1838 32.5868L58.1264 32.6518L58.0689 32.712L58.0115 32.7673L57.9493 32.8203L57.8847 32.8708L57.8201 32.9141L57.7508 32.9574L57.679 32.9959L57.6048 33.0296L57.5259 33.0609L57.4421 33.0898L57.356 33.1139L57.2627 33.1355L57.1646 33.1524L57.0617 33.1644L56.9517 33.1716L56.8345 33.174L56.7124 33.1716L56.5832 33.162L56.4469 33.1451L56.3057 33.1235L56.155 33.0922L55.9971 33.0537L55.8344 33.008L55.6478 32.9478C55.1358 32.7842 54.588 33.0705 54.4277 33.5879C54.2674 34.1029 54.5497 34.654 55.0641 34.8153L55.2842 34.8851L55.5162 34.95L55.7435 35.003L55.9684 35.0487L56.1909 35.0848L56.4086 35.1089L56.6239 35.1233L56.8368 35.1281L57.045 35.1233L57.2483 35.1089L57.4517 35.0848L57.6479 35.0511L57.8393 35.0078L58.0283 34.9524L58.2101 34.8899L58.3871 34.8177L58.5594 34.7358L58.7245 34.6468L58.8824 34.5481L59.0355 34.4423L59.179 34.3291L59.3154 34.2112L59.447 34.0837L59.569 33.9513L59.6838 33.8166L59.7939 33.6746L59.8944 33.5302L59.9901 33.381L60.0786 33.227L60.1671 33.0561L60.3035 32.7529L60.4231 32.4208L60.5188 32.0839L60.593 31.7421L60.6456 31.3932L60.6767 31.0418L60.691 30.6905L60.6863 30.3343L60.6623 29.9805L60.6217 29.6292L60.5619 29.2778L60.4853 28.9313L60.392 28.5896L60.2795 28.2527L60.1504 27.9254L60.0044 27.6077L59.8393 27.2973L59.6647 27.0133L59.557 26.8569L59.4518 26.7173L59.3441 26.5825L59.2317 26.4502L59.112 26.3202L58.9876 26.1975L58.8584 26.0796L58.7221 25.9665L58.5833 25.8606L58.4398 25.7595L58.2867 25.6656L58.1311 25.579L57.9709 25.4996L57.8034 25.4274L57.6335 25.3648L57.4589 25.3095L57.2771 25.2637L57.0952 25.2277L56.9086 25.2012L56.7172 25.1843L56.5258 25.1795L56.332 25.1843L56.1359 25.1988L55.9397 25.2252L55.7435 25.2613L55.5425 25.3095L55.344 25.3672L55.1454 25.4346L54.9444 25.514L54.7602 25.5934C54.2937 25.798 54.0808 26.3443 54.2841 26.8136C54.4803 27.2925 55.0234 27.5066 55.4899 27.3021Z" fill="#673065"/>
<path d="M4.39728 33.4315L4.20828 33.4796L4.00731 33.5398L3.81353 33.6048L3.62213 33.6746L3.43552 33.7516L3.2537 33.8334L3.07666 33.92L2.9044 34.0139L2.73693 34.1126L2.57425 34.216L2.41635 34.3243L2.26323 34.4374L2.1149 34.553L1.97136 34.6757L1.83499 34.8008L1.70341 34.9284L1.57661 35.0607L1.44502 35.2075L1.22492 35.4771L1.01439 35.7707L0.827779 36.0739L0.657917 36.3843L0.507194 36.7044L0.378003 37.0269L0.267952 37.3542L0.174647 37.6887L0.102874 38.0232L0.0478485 38.3601L0.0119621 38.6994L0 39.0435V39.3805L0.0191394 39.7174L0.0574182 40.0495L0.112444 40.3768L0.186609 40.7016L0.279914 41.0169L0.392358 41.3273L0.526334 41.6306L0.679449 41.9217L0.851703 42.2009L1.04788 42.4704L1.2632 42.7231L1.49766 42.959L1.75604 43.178L2.01681 43.3633L2.1795 43.4643L2.33261 43.5486L2.48812 43.6256L2.64841 43.6954L2.81349 43.7603L2.98096 43.8157L3.15322 43.8662L3.33026 43.9095L3.50969 43.9432L3.69151 43.9697L3.87812 43.989L4.06712 44.001L4.25852 44.0058L4.4547 44.0034L4.65087 43.9914L4.84945 43.9721L5.05041 43.9456L5.25377 43.9095L5.45951 43.8662L5.66766 43.8157L5.8758 43.7579L6.08633 43.6905L6.30165 43.6159L6.505 43.5389C7.00741 43.3464 7.25862 42.7785 7.06483 42.2755C6.87105 41.7725 6.30883 41.5175 5.80642 41.7124L5.63177 41.7798L5.47626 41.8351L5.32315 41.8832L5.17482 41.9266L5.03127 41.9627L4.89251 41.9915L4.75614 42.0156L4.62695 42.0324L4.50015 42.0445L4.37814 42.0517L4.2633 42.0541L4.15086 42.0517L4.04081 42.0445L3.93793 42.0349L3.83745 42.0204L3.73936 42.0012L3.64606 41.9795L3.55514 41.953L3.46662 41.9242L3.38289 41.8929L3.30155 41.8568L3.2226 41.8183L3.14604 41.7774L3.08862 41.7437L2.92833 41.633L2.79675 41.5223L2.66995 41.3971L2.55033 41.26L2.44027 41.1132L2.3374 40.9495L2.24409 40.7762L2.16036 40.5933L2.08619 40.3984L2.0216 40.1939L1.96897 39.9845L1.92829 39.7655L1.89959 39.5393L1.88284 39.3107L1.88045 39.0772L1.89002 38.8414L1.91155 38.6055L1.94743 38.3673L1.99528 38.1315L2.05509 37.9004L2.12926 37.6694L2.21539 37.4432L2.31348 37.2242L2.42831 37.01L2.55511 36.8031L2.69387 36.6081L2.85656 36.4084L2.92833 36.329L3.01206 36.2423L3.10058 36.1557L3.1915 36.0715L3.2848 35.9921L3.38289 35.915L3.48337 35.8404L3.58625 35.7683L3.6939 35.6985L3.80635 35.6311L3.92118 35.5685L4.04081 35.5083L4.16521 35.453L4.28962 35.4001L4.4212 35.3519L4.55757 35.3062L4.69633 35.2653L4.85423 35.2244C5.34707 35.0968 5.64373 34.5915 5.51693 34.0957C5.39253 33.6024 4.89012 33.304 4.39728 33.4315Z" fill="#673065"/>
</g>
<defs>
<clipPath id="clip0_1182_381">
<rect width="71" height="97" fill="white"/>
</clipPath>
</defs>
</svg>
