<svg width="91" height="99" viewBox="0 0 91 99" fill="none" xmlns="http://www.w3.org/2000/svg">
<g clip-path="url(#clip0_1182_350)">
<path d="M11.2903 58.4743L11.5905 58.2446L11.896 58.0202L12.2148 57.7958L12.5442 57.5687L12.8843 57.3443L13.2349 57.1199L13.5962 56.8954L13.9681 56.6736L14.3507 56.4519L14.7412 56.2301L15.1397 56.0109L15.5461 55.7944L15.9605 55.5779L16.3803 55.3667L16.808 55.1555L17.241 54.9495L17.6793 54.7462L18.1203 54.5482L18.5719 54.3528L19.0209 54.1575L19.4778 53.97L19.9347 53.7852L20.397 53.6083L20.8592 53.4314L21.3241 53.2624L21.789 53.0934L22.2566 52.9376L22.7241 52.7819L23.189 52.6367L23.6592 52.4914L24.1214 52.3541L24.5837 52.2248L25.0433 52.1007L25.5002 51.9845L25.9545 51.8736L26.4061 51.7706L26.8524 51.6756L27.2934 51.5885L27.7317 51.5093L28.1621 51.4353L28.5871 51.372L29.0068 51.3165L29.4186 51.269L29.8224 51.232L30.2182 51.203L30.6034 51.1819L30.978 51.1713L31.3579 51.1687C31.9556 51.166 32.4364 50.6828 32.4338 50.0888C32.4311 49.4947 31.945 49.0168 31.3473 49.0195L30.9408 49.0221L30.5131 49.0353L30.0801 49.0591L29.6391 49.0934L29.1928 49.1356L28.7412 49.1884L28.2843 49.2492L27.822 49.3205L27.3571 49.3997L26.8869 49.4868L26.414 49.5818L25.9385 49.6848L25.4603 49.7957L24.9715 49.9172L24.4881 50.0439L24.0019 50.1786L23.5158 50.3185L23.0269 50.4663L22.5435 50.6221L22.0547 50.7779L21.5658 50.9469L21.0797 51.1159L20.5936 51.2954L20.1101 51.4749L19.6292 51.665L19.1484 51.8551L18.6729 52.0532L18.1973 52.2512L17.7298 52.4598L17.2649 52.6657L16.8 52.8796L16.3431 53.0961L15.8915 53.3152L15.4452 53.537L15.0042 53.7614L14.5712 53.9885L14.1461 54.2182L13.7264 54.4505L13.3146 54.6855L12.9108 54.9231L12.515 55.1608L12.1298 55.401L11.7526 55.6439L11.386 55.8868L11.03 56.1324L10.6846 56.3779L10.3499 56.6235L10.0338 56.8664C9.58482 57.2096 9.50247 57.8486 9.84782 58.2921C10.1985 58.7357 10.8414 58.8176 11.2903 58.4743Z" fill="#673065"/>
<path d="M22.7427 51.739L22.7958 51.5489L22.8463 51.3482L22.8915 51.1502L22.9287 50.9522L22.9605 50.7568L22.9871 50.5482L23.019 50.1786L23.027 49.7984L23.0084 49.4287L22.9658 49.067L22.8994 48.7106L22.8091 48.3673L22.6949 48.0346L22.5567 47.7125L22.4 47.4063L22.2247 47.1105L22.0281 46.8254L21.8156 46.5561L21.5898 46.3L21.3454 46.0544L21.0877 45.8247L20.8194 45.6056L20.5378 45.3996L20.2455 45.2069L19.9427 45.0221L19.6292 44.8478L19.3078 44.6868L18.9784 44.5336L18.6383 44.3911L18.293 44.259L17.9397 44.135L17.5784 44.0188L17.2118 43.9105L16.8399 43.8102L16.4626 43.7178L16.0801 43.6359L15.6949 43.5594L15.3044 43.4907L14.9112 43.43L14.5154 43.3772L14.1169 43.3323L13.7158 43.2953L13.3146 43.2637L12.9108 43.2399L12.507 43.2241L12.1032 43.2135L11.6994 43.2109L11.2983 43.2135L10.8972 43.2214L10.4987 43.2373L10.1029 43.261L9.70968 43.2901L9.31917 43.3244L8.93397 43.364L8.55143 43.4115L8.1742 43.4643L7.80228 43.5224L7.43568 43.5884L7.07439 43.6597L6.72107 43.7363L6.37572 43.8287L6.03568 43.9184L5.70361 44.0135L5.37951 44.1138L5.06338 44.2221L4.75788 44.3356L4.46035 44.4544L4.17344 44.5812L3.89716 44.7158L3.63151 44.8584L3.37382 45.0089L3.12942 45.1673L2.89564 45.3336L2.67249 45.5132L2.46528 45.7033L2.27135 45.9066L2.09071 46.1257L1.93132 46.3581L1.79318 46.6063L1.67629 46.8729L1.59128 47.1502L1.53549 47.4379L1.51158 47.7389L1.52486 48.0373L1.57003 48.333L1.64972 48.6287L1.75864 48.9112L1.89412 49.1858L2.05883 49.4551L2.23416 49.7007L2.34574 49.8406L2.45466 49.9673L2.56889 50.0914L2.68843 50.2155L2.81329 50.3396L2.94346 50.4611L3.07894 50.5799L3.2224 50.7013L3.37116 50.8201L3.52524 50.939L3.68729 51.0578L3.85466 51.1766L4.02733 51.2954L4.20798 51.4142L4.39393 51.533L4.58521 51.6492L4.78445 51.768L4.98369 51.8815C5.50171 52.1746 6.16319 51.9951 6.45807 51.4802C6.75295 50.9654 6.5723 50.3079 6.05428 50.0149L5.86832 49.9092L5.69564 49.8089L5.53094 49.7086L5.3742 49.6109L5.22543 49.5132L5.08464 49.4182L4.94915 49.3231L4.82164 49.2307L4.70209 49.1383L4.59052 49.0485L4.48691 48.9614L4.38862 48.8743L4.2983 48.7898L4.21595 48.7079L4.13891 48.6287L4.06718 48.5521L4.00342 48.4782L3.9556 48.4201L3.84669 48.2723L3.77496 48.1561L3.72183 48.0505L3.68729 47.9607L3.6687 47.8894L3.65807 47.8261L3.65541 47.7706L3.65807 47.7231L3.6687 47.6703L3.68464 47.6148L3.7112 47.5568L3.75105 47.4855L3.80418 47.4063L3.87325 47.3218L3.96357 47.2294L4.06984 47.1317L4.19204 47.0313L4.33549 46.9284L4.49488 46.8254L4.67022 46.7224L4.86414 46.6195L5.07135 46.5165L5.29185 46.4188L5.52828 46.3211L5.778 46.2261L6.03834 46.1363L6.31196 46.0492L6.59621 45.9673L6.88843 45.8881L7.19128 45.8142L7.50209 45.7455L7.82088 45.6822L8.14763 45.6214L8.48236 45.566L8.8224 45.5158L9.16775 45.4709L9.51841 45.4313L9.87173 45.397L10.2304 45.368L10.5917 45.3442L10.9556 45.3284L11.3222 45.3178L11.6915 45.3125H12.0607L12.43 45.3204L12.7992 45.3336L13.1659 45.3521L13.5325 45.3785L13.8964 45.4102L14.255 45.4498L14.611 45.4947L14.9643 45.5449L15.3123 45.6029L15.655 45.6663L15.9924 45.7376L16.3218 45.8142L16.6459 45.8987L16.9621 45.9884L17.2676 46.0861L17.5651 46.1891L17.8547 46.3L18.1309 46.4162L18.3966 46.5376L18.6516 46.6643L18.8934 46.7964L19.1245 46.9363L19.3423 47.0815L19.5442 47.2294L19.7355 47.3825L19.9135 47.5409L20.0755 47.702L20.2243 47.8683L20.3598 48.0399L20.4793 48.2115L20.5856 48.3911L20.6812 48.5759L20.7609 48.7634L20.8273 48.9614L20.8831 49.1647L20.923 49.3759L20.9495 49.5977L20.9602 49.83L20.9548 50.0729L20.9309 50.3449L20.915 50.4637L20.8937 50.5984L20.8672 50.7383L20.8353 50.8809L20.7981 51.0261L20.7529 51.1871C20.6015 51.7284 20.9177 52.2881 21.4622 52.4413C22.0254 52.5944 22.5913 52.2802 22.7427 51.739Z" fill="#673065"/>
<path d="M6.6945 47.8472L6.47135 48.1614L6.24554 48.4888L6.02239 48.8241L5.79924 49.1673L5.57875 49.5158L5.35825 49.8723L5.14042 50.234L4.92524 50.6036L4.71271 50.9786L4.50019 51.3588L4.29032 51.7442L4.08311 52.1376L3.88121 52.5337L3.67932 52.9324L3.48273 53.339L3.28615 53.7456L3.09753 54.1601L2.90892 54.5746L2.72827 54.9944L2.54763 55.4169L2.37495 55.8446L2.20228 56.2723L2.04023 56.7053L1.87818 57.1357L1.72676 57.5713L1.57268 58.007L1.43188 58.4453L1.28843 58.8836L1.15825 59.3218L1.03074 59.7575L0.908539 60.2011L0.794307 60.642L0.688046 61.0803L0.587097 61.5186L0.494118 61.9569L0.409108 62.3951L0.329412 62.8308L0.257685 63.2664L0.196584 63.6994L0.140797 64.1298L0.0956357 64.5602L0.058444 64.9853L0.029222 65.4077L0.0106262 65.8301L0 66.2473V66.6618L0.0106262 67.0737L0.0318786 67.4856L0.0664137 67.8737L0.122201 68.2618L0.196584 68.6368L0.286907 69.0038L0.398482 69.3628L0.525996 69.7087L0.66945 70.0467L0.828842 70.3741L1.00417 70.6883L1.19279 70.9919L1.39734 71.2876L1.61252 71.5701L1.84099 71.8394L2.08273 72.0982L2.3351 72.3437L2.59545 72.5787L2.86907 72.8031L3.14801 73.0117L3.43491 73.2097L3.73245 73.3972L4.03529 73.5714L4.34611 73.7325L4.6649 73.883L4.98634 74.0203L5.31309 74.1444L5.64782 74.2579L5.9852 74.3583L6.32524 74.448L6.67059 74.5246L7.01594 74.588L7.36395 74.6408L7.71727 74.6804L8.06793 74.7068L8.42125 74.7226L8.77723 74.7253L9.13055 74.7147L9.48387 74.6909L9.83719 74.654L10.1879 74.6038L10.5359 74.5404L10.8839 74.4639L11.2266 74.3741L11.5666 74.2711L11.904 74.1523L12.2361 74.0203L12.5628 73.8751L12.8869 73.714L13.1818 73.5503C13.7025 73.2599 13.8858 72.6051 13.5935 72.0876C13.3013 71.5701 12.6425 71.3879 12.1218 71.6784L11.8694 71.8183L11.633 71.9371L11.3886 72.0454L11.1389 72.1457L10.8865 72.2355L10.6288 72.3147L10.3658 72.3833L10.1028 72.4414L9.83454 72.4889L9.56357 72.5285L9.2926 72.5576L9.01632 72.5761L8.74004 72.584L8.46641 72.5813L8.19013 72.5708L7.91385 72.5497L7.64023 72.518L7.3666 72.4784L7.09564 72.4282L6.82732 72.3701L6.56167 72.3015L6.29867 72.2223L6.04099 72.1351L5.78862 72.0374L5.5389 71.9318L5.29715 71.8183L5.06072 71.6942L4.8296 71.5648L4.60645 71.4275L4.39127 71.2797L4.1814 71.1239L3.98216 70.9628L3.79089 70.7912L3.60759 70.6143L3.43491 70.4295L3.27021 70.2368L3.11613 70.0361L2.97268 69.8302L2.83719 69.6163L2.71233 69.3945L2.60076 69.1675L2.49981 68.9298L2.40949 68.6843L2.33776 68.4361L2.27135 68.1747L2.21556 67.9054L2.17571 67.6282L2.14915 67.3351L2.12789 66.9866L2.11727 66.6301L2.11461 66.2658L2.11992 65.8962L2.13586 65.5212L2.15977 65.141L2.19165 64.7555L2.2315 64.3674L2.27932 63.974L2.3351 63.578L2.39886 63.1793L2.46793 62.7753L2.54497 62.3687L2.62998 61.9621L2.7203 61.5529L2.8186 61.141L2.9222 60.7291L3.03378 60.3199L3.15332 59.9027L3.27287 59.4882L3.40569 59.0737L3.53852 58.6591L3.68197 58.2473L3.82543 57.8327L3.97951 57.4208L4.13359 57.0116L4.29564 56.605L4.45769 56.1984L4.6277 55.7971L4.80038 55.3957L4.97837 54.9997L5.15636 54.6037L5.34232 54.2155L5.52827 53.8274L5.71954 53.4499L5.91347 53.067L6.1074 52.6974L6.30664 52.3304L6.50854 51.9687L6.71044 51.6122L6.91499 51.2637L7.11954 50.9205L7.32676 50.5852L7.53397 50.2578L7.74383 49.9356L7.9537 49.6215L8.16357 49.3152L8.37875 49.0116C8.70285 48.5521 8.59393 47.9185 8.13169 47.5937C7.66945 47.269 7.0186 47.3878 6.6945 47.8472Z" fill="#673065"/>
<path d="M29.5992 49.2941L29.2911 49.3812L28.9723 49.4789L28.6535 49.5818L28.3321 49.6927L28.0106 49.8116L27.6892 49.9356L27.3677 50.065L27.0436 50.2023L26.7195 50.3475L26.3954 50.498L26.0713 50.6564L25.7446 50.8201L25.4258 50.9891L25.1017 51.1607L24.7803 51.3456L24.4588 51.5304L24.1374 51.7258L23.8186 51.9211L23.4998 52.1271L23.181 52.333L22.8649 52.5495L22.5488 52.766L22.2353 52.9931L21.9245 53.2202L21.6163 53.4551L21.3082 53.6901L21.0027 53.9357L20.6971 54.1812L20.397 54.4373L20.0968 54.6908L19.8019 54.9522L19.507 55.2136L19.2175 55.4855L18.9279 55.7575L18.6463 56.0373L18.3647 56.3172L18.0911 56.6024L17.8175 56.8902L17.5518 57.1832L17.2861 57.4763L17.0285 57.7773L16.7708 58.0783L16.5237 58.3846L16.274 58.6908L16.0349 59.005L15.7958 59.3192L15.5674 59.6387L15.3389 59.9555L15.1211 60.2776L14.9032 60.6024L14.696 60.9324L14.4888 61.2625L14.2949 61.5978L14.1036 61.9278L13.9176 62.2684L13.7397 62.609L13.5696 62.9496L13.4049 63.2928L13.2535 63.6308L13.1047 63.9793L12.9639 64.3278L12.8285 64.679L12.7036 65.0301L12.5867 65.3839L12.4778 65.7404L12.3768 66.0968L12.2839 66.4559L12.1989 66.815L12.1245 67.174L12.0581 67.5358L12.0023 67.9001L11.9571 68.2645L11.9199 68.6288L11.8934 68.9932L11.8774 69.3576L11.8721 69.7219L11.8774 70.0889L11.8934 70.4533L11.9199 70.8176L11.9598 71.1846L12.0102 71.549L12.0713 71.9134L12.1457 72.2777L12.2334 72.6394L12.3317 72.9985L12.4433 73.3576L12.5681 73.714L12.7036 74.0678L12.8524 74.4216L13.0144 74.7728L13.1897 75.1213L13.3784 75.4672L13.5803 75.8104L13.7954 76.151L14.0239 76.489L14.2656 76.8216L14.4649 77.0777L14.6641 77.3338L14.874 77.5873L15.0865 77.8434L15.3097 78.0943L15.5302 78.3398L15.7666 78.5906L16.0057 78.8335L16.2501 79.0738L16.4998 79.3088L16.7575 79.5385L17.0205 79.7629L17.2888 79.9821L17.5651 80.1959L17.8467 80.4019L18.1336 80.5999L18.4285 80.7926L18.7286 80.9748L19.0342 81.1491L19.3476 81.3128L19.6664 81.4659L19.9905 81.6085L20.3226 81.7405L20.6573 81.8593L21.0903 81.9966L21.5313 82.126L21.9803 82.2474L22.4345 82.3609L22.8968 82.4666L23.3643 82.5642L23.8372 82.654L24.3154 82.7359L24.7962 82.8124L25.2797 82.8811L25.7658 82.9418L26.252 82.9973L26.7381 83.0474L27.2243 83.0897L27.7078 83.1266L28.1886 83.1583L28.6668 83.1821L29.1423 83.2006L29.6125 83.2138L30.0774 83.2217L30.537 83.2243L30.9886 83.2217L31.4323 83.2138L31.86 83.2006C32.4577 83.1821 32.9252 82.6857 32.904 82.0916C32.8854 81.4976 32.386 81.0329 31.7882 81.054L31.3738 81.0672L30.9567 81.0751L30.529 81.0778L30.096 81.0751L29.6577 81.0672L29.2114 81.054L28.7624 81.0382L28.3108 81.0144L27.8539 80.9854L27.397 80.951L26.94 80.9114L26.4831 80.8665L26.0262 80.8137L25.5719 80.7557L25.1203 80.6923L24.6713 80.621L24.2277 80.5444L23.7894 80.4626L23.359 80.3728L22.9366 80.2778L22.5222 80.1748L22.1157 80.0665L21.7226 79.9504L21.34 79.8289L21.0797 79.7365L20.8247 79.6362L20.5696 79.5226L20.3173 79.4012L20.0702 79.2718L19.8231 79.1319L19.5787 78.984L19.337 78.8283L19.0979 78.6646L18.8615 78.4956L18.6304 78.316L18.4019 78.1312L18.1761 77.9385L17.9556 77.7405L17.7378 77.5372L17.5252 77.3286L17.3154 77.1173L17.1135 76.9035L16.9116 76.6791L16.7123 76.4573L16.5237 76.2329L16.3351 76.0058L16.1571 75.7787L15.9791 75.549L15.7746 75.2691L15.5833 74.9893L15.4027 74.7068L15.2353 74.4243L15.0786 74.1418L14.9324 73.8566L14.797 73.5688L14.6748 73.281L14.5632 72.9906L14.4596 72.7002L14.3693 72.4097L14.2869 72.1167L14.2152 71.8209L14.1541 71.5252L14.1009 71.2269L14.0584 70.9285L14.0239 70.6302L14 70.3292L13.9841 70.0256L13.9787 69.7219L13.9814 69.4156L13.992 69.1094L14.0133 68.8031L14.0425 68.4942L14.0797 68.1853L14.1249 67.8764L14.1806 67.5675L14.2444 67.2559L14.3161 66.947L14.3958 66.6354L14.4835 66.3239L14.5791 66.0123L14.6827 65.7008L14.7916 65.3892L14.9085 65.0777L15.0334 64.7661L15.1662 64.4546L15.3044 64.1456L15.4505 63.8367L15.6019 63.5278L15.7613 63.2215L15.926 62.9179L16.104 62.609L16.2793 62.3054L16.4653 62.0044L16.6512 61.7034L16.8505 61.4077L17.0497 61.1093L17.2596 60.8136L17.4694 60.5205L17.6899 60.2327L17.9104 59.9423L18.1389 59.6598L18.37 59.3747L18.6091 59.0948L18.8482 58.8149L19.0953 58.543L19.3423 58.2684L19.5973 58.0017L19.8524 57.735L20.1154 57.4737L20.3757 57.2123L20.644 56.9588L20.9123 56.7053L21.186 56.4598L21.4596 56.2142L21.7385 55.9766L22.0175 55.739L22.3017 55.5093L22.586 55.2796L22.8729 55.0604L23.1624 54.8387L23.4546 54.6274L23.7442 54.4162L24.0364 54.2155L24.3286 54.0149L24.6235 53.8248L24.9184 53.6347L25.2159 53.4525L25.5108 53.273L25.8083 53.104L26.1032 52.935L26.3981 52.7792L26.6983 52.6208L26.9905 52.473L27.2854 52.3304L27.5803 52.1931L27.8725 52.0611L28.162 51.937L28.4516 51.8182L28.7412 51.7073L29.0281 51.6017L29.3123 51.504L29.5939 51.4116L29.8729 51.3271L30.1598 51.2452C30.7044 51.0921 31.0205 50.5297 30.8664 49.9911C30.7123 49.4525 30.1438 49.1409 29.5992 49.2941Z" fill="#673065"/>
<path d="M36.129 84.6025L35.8182 84.3306L35.5207 84.0639L35.2311 83.7946L34.9495 83.5253L34.6759 83.2534L34.4102 82.9788L34.1499 82.7042L33.8975 82.4296L33.6531 82.1524L33.4167 81.8725L33.1882 81.5926L32.9677 81.3101L32.7526 81.0276L32.5453 80.7451L32.3461 80.4599L32.1522 80.1748L31.9662 79.8896L31.7882 79.6018L31.6156 79.3141L31.4509 79.0263L31.2941 78.7358L31.1427 78.4454L30.9992 78.155L30.8611 77.8619L30.7309 77.5688L30.6061 77.2758L30.4892 76.9801L30.3776 76.6843L30.274 76.3886L30.1757 76.0903L30.0827 75.7919L29.9977 75.4936L29.918 75.1926L29.8436 74.8916L29.7772 74.5906L29.7161 74.2896L29.6603 73.9886L29.6125 73.6876L29.57 73.384L29.5328 73.0804L29.5009 72.7767L29.477 72.4731L29.4584 72.1695L29.4452 71.8658L29.4372 71.5596L29.4345 71.2533L29.4372 70.947L29.4478 70.646L29.4664 70.3345L29.4824 70.0282L29.5116 69.7219L29.5408 69.4156L29.5806 69.1094L29.6205 68.8005L29.671 68.4915L29.7214 68.1853L29.7825 67.879L29.8436 67.5727L29.9154 67.2665L29.9871 66.9575L30.0694 66.6513L30.1518 66.345L30.2448 66.0387L30.3378 65.7325L30.4414 65.4288L30.545 65.1225L30.6565 64.8163L30.7681 64.5126L30.8903 64.209L31.0125 63.9054L31.1453 63.6044L31.2782 63.3008L31.419 62.9998L31.5598 62.6988L31.7112 62.4004L31.8626 62.0994L32.022 61.8011L32.1841 61.5027L32.3541 61.2044L32.5241 60.9087L32.7021 60.6156L32.8801 60.3199L33.0687 60.0268L33.2573 59.7337L33.4539 59.4433L33.6505 59.1529L33.855 58.8651L34.0596 58.5773L34.2721 58.2921L34.4873 58.007L34.7104 57.7245L34.9309 57.442L35.162 57.1621L35.3905 56.8822L35.6296 56.605L35.8767 56.3198C36.2645 55.8684 36.2114 55.1898 35.7571 54.8043C35.3028 54.4188 34.6201 54.4716 34.2323 54.9231L33.9879 55.2083L33.7355 55.504L33.4911 55.8024L33.2467 56.1007L33.0102 56.4043L32.7738 56.7053L32.5453 57.0116L32.3169 57.3179L32.0964 57.6268L31.8759 57.9357L31.666 58.2473L31.4562 58.5588L31.2543 58.873L31.0524 59.1898L30.8584 59.5093L30.6645 59.8288L30.4812 60.1509L30.2979 60.4704L30.1252 60.7925L29.9526 61.1172L29.7879 61.4446L29.6231 61.772L29.4691 62.1021L29.3176 62.4295L29.1742 62.7595L29.0307 63.0922L28.8979 63.4248L28.7651 63.7575L28.6429 64.0928L28.5207 64.4282L28.4091 64.7635L28.2975 65.1014L28.1966 65.4394L28.0956 65.7773L28.0053 66.1179L27.9176 66.4559L27.8406 66.7938L27.7636 67.1344L27.6972 67.4777L27.6307 67.8209L27.5776 68.1642L27.5245 68.5047L27.482 68.8453L27.4395 69.1886L27.4102 69.5318L27.381 69.8751L27.3624 70.2209L27.3465 70.5589L27.3385 70.9074L27.3359 71.2533L27.3412 71.5965L27.3518 71.9398L27.3704 72.283L27.3943 72.6262L27.4235 72.9695L27.4607 73.3127L27.5059 73.6559L27.5564 73.9965L27.6148 74.3398L27.6786 74.6804L27.7503 75.021L27.8273 75.3616L27.9123 75.6995L28.0027 76.0375L28.1009 76.3754L28.2072 76.7107L28.3188 77.0461L28.4383 77.3814L28.5658 77.714L28.6987 78.0467L28.8395 78.3794L28.9882 78.7094L29.1423 79.0368L29.3044 79.3642L29.4744 79.689L29.6524 80.0137L29.8383 80.3385L30.0296 80.6606L30.2288 80.9801L30.4361 81.2996L30.6512 81.6164L30.8744 81.9306L31.1055 82.2448L31.3419 82.5563L31.5863 82.8652L31.8387 83.1741L32.099 83.4804L32.3674 83.7841L32.6436 84.0851L32.9279 84.386L33.2175 84.6844L33.5176 84.9801L33.8258 85.2732L34.1393 85.5636L34.4634 85.854L34.7875 86.1365C35.2125 86.5062 35.8607 86.4613 36.23 86.0389C36.5992 85.6164 36.5541 84.9722 36.129 84.6025Z" fill="#673065"/>
<path d="M25.2213 80.6553L25.107 80.3411L24.9981 80.0375L24.8972 79.7259L24.7989 79.417L24.7112 79.1055L24.6235 78.7913L24.5465 78.485L24.4774 78.1787L24.4137 77.8725L24.3552 77.5715L24.3074 77.2758L24.2675 76.9642C24.1905 76.3754 23.6459 75.9635 23.0535 76.0401C22.4611 76.1167 22.0467 76.6579 22.1237 77.2467L22.1715 77.5952L22.2353 77.9596L22.3097 78.3187L22.3973 78.6725L22.493 79.0236L22.5992 79.3748L22.7108 79.7127L22.8224 80.0507L22.9419 80.386L23.0588 80.716L23.1784 81.0408L23.2953 81.355C23.4892 81.8831 24.0763 82.155 24.6076 81.9649C25.1389 81.7642 25.4152 81.1807 25.2213 80.6553Z" fill="#673065"/>
<path d="M23.9036 73.9781L23.8585 73.5107L23.8319 73.0592L23.8239 72.6051L23.8266 72.1536L23.8345 71.7021L23.8505 71.2348C23.8664 70.6407 23.3962 70.147 22.8011 70.1312C22.2034 70.1153 21.7066 70.5827 21.6907 71.1741L21.6801 71.6704L21.6881 72.18L21.7173 72.6869L21.7598 73.1912L21.8103 73.6955L21.866 74.1866C21.9245 74.7464 22.4266 75.1503 22.9898 75.0923C23.5529 75.0368 23.9621 74.5352 23.9036 73.9781Z" fill="#673065"/>
<path d="M24.6156 67.7232L24.6395 67.4434L24.6687 67.174L24.7085 66.9047L24.7564 66.6354L24.8121 66.3688L24.8759 66.1021L24.945 65.8381L25.0194 65.5767L25.0991 65.3179L25.1814 65.0618L25.2691 64.8136L25.3674 64.5549C25.5746 63.9978 25.2903 63.38 24.7298 63.174C24.1693 62.9681 23.5476 63.2506 23.3404 63.805L23.2342 64.0955L23.1306 64.4044L23.0376 64.7159L22.9552 65.0301L22.8808 65.347L22.8171 65.6664L22.7613 65.9859L22.7135 66.3054L22.671 66.6249L22.6338 66.9417L22.6019 67.2585L22.578 67.5622C22.5328 68.1219 22.9526 68.613 23.5184 68.6552C24.0763 68.7028 24.5704 68.283 24.6156 67.7232Z" fill="#673065"/>
<path d="M26.5203 61.2783L26.523 61.2757L26.5283 61.2677L26.5362 61.2519L26.5495 61.2308L26.5655 61.2044L26.5841 61.1727L26.6319 61.0961L26.6903 61.0011L26.7594 60.8902L26.8364 60.7661L26.9241 60.6288L27.0171 60.4809L27.1154 60.3225L27.2216 60.1588L27.3332 59.9898L27.5617 59.6387L27.7928 59.2849L28.0159 58.939L28.1222 58.7727L28.2232 58.6143L28.3188 58.4664L28.4065 58.3291L28.4862 58.205L28.5579 58.0941C28.8793 57.5925 28.7306 56.9298 28.2258 56.6103C27.7211 56.2908 27.0543 56.4387 26.7328 56.9403L26.6611 57.0565L26.5788 57.1885L26.4884 57.3311L26.3928 57.4842L26.2918 57.6479L26.1882 57.8195L25.9757 58.176L25.7605 58.5456L25.548 58.91L25.4444 59.0869L25.3461 59.2558L25.2505 59.4169L25.1602 59.5674L25.0778 59.7073L25.0008 59.8341L24.9317 59.9476L24.8732 60.0426L24.8281 60.1192L24.8095 60.1509L24.7936 60.1773L24.7803 60.1984L24.7723 60.2143L24.767 60.2222L24.7643 60.2248C24.4721 60.7054 24.6262 61.3311 25.1097 61.6215C25.5958 61.912 26.2254 61.7588 26.5203 61.2783Z" fill="#673065"/>
<path d="M30.622 55.2875L30.699 55.1792L30.7655 55.0948L30.8345 55.0129L30.9089 54.9337L30.986 54.8598L31.055 54.799L31.2436 54.6485L31.4349 54.5192L31.6474 54.3924L31.8759 54.2683L32.1203 54.1443L32.3806 54.0149L32.6543 53.8776L32.9412 53.735L33.2307 53.5872C33.7594 53.3099 33.9613 52.6604 33.685 52.1376C33.4061 51.6122 32.7526 51.4116 32.2266 51.6862L31.9503 51.834L31.6767 51.9766L31.3977 52.1218L31.1161 52.2749L30.8292 52.4386L30.5423 52.6182L30.2554 52.8136L29.9712 53.0301L29.7082 53.2571L29.5594 53.3971L29.4266 53.5343L29.2964 53.6769L29.1715 53.8274L29.0493 53.9885L28.9457 54.1363C28.6243 54.5984 28.7412 55.232 29.2061 55.5515C29.663 55.8657 30.3006 55.7495 30.622 55.2875Z" fill="#673065"/>
<path d="M61.0023 85.8435L61.26 85.7009L61.5256 85.5478L61.786 85.3894L62.041 85.2257L62.2934 85.0567L62.5431 84.8798L62.7795 84.7029L63.0213 84.5233L63.255 84.3332L63.4862 84.1431L63.7093 83.9451L63.9325 83.7471L64.1476 83.5412L64.3628 83.3352L64.57 83.1213L64.7772 82.9075L64.9791 82.6857L65.1784 82.4666L65.3723 82.2395L65.5662 82.0124L65.7522 81.7774L65.9381 81.5425L66.1161 81.2996L66.2941 81.0593L66.4668 80.8137L66.6395 80.5682L66.8042 80.3147L66.9689 80.0613L67.1283 79.8025L67.2877 79.5464L67.4417 79.285L67.5958 79.0236L67.7446 78.757L67.8934 78.4903L68.0368 78.2183L68.1776 77.949L68.3158 77.6744L68.4539 77.3999L68.5867 77.1226L68.7195 76.8454L68.8471 76.5629L68.9746 76.283L69.0968 76.0005L69.219 75.718L69.3385 75.4329L69.4554 75.1477L69.5696 74.8599L69.6839 74.5721L69.7928 74.2817L69.9044 73.9913L70.0106 73.6982L70.1169 73.4078L70.2205 73.1147L70.3241 72.8216L70.4224 72.5285L70.5233 72.2355L70.619 71.9398L70.7146 71.6467L70.8076 71.3536L70.9006 71.0579L70.9909 70.7622L71.0786 70.4718L71.1662 70.1813L71.2566 69.8856L71.3416 69.5899L71.4239 69.2995L71.5063 69.009L71.5913 68.716L71.6736 68.4229L71.7533 68.1351L71.833 67.8473L71.9127 67.5569L71.9898 67.2691L72.0668 66.9839L72.1438 66.6988L72.2209 66.4136L72.2953 66.1338L72.3696 65.8539L72.444 65.574L72.5184 65.2942L72.5901 65.0222L72.6619 64.7476L72.7336 64.4757L72.8053 64.2037L72.877 63.9371L72.9488 63.6704L73.0205 63.409L73.0922 63.1476L73.164 62.8915L73.2357 62.6354L73.3074 62.3819L73.3791 62.1311L73.5226 61.6374L73.666 61.1516C73.8361 60.5839 73.5093 59.9846 72.9355 59.8182C72.3617 59.6492 71.7613 59.974 71.5939 60.5443L71.4478 61.038L71.3017 61.545L71.23 61.8037L71.1583 62.0625L71.0865 62.3238L71.0148 62.5852L70.9431 62.8519L70.8714 63.1186L70.7996 63.3879L70.7279 63.6572L70.6562 63.9318L70.5844 64.2037L70.5127 64.4783L70.441 64.7529L70.3666 65.0328L70.2922 65.3126L70.2178 65.5925L70.1435 65.8697L70.0691 66.1523L69.992 66.4374L69.9177 66.7226L69.8433 67.0024L69.7662 67.2876L69.6865 67.5754L69.6095 67.8632L69.5325 68.1457L69.4528 68.4308L69.3704 68.7213L69.2881 69.0117L69.2084 69.2942L69.1233 69.5767L69.0383 69.8671L68.9533 70.1576L68.8683 70.4427L68.7807 70.7279L68.693 71.013L68.6027 71.2982L68.5123 71.5833L68.4194 71.8658L68.3264 72.1483L68.2307 72.4308L68.1351 72.7134L68.0342 72.9932L67.9332 73.2731L67.8296 73.5503L67.726 73.8276L67.6197 74.1021L67.5135 74.3767L67.4046 74.6487L67.2956 74.9206L67.1814 75.1899L67.0672 75.4592L66.9503 75.7259L66.8334 75.9899L66.7112 76.2513L66.589 76.5127L66.4641 76.7688L66.3393 77.0249L66.2091 77.2784L66.0789 77.5292L65.9435 77.7748L65.808 78.0203L65.6672 78.2606L65.5264 78.5009L65.3829 78.7385L65.2395 78.9735L65.0907 79.2032L64.9419 79.4329L64.7879 79.6547L64.6338 79.8791L64.4744 80.0982L64.315 80.3147L64.1503 80.5233L63.9856 80.7319L63.8156 80.9352L63.6455 81.1385L63.4702 81.3339L63.2949 81.5293L63.1142 81.7167L62.9336 81.9042L62.7476 82.0837L62.559 82.2633L62.3651 82.4349L62.1738 82.6065L61.9746 82.7702L61.7753 82.9339L61.5681 83.087L61.3583 83.2454L61.151 83.3907L60.9385 83.5332L60.7207 83.6732L60.5002 83.8078L60.277 83.9372L60.038 84.0666C59.5438 84.3385 59.3632 84.9563 59.6368 85.4474C59.8839 85.9359 60.5055 86.1154 61.0023 85.8435Z" fill="#673065"/>
<path d="M67.4683 74.918L67.4736 75.182L67.4869 75.4777L67.5082 75.784L67.5347 76.1008L67.5639 76.4309L67.5985 76.7688L67.6357 77.1147L67.6729 77.4685L67.7074 77.8249L67.7419 78.184L67.7765 78.5457L67.8083 78.9048L67.8349 79.2665L67.8615 79.6203L67.8774 79.9662L67.8934 80.3042L67.896 80.6236L67.8987 80.9457L67.8907 81.2362L67.8748 81.5108L67.8482 81.7642L67.8137 81.9913L67.7712 82.184L67.7101 82.3873C67.5427 82.9576 67.8748 83.5543 68.4459 83.718C69.0197 83.8844 69.6175 83.5543 69.7848 82.9867L69.8672 82.7015L69.9362 82.3662L69.9867 82.0256L70.0212 81.6797L70.0398 81.3233L70.0478 80.9563L70.0398 80.592L70.0292 80.225L70.0027 79.8448L69.9761 79.4698L69.9389 79.0896L69.9017 78.7147L69.8592 78.3372L69.814 77.9649L69.7689 77.5979L69.7237 77.2388L69.6812 76.8903L69.6414 76.5523L69.6042 76.2276L69.5723 75.9187L69.5484 75.6282L69.5298 75.3589L69.5165 75.116L69.5112 74.881C69.5006 74.3186 69.0357 73.8724 68.4698 73.8804C67.9093 73.8936 67.4603 74.3556 67.4683 74.918Z" fill="#673065"/>
<path d="M71.8144 60.7714L71.9419 61.0671L72.0695 61.3601L72.1917 61.6479L72.3139 61.9357L72.4307 62.2182L72.5503 62.5007L72.6645 62.7806L72.7788 63.0605L72.8877 63.3351L72.9966 63.6097L73.1029 63.879L73.2091 64.1509L73.3101 64.4176L73.411 64.6843L73.5093 64.9483L73.6076 65.2123L73.7006 65.4737L73.7936 65.7351L73.8839 65.9938L73.9742 66.2499L74.0592 66.5034L74.1442 66.7569L74.2266 67.0077L74.3089 67.2585L74.3886 67.5094L74.4683 67.7602L74.5427 68.0084L74.6171 68.2539L74.7605 68.7477L74.896 69.2361L75.0262 69.7219L75.1484 70.2051L75.2653 70.6883L75.3769 71.1688L75.4805 71.6493L75.5788 72.1272L75.6717 72.6051L75.7567 73.083L75.8364 73.5688L75.9161 74.0493L75.9852 74.5351L76.0543 75.021L76.1127 75.5121L76.1712 76.0084L76.2216 76.5022L76.2668 77.0038L76.3093 77.5107L76.3465 78.023L76.3784 78.5405L76.3917 78.8018L76.4049 79.0632L76.4182 79.3273L76.4315 79.5913L76.4421 79.8606L76.4528 80.1299L76.4607 80.4019L76.4687 80.6738L76.4767 80.951L76.482 81.2283L76.4873 81.5081L76.4926 81.788L76.4953 82.0732L76.4979 82.3583L76.5006 82.6487L76.5032 82.9392V83.2349V83.5306L76.5006 83.8316L76.4979 84.1326L76.4953 84.4388L76.4926 84.7451L76.4873 85.0567L76.482 85.3682L76.4767 85.6851L76.4714 86.0045C76.4607 86.5986 76.9336 87.0871 77.5313 87.1003C78.129 87.1108 78.6205 86.6408 78.6338 86.0468L78.6391 85.7273L78.6444 85.4052L78.6497 85.0884L78.655 84.7715L78.6577 84.46L78.6603 84.1484L78.663 83.8421L78.6657 83.5359V83.2349V82.9339L78.663 82.6382L78.6603 82.3425L78.6577 82.0494L78.655 81.7563L78.6497 81.4685L78.6444 81.1807L78.6364 80.8982L78.6285 80.6131L78.6178 80.3332L78.6072 80.0533L78.5966 79.7761L78.586 79.4989L78.5727 79.2243L78.5594 78.9497L78.5435 78.6777L78.5275 78.4058L78.4903 77.8698L78.4478 77.3391L78.4027 76.8137L78.3522 76.2909L78.2964 75.7708L78.2326 75.2612L78.1689 74.7464L78.0945 74.2368L78.0201 73.7272L77.9325 73.2229L77.8474 72.7213L77.7518 72.217L77.6509 71.7153L77.5446 71.2137L77.4304 70.712L77.3108 70.2077L77.1833 69.7034L77.0505 69.1991L76.9097 68.6922L76.7636 68.1826L76.6122 67.6731L76.5325 67.4143L76.4528 67.1556L76.3704 66.8968L76.2881 66.6381L76.203 66.3767L76.1154 66.1153L76.0251 65.8513L75.9347 65.5872L75.8418 65.3206L75.7488 65.0539L75.6505 64.7846L75.5522 64.5153L75.4512 64.2433L75.3503 63.9714L75.244 63.6968L75.1378 63.4222L75.0288 63.145L74.9199 62.8677L74.8057 62.5852L74.6915 62.3027L74.5746 62.0176L74.4577 61.7324L74.3355 61.442L74.2133 61.1542L74.0884 60.8611L73.9636 60.5681L73.8334 60.2697L73.7059 59.974C73.4827 59.4591 72.8797 59.2215 72.3617 59.4433C71.8304 59.6572 71.5913 60.2539 71.8144 60.7714Z" fill="#673065"/>
<path d="M55.7556 8.09246L55.4049 8.09774L55.0383 8.10566L54.677 8.12151L54.3157 8.13735L53.9571 8.16375L53.5985 8.19015L53.2452 8.22448L52.8892 8.2588L52.5359 8.30369L52.1852 8.34857L51.8372 8.40138L51.4892 8.45418L51.1465 8.51755L50.8011 8.58092L50.4611 8.6522L50.1211 8.72349L49.7837 8.80534L49.4489 8.88455L49.1169 8.97168L48.7848 9.06145L48.4554 9.15914L48.126 9.25683L47.8019 9.36244L47.4778 9.46805L47.159 9.58158L46.8376 9.69511L46.5214 9.81657L46.2053 9.93802L45.8918 10.0674L45.581 10.1968L45.2729 10.3341L44.9647 10.4714L44.6618 10.6166L44.359 10.7618L44.0588 10.9149L43.7613 11.0654L43.4664 11.2238L43.1715 11.3823L42.882 11.5486L42.5924 11.7149L42.3081 11.8892L42.0239 12.0608L41.745 12.2403L41.4634 12.4199L41.1871 12.6073L40.9108 12.7948L40.6398 12.9875L40.3689 13.1803L40.1032 13.3783L39.8376 13.5763L39.5772 13.7823L39.3169 13.9882L39.0618 14.1994L38.8068 14.4107L38.5571 14.6272L38.3074 14.8437L38.0603 15.0654L37.8159 15.2872L37.5742 15.5143L37.3351 15.7414L37.1013 15.9737L36.8649 16.206L36.6338 16.4437L36.4026 16.6813L36.1768 16.9242L35.9537 17.1671L35.7359 17.4153L35.5154 17.6635L35.3002 17.917L35.0877 18.1704L34.8804 18.4292L34.6732 18.6879L34.4713 18.9493L34.2694 19.2107L34.0729 19.4774L33.8763 19.744L33.685 20.016L33.4937 20.2853L33.3078 20.5599L33.1218 20.8345L32.9412 21.1143L32.7605 21.3942L32.5852 21.6767L32.4125 21.9592L32.2452 22.2444L32.0778 22.5295L31.9157 22.82L31.7537 23.1104L31.597 23.4035L31.4402 23.6965L31.2888 23.9922L31.1347 24.2906L30.9913 24.5916L30.8478 24.8926L30.7097 25.1962L30.5715 25.4972L30.4387 25.8008L30.3059 26.1071L30.181 26.416L30.0562 26.7249L29.9366 27.0365L29.8171 27.3454L29.7028 27.6569L29.5886 27.9685L29.4823 28.2827L29.3761 28.5969L29.2751 28.9137L29.1742 29.2306L29.0812 29.5474L28.9882 29.8669L28.9006 30.189L28.8129 30.5111L28.7332 30.8332L28.6535 31.1553L28.5791 31.4774L28.5047 31.8022L28.4383 32.1269L28.3719 32.4517L28.3108 32.7791L28.2524 33.1038L28.1992 33.4312L28.1461 33.7586L28.1009 34.0887L28.0558 34.4187L28.0159 34.7487L27.9761 35.0788L27.9442 35.4088L27.9123 35.7389L27.8884 36.0715L27.8645 36.4042L27.8459 36.7369L27.8273 37.0669L27.8167 37.3969L27.8061 37.7296L27.8034 38.0623L27.8008 38.395L27.8061 38.7276L27.8114 39.0577L27.822 39.3877L27.8326 39.7204L27.8512 40.0531L27.8698 40.3857L27.8964 40.7184L27.923 41.0485L27.9575 41.3785L27.992 41.7085L28.0345 42.0386L28.077 42.3686L28.1275 42.6986L28.178 43.026L28.2338 43.3534L28.2922 43.6808L28.3586 44.0082L28.425 44.3356L28.4994 44.6604L28.5738 44.9851L28.6535 45.3072L28.7359 45.632L28.8262 45.9541L28.9165 46.2762L29.0148 46.5983L29.1131 46.9178L29.2193 47.2346L29.3256 47.5541L29.4398 47.8709L29.5541 48.1878L29.6763 48.502L29.7985 48.8162L29.9286 49.1277L30.0588 49.4419L30.197 49.7508L30.3351 50.0624L30.4839 50.3687L30.63 50.6749L30.7841 50.9786L30.9408 51.2822L31.1055 51.5832L31.2702 51.8842L31.4429 52.1825L31.6156 52.4809L31.7962 52.7739L31.9795 53.0697L32.1708 53.3601L32.362 53.6505L32.5613 53.9383L32.7605 54.2261L32.9677 54.5086L33.1749 54.7938L33.3928 55.0736L33.6106 55.3535L33.8364 55.6307L34.0622 55.9053L34.2482 56.1192L34.4341 56.333L34.6254 56.5416L34.8167 56.7502L35.0159 56.9535L35.2125 57.1568L35.4144 57.3548L35.619 57.5555L35.8288 57.7509L36.0387 57.9463L36.2539 58.1364L36.4664 58.3265L36.6842 58.5113L36.9021 58.6961L37.1252 58.8783L37.3484 59.0578L37.5742 59.2347L37.8 59.409L38.0285 59.5806L38.2569 59.7522L38.488 59.9186L38.7192 60.0849L38.9529 60.2486L39.1867 60.4096L39.4231 60.5681L39.6596 60.7265L39.8987 60.8796L40.1378 61.0327L40.3795 61.1832L40.6186 61.3337L40.8603 61.479L41.1021 61.6242L41.3438 61.7668L41.5856 61.9093L41.8273 62.0466L42.0691 62.1839L42.3108 62.3186L42.5526 62.4532L42.7943 62.5826L43.036 62.712L43.2778 62.8387L43.5195 62.9654L44.0004 63.2083L44.4785 63.446L44.9541 63.6757L45.2304 63.8024L45.5093 63.9318L45.7909 64.0532L46.0725 64.1747L46.3567 64.2882L46.6383 64.3991L46.9226 64.5047L47.2068 64.6103L47.4937 64.708L47.7806 64.8057L48.0675 64.8955L48.3545 64.9853L48.6414 65.0671L48.9309 65.1489L49.2205 65.2229L49.51 65.2968L49.8023 65.3628L50.0945 65.4288L50.3867 65.4869L50.6789 65.5476L50.9738 65.6004L51.2687 65.6532L51.5662 65.6981L51.8611 65.743L52.1586 65.78L52.4562 65.8169L52.7563 65.8486L53.0565 65.8777L53.3567 65.9014L53.6569 65.9252L53.9571 65.941L54.26 65.9569L54.5628 65.9674L54.8656 65.9754L55.1711 65.978L55.474 65.9806L55.7795 65.9754L56.085 65.9701L56.3932 65.9595L56.7013 65.949L57.0095 65.9305L57.3176 65.912L57.6258 65.8882L57.9366 65.8645L58.2474 65.8328L58.5582 65.8011L58.8717 65.7641L59.1825 65.7272L59.5359 65.6796L59.8918 65.6321L60.2425 65.5793L60.5932 65.5265L60.9385 65.4684L61.2812 65.4103L61.6212 65.3496L61.9613 65.2862L62.296 65.2202L62.6307 65.1542L62.9601 65.0829L63.2896 65.0117L63.6137 64.9377L63.9378 64.8612L64.2565 64.7819L64.5753 64.7027L64.8888 64.6183L65.2023 64.5338L65.5104 64.4466L65.8212 64.3595L66.1267 64.2671L66.4323 64.1747L66.7324 64.077L67.03 63.9793L67.3248 63.879L67.6197 63.7786L67.9093 63.673L68.1989 63.5674L68.4831 63.4592L68.7674 63.3509L69.0463 63.2374L69.3279 63.1239L69.6042 63.0077L69.8804 62.8915L70.1514 62.7701L70.4224 62.6486L70.688 62.5245L70.9537 62.4004L71.214 62.271L71.4744 62.1417L71.7294 62.0097L71.9844 61.8776L72.2368 61.743L72.4892 61.6083L72.7362 61.4684L72.9833 61.3285L73.225 61.1859L73.4668 61.0433L73.7032 60.8981L73.9396 60.7529L74.1734 60.6024L74.4099 60.4519L74.8615 60.1483L75.3078 59.8367L75.7434 59.5172L76.1685 59.1925L76.5856 58.8624L76.9947 58.5245L77.3932 58.1812L77.781 57.8327L78.1609 57.4763L78.5302 57.1172L78.8915 56.7529L79.2448 56.3806L79.5875 56.003L79.9222 55.6228L80.2463 55.2373L80.5624 54.8466L80.8679 54.4505L81.1655 54.0492L81.4524 53.6452L81.7313 53.236L82.0023 52.8215L82.2626 52.4043L82.515 51.9845L82.7567 51.5594L82.9905 51.1317L83.2163 50.6987L83.4342 50.263L83.6414 49.8248L83.8406 49.3838L84.0319 48.9376L84.2125 48.4888L84.3852 48.0373L84.5499 47.5832L84.704 47.1264L84.8527 46.667L84.9909 46.2049L85.1211 45.7429L85.2433 45.2782L85.3575 44.8109L85.4637 44.3409L85.562 43.8709L85.6524 43.3983L85.7321 42.9257L85.8064 42.4504L85.8702 41.9726L85.926 41.4947L85.9738 41.0168L86.0137 40.5362L86.0455 40.0557L86.0721 39.5752L86.0907 39.092L86.1013 38.6115L86.104 38.1309L86.0987 37.6478L86.0854 37.1646L86.0641 36.6814L86.0349 36.1983L85.9977 35.7177L85.9552 35.2372L85.9047 34.7567L85.8463 34.2761L85.7825 33.7956L85.7108 33.3151L85.6311 32.8372L85.5434 32.3593L85.4478 31.8814L85.3469 31.4061L85.2379 30.9335L85.1211 30.4609L84.9989 29.991L84.8687 29.521L84.7305 29.0537L84.5871 28.589L84.4357 28.1269L84.2789 27.6649L84.1142 27.2055L83.9442 26.7487L83.7662 26.2946L83.5829 25.8431L83.3916 25.3942L83.1951 24.948L82.9905 24.5045L82.7806 24.0635L82.5628 23.6252L82.3397 23.1922L82.1085 22.7619L81.8721 22.3341L81.6304 21.9117L81.3806 21.4919L81.1256 21.0747L80.8626 20.6628L80.5943 20.2562L80.318 19.8523L80.0364 19.4536L79.7495 19.0576L79.4573 18.6668L79.1571 18.2813L78.8516 17.9011L78.5408 17.5236L78.2247 17.1539L77.9032 16.7869L77.5738 16.4252L77.2391 16.0688L76.899 15.7176L76.551 15.3717L76.1977 15.0338L75.8391 14.7011L75.4751 14.3737L75.1059 14.0516L74.7313 13.7374L74.3514 13.4285L73.9662 13.1248L73.5757 12.8291L73.1772 12.5387L72.7761 12.2562L72.3696 11.979L71.9552 11.7096L71.5355 11.4483L71.1131 11.1948L70.6827 10.9466L70.2471 10.7063L69.8087 10.474L69.3624 10.2496L68.9135 10.0331L68.4592 9.82449L67.9996 9.62383L67.5347 9.43109L67.0645 9.24627L66.589 9.06937L66.1108 8.90303L65.6273 8.74461L65.1385 8.59412L64.6444 8.45418L64.1476 8.32217L63.6429 8.20071L63.1355 8.08718L62.6254 7.98421L62.11 7.88916L61.5894 7.80467L61.066 7.73074L60.5374 7.66474L60.0034 7.60929L59.4668 7.56441L58.9248 7.53008L58.3803 7.50632L57.8357 7.49312L57.5541 7.49048L57.2778 7.48784L56.9989 7.49312L56.7199 7.49576L56.441 7.50368L56.1594 7.5116L55.8778 7.5248L55.5962 7.54064L55.3119 7.56177L55.0277 7.58289L54.7434 7.60929L54.4565 7.63569L54.1696 7.66738L53.8827 7.69906L53.5932 7.73602L53.3036 7.77299L53.014 7.81523L52.7218 7.85748L52.4137 7.92084L52.1214 7.96837L51.8266 8.02382L51.5317 8.07662L51.2368 8.13471L50.9393 8.19543L50.6417 8.26144L50.3442 8.32745L50.044 8.39874L49.7438 8.47002L49.4436 8.54659L49.1434 8.62316L48.8406 8.70765L48.5378 8.79214L48.2322 8.88191L47.9294 8.97168L47.6239 9.06673L47.3184 9.16178L47.0102 9.26475L46.7021 9.36772L46.3939 9.47597L46.0937 9.58158C45.5305 9.7796 45.2357 10.3948 45.4349 10.9519C45.6341 11.5116 46.2505 11.8047 46.8137 11.6067L47.1138 11.5011L47.4061 11.3981L47.6956 11.303L47.9852 11.2054L48.2721 11.1156L48.5617 11.0258L48.8486 10.9413L49.1355 10.8568L49.4197 10.7776L49.704 10.6984L49.9856 10.6245L50.2698 10.5506L50.5514 10.4819L50.833 10.4133L51.1119 10.3525L51.3909 10.2918L51.6672 10.2364L51.9434 10.1809L52.2197 10.1308L52.4934 10.0806L52.767 10.0357L53.0406 9.99083L53.3116 9.95122L53.5825 9.91162L53.8535 9.87729L54.1218 9.84297L54.3901 9.81393L54.6584 9.78488L54.9241 9.76112L55.1897 9.73736L55.4527 9.71888L55.7157 9.7004L55.9761 9.68719L56.2364 9.67399L56.4968 9.66607L56.7571 9.65815L57.0148 9.65551L57.2725 9.65287L57.5275 9.65551L57.7799 9.65815L58.2899 9.67135L58.7947 9.69247L59.2941 9.72416L59.7882 9.7664L60.2797 9.81657L60.7658 9.87729L61.2493 9.94594L61.7275 10.0225L62.2004 10.1096L62.6706 10.2047L63.1381 10.3077L63.6004 10.4212L64.0573 10.5426L64.5116 10.672L64.9605 10.8093L65.4042 10.9545L65.8451 11.1077L66.2808 11.2687L66.7112 11.4377L67.1389 11.6146L67.5613 11.7994L67.9784 11.9922L68.3928 12.1902L68.8019 12.3961L69.2057 12.61L69.6068 12.8318L70.0027 13.0588L70.3932 13.2938L70.7784 13.5341L71.1582 13.7823L71.5355 14.0384L71.9074 14.2998L72.274 14.5664L72.6353 14.841L72.9913 15.1209L73.3419 15.406L73.6899 15.6991L74.0326 15.9975L74.37 16.3011L74.7021 16.61L75.0288 16.9242L75.3503 17.2437L75.6664 17.5684L75.9772 17.8985L76.2827 18.2338L76.5829 18.5744L76.8778 18.9203L77.1674 19.2688L77.4516 19.6226L77.7305 19.9817L78.0042 20.346L78.2725 20.7156L78.5355 21.0879L78.7905 21.4628L79.0402 21.8431L79.2846 22.2259L79.5237 22.614L79.7575 23.0048L79.986 23.4008L80.2064 23.7995L80.4216 24.2008L80.6315 24.6074L80.836 25.0167L81.0326 25.4286L81.2239 25.8431L81.4099 26.2602L81.5878 26.68L81.7605 27.1025L81.9279 27.5276L82.0873 27.9553L82.2414 28.3857L82.3901 28.816L82.5309 29.249L82.6664 29.6847L82.7939 30.1203L82.9161 30.5586L83.0303 30.9995L83.1393 31.4405L83.2402 31.884L83.3359 32.3276L83.4235 32.7712L83.5059 33.2174L83.5803 33.6636L83.6493 34.1098L83.7104 34.5586L83.7662 35.0075L83.814 35.4563L83.8539 35.9052L83.8884 36.354L83.915 36.8029L83.9336 37.2517L83.9469 37.7006L83.9522 38.1494L83.9495 38.5983L83.9416 39.0471L83.9256 39.4933L83.9017 39.9395L83.8725 40.3857L83.8353 40.8293L83.7901 41.2729L83.737 41.7164L83.6786 42.1574L83.6121 42.5983L83.5378 43.0366L83.4554 43.4722L83.3651 43.9079L83.2694 44.3409L83.1658 44.7713L83.0543 45.199L82.9347 45.6267L82.8072 46.0518L82.6717 46.4742L82.5283 46.894L82.3768 47.3112L82.2174 47.7257L82.0527 48.1376L81.8774 48.5469L81.6941 48.9535L81.5055 49.3574L81.3089 49.7561L81.1017 50.1521L80.8865 50.5456L80.666 50.9337L80.4349 51.3192L80.1958 51.702L79.9488 52.0796L79.6937 52.4545L79.4307 52.8241L79.1598 53.1911L78.8808 53.5528L78.5939 53.9119L78.299 54.2657L77.9935 54.6142L77.6801 54.9601L77.3586 55.3007L77.0266 55.636L76.6865 55.966L76.3385 56.2908L75.9772 56.6076L75.6106 56.9245L75.236 57.2334L74.8508 57.5397L74.4577 57.8407L74.0565 58.1337L73.6448 58.4215L73.2224 58.7067L73.0099 58.844L72.7947 58.9813L72.5742 59.1159L72.3537 59.2506L72.1305 59.3826L71.9074 59.5146L71.6789 59.644L71.4505 59.7733L71.2167 59.9001L70.9829 60.0268L70.7438 60.1509L70.5047 60.275L70.263 60.3938L70.0212 60.5126L69.7742 60.6288L69.5245 60.745L69.2721 60.8585L69.0197 60.972L68.762 61.0803L68.5044 61.1885L68.2414 61.2941L67.9784 61.3997L67.7101 61.5027L67.4444 61.6057L67.1734 61.7034L66.9025 61.8037L66.6262 61.8988L66.3472 61.9938L66.0657 62.0862L65.7841 62.1786L65.4971 62.2658L65.2102 62.3529L64.918 62.4374L64.6258 62.5219L64.3283 62.6011L64.0307 62.6803L63.7279 62.7569L63.425 62.8334L63.1169 62.9047L62.8087 62.976L62.4953 63.0446L62.1844 63.1133L61.8657 63.1767L61.5469 63.24L61.2254 63.2981L60.9013 63.3562L60.5719 63.4116L60.2452 63.4671L59.9131 63.5173L59.581 63.5674L59.2436 63.6123L58.9036 63.6598L58.6087 63.6942L58.3165 63.7285L58.0269 63.7575L57.7374 63.7866L57.4505 63.8103L57.1609 63.8341L56.874 63.8499L56.5871 63.8658L56.3028 63.8763L56.0186 63.8869L55.737 63.8922L55.4527 63.8975L55.1711 63.8948L54.8896 63.8922L54.6106 63.8843L54.3317 63.8763L54.0554 63.8605L53.7765 63.8447L53.5002 63.8235L53.2266 63.8024L52.9529 63.776L52.6793 63.7496L52.4083 63.7153L52.1347 63.681L51.8637 63.6413L51.5928 63.6017L51.3245 63.5542L51.0562 63.5067L50.7905 63.4539L50.5222 63.3984L50.2565 63.3377L49.9909 63.277L49.7279 63.2083L49.4649 63.1423L49.2019 63.0684L48.9389 62.9945L48.6759 62.9126L48.4156 62.8308L48.1552 62.7437L47.8949 62.6565L47.6372 62.5615L47.3768 62.4664L47.1192 62.3634L46.8615 62.2605L46.6064 62.1496L46.3514 62.0387L46.0964 61.9225L45.8387 61.8037L45.3818 61.5846L44.9222 61.3575L44.46 61.1225L44.2288 61.0037L43.9977 60.8849L43.7666 60.7608L43.5355 60.6367L43.3044 60.51L43.0732 60.3832L42.8421 60.2512L42.611 60.1219L42.3799 59.9872L42.1514 59.8525L41.923 59.7152L41.6945 59.578L41.466 59.4354L41.2402 59.2928L41.0144 59.1476L40.7886 59.0024L40.5655 58.8545L40.3423 58.7067L40.1218 58.5535L39.9013 58.403L39.6835 58.2473L39.4683 58.0915L39.2558 57.9331L39.0433 57.772L38.8334 57.6083L38.6235 57.4472L38.419 57.2809L38.2144 57.1146L38.0152 56.943L37.8133 56.7713L37.6167 56.5971L37.4201 56.4228L37.2288 56.2459L37.0376 56.069L36.8516 55.8895L36.6656 55.7073L36.485 55.5225L36.307 55.3377L36.1343 55.1502L35.9617 54.9627L35.797 54.7726L35.6296 54.5825L35.4197 54.3264L35.2099 54.073L35.0106 53.8142L34.8114 53.5555L34.6201 53.2941L34.4262 53.0327L34.2402 52.766L34.0569 52.502L33.8816 52.2353L33.7063 51.9687L33.5389 51.6967L33.3715 51.4248L33.2121 51.1502L33.0527 50.8756L32.9013 50.5984L32.7499 50.3211L32.6064 50.0413L32.463 49.7614L32.3275 49.4789L32.192 49.1964L32.0645 48.9112L31.937 48.6261L31.8174 48.3383L31.6979 48.0505L31.5837 47.7601L31.4694 47.4696L31.3632 47.1766L31.2569 46.8835L31.1586 46.5904L31.0603 46.2947L30.97 45.999L30.8797 45.7033L30.7973 45.4049L30.715 45.1066L30.6406 44.8056L30.5662 44.5046L30.4971 44.2036L30.4281 43.9026L30.367 43.599L30.3059 43.2953L30.2527 42.9917L30.1996 42.6854L30.1545 42.3792L30.1093 42.0755L30.0694 41.7693L30.0296 41.463L29.9977 41.1567L29.9658 40.8478L29.9419 40.5389L29.918 40.23L29.8994 39.9211L29.8808 39.6121L29.8702 39.3032L29.8596 38.9943L29.8543 38.6854L29.8489 38.3765L29.8516 38.0676L29.8543 37.7587L29.8649 37.4498L29.8755 37.1382L29.8915 36.8293L29.9074 36.5204L29.9313 36.2115L29.9552 35.9025L29.9844 35.5936L30.0137 35.2847L30.0508 34.9758L30.088 34.6669L30.1305 34.3606L30.173 34.0544L30.2235 33.7481L30.274 33.4418L30.3298 33.1355L30.3856 32.8293L30.4493 32.5256L30.5104 32.222L30.5795 31.9184L30.6486 31.6147L30.723 31.3111L30.7973 31.0101L30.8797 30.7091L30.962 30.4081L31.0497 30.1098L31.1374 29.8088L31.2304 29.5104L31.3233 29.2147L31.4243 28.919L31.5252 28.6233L31.6315 28.3302L31.7378 28.0372L31.8493 27.7467L31.9609 27.4563L32.0778 27.1685L32.1947 26.8807L32.3195 26.5956L32.4444 26.3078L32.5746 26.0226L32.7047 25.7401L32.8402 25.4602L32.9757 25.1804L33.1165 24.9031L33.2573 24.6259L33.4034 24.3513L33.5495 24.0767L33.7009 23.8048L33.8524 23.5328L34.0091 23.2662L34.1658 22.9969L34.3279 22.7302L34.4899 22.4662L34.6573 22.2048L34.8247 21.9434L34.9973 21.6873L35.1727 21.4285L35.3507 21.1751L35.5286 20.9216L35.7119 20.6734L35.8952 20.4252L36.0839 20.1797L36.2725 19.9341L36.4664 19.6939L36.6603 19.4536L36.8596 19.2186L37.0588 18.9836L37.2634 18.7513L37.4679 18.5189L37.6778 18.2919L37.8877 18.0648L38.1002 17.843L38.3127 17.6212L38.5305 17.4047L38.751 17.1882L38.9742 16.9744L39.1973 16.7631L39.4258 16.5572L39.6543 16.3513L39.888 16.1506L40.1218 15.9499L40.3582 15.7546L40.5947 15.5592L40.8364 15.3691L41.0782 15.179L41.3252 14.9942L41.5723 14.8093L41.822 14.6298L42.0717 14.4503L42.3267 14.2786L42.5818 14.107L42.8395 13.9407L43.0998 13.7743L43.3628 13.6133L43.6258 13.4549L43.8941 13.3017L44.1598 13.1486L44.4307 13.0034L44.7017 12.8555L44.978 12.7156L45.2516 12.5757L45.5305 12.4436L45.8095 12.3116L46.0937 12.1849L46.378 12.0582L46.6649 11.9394L46.9518 11.8205L47.2414 11.7096L47.5309 11.5988L47.8258 11.4931L48.1207 11.3875L48.4209 11.2898L48.7184 11.1922L49.0212 11.1024L49.3241 11.0126L49.6296 10.9308L49.9378 10.8489L50.2486 10.775L50.5567 10.7011L50.8702 10.6351L51.1837 10.569L51.4998 10.511L51.8186 10.4529L52.14 10.4027L52.4588 10.3525L52.7829 10.3103L53.107 10.2681L53.4338 10.2364L53.7632 10.2047L54.0952 10.1809L54.4247 10.1572L54.7594 10.1413L55.0941 10.1255L55.4315 10.1202L55.7822 10.1149C56.348 10.1044 56.797 9.64231 56.7863 9.07993C56.7863 8.52811 56.3188 8.0819 55.7556 8.09246Z" fill="#673065"/>
<path d="M85.6099 37.3732L85.7241 37.3125L85.8118 37.2729L85.8968 37.2385L85.9791 37.2121L86.0562 37.1936L86.1332 37.1778L86.2076 37.1672L86.2767 37.162H86.3484L86.4201 37.1646L86.4865 37.1725L86.5583 37.1857L86.63 37.2016L86.699 37.2227L86.7734 37.2491L86.8478 37.2781L86.9222 37.3125L86.9992 37.3547L87.0763 37.4022L87.1533 37.4524L87.233 37.5105L87.3127 37.5738L87.3898 37.6399L87.4562 37.7006L87.6262 37.8748L87.7776 38.0544L87.9264 38.255L88.0698 38.4715L88.2027 38.7039L88.3275 38.9521L88.4417 39.2108L88.5454 39.4775L88.6357 39.7547L88.7154 40.0372L88.7791 40.3197L88.8296 40.6075L88.8668 40.8953L88.888 41.1778L88.8934 41.4577L88.8854 41.7323L88.8615 41.9963L88.819 42.2524L88.7632 42.498L88.6941 42.7277L88.6011 42.9653L88.5613 43.0524L88.5108 43.1501L88.455 43.2478L88.3966 43.3402L88.3355 43.4274L88.2691 43.5118L88.2 43.5937L88.1283 43.6703L88.0512 43.7442L87.9715 43.8155L87.8892 43.8815L87.7989 43.9475L87.7059 44.0109L87.6076 44.0689L87.5013 44.1244L87.3898 44.1772L87.2729 44.2247L87.148 44.2696L87.0152 44.3092L86.877 44.3462L86.7283 44.3779L86.5715 44.4043L86.4068 44.4254L86.2315 44.4412L86.0482 44.4491L85.8569 44.4518L85.655 44.4465L85.4425 44.4359L85.2247 44.4175L84.9803 44.3884C84.3879 44.3198 83.8512 44.7396 83.7795 45.3284C83.7104 45.9171 84.1328 46.4505 84.7252 46.5218L85.0042 46.5534L85.2937 46.5772L85.5753 46.5904L85.849 46.5957L86.1199 46.5904L86.3829 46.5772L86.6406 46.5534L86.893 46.5218L87.1374 46.4795L87.3765 46.4294L87.6102 46.3686L87.8361 46.3L88.0539 46.2208L88.2691 46.1336L88.4736 46.0386L88.6702 45.933L88.8615 45.8194L89.0421 45.698L89.2175 45.5713L89.3848 45.434L89.5416 45.2914L89.6903 45.1435L89.8311 44.9878L89.9613 44.8267L90.0835 44.663L90.2004 44.4914L90.3066 44.3171L90.4049 44.1402L90.4953 43.958L90.5829 43.7574L90.7158 43.4036L90.8273 43.0207L90.9097 42.6353L90.9655 42.2471L90.9973 41.8511L91.0053 41.4577L90.992 41.0643L90.9575 40.6709L90.9017 40.2828L90.8273 39.8973L90.7343 39.5145L90.6228 39.1395L90.4953 38.7725L90.3491 38.4108L90.1871 38.0623L90.0118 37.7243L89.8178 37.3969L89.6106 37.0854L89.3875 36.787L89.1457 36.5045L88.9013 36.2537L88.7526 36.1164L88.6118 35.9976L88.4683 35.8841L88.3195 35.7758L88.1655 35.6728L88.0087 35.5804L87.8467 35.4933L87.6767 35.4141L87.504 35.3428L87.326 35.2821L87.1427 35.2293L86.9567 35.187L86.7681 35.1553L86.5742 35.1342L86.3803 35.1263L86.1863 35.1289L85.9871 35.1448L85.7905 35.1712L85.5939 35.2108L85.3947 35.2636L85.2008 35.327L85.0095 35.4009L84.8182 35.488L84.6535 35.5752C84.1541 35.8392 83.9655 36.4544 84.2285 36.9507C84.4915 37.4498 85.1104 37.6372 85.6099 37.3732Z" fill="#673065"/>
<path d="M28.4357 35.8233L28.2178 35.8418L27.9894 35.8656L27.7662 35.8946L27.5484 35.929L27.3332 35.9712L27.1233 36.0187L26.9188 36.0715L26.7169 36.1296L26.5203 36.193L26.3264 36.2616L26.1378 36.3356L25.9412 36.42L25.5985 36.5811L25.2585 36.7712L24.9423 36.9771L24.6448 37.1989L24.3632 37.4392L24.1055 37.6927L23.8664 37.9567L23.6486 38.2366L23.452 38.5244L23.2767 38.8121L23.1226 39.1211L22.9898 39.4352L22.8782 39.7547L22.7879 40.0821L22.7214 40.4095L22.6736 40.7395L22.6471 41.0749L22.6444 41.4075L22.6603 41.7402L22.7002 42.0755L22.7613 42.4056L22.841 42.7303L22.9446 43.0551L23.0695 43.3719L23.2129 43.6808L23.3803 43.9845L23.5689 44.2749L23.7761 44.5574L24.0072 44.8293L24.2569 45.0881L24.5252 45.3336L24.8175 45.5633L25.1283 45.7746L25.455 45.9699L25.803 46.1468L26.167 46.3026L26.5469 46.4399L26.948 46.5561L27.3465 46.6459L27.5723 46.6881L27.7901 46.7224L28.0106 46.7488L28.2338 46.77L28.4622 46.7858L28.6801 46.7937C29.2751 46.8175 29.7799 46.3554 29.8038 45.764C29.8277 45.1726 29.3628 44.6709 28.7677 44.6472L28.5791 44.6392L28.4118 44.6287L28.2471 44.6128L28.085 44.5944L27.9309 44.5706L27.7928 44.5468L27.4873 44.4782L27.2163 44.4016L26.9586 44.3092L26.7169 44.2062L26.4937 44.0953L26.2839 43.9713L26.0873 43.8392L25.9093 43.6993L25.7419 43.5514L25.5879 43.3957L25.4497 43.2346L25.3222 43.0656L25.2053 42.8914L25.1044 42.7145L25.0141 42.5297L24.937 42.3396L24.8733 42.1495L24.8228 41.9541L24.7829 41.7534L24.7564 41.5554L24.7431 41.3521V41.1488L24.7564 40.9481L24.7829 40.7475L24.8201 40.5468L24.8706 40.3514L24.9344 40.156L25.0114 39.9659L25.1017 39.7811L25.2053 39.5989L25.3222 39.422L25.4524 39.2531L25.5985 39.0894L25.7579 38.931L25.9306 38.7831L26.1218 38.6405L26.3264 38.5059L26.5442 38.3818L26.7966 38.2603L26.9082 38.2128L27.0357 38.1626L27.1712 38.1151L27.3093 38.0702L27.4528 38.0306L27.6015 37.9937L27.7529 37.9593L27.9097 37.9303L28.0717 37.9039L28.2391 37.8801L28.4091 37.8616L28.5977 37.8458C29.1609 37.8009 29.5807 37.3098 29.5355 36.7501C29.493 36.1956 28.9989 35.7785 28.4357 35.8233Z" fill="#673065"/>
<path d="M53.099 10.3314L53.4125 10.3182L53.7021 10.3261L54.0023 10.3525L54.3104 10.3974L54.6239 10.4608L54.9453 10.5426L55.2721 10.6403L55.6015 10.7539L55.9336 10.8859L56.2683 11.0337L56.6004 11.1974L56.9324 11.377L57.2645 11.5697L57.5913 11.7757L57.9154 11.9948L58.2342 12.2271L58.545 12.4701L58.8505 12.7235L59.148 12.9875L59.4349 13.2595L59.7112 13.542L59.9768 13.8324L60.2292 14.1281L60.4683 14.4318L60.6941 14.7407L60.904 15.0522L61.0979 15.3691L61.2786 15.6886L61.4406 16.008L61.5841 16.3301L61.7116 16.6523L61.8178 16.9691L61.9055 17.2886L61.9746 17.6054L62.0224 17.9143L62.0516 18.2391L62.0569 18.3764V18.5269L62.0516 18.6774L62.041 18.8278L62.0277 18.9757L62.0064 19.1236L61.9799 19.2688L61.948 19.4114L61.9108 19.5566L61.8683 19.6991L61.8205 19.8391L61.7674 19.9817L61.7063 20.1242L61.6398 20.2642L61.5681 20.4041L61.4884 20.544L61.4034 20.6813L61.3104 20.8213L61.2095 20.9612L61.1032 21.0985L60.9863 21.2358L60.8615 21.3731L60.7313 21.5077L60.5958 21.6371L60.4603 21.7559L60.3275 21.8589L60.1894 21.9513L60.0459 22.0358L59.9025 22.1097L59.7537 22.1757L59.5996 22.2338L59.4455 22.2813L59.2861 22.3209L59.1241 22.3526L58.9647 22.3737L58.8 22.3869L58.6353 22.3922L58.4732 22.3896L58.3085 22.379L58.1465 22.3605L57.9871 22.3341L57.8304 22.2998L57.6763 22.2602L57.5275 22.2127L57.3814 22.1572L57.2406 22.0965L57.1078 22.0305L56.9803 21.9592L56.8607 21.8827L56.7518 21.8034L56.6482 21.719L56.5526 21.6318L56.4675 21.5447L56.3905 21.4523L56.3214 21.3572L56.263 21.2648L56.2125 21.1671L56.17 21.0694L56.1355 20.9718L56.1089 20.8688L56.0903 20.7632L56.0797 20.6549V20.5388L56.0877 20.4173L56.1063 20.2906L56.1381 20.1506L56.1833 20.0028L56.2417 19.8496L56.3188 19.6833L56.4144 19.509L56.5286 19.3295L56.6694 19.1341L56.7173 19.076L56.7651 19.0259L56.8102 18.981L56.8527 18.944L56.8899 18.9176L56.9271 18.8939L56.9617 18.8754L56.9935 18.8622L57.0281 18.8516L57.0626 18.8437L57.0918 18.8384L57.1264 18.8358L57.1636 18.8331L57.2008 18.8358L57.2433 18.8411L57.2884 18.849L57.3336 18.8595L57.3841 18.8754L57.4372 18.8939L57.4877 18.915L57.5434 18.9414L57.5992 18.9731L57.6524 19.0074L57.6896 19.0312L57.8197 19.1341L57.9207 19.2318L58.0163 19.3453L58.1013 19.4642L58.1704 19.583L58.2368 19.7335L58.2501 19.7731L58.2687 19.8338L58.2846 19.8945L58.2953 19.9552L58.3032 20.0107L58.3059 20.0688V20.1242L58.3032 20.177L58.2953 20.2325L58.2846 20.2853L58.2713 20.3354L58.2421 20.4199C58.0562 20.9823 58.3643 21.5896 58.9302 21.777C59.496 21.9619 60.107 21.6556 60.2956 21.0932L60.3461 20.9374L60.3966 20.7447L60.4311 20.5546L60.455 20.3645L60.4656 20.1718L60.463 19.9843L60.4497 19.7995L60.4258 19.6147L60.3913 19.4378L60.3488 19.2635L60.2956 19.0919L60.2266 18.9044L60.0937 18.6113L59.9184 18.3077L59.7192 18.0278L59.4987 17.7691L59.2516 17.5288L59.0045 17.3308L58.8452 17.2199L58.7097 17.1169L58.5582 17.0351L58.4042 16.9585L58.2421 16.8899L58.0774 16.8318L57.9074 16.7816L57.7321 16.7394L57.5541 16.7103L57.3734 16.6919L57.1848 16.6839L56.9989 16.6892L56.8102 16.7077L56.619 16.742L56.4304 16.7896L56.2444 16.8503L56.0584 16.9295L55.8805 17.0219L55.7078 17.1275L55.5404 17.249L55.3837 17.381L55.2323 17.5236L55.0888 17.682L54.9507 17.8536L54.7541 18.1308L54.5734 18.4186L54.4167 18.7064L54.2812 18.9968L54.167 19.2899L54.0767 19.5803L54.0102 19.8734L53.9651 20.1691L53.9465 20.4569L53.9491 20.7421L53.9757 21.0272L54.0235 21.3018L54.0926 21.5685L54.1829 21.8298L54.2918 22.0754L54.4167 22.3104L54.5601 22.5374L54.7169 22.7487L54.8869 22.9493L55.0702 23.1394L55.2615 23.3137L55.4634 23.4774L55.6759 23.6305L55.8964 23.7678L56.1222 23.8945L56.3586 24.0107L56.5977 24.1137L56.8421 24.2035L57.0945 24.2827L57.3495 24.3487L57.6072 24.4041L57.8729 24.4464L58.1385 24.4754L58.4068 24.4913L58.6804 24.4939L58.9514 24.4833L59.2224 24.4596L59.496 24.42L59.767 24.3645L60.0379 24.2959L60.3089 24.2114L60.5746 24.1111L60.8349 23.9949L61.0953 23.8602L61.345 23.7097L61.5894 23.5434L61.8285 23.3586L62.049 23.1632L62.2429 22.9731L62.4235 22.783L62.5935 22.5929L62.7556 22.3975L62.9097 22.1995L63.0531 21.9988L63.1886 21.7955L63.3161 21.5869L63.433 21.3784L63.5419 21.1671L63.6402 20.9533L63.7305 20.7394L63.8102 20.5229L63.882 20.3038L63.9457 20.0846L64.0015 19.8655L64.0467 19.6437L64.0839 19.4219L64.1131 19.2001L64.1343 18.9757L64.1476 18.7539L64.1529 18.5321L64.1503 18.3104L64.1397 18.0754L64.0998 17.6529L64.0307 17.2146L63.9351 16.7843L63.8156 16.3592L63.6721 15.9367L63.5074 15.5222L63.3214 15.1156L63.1142 14.7143L62.8911 14.3209L62.6493 13.9354L62.3916 13.5552L62.118 13.1856L61.8311 12.8265L61.5283 12.4753L61.2148 12.1347L60.8907 11.8047L60.5533 11.4852L60.2053 11.1763L59.8493 10.8806L59.4827 10.5955L59.1082 10.3261L58.7283 10.07L58.3404 9.82713L57.9472 9.60007L57.5488 9.3862L57.145 9.18818L56.7385 9.00864L56.3294 8.84758L55.915 8.70501L55.5006 8.58092L55.0835 8.47795L54.6638 8.3961L54.2467 8.33801L53.8296 8.30105L53.4099 8.29049L53.0273 8.30369C52.4615 8.32481 52.0231 8.79742 52.0417 9.35716C52.0603 9.91426 52.5359 10.3525 53.099 10.3314Z" fill="#673065"/>
<path d="M46.6277 9.44165L46.4763 9.3862L46.3435 9.3334L46.2159 9.28059L46.0964 9.22779L45.9848 9.17498L45.8892 9.12481L45.682 9.00864L45.5146 8.90039L45.3659 8.7895L45.2357 8.67861L45.1268 8.56771L45.0285 8.4489L44.9408 8.33273L44.8664 8.21392L44.7974 8.0819L44.7336 7.94197L44.6751 7.79147L44.622 7.62513L44.5715 7.4456L44.5264 7.25021L44.4839 7.03899L44.444 6.81193L44.4068 6.56902L44.3723 6.31027L44.3378 6.03568L44.3032 5.74525L44.2687 5.43898C44.1996 4.8502 43.6657 4.42775 43.0706 4.49376C42.4782 4.56241 42.0531 5.0931 42.1196 5.68453L42.1567 5.99344L42.1939 6.29707L42.2338 6.59278L42.2763 6.88321L42.3214 7.16837L42.3746 7.44823L42.4357 7.72282L42.5074 7.99741L42.5898 8.26672L42.6854 8.53075L42.797 8.79478L42.9245 9.05089L43.0679 9.30171L43.2353 9.54726L43.4186 9.7796L43.6205 10.0014L43.8463 10.2126L44.0881 10.408L44.3457 10.5928L44.6247 10.7671L44.9089 10.9228L45.0736 11.0047L45.233 11.0813L45.3951 11.1526L45.5624 11.2238L45.7351 11.2925L45.9051 11.3559C46.4338 11.5539 47.0235 11.2872 47.2228 10.7618C47.4247 10.2232 47.1564 9.63703 46.6277 9.44165Z" fill="#673065"/>
<path d="M47.778 0.522776L47.693 0.673272L47.6053 0.850171L47.5256 1.02707L47.4539 1.20661L47.3901 1.39143L47.3344 1.57625L47.2865 1.76371L47.244 1.95381L47.2095 2.14391L47.1803 2.33401L47.1564 2.52675L47.1378 2.73269L47.1192 3.10761L47.1218 3.50101L47.1431 3.89442L47.1829 4.28782L47.2387 4.68122L47.3131 5.07198L47.4008 5.4601L47.5044 5.84558L47.6213 6.22314L47.7514 6.59278L47.8949 6.95714L48.0516 7.31094L48.219 7.65418L48.3996 7.98685L48.5909 8.30369L48.7928 8.60996L49.0053 8.90039L49.2099 9.15122C49.5871 9.61063 50.2698 9.67663 50.7294 9.30171C51.1917 8.92679 51.2581 8.24824 50.8808 7.79147L50.7108 7.58817L50.5621 7.38751L50.4133 7.16572L50.2672 6.92546L50.1264 6.67199L49.9936 6.40268L49.866 6.12545L49.7465 5.83766L49.6349 5.54195L49.534 5.24096L49.4436 4.93733L49.3666 4.63105L49.3002 4.32478L49.2497 4.02115L49.2125 3.72016L49.1886 3.42445L49.1807 3.13929L49.1913 2.84886L49.1992 2.73005L49.2125 2.60068L49.2311 2.47394L49.2524 2.34985L49.2763 2.23368L49.3055 2.12015L49.3374 2.00925L49.3719 1.90628L49.4118 1.80595L49.4543 1.7109L49.4994 1.62113L49.5605 1.51288C49.8342 1.02179 49.6588 0.403963 49.1647 0.129374C48.6759 -0.145216 48.0543 0.0316833 47.778 0.522776Z" fill="#673065"/>
<path d="M44.1943 39.8498L44.1598 40.024L44.1306 40.1983L44.1093 40.362L44.096 40.523L44.0934 40.6867L44.104 40.8557L44.1359 41.0432L44.2129 41.2702L44.367 41.5237L44.6406 41.7693L45.0205 41.9224L45.3658 41.9382L45.6288 41.8801L45.8254 41.793L45.9689 41.7059L46.0831 41.6188L46.1814 41.529L46.2824 41.426L46.4205 41.2676L46.5586 41.0828L46.6835 40.8927L46.8004 40.6947L46.9066 40.4861L46.9996 40.2722L47.0767 40.0425L47.1351 39.7706L47.1431 39.4933L47.0846 39.1844L46.9438 38.8993L46.6968 38.6379L46.3753 38.4636L46.0539 38.4003L45.8015 38.4108L45.597 38.4557L45.4216 38.5191L45.2702 38.5904L45.1268 38.6696L44.9807 38.7593L44.8133 38.8755L44.622 39.0445L44.452 39.2531L44.3298 39.459L44.2395 39.6623L44.1731 39.8683L44.1279 40.0689L44.1013 40.2669L44.0881 40.4676L44.0907 40.6656L44.1066 40.8636L44.1385 41.0669L44.189 41.2676L44.2607 41.4683L44.3617 41.6769L44.4945 41.8801L44.6725 42.0808L44.9142 42.2656L45.2038 42.4029L45.5306 42.4742L45.8706 42.4663L46.1309 42.4082L46.3116 42.3422L46.4471 42.2762L46.5719 42.2049L46.6888 42.1257L46.803 42.0386L46.9412 41.9198L47.1085 41.727L47.2307 41.529L47.3131 41.3521L47.3769 41.1805L47.43 41.0036L47.4725 40.8267L47.5097 40.6445L47.5389 40.457L47.5602 40.2643L47.5734 40.0689L47.5788 39.8683L47.5761 39.6676L47.5628 39.4643L47.5362 39.2531L47.4911 39.0418L47.4247 38.8227L47.3211 38.5877L47.1723 38.3501L46.9545 38.1151L46.6436 37.9118L46.3488 37.8115L46.0964 37.7772L45.9078 37.7798L45.7351 37.8036L45.5731 37.8432L45.419 37.896L45.2755 37.9593L45.1241 38.0465L44.9913 38.1468L44.8824 38.2471L44.7894 38.3475L44.707 38.4504L44.622 38.5719L44.5158 38.7514L44.4148 38.96L44.3325 39.1712L44.2607 39.3851L44.1996 39.6095L44.1518 39.8366L44.1146 40.0689L44.0881 40.3065L44.0748 40.5468V40.7897L44.0907 41.0379L44.1226 41.2861L44.1757 41.5369L44.2607 41.7957L44.3803 42.0518L44.545 42.3079L44.7734 42.5561L45.0099 42.733L45.2171 42.8439L45.3924 42.9099L45.5704 42.9547L45.751 42.9811L45.9344 42.9917L46.1283 42.9811L46.3514 42.9468L46.5932 42.8729L46.8163 42.7673L47.0182 42.6326L47.1962 42.4716L47.3397 42.3026L47.4566 42.1257L47.5495 41.9435L47.6186 41.7666L47.6717 41.5924L47.7116 41.4155L47.7381 41.2465L47.7541 41.0801L47.7621 40.9112V40.7475L47.7541 40.5864L47.7408 40.4227L47.7169 40.2458L47.6638 39.9527L47.5867 39.6465L47.4884 39.3534L47.3689 39.0683L47.2201 38.791L47.0607 38.556L46.9279 38.3976L46.7924 38.2656L46.633 38.1415L46.4364 38.028L46.1894 37.9382L45.9131 37.8933L45.6182 37.9092L45.326 37.991L45.0816 38.1204L44.8824 38.2762L44.7203 38.4478L44.5954 38.622L44.4918 38.7989L44.4042 38.9838L44.3298 39.1765L44.2634 39.3772L44.2023 39.5937L44.1518 39.8049C44.0163 40.3831 44.3776 40.9613 44.9567 41.096C45.5385 41.2306 46.1203 40.8716 46.2558 40.2933L46.2956 40.1217L46.3302 39.9976L46.3621 39.8999L46.3886 39.8287L46.4072 39.789L46.4152 39.7785L46.4019 39.7943L46.3541 39.8445L46.2717 39.9079L46.1442 39.9739L45.9689 40.024L45.7909 40.0346L45.6315 40.0082L45.5013 39.9607L45.4216 39.9158L45.3738 39.8788L45.3499 39.8551L45.3233 39.8234L45.3712 39.8894L45.4163 39.9712L45.4668 40.0953L45.5173 40.2432L45.5571 40.4016L45.589 40.5864L45.597 40.6498L45.6049 40.7263L45.6076 40.8003V40.8689L45.6049 40.9296L45.5996 40.9825L45.5943 41.0247L45.589 41.0511L45.5837 41.0669V41.0696L45.5917 41.0537L45.6076 41.0273L45.6395 40.993L45.6899 40.9481L45.7484 40.9112L45.8121 40.8821L45.8786 40.8636L45.9078 40.8584L45.937 40.8557L45.9662 40.8584L46.0008 40.8636L46.0406 40.8742L46.0884 40.8927L46.1761 40.9429L46.1973 40.964L46.2425 41.0141L46.2558 41.0326L46.2505 41.0221L46.2372 40.9851L46.2213 40.9138L46.208 40.8214L46.2 40.7158V40.5943L46.2053 40.465L46.2186 40.3356L46.2399 40.2062L46.2638 40.0795L46.293 39.9659L46.3249 39.863L46.3567 39.7758L46.3833 39.7178L46.4152 39.665L46.4019 39.6834L46.3939 39.694L46.3753 39.7125L46.3435 39.7415L46.2877 39.7838L46.2159 39.826L46.208 39.8287L46.1788 39.8392L46.1362 39.8498L46.0778 39.8577H45.9955L45.844 39.8339L45.7325 39.789L45.5784 39.6887L45.4934 39.6016L45.4588 39.5461L45.4482 39.525L45.4535 39.5461L45.4641 39.5963L45.4748 39.6676L45.4827 39.7574L45.4854 39.8603L45.4827 39.9686L45.4748 40.0821L45.4641 40.193L45.4482 40.2986L45.4296 40.3963L45.411 40.4808L45.3924 40.5442L45.3791 40.5838V40.5864L45.4137 40.531L45.4934 40.4386L45.4748 40.4544L45.4641 40.4623L45.4801 40.4544L45.5465 40.4333L45.589 40.428L45.7271 40.4254L45.8706 40.457L45.9955 40.5151L46.0911 40.5864L46.1416 40.6419L46.1628 40.6762L46.1708 40.6894L46.1655 40.6762L46.1575 40.6471L46.1522 40.6102L46.1469 40.5627V40.5098L46.1495 40.4623L46.1548 40.4174L46.1628 40.3831L46.1655 40.3699V40.3726L46.1495 40.3963L46.1044 40.4491L46.0565 40.494L46.115 40.4544L46.1734 40.4174L46.208 40.399L46.2159 40.3963L46.1788 40.4095L46.0937 40.428L45.9397 40.4333L45.7006 40.3858L45.4429 40.2485L45.2436 40.0372L45.1347 39.8181L45.0949 39.591L45.1002 39.5145L45.1055 39.4881L45.0896 39.5356L45.055 39.6174L45.0046 39.7151L44.9435 39.8181L44.8797 39.9158L44.8213 39.995L44.7628 40.0636L44.7681 40.0584L44.7734 40.0531L44.7973 40.0346L44.8531 40.0003L44.9674 39.9501L45.156 39.9079L45.4323 39.9211L45.7537 40.0504L45.9769 40.2485L46.0884 40.4333L46.1336 40.5653L46.1442 40.6287V40.6445V40.626L46.1495 40.5732L46.1602 40.494L46.1788 40.3884L46.208 40.2458C46.3195 39.694 45.9636 39.158 45.4084 39.0471C44.8478 38.9442 44.3059 39.3006 44.1943 39.8498Z" fill="#673065"/>
<path d="M68.6744 38.5666L68.6266 38.688L68.5814 38.8069L68.5389 38.9204L68.499 39.0313L68.4619 39.1369L68.4247 39.2425L68.3636 39.4273L68.3104 39.6016L68.2679 39.7626L68.2334 39.9158L68.2068 40.0689L68.1909 40.2247V40.4042L68.2281 40.6419L68.3583 40.9534L68.6983 41.3019L69.2243 41.4709L69.6148 41.4207L69.8539 41.3151L70.0133 41.2069L70.1249 41.1092L70.2152 41.0168L70.2975 40.9217L70.3719 40.8267L70.441 40.729L70.5074 40.6287L70.5791 40.5125L70.6934 40.3092L70.8049 40.0742L70.9032 39.826L70.9856 39.5593L71.0414 39.261L71.052 38.9785L71.0281 38.7409L70.9723 38.527L70.8767 38.3078L70.7279 38.0913L70.5207 37.8933L70.2869 37.7507L70.0425 37.661L69.7981 37.6161L69.5749 37.6082L69.3651 37.6267L69.1579 37.6636L68.9347 37.7243L68.6664 37.8432L68.4114 38.0306L68.2228 38.2392L68.0873 38.4531L67.9916 38.6696L67.9305 38.8755L67.8907 39.0735L67.8694 39.2689L67.8615 39.4564L67.8668 39.6412L67.8827 39.826L67.9066 40.0055L67.9385 40.1824L67.981 40.3593L68.0315 40.531L68.0926 40.6999L68.167 40.8716L68.2546 41.0379L68.3609 41.2042L68.499 41.3759L68.6744 41.5396L68.9082 41.6927L69.2243 41.8089L69.5192 41.8405L69.7503 41.8194L69.9256 41.7772L70.085 41.7165L70.2311 41.6425L70.3666 41.5528L70.5127 41.4287L70.6668 41.2623L70.8102 41.0564L70.9138 40.8557L70.9935 40.6603L71.0573 40.4623L71.1051 40.2696L71.1423 40.0768L71.1689 39.8815L71.1875 39.6914L71.1981 39.5013L71.2008 39.3112L71.1928 39.1263L71.1795 38.9415L71.1556 38.7567L71.1211 38.5772L71.0759 38.395L71.0095 38.2049L70.9138 38.0069L70.7677 37.7877L70.5127 37.5501L70.1939 37.389L69.8831 37.3283L69.6228 37.3362L69.3916 37.389L69.1924 37.4735L69.0224 37.5791L68.8896 37.6874L68.7806 37.7983L68.6877 37.9118L68.6106 38.0201L68.5442 38.1283L68.4858 38.2366L68.4273 38.3633L68.3476 38.5613L68.2759 38.7857L68.2175 39.0128L68.1723 39.2425L68.1378 39.4801L68.1165 39.7204L68.1059 39.9633L68.1112 40.2115L68.1351 40.4597L68.1776 40.7131L68.2493 40.9772L68.3583 41.2412L68.5203 41.5105L68.762 41.7772L69.0224 41.962L69.2641 42.0729L69.466 42.131L69.6653 42.16L69.8619 42.1653L70.0558 42.1468L70.2338 42.1099L70.4118 42.0518L70.5818 41.9726L70.7305 41.8801L70.8634 41.7798L70.9829 41.6689L71.1078 41.5264L71.2459 41.3257L71.3708 41.0854L71.4611 40.8504L71.5302 40.6155L71.578 40.3752L71.6072 40.1376L71.6231 39.8999V39.6597L71.6072 39.422L71.5753 39.1844L71.5249 38.9442L71.4611 38.7065L71.3708 38.4689L71.2486 38.2286L71.0892 37.9963L70.8846 37.7745L70.6137 37.5712L70.3453 37.4418L70.1142 37.3732L69.9256 37.3441L69.7423 37.3362L69.559 37.3494L69.3784 37.3811L69.1898 37.4366L68.9586 37.529L68.7142 37.6636L68.4964 37.8247L68.3051 38.0148L68.1431 38.2313L68.0209 38.4531L67.9305 38.6775L67.8694 38.9046L67.8349 39.1184L67.819 39.3244V39.525L67.8323 39.7125L67.8562 39.892L67.888 40.0663L67.9252 40.23L67.9677 40.3884L68.0129 40.5389L68.0634 40.692L68.1537 40.9402L68.244 41.1646L68.3184 41.3389C68.5548 41.8828 69.1898 42.1363 69.737 41.9013C70.2842 41.6663 70.5393 41.0353 70.3028 40.4914L70.2364 40.3409L70.1674 40.1745L70.0956 39.9844L70.0691 39.9052L70.0425 39.8181L70.0186 39.731L70 39.6491L69.9867 39.5752L69.9787 39.5065L69.9734 39.4485V39.4062L69.9761 39.3745L69.9787 39.3587L69.9761 39.364L69.9708 39.3798L69.9548 39.4036L69.9283 39.4379L69.9044 39.4617L69.8831 39.4775L69.8698 39.4828L69.9097 39.4696L69.8672 39.4828L69.8273 39.4907L69.7795 39.4933L69.7237 39.4907L69.66 39.4801L69.5484 39.4432L69.5032 39.4168L69.4315 39.364L69.4023 39.3349L69.3996 39.3296L69.4102 39.3481L69.4288 39.3983L69.4501 39.4696L69.466 39.5514L69.4793 39.6491L69.4873 39.7521V39.8551L69.482 39.958L69.4713 40.0531L69.4581 40.1323L69.4395 40.1957L69.4235 40.2379L69.4209 40.2458L69.4102 40.259L69.4527 40.2088L69.4846 40.1798L69.5245 40.1508L69.5749 40.1217L69.6414 40.0927L69.7104 40.0716L69.7317 40.0689L69.7795 40.0636H69.838L69.907 40.0742L69.9894 40.098L70.1195 40.1613L70.178 40.2088L70.2524 40.2881L70.2763 40.325L70.2736 40.3197L70.263 40.2801L70.2497 40.2062L70.2391 40.1085L70.2364 39.9976L70.2391 39.8735L70.2497 39.7442L70.2657 39.6174L70.2896 39.4933L70.3161 39.3824L70.3453 39.29L70.3799 39.2029L70.3825 39.1976L70.3879 39.1844L70.3905 39.1818L70.3852 39.1897L70.3639 39.2135L70.3294 39.2478L70.2736 39.2927L70.1833 39.3481L70.0638 39.3983L69.915 39.4326L69.737 39.4379L69.5112 39.3904L69.2987 39.2795L69.1393 39.1343L69.0782 39.0471L69.0622 39.0102V39.0128L69.0729 39.0498L69.0835 39.1105L69.0941 39.1871L69.1021 39.2768L69.1074 39.3745V39.4749L69.1021 39.5778L69.0941 39.6808L69.0808 39.7758L69.0649 39.863L69.049 39.9369L69.033 39.9897L69.0197 40.024L69.0171 40.0346L69.0357 40.0082L69.049 39.9897L69.1207 39.929L69.1765 39.892L69.2402 39.8603L69.312 39.8339L69.397 39.8128L69.5351 39.8022L69.6918 39.8234L69.8725 39.8894L69.9761 39.958L70.0292 40.0082L70.0505 40.0346L70.0478 40.0319L70.0345 40.0082L70.0159 39.9686L69.9947 39.9131L69.9734 39.8471L69.9548 39.7785L69.9416 39.7046L69.9309 39.6306L69.9256 39.562L69.923 39.4986L69.9256 39.4432L69.9283 39.4062L69.9309 39.3851L69.9283 39.3877L69.9123 39.4247L69.8751 39.4828L69.8061 39.5593L69.6892 39.6438L69.5829 39.6914L69.6201 39.6808L69.644 39.6755H69.6361L69.5909 39.6729L69.5006 39.657L69.389 39.6148L69.2668 39.5382L69.1499 39.4273L69.0702 39.3138L69.025 39.2108L69.0038 39.1263L68.9958 39.0286L68.9985 39.0524L68.9905 39.092L68.9639 39.1791L68.9214 39.2874L68.8683 39.4009L68.7992 39.5224L68.778 39.5567L68.7514 39.5963L68.7275 39.6306L68.7089 39.6544L68.7009 39.6623L68.7089 39.657L68.7408 39.6306L68.8258 39.5725L68.9985 39.4986L69.3279 39.459L69.8034 39.6121L70.1063 39.9211L70.2099 40.1666L70.2311 40.3092V40.3646V40.3673L70.2364 40.3329L70.2524 40.2643L70.2763 40.1692L70.3108 40.0504L70.3613 39.8999L70.3879 39.8234L70.4197 39.7362L70.4543 39.6438L70.4915 39.5461L70.5313 39.4405L70.5765 39.327C70.781 38.8042 70.5207 38.2128 69.9947 38.0095C69.4713 37.7851 68.8789 38.0438 68.6744 38.5666Z" fill="#673065"/>
<path d="M51.9594 51.4485L52.1879 51.6967L52.4269 51.9423L52.666 52.1772L52.9051 52.4017L53.1469 52.6155L53.3886 52.8188L53.6304 53.0116L53.8748 53.1938L54.1192 53.3627L54.3662 53.5212L54.6159 53.669L54.8657 53.8063L55.118 53.933L55.3731 54.0492L55.6281 54.1522L55.8831 54.2419L56.1434 54.3212L56.4011 54.3872L56.6615 54.44L56.9245 54.4796L57.1848 54.506L57.4452 54.5218H57.7082L57.9685 54.5086L58.2288 54.4822L58.4892 54.4426L58.7442 54.3924L58.9992 54.3291L59.2516 54.2525L59.4987 54.1627L59.7431 54.0624L59.9875 53.9489L60.2266 53.8248L60.463 53.6901L60.6968 53.5423L60.9252 53.3865L61.151 53.2202L61.3742 53.0406L61.592 52.8532L61.8072 52.6551L62.0197 52.4466L62.2269 52.2301L62.4315 52.003L62.6334 51.7654L62.8326 51.5198L63.0292 51.2663L63.2231 51.0023L63.4064 50.7383C63.7465 50.2498 63.6216 49.5818 63.1328 49.2439C62.6414 48.9059 61.9693 49.03 61.6292 49.5158L61.4592 49.7614L61.2972 49.9858L61.1324 50.1997L60.9677 50.403L60.8057 50.5957L60.641 50.7779L60.4763 50.9522L60.3142 51.1132L60.1495 51.2663L59.9875 51.4089L59.8254 51.5409L59.6634 51.6624L59.504 51.7759L59.3472 51.8789L59.1879 51.9713L59.0311 52.0558L58.877 52.1297L58.7203 52.1957L58.5662 52.2538L58.4148 52.304L58.2607 52.3462L58.1066 52.3805L57.9552 52.407L57.8011 52.4254L57.6471 52.436L57.493 52.4386L57.3362 52.4334L57.1768 52.4201L57.0175 52.399L56.8527 52.3673L56.6854 52.3277L56.518 52.2802L56.3453 52.2221L56.17 52.1561L55.9947 52.0796L55.814 51.9924L55.6307 51.8947L55.4474 51.7865L55.2588 51.6677L55.0675 51.5383L54.8763 51.3984L54.6797 51.2452L54.4831 51.0815L54.2839 50.9073L54.082 50.7198L53.8801 50.5218L53.6755 50.3106L53.463 50.0809C53.0805 49.6663 52.4349 49.6399 52.0178 50.0201C51.6008 50.4003 51.5768 51.034 51.9594 51.4485Z" fill="#673065"/>
<path d="M61.6345 89.0884L61.7966 88.9458L61.9825 88.7372L62.1313 88.5207L62.2535 88.2989L62.3491 88.0719L62.4209 87.8501L62.4767 87.6309L62.5165 87.4118L62.5431 87.1979L62.559 86.9894L62.567 86.7834L62.5643 86.5696L62.5457 86.3399L62.4953 86.0917L62.4182 85.8593L62.3146 85.6402L62.1871 85.4342L62.0436 85.2521L61.8869 85.091L61.7169 84.9458L61.5416 84.8217L61.3609 84.7134L61.175 84.6158L60.9863 84.5313L60.7951 84.4573L60.5985 84.3913L60.4019 84.3332L60.2027 84.2831L59.9981 84.2382L59.7936 84.1986L59.5863 84.1643L59.3765 84.1352L59.1666 84.1115L58.9567 84.0903L58.7442 84.0745L58.5264 84.0613L58.112 84.0428L57.6922 84.0349H57.2831L56.8846 84.0402L56.5021 84.0507L56.1408 84.0639L55.8061 84.0771L55.5032 84.0903L55.2349 84.1009L55.118 84.1062L55.0144 84.1088L54.9241 84.1115H54.8497H54.7966H54.7833L54.4805 84.0851L54.1962 84.0428L53.912 83.9874L53.6277 83.9161L53.3461 83.8316L53.0645 83.7339L52.7856 83.6256L52.512 83.5042L52.2383 83.3722L51.97 83.2296L51.707 83.0791L51.4467 82.918L51.1571 82.7279L50.8808 82.5352L50.6152 82.3398L50.3602 82.1418L50.1184 81.9438L49.8873 81.7431L49.6668 81.5398L49.4569 81.3339L49.2577 81.1253L49.0664 80.9167L48.8858 80.7055L48.7131 80.4916L48.5484 80.2751L48.3917 80.056L48.2429 79.8342L48.0994 79.6098L47.964 79.3827L47.8364 79.153L47.7142 78.9207L47.5973 78.6857L47.4858 78.4454L47.3795 78.2025L47.2786 77.957L47.1829 77.7061L47.0926 77.4527L47.0076 77.1939L46.9252 76.9325L46.8482 76.6659L46.7738 76.3966L46.7047 76.1246L46.6383 75.8421L46.5719 75.5622L46.5135 75.2771L46.4524 74.9893L46.3966 74.6936L46.3408 74.3952L46.2903 74.0916L46.2399 73.788L46.192 73.4764L46.1442 73.1648L46.0964 72.8454L46.0486 72.5233L46.0034 72.1959L45.9583 71.8685L45.9104 71.5332L45.8626 71.1978L45.8148 70.8546L45.767 70.514C45.682 69.9279 45.1374 69.5186 44.545 69.6005C43.9552 69.6823 43.5435 70.2262 43.6258 70.815L43.6736 71.1556L43.7214 71.4962L43.7693 71.8315L43.8171 72.1668L43.8649 72.4969L43.9127 72.8295L43.9605 73.1543L44.0084 73.4817L44.0588 73.8038L44.1093 74.1286L44.1624 74.448L44.2182 74.7675L44.2767 75.0817L44.3351 75.3985L44.3989 75.7101L44.4653 76.0243L44.537 76.3305L44.6087 76.6342L44.6884 76.9431L44.7734 77.2467L44.8611 77.5477L44.9541 77.8487L45.055 78.1471L45.1613 78.4428L45.2729 78.7358L45.3924 79.0289L45.5199 79.3167L45.6528 79.6045L45.7962 79.8896L45.945 80.1722L46.1017 80.452L46.2691 80.7293L46.4444 81.0038L46.6277 81.2732L46.8216 81.5425L47.0262 81.8065L47.2387 82.0652L47.4645 82.324L47.6983 82.5775L47.9427 82.8256L48.1977 83.0712L48.4634 83.3141L48.7397 83.5517L49.0292 83.7867L49.3294 84.0164L49.6402 84.2435L49.9643 84.4653L50.2991 84.6844L50.6178 84.8798L50.9473 85.0672L51.282 85.2415L51.6247 85.4052L51.978 85.5557L52.3366 85.693L52.7032 85.8171L53.0778 85.9253L53.455 86.0151L53.8376 86.089L54.2281 86.1418L54.6027 86.1735L54.7275 86.1788H54.8338L54.9427 86.1762L55.0569 86.1735L55.1791 86.1682L55.3093 86.163L55.5829 86.1498L55.8858 86.1339L56.2125 86.1181L56.5579 86.1049L56.9165 86.0943L57.2858 86.0864H57.6603L58.0349 86.0917L58.4121 86.1075L58.5875 86.1181L58.7655 86.1313L58.9408 86.1471L59.1108 86.1656L59.2729 86.1867L59.4296 86.2105L59.5784 86.2369L59.7192 86.2659L59.852 86.3002L59.9742 86.3346L60.0831 86.3715L60.1814 86.4111L60.2691 86.4481L60.3381 86.4851L60.3966 86.522L60.4418 86.5537L60.471 86.5775L60.4896 86.596L60.5002 86.6065V86.6092V86.6118V86.6144L60.5028 86.6488V86.7597L60.5002 86.8811L60.4922 86.9973L60.4789 87.1082L60.4603 87.2059L60.4391 87.293L60.4152 87.3669L60.3913 87.4197L60.37 87.462L60.3514 87.4884L60.3435 87.4989L60.2824 87.5491C59.8547 87.9161 59.8068 88.5577 60.1761 88.9828C60.5613 89.4079 61.2068 89.4554 61.6345 89.0884Z" fill="#673065"/>
<path d="M76.4687 85.2204V85.487V85.7643V86.0494V86.3399L76.466 86.6356L76.4607 86.9339L76.4501 87.2428L76.4421 87.5438L76.4262 87.8527L76.4103 88.1564L76.3837 88.46L76.3571 88.7663L76.3199 89.0593L76.2774 89.3498L76.227 89.6349L76.1712 89.9095L76.1074 90.1735L76.0357 90.427L75.956 90.6673L75.871 90.8917L75.778 91.1029L75.677 91.2983L75.5734 91.4726L75.4512 91.6468L75.3981 91.7128L75.337 91.7841L75.2733 91.8501L75.2121 91.9108L75.1537 91.9636L75.0953 92.0112L75.0368 92.0561L74.9837 92.093L74.9306 92.1247L74.8801 92.1538L74.8323 92.1749L74.7844 92.1934L74.7393 92.2092L74.7021 92.2198L74.6649 92.2277L74.6304 92.233L74.6011 92.2356H74.5719H74.5454L74.5241 92.233L74.5029 92.2303L74.4843 92.225L74.471 92.2198L74.455 92.2145L74.4418 92.2092L74.4311 92.2039L74.4178 92.196L74.4046 92.1881L74.3939 92.1802L74.3806 92.1669L74.3674 92.1511L74.3567 92.1379L74.3435 92.1168L74.3302 92.093L74.3169 92.0666L74.3036 92.0323L74.2903 91.9927L74.277 91.9505L74.2664 91.9003L74.2558 91.8448L74.2478 91.7868L74.2425 91.7181L74.2399 91.6442L74.2425 91.565L74.2505 91.4778L74.2611 91.3854L74.277 91.2877L74.3036 91.161C74.4232 90.5801 74.0433 90.0125 73.4588 89.8937C72.8744 89.7749 72.3032 90.1524 72.1837 90.7333L72.1492 90.9023L72.1199 91.0924L72.0987 91.2772L72.0854 91.4594L72.0801 91.6415L72.0854 91.8184L72.0987 91.9927L72.1199 92.1669L72.1518 92.3359L72.1917 92.5023L72.2421 92.666L72.3006 92.8244L72.367 92.9775L72.444 93.128L72.529 93.2706L72.622 93.4079L72.7283 93.5399L72.8399 93.6613L72.9594 93.7749L73.0896 93.8805L73.2224 93.9755L73.3605 94.06L73.5067 94.1366L73.6554 94.2L73.8068 94.2554L73.9662 94.3003L74.123 94.332L74.2824 94.3557L74.4471 94.3663L74.6091 94.369L74.7685 94.361L74.9306 94.3425L75.0899 94.3135L75.2467 94.2765L75.4061 94.229L75.5602 94.1736L75.7116 94.1102L75.863 94.0363L76.0091 93.9544L76.1526 93.8647L76.2934 93.767L76.4289 93.6613L76.5617 93.5505L76.6918 93.429L76.8167 93.3023L76.9389 93.1676L77.0585 93.025L77.1807 92.8613L77.364 92.5868L77.5393 92.2831L77.6907 91.9742L77.8262 91.6574L77.9431 91.3326L78.044 91.0052L78.1317 90.6726L78.2087 90.3346L78.2725 89.994L78.3283 89.6534L78.3734 89.3102L78.4106 88.9643L78.4372 88.629L78.4664 88.291L78.4824 87.9531L78.4983 87.6177L78.5063 87.2903L78.5142 86.9682L78.5169 86.6488L78.5196 86.3399V86.0415V85.7537V85.4765V85.2124C78.5196 84.6501 78.06 84.1959 77.4941 84.1959C76.9256 84.2012 76.4687 84.658 76.4687 85.2204Z" fill="#673065"/>
<path d="M72.1066 91.1927L72.112 91.4488L72.1066 91.6627L72.0907 91.8633L72.0668 92.0481L72.0349 92.2118L71.9951 92.3623L71.9499 92.4996L71.9021 92.6184L71.849 92.7241L71.7958 92.8191L71.7427 92.8983L71.6843 92.967L71.6285 93.0277L71.5753 93.0752L71.5169 93.1175L71.4611 93.1544L71.408 93.1835L71.3495 93.2072L71.2911 93.2257L71.2353 93.2389L71.1769 93.2468L71.1158 93.2521H71.0573L70.9962 93.2468L70.9325 93.2389L70.874 93.2257L70.8102 93.2072L70.7492 93.1835L70.6907 93.1571L70.6296 93.1227L70.5712 93.0858L70.518 93.0435L70.4622 92.996L70.4091 92.9432L70.3613 92.8877L70.3161 92.8244L70.271 92.7557L70.2311 92.6844L70.1939 92.6026L70.1621 92.5155L70.1355 92.4257L70.1142 92.3227L70.0983 92.2118L70.0903 92.0957L70.0877 91.9663L70.0956 91.829L70.1116 91.6864L70.1461 91.499C70.2497 90.9155 69.8539 90.3584 69.2668 90.258C68.6797 90.1551 68.1192 90.5485 68.0182 91.132L67.9757 91.3828L67.9465 91.6627L67.9332 91.932L67.9385 92.1986L67.9598 92.46L67.9996 92.7109L68.0554 92.9564L68.1271 93.1967L68.2148 93.4237L68.3158 93.6429L68.4326 93.8541L68.5628 94.0495L68.7036 94.2317L68.8577 94.4059L69.0197 94.5617L69.1924 94.7069L69.3757 94.8389L69.5643 94.9551L69.7609 95.0581L69.9655 95.1452L70.1727 95.2165L70.3852 95.2719L70.603 95.3142L70.8209 95.3379L71.0414 95.3458L71.2672 95.3379L71.4877 95.3115L71.7082 95.2693L71.9287 95.2086L72.1412 95.1293L72.3511 95.0343L72.5556 94.9181L72.7495 94.7861L72.9328 94.6383L73.1108 94.4719L73.2729 94.2897L73.4216 94.0944L73.5598 93.8831L73.682 93.6613L73.7909 93.4264L73.8865 93.1782L73.9662 92.9194L74.0326 92.6501L74.0858 92.3676L74.123 92.0772L74.1469 91.7762L74.1548 91.4594L74.1469 91.1557C74.1336 90.5933 73.666 90.1498 73.1028 90.1603C72.5423 90.1656 72.0934 90.6303 72.1066 91.1927Z" fill="#673065"/>
<path d="M68.4167 90.3663L68.2706 90.4402L68.1617 90.4877L68.0554 90.5247L67.9571 90.5511L67.8668 90.5696L67.7791 90.5801L67.6968 90.5828L67.6224 90.5801L67.548 90.5696L67.4763 90.5537L67.4099 90.5353L67.3435 90.5115L67.2797 90.4825L67.2213 90.4508L67.1628 90.4112L67.1044 90.3689L67.0539 90.324L67.0034 90.2712L66.9556 90.2158L66.9131 90.1603L66.8732 90.0996L66.8387 90.0362L66.8095 89.9755L66.7829 89.9095L66.7617 89.8435L66.7457 89.7801L66.7351 89.7141L66.7271 89.6481L66.7245 89.5874L66.7271 89.524L66.7351 89.4607L66.7484 89.4026L66.767 89.3392L66.7909 89.2785L66.8175 89.2204L66.852 89.157L66.8945 89.0937L66.9423 89.0329L67.0034 88.9669L67.0725 88.8983L67.1522 88.8323L67.2478 88.7636L67.3567 88.695L67.4789 88.629L67.6197 88.563L67.7765 88.4996L67.9491 88.4415L68.1696 88.3808C68.7435 88.2197 69.0782 87.6283 68.9161 87.0554C68.7541 86.4851 68.1564 86.1524 67.5825 86.3134L67.3089 86.39L67.0247 86.4877L66.7564 86.596L66.5013 86.7148L66.2569 86.8494L66.0311 86.992L65.8186 87.1478L65.6194 87.3168L65.4387 87.4937L65.274 87.6811L65.1252 87.8791L64.9977 88.0824L64.8862 88.291L64.7932 88.5102L64.7188 88.7293L64.663 88.9485L64.6258 89.1729L64.6072 89.3947L64.6019 89.6138L64.6152 89.8329L64.6444 90.0468L64.6869 90.2554L64.7454 90.464L64.8171 90.662L64.9021 90.8547L65.0004 91.0448L65.1093 91.2244L65.2288 91.396L65.3617 91.5623L65.5051 91.7155L65.6592 91.8607L65.8266 91.998L66.0019 92.1221L66.1852 92.2356L66.3818 92.3386L66.5837 92.4257L66.7935 92.4996L67.014 92.5577L67.2399 92.6L67.4683 92.6264L67.7074 92.6343L67.9438 92.6237L68.1829 92.5947L68.4273 92.5472L68.6691 92.4811L68.9082 92.3967L69.1499 92.2937L69.3571 92.1881C69.8592 91.9293 70.0558 91.3168 69.7981 90.8178C69.5351 90.3029 68.9188 90.1075 68.4167 90.3663Z" fill="#673065"/>
<path d="M67.4125 86.8679L67.2478 86.7913L67.115 86.72L66.9901 86.6461L66.8759 86.5696L66.7723 86.493L66.6767 86.4138L66.589 86.3346L66.512 86.2554L66.4429 86.1735L66.3818 86.0943L66.3287 86.0151L66.2808 85.9359L66.2383 85.8567L66.2038 85.7801L66.1772 85.7009L66.156 85.6243L66.14 85.5504L66.1294 85.4765L66.1241 85.4025L66.1214 85.3313L66.1241 85.2573L66.1321 85.1834L66.1454 85.1148L66.1613 85.0435L66.1825 84.9722L66.2091 84.9035L66.241 84.8322L66.2782 84.761L66.318 84.6923L66.3658 84.6237L66.419 84.555L66.4774 84.489L66.5438 84.423L66.6156 84.357L66.6926 84.2936L66.7803 84.2303L66.8732 84.1695L66.9715 84.1141L67.0805 84.0586L67.1973 84.0058L67.3195 83.9583L67.4524 83.9134L67.5932 83.8712L67.7393 83.8342L67.8987 83.8025L68.066 83.7761L68.2387 83.7577L68.4433 83.7444C69.0383 83.7022 69.4873 83.1873 69.4448 82.5959C69.4023 82.0045 68.8843 81.5583 68.2892 81.6005L68.0395 81.619L67.7738 81.6507L67.5188 81.693L67.2691 81.7431L67.0247 81.8038L66.7909 81.8751L66.5624 81.9543L66.3419 82.0441L66.1294 82.1418L65.9249 82.25L65.7283 82.3689L65.5423 82.4956L65.367 82.6302L65.197 82.7728L65.0402 82.9233L64.8941 83.0791L64.756 83.2454L64.6311 83.4144L64.5169 83.5887L64.4133 83.7735L64.323 83.9583L64.2433 84.1484L64.1769 84.3464L64.1237 84.5445L64.0812 84.7451L64.052 84.9511L64.0387 85.1544L64.0361 85.3577L64.0467 85.5662L64.0706 85.7695L64.1078 85.9728L64.1583 86.1762L64.222 86.3742L64.2991 86.5696L64.3894 86.7623L64.4903 86.9471L64.6019 87.1293L64.7268 87.3088L64.8622 87.4804L65.0084 87.6441L65.1677 87.8026L65.3378 87.9531L65.5158 88.0983L65.707 88.2382L65.9063 88.3676L66.1135 88.489L66.334 88.6052L66.5412 88.7029C67.0539 88.9405 67.6622 88.724 67.9013 88.2144C68.1457 87.7101 67.9252 87.1055 67.4125 86.8679Z" fill="#673065"/>
<path d="M55.6865 95.3749L55.7901 95.4435L55.8619 95.4964L55.9256 95.5518L55.9814 95.6046L56.0292 95.6548L56.0717 95.7049L56.1089 95.7551L56.1381 95.8L56.1647 95.8475L56.186 95.8924L56.2019 95.9346L56.2152 95.9769L56.2258 96.0191L56.2338 96.0587L56.2391 96.101L56.2418 96.1432V96.1828L56.2391 96.2251L56.2338 96.2673L56.2258 96.3069L56.2152 96.3492L56.2019 96.3914L56.186 96.431L56.1647 96.4733L56.1408 96.5129L56.1169 96.5498L56.0877 96.5894L56.0558 96.6264L56.0239 96.6607L55.9867 96.695L55.9469 96.7294L55.907 96.7584L55.8619 96.7874L55.8167 96.8165L55.7715 96.8403L55.7211 96.864L55.6679 96.8851L55.6148 96.901L55.5564 96.9168L55.4953 96.93L55.4342 96.9379L55.3651 96.9432L55.2934 96.9459L55.2216 96.9432L55.1446 96.9353L55.0622 96.9247L54.9799 96.9089L54.9055 96.8904L54.7222 96.8297L54.5628 96.761L54.4034 96.6766L54.2414 96.5789L54.082 96.4653L53.9199 96.336L53.7579 96.1934L53.5958 96.0376L53.4311 95.8686L53.2664 95.6891L53.1017 95.499L52.9343 95.301L52.7643 95.0924L52.589 94.8812L52.4163 94.6673L52.233 94.4455L52.0471 94.229L51.8584 94.0099L51.6565 93.7881L51.4467 93.5716L51.2288 93.3604L50.9977 93.1571L50.7507 92.959L50.493 92.7769L50.1264 92.5419L49.7518 92.3227L49.3719 92.1194L48.9867 91.9267L48.5962 91.7472L48.203 91.5782L47.8072 91.4171L47.4087 91.264L47.0103 91.1188L46.6118 90.9788L46.2133 90.8442L45.8148 90.7122L45.419 90.5854L45.0258 90.4587L44.6326 90.332L44.2474 90.2079L43.8649 90.0785L43.4877 89.9491L43.1158 89.8118L42.7518 89.6772L42.3958 89.532L42.0478 89.3894L41.7131 89.231L41.3651 89.0673L41.1233 88.9432L40.8789 88.8112L40.6425 88.6791L40.4114 88.5471L40.1909 88.4178L39.9757 88.2857L39.7685 88.1564L39.5693 88.027L39.378 87.8976L39.192 87.7683L39.014 87.6389L38.844 87.5095L38.6793 87.3801L38.5226 87.2507L38.3712 87.1214L38.2277 86.992L38.0896 86.8626L37.9674 86.7412L37.7123 86.4745L37.4918 86.2184L37.2899 85.9597L37.1066 85.7009L36.9446 85.4448L36.8011 85.1834L36.671 84.922L36.5567 84.658L36.4584 84.3887L36.3708 84.1141L36.2964 83.8369L36.2353 83.5517L36.1848 83.2613L36.145 82.9656L36.1158 82.6593L36.0945 82.3451L36.0839 82.0256L36.0812 81.6982L36.0865 81.3629L36.0998 81.0197L36.1211 80.6685L36.1476 80.3095L36.1795 79.9425L36.2167 79.5649L36.2565 79.182L36.3017 78.7913L36.3469 78.39L36.3947 77.9781L36.4425 77.5636L36.4903 77.1358L36.5381 76.7055L36.5806 76.2619L36.6232 75.8183L36.6603 75.3589L36.6922 74.8916L36.7188 74.4163L36.74 73.9332L36.7533 73.4421L36.7586 72.951C36.7639 72.3569 36.2831 71.8738 35.6854 71.8685C35.0877 71.8632 34.6015 72.3411 34.5962 72.9351L34.5936 73.4078L34.5829 73.8619L34.5643 74.3134L34.5404 74.7596L34.5112 75.1979L34.4767 75.6309L34.4368 76.0612L34.397 76.4916L34.3518 76.9088L34.3066 77.3286L34.2588 77.7378L34.211 78.1497L34.1658 78.5537L34.1207 78.955L34.0782 79.3537L34.0383 79.7497L34.0038 80.1431L33.9746 80.5339L33.9507 80.922L33.9347 81.3101L33.9268 81.693L33.9294 82.0758L33.9427 82.4586L33.9666 82.8388L34.0038 83.2164L34.0543 83.594L34.1207 83.9689L34.203 84.3438L34.304 84.7187L34.4235 85.0884L34.5617 85.4554L34.7211 85.8197L34.8991 86.1788L35.0983 86.5326L35.3214 86.8838L35.5658 87.2296L35.8315 87.5676L36.1237 87.9029L36.4292 88.2224L36.6019 88.3914L36.7746 88.5524L36.9526 88.7108L37.1359 88.8692L37.3271 89.025L37.5237 89.1808L37.7256 89.3339L37.9355 89.4871L38.1507 89.6376L38.3738 89.7881L38.6049 89.9386L38.8414 90.0864L39.0831 90.2343L39.3328 90.3795L39.5905 90.5247L39.8535 90.6699L40.1245 90.8125L40.4167 90.9604L40.7913 91.1372L41.1791 91.3168L41.5776 91.4805L41.9708 91.6389L42.3746 91.7841L42.7704 91.9267L43.1715 92.0613L43.57 92.1934L43.9712 92.3227L44.367 92.4495L44.7628 92.5762L45.156 92.7003L45.5438 92.8244L45.9264 92.9511L46.3036 93.0805L46.6755 93.2125L47.0395 93.3498L47.3954 93.4924L47.7435 93.6402L48.0808 93.7934L48.4102 93.9544L48.729 94.1234L49.0372 94.3003L49.3347 94.4904L49.4941 94.6039L49.6509 94.7307L49.8129 94.8732L49.975 95.029L50.137 95.1954L50.2991 95.3723L50.4664 95.5676L50.6364 95.7657L50.8038 95.969L50.9791 96.1828L51.1545 96.3967L51.3351 96.6158L51.5237 96.8376L51.7176 97.0594L51.9195 97.2785L52.1294 97.495L52.3526 97.7063L52.5863 97.9096L52.8334 98.105L53.0964 98.2898L53.3727 98.4587L53.6676 98.6119L53.9837 98.7465L54.2945 98.8495L54.5044 98.905L54.6983 98.9446L54.8896 98.971L55.0808 98.9894L55.2721 98.9947L55.4581 98.9894L55.6414 98.9736L55.8247 98.9498L56 98.9155L56.1727 98.8706L56.3427 98.8152L56.5047 98.7518L56.6615 98.6805L56.8156 98.5987L56.9617 98.5116L57.1025 98.4165L57.238 98.3109L57.3628 98.2026L57.4824 98.0865L57.5966 97.9624L57.7002 97.8356L57.7958 97.7036L57.8862 97.5637L57.9658 97.4211L58.0376 97.2733L58.1013 97.1175L58.1545 96.9617L58.1996 96.8007L58.2342 96.6343L58.2581 96.468L58.2714 96.299L58.274 96.1247L58.266 95.9531L58.2474 95.7815L58.2156 95.6072L58.1731 95.4356L58.1199 95.2666L58.0535 95.0977L57.9765 94.934L57.8888 94.7756L57.7879 94.6171L57.6763 94.4666L57.5541 94.3214L57.4213 94.1815L57.2805 94.0495L57.129 93.9227L56.967 93.8013L56.8182 93.701C56.348 93.3894 55.7131 93.5135 55.3996 93.9808C55.0915 94.4297 55.2163 95.0633 55.6865 95.3749Z" fill="#673065"/>
<path d="M56.7863 97.9729L56.9537 98.1314L57.1556 98.2977L57.3628 98.4429L57.578 98.5723L57.8011 98.6858L58.0269 98.7782L58.2554 98.8548L58.4892 98.9155L58.7203 98.9578L58.9514 98.9868L59.1852 98.9974L59.4137 98.9921L59.6395 98.9736L59.8653 98.9419L60.0831 98.8944L60.2956 98.8363L60.5082 98.7624L60.7101 98.6779L60.9066 98.5802L61.1006 98.4693L61.2839 98.3479L61.4592 98.2158L61.6292 98.068L61.786 97.9122L61.9321 97.7432L62.0702 97.5611L62.1924 97.371L62.3013 97.1703L62.397 96.9564L62.474 96.7346L62.5351 96.5049L62.5776 96.2647L62.5989 96.0218V95.7762L62.5776 95.5228L62.5351 95.2719L62.474 95.0211L62.389 94.7676L62.2854 94.5221L62.1632 94.2792L62.0171 94.0363L61.8524 93.8013L61.6691 93.5716L61.4645 93.3445L61.244 93.1227L61.0049 92.9062L60.7446 92.6924L60.4816 92.497C60.0034 92.1432 59.326 92.2409 58.97 92.7161C58.614 93.1914 58.7123 93.8647 59.1905 94.2185L59.4163 94.3848L59.5996 94.5326L59.7617 94.6779L59.9051 94.8204L60.0273 94.9551L60.1309 95.0845L60.2186 95.2086L60.2877 95.3221L60.3461 95.433L60.3913 95.536L60.4232 95.6284L60.4471 95.7181L60.463 95.8L60.471 95.8739L60.4736 95.9478L60.471 96.0165L60.463 96.0798L60.4471 96.1459L60.4285 96.2092L60.4046 96.27L60.3727 96.3333L60.3355 96.3967L60.2956 96.4548L60.2452 96.5155L60.1894 96.5736L60.1309 96.6264L60.0645 96.6792L59.9928 96.7294L59.9211 96.7742L59.8414 96.8165L59.759 96.8535L59.6767 96.8851L59.589 96.9115L59.4987 96.9327L59.4084 96.9459L59.3154 96.9538L59.2224 96.9564L59.1321 96.9538L59.0391 96.9432L58.9461 96.9274L58.8584 96.9063L58.7681 96.8772L58.6778 96.8403L58.5901 96.7954L58.4998 96.7426L58.4095 96.6792L58.3218 96.6079L58.2076 96.4997C57.7985 96.1142 57.1503 96.13 56.7598 96.5366C56.3586 96.9432 56.3772 97.5875 56.7863 97.9729Z" fill="#673065"/>
<path d="M61.1006 94.7175L61.3237 94.6752L61.5681 94.6171L61.8019 94.5458L62.0277 94.464L62.2482 94.3689L62.4554 94.2633L62.6547 94.1472L62.8459 94.0178L63.0239 93.8805L63.1939 93.7353L63.3533 93.5795L63.4994 93.4184L63.6349 93.2495L63.7624 93.0726L63.8767 92.8904L63.9803 92.7056L64.0733 92.5128L64.153 92.3174L64.222 92.1194L64.2805 91.9161L64.3256 91.7128L64.3602 91.5069L64.3841 91.2983L64.3947 91.0897V90.8811L64.3814 90.6699L64.3575 90.4613L64.323 90.2554L64.2751 90.0468L64.2167 89.8435L64.145 89.6428L64.06 89.4422L63.9643 89.2494L63.8581 89.0593L63.7359 88.8719L63.603 88.6923L63.4596 88.5207L63.3002 88.3544L63.1328 88.1986L62.9548 88.0507L62.7636 87.9108L62.5617 87.7841L62.3518 87.6653L62.1287 87.557L61.8975 87.462L61.6585 87.3775L61.4087 87.3062L61.1803 87.2534C60.5985 87.1214 60.0194 87.4857 59.8865 88.064C59.7537 88.6422 60.1203 89.2178 60.7021 89.3498L60.8748 89.3867L61.0076 89.4237L61.1325 89.4659L61.2493 89.5135L61.3556 89.5636L61.4566 89.6191L61.5522 89.6772L61.6372 89.7379L61.7169 89.8039L61.7913 89.8725L61.8577 89.9412L61.9214 90.0151L61.9799 90.0917L62.033 90.1683L62.0808 90.2501L62.1233 90.3346L62.1605 90.4164L62.1924 90.5036L62.2216 90.5933L62.2455 90.6831L62.2641 90.7755L62.2774 90.8679L62.2854 90.9603L62.2881 91.0554L62.2854 91.1504L62.2774 91.2428L62.2641 91.3379L62.2455 91.4303L62.2243 91.5201L62.1951 91.6099L62.1632 91.6996L62.126 91.7841L62.0835 91.8686L62.0357 91.9504L61.9826 92.027L61.9241 92.1036L61.8603 92.1775L61.7939 92.2462L61.7196 92.3122L61.6399 92.3755L61.5575 92.4336L61.4645 92.4891L61.3662 92.5419L61.2626 92.5868L61.1484 92.629L61.0262 92.666L60.8987 92.6976L60.734 92.7267C60.1788 92.8297 59.8095 93.3577 59.9131 93.9122C60.0114 94.4534 60.5454 94.8178 61.1006 94.7175Z" fill="#673065"/>
</g>
<defs>
<clipPath id="clip0_1182_350">
<rect width="91" height="99" fill="white"/>
</clipPath>
</defs>
</svg>
