<svg width="479" height="73" viewBox="0 0 479 73" fill="none" xmlns="http://www.w3.org/2000/svg">
<path d="M452.919 0C440.832 0 430.654 4.12609 430.654 8.88696V29.2H448.784C465.959 29.2 479.318 23.8043 479.318 13.6478C479 3.17391 465.323 0 452.919 0Z" fill="white"/>
<path d="M363.226 27.9312H427.156C422.067 15.8703 402.983 9.20508 378.811 9.20508H349.549V42.2138C349.549 46.3399 354.638 50.1486 362.271 53.0051V27.9312H363.226Z" fill="white"/>
<path d="M364.18 53.6393C370.223 55.5437 377.856 56.4958 385.808 56.4958C406.164 56.4958 428.428 51.4176 428.428 34.2784C428.428 32.6915 428.11 31.1045 427.792 29.835H364.18V53.6393Z" fill="white"/>
<path d="M57.8869 36.8174H50.8895V72.0478H57.8869V36.8174Z" fill="white"/>
<path d="M298.023 68.2391V71.7304H265.899V36.5H295.797V40.3087H272.897V51.7348H292.298V55.2261H272.897V68.2391H298.023Z" fill="white"/>
<path d="M325.377 52.6869L340.008 36.8174H333.328L321.878 48.8782L310.746 36.8174H302.476L318.061 53.6391H317.743L301.204 71.7304H307.883L321.242 57.4478L333.964 71.7304H342.552L325.377 52.6869Z" fill="white"/>
<path d="M90.0107 39.3574C80.4689 39.3574 74.7438 45.3879 74.7438 53.9574C74.7438 64.1139 81.7412 68.8748 90.3288 68.8748C99.8706 68.8748 105.596 62.8444 105.596 53.9574C105.278 46.0226 100.507 39.3574 90.0107 39.3574ZM90.0107 73.0009C76.3341 73.3183 67.1104 66.0183 67.1104 54.9096C67.1104 45.0705 74.7438 36.1835 90.0107 35.8661C105.596 35.5487 112.911 45.0705 112.911 53.9574C112.911 64.7487 104.323 72.6835 90.0107 73.0009Z" fill="white"/>
<path d="M186.384 39.3574C176.842 39.3574 171.117 45.3879 171.117 53.9574C171.117 64.1139 178.114 68.8748 186.702 68.8748C196.244 68.8748 201.969 62.8444 201.969 53.9574C201.651 46.0226 196.88 39.3574 186.384 39.3574ZM186.384 73.0009C172.707 73.3183 163.483 66.0183 163.483 54.9096C163.483 45.0705 171.117 36.1835 186.384 35.8661C201.969 35.5487 209.284 45.0705 209.284 53.9574C209.284 64.7487 200.697 72.6835 186.384 73.0009Z" fill="white"/>
<path d="M159.985 40.9435C156.168 37.7696 150.443 35.8652 142.81 35.8652C126.906 35.8652 118.637 44.7522 118.637 54.5913C118.637 65.7 128.497 73 142.81 73C150.125 73 155.85 71.0957 160.621 67.9218L157.122 64.7478C153.306 66.9696 149.489 68.8739 144.082 68.8739C134.222 68.8739 125.952 64.1131 125.952 53.9565C125.952 45.0696 132.313 39.3565 142.81 39.3565C148.535 39.3565 152.351 40.6261 155.532 43.1652L159.985 40.9435Z" fill="white"/>
<path d="M236.001 67.6044C233.457 67.9218 229.958 68.2391 228.368 68.2391H223.279V47.6087C223.279 46.0218 223.915 43.8 225.505 42.5305C227.732 40.3087 231.867 39.6739 236.32 39.6739C243.635 39.6739 250.632 44.1174 250.632 53.0044C250.632 63.1609 242.681 66.6522 236.001 67.6044ZM235.683 35.8652C228.05 35.8652 220.416 39.0391 218.19 42.8478C216.6 45.0696 216.6 47.2913 216.6 48.8783V72.0478H230.912C232.821 72.0478 236.32 72.0478 238.228 71.7305C249.996 70.1435 258.584 63.7957 258.584 53.0044C258.266 39.6739 246.497 35.8652 235.683 35.8652Z" fill="white"/>
<path d="M26.081 67.9218C24.8088 68.2392 22.9004 68.2392 21.3101 68.2392H6.99734V48.5609C6.99734 46.0218 7.3154 43.4826 9.85989 41.5783C12.0863 39.9913 15.585 39.0392 20.0378 39.0392C25.7629 39.0392 31.17 41.5783 31.17 45.7044C31.17 48.2435 28.9436 50.7826 23.5365 51.4174C22.5823 51.4174 20.3559 51.7348 19.4017 51.7348H10.496V55.2261H21.3101C22.2643 55.2261 24.1726 55.2261 25.1268 55.2261C30.8519 55.8609 33.7145 58.0826 33.7145 61.2565C33.7145 64.4305 31.488 66.9696 26.081 67.9218ZM32.1242 52.687C35.9409 51.1 37.8493 48.5609 37.8493 45.387C37.8493 39.0392 30.2158 35.2305 19.4017 35.2305C12.7224 35.2305 6.67928 37.1348 3.18061 39.9913C0.954183 41.8957 0 44.1174 0 48.2435V71.4131H6.99734H22.2643C24.4907 71.4131 27.6713 71.0957 29.5797 70.7783C36.259 69.5087 40.3938 66.0174 40.3938 61.2565C40.3938 57.4479 37.8493 54.5913 32.1242 52.687Z" fill="white"/>
</svg>
