<svg width="75" height="72" viewBox="0 0 75 72" fill="none" xmlns="http://www.w3.org/2000/svg">
<path d="M54.7868 1.35167V0.484375C54.7868 9.92822 47.0775 17.6375 37.6337 17.6375C28.1899 17.6375 20.4806 9.92822 20.4806 0.484375V1.35167" stroke="#7B487B" stroke-width="3" stroke-miterlimit="10"/>
<path d="M44.9569 15.7097V19.9498C44.9569 23.1299 46.8842 25.9245 49.7752 27.1772L60.3754 32.9592C67.7956 35.9465 72.6139 43.0776 72.6139 51.076V67.8436" stroke="#7B487B" stroke-width="3" stroke-miterlimit="10"/>
<path d="M15.5659 64.1817C14.5059 62.4471 13.9277 60.4234 13.9277 58.207V52.8105" stroke="#7B487B" stroke-width="3" stroke-miterlimit="10"/>
<path d="M37.0557 52.8105V58.207" stroke="#7B487B" stroke-width="3" stroke-miterlimit="10"/>
<path d="M37.0557 58.207V52.8105" stroke="#7B487B" stroke-width="3" stroke-miterlimit="10"/>
<path d="M60.1832 52.8103V58.2068C60.1832 64.5669 54.9795 69.7707 48.6193 69.7707C48.6193 69.7707 47.6557 69.7707 47.1738 69.578" stroke="#7B487B" stroke-width="3" stroke-miterlimit="10"/>
<path d="M29.5388 15.7097V19.9498C29.5388 23.1299 27.6115 25.9245 24.7205 27.1772L14.1203 32.9592C6.70012 35.9465 1.88184 43.0776 1.88184 51.076V67.8436L45.1501 56.2797C48.7156 55.2197 52.2811 56.3761 53.7266 59.6525C55.1721 62.9289 53.6303 66.7836 50.3538 68.2291L45.4392 70.1564" stroke="#7B487B" stroke-width="3" stroke-miterlimit="10"/>
<path d="M13.8318 0.484375C14.2173 3.66445 13.0609 8.00091 11.23 13.2047C8.62809 20.6248 9.20629 28.5268 14.41 33.056" stroke="#7B487B" stroke-width="3" stroke-miterlimit="10"/>
<path d="M61.6289 0.484375C61.2435 3.76081 62.3998 8.19364 64.2308 13.4938C66.8327 21.0103 66.2545 29.2014 61.0507 33.7306" stroke="#7B487B" stroke-width="3" stroke-miterlimit="10"/>
</svg>
