<svg width="39" height="37" viewBox="0 0 39 37" fill="none" xmlns="http://www.w3.org/2000/svg">
<path d="M14.6073 35.1625C15.4906 35.1625 16.2067 34.4464 16.2067 33.5631C16.2067 32.6797 15.4906 31.9636 14.6073 31.9636C13.7239 31.9636 13.0078 32.6797 13.0078 33.5631C13.0078 34.4464 13.7239 35.1625 14.6073 35.1625Z" stroke="white" stroke-width="3" stroke-linecap="round" stroke-linejoin="round"/>
<path d="M32.202 35.1628C33.0853 35.1628 33.8014 34.4467 33.8014 33.5633C33.8014 32.68 33.0853 31.9639 32.202 31.9639C31.3186 31.9639 30.6025 32.68 30.6025 33.5633C30.6025 34.4467 31.3186 35.1628 32.202 35.1628Z" stroke="white" stroke-width="3" stroke-linecap="round" stroke-linejoin="round"/>
<path d="M1.8125 1.57422H8.21031L12.4968 22.9909C12.6431 23.7273 13.0437 24.3888 13.6285 24.8595C14.2134 25.3303 14.9451 25.5804 15.6958 25.566H31.2424C31.9931 25.5804 32.7248 25.3303 33.3097 24.8595C33.8945 24.3888 34.2951 23.7273 34.4413 22.9909L37.0005 9.57148H9.80977" stroke="white" stroke-width="3" stroke-linecap="round" stroke-linejoin="round"/>
</svg>
