<svg width="47" height="46" viewBox="0 0 47 46" fill="none" xmlns="http://www.w3.org/2000/svg">
<path d="M18.3177 44.3804C20.3086 44.3804 21.9225 42.7665 21.9225 40.7756C21.9225 38.7848 20.3086 37.1709 18.3177 37.1709C16.3269 37.1709 14.713 38.7848 14.713 40.7756C14.713 42.7665 16.3269 44.3804 18.3177 44.3804Z" stroke="#673065" stroke-width="3" stroke-linecap="round" stroke-linejoin="round"/>
<path d="M39.2908 44.3804C41.2816 44.3804 42.8955 42.7665 42.8955 40.7756C42.8955 38.7848 41.2816 37.1709 39.2908 37.1709C37.2999 37.1709 35.686 38.7848 35.686 40.7756C35.686 42.7665 37.2999 44.3804 39.2908 44.3804Z" stroke="#673065" stroke-width="3" stroke-linecap="round" stroke-linejoin="round"/>
<path d="M2 2H9.74377L14.9321 27.9223C15.1091 28.8136 15.594 29.6142 16.3019 30.184C17.0097 30.7538 17.8954 31.0565 18.804 31.0391H37.6213C38.5299 31.0565 39.4156 30.7538 40.1234 30.184C40.8313 29.6142 41.3162 28.8136 41.4932 27.9223L44.5907 11.6797H11.6797" stroke="#673065" stroke-width="3" stroke-linecap="round" stroke-linejoin="round"/>
<g clip-path="url(#clip0_1216_3682)">
<path d="M38.8065 20.1561C38.613 19.4139 38.3098 18.7899 37.8906 18.2842C37.4714 17.7784 36.9489 17.404 36.3233 17.161C35.6977 16.9114 34.9882 16.7866 34.2014 16.7866C33.4338 16.7866 32.7437 16.9114 32.1245 17.161C31.4989 17.404 30.9765 17.7587 30.5444 18.2053C30.1122 18.6585 29.7768 19.1906 29.5382 19.8145C29.2996 20.4319 29.1835 21.1085 29.1835 21.8441C29.1835 22.6126 29.2996 23.3154 29.5382 23.9525C29.7704 24.583 30.1122 25.1282 30.5637 25.5814C31.0087 26.0346 31.5505 26.3827 32.189 26.6323C32.8276 26.8819 33.5564 27.0067 34.369 27.0067C34.7238 27.0067 35.0914 26.9738 35.4655 26.9081C35.8396 26.8424 36.2072 26.7439 36.5555 26.6126C36.9038 26.4812 37.2392 26.317 37.5617 26.1265C37.8777 25.9295 38.1679 25.6996 38.4195 25.4369L36.9296 23.9262C36.7877 24.0707 36.62 24.1955 36.4201 24.3071C36.2201 24.4188 36.0073 24.5108 35.7815 24.5896C35.5493 24.6684 35.3172 24.7275 35.085 24.7669C34.8463 24.8063 34.6206 24.826 34.4077 24.826C33.5822 24.826 32.9243 24.6356 32.4406 24.248C31.9569 23.8605 31.6731 23.3679 31.5957 22.7702C31.4215 21.4631 31.6344 20.7932 31.6344 20.7932C31.815 20.1626 32.1374 19.6963 32.6083 19.381C33.0791 19.0658 33.6338 18.9081 34.2723 18.9081C34.9495 18.9081 35.5042 19.0658 35.9428 19.381C36.3814 19.6963 36.6393 20.1626 36.7167 20.7932H32.4535C32.4535 20.7932 32.2406 21.4697 32.4148 22.7702H38.9548C39.0451 21.7718 38.9935 20.9048 38.8065 20.1561Z" fill="#683065"/>
<path d="M21.5277 23.4531H19.3671V26.6781H21.5277V23.4531Z" fill="#683065"/>
<path d="M28.8417 18.8424C28.8417 18.757 28.8352 18.6716 28.8288 18.5862C28.7062 16.977 27.6227 15.6371 26.1651 15.1773C25.7523 15.0657 25.2814 15.0066 24.8171 15H19.367V20.0903H21.5277V17.0493H24.8106C24.8429 17.0493 24.8751 17.0493 24.9074 17.0558C24.9332 17.0558 24.959 17.0493 24.9783 17.0493C25.9909 17.0493 26.81 17.8834 26.81 18.9146C26.81 19.4072 26.623 19.8539 26.3198 20.1823C26.3134 20.1888 26.3134 20.1888 26.3069 20.1954C26.3005 20.202 26.3005 20.202 26.3005 20.202C26.2811 20.2282 26.2554 20.2479 26.236 20.2677C26.2102 20.2939 26.1909 20.3136 26.1651 20.3333C26.1264 20.3662 26.0941 20.3924 26.0554 20.4187C26.049 20.4253 26.049 20.4253 26.0425 20.4319C25.7458 20.6486 25.3782 20.7734 24.9848 20.7734C24.959 20.7734 24.9332 20.7734 24.9138 20.7668C24.8816 20.7668 24.8493 20.7734 24.8171 20.7734H21.934H21.5277H18.6898V20.0903L17 21.7718L18.6898 23.4532V22.7635H21.5277H21.934H25.0299C27.0035 22.7635 28.6224 21.2397 28.8223 19.289C28.8223 19.2759 28.8223 19.2693 28.8288 19.2562C28.8352 19.2102 28.8352 19.1642 28.8352 19.1182C28.8417 19.0328 28.8417 18.954 28.8417 18.8686C28.8481 18.8621 28.8417 18.8489 28.8417 18.8424Z" fill="#683065"/>
<path d="M25.1073 23.4663H24.2043L26.9584 26.6847H29.5189V26.5205L26.623 23.197C26.1522 23.3678 25.6426 23.4663 25.1073 23.4663Z" fill="#683065"/>
</g>
<defs>
<clipPath id="clip0_1216_3682">
<rect width="22" height="12" fill="white" transform="translate(17 15)"/>
</clipPath>
</defs>
</svg>
