<svg width="42" height="42" viewBox="0 0 42 42" fill="none" xmlns="http://www.w3.org/2000/svg">
<path d="M39.9999 19.9445C40.0072 22.7309 39.3562 25.4796 38.0999 27.9667C36.6104 30.947 34.3205 33.4538 31.4868 35.2063C28.653 36.9587 25.3874 37.8876 22.0555 37.8889C19.2691 37.8962 16.5204 37.2451 14.0333 35.9889L2 40L6.01111 27.9667C4.75485 25.4796 4.10384 22.7309 4.11111 19.9445C4.1124 16.6126 5.04129 13.347 6.79373 10.5132C8.54618 7.67947 11.053 5.38959 14.0333 3.90006C16.5204 2.6438 19.2691 1.9928 22.0555 2.00006H23.1111C27.5114 2.24282 31.6675 4.10011 34.7837 7.21631C37.8999 10.3325 39.7572 14.4886 39.9999 18.8889V19.9445Z" stroke="#3EBDAC" stroke-width="3" stroke-linecap="round" stroke-linejoin="round"/>
</svg>
