<svg width="134" height="133" viewBox="0 0 134 133" fill="none" xmlns="http://www.w3.org/2000/svg">
<path d="M131.875 88.0195C131.875 91.8431 130.356 95.51 127.652 98.2137C124.949 100.917 121.282 102.436 117.458 102.436H30.9583L2.125 131.27V15.9362C2.125 12.1127 3.64389 8.44572 6.34754 5.74207C9.05119 3.03843 12.7181 1.51953 16.5417 1.51953H117.458C121.282 1.51953 124.949 3.03843 127.652 5.74207C130.356 8.44572 131.875 12.1127 131.875 15.9362V88.0195Z" stroke="#7B487B" stroke-width="3" stroke-linecap="round" stroke-linejoin="round"/>
<path d="M27.2812 50.0361H28.4766C29.5938 50.0361 30.4297 49.8174 30.9844 49.3799C31.5391 48.9346 31.8164 48.29 31.8164 47.4463C31.8164 46.5947 31.582 45.9658 31.1133 45.5596C30.6523 45.1533 29.9258 44.9502 28.9336 44.9502H27.2812V50.0361ZM35.4844 47.3174C35.4844 49.1611 34.9062 50.5713 33.75 51.5479C32.6016 52.5244 30.9648 53.0127 28.8398 53.0127H27.2812V59.1064H23.6484V41.9736H29.1211C31.1992 41.9736 32.7773 42.4229 33.8555 43.3213C34.9414 44.2119 35.4844 45.5439 35.4844 47.3174ZM43.8633 48.3018C43.1055 48.3018 42.5117 48.5439 42.082 49.0283C41.6523 49.5049 41.4062 50.1846 41.3438 51.0674H46.3594C46.3438 50.1846 46.1133 49.5049 45.668 49.0283C45.2227 48.5439 44.6211 48.3018 43.8633 48.3018ZM44.3672 59.3408C42.2578 59.3408 40.6094 58.7588 39.4219 57.5947C38.2344 56.4307 37.6406 54.7822 37.6406 52.6494C37.6406 50.4541 38.1875 48.7588 39.2812 47.5635C40.3828 46.3604 41.9023 45.7588 43.8398 45.7588C45.6914 45.7588 47.1328 46.2861 48.1641 47.3408C49.1953 48.3955 49.7109 49.8525 49.7109 51.7119V53.4463H41.2617C41.3008 54.4619 41.6016 55.2549 42.1641 55.8252C42.7266 56.3955 43.5156 56.6807 44.5312 56.6807C45.3203 56.6807 46.0664 56.5986 46.7695 56.4346C47.4727 56.2705 48.207 56.0088 48.9727 55.6494V58.415C48.3477 58.7275 47.6797 58.958 46.9688 59.1064C46.2578 59.2627 45.3906 59.3408 44.3672 59.3408Z" fill="#7B487B"/>
<path d="M66.8672 59.1064H62.7422L56.5312 50.4229V59.1064H52.8984V41.9736H56.5312V50.2705L62.6719 41.9736H66.5391L60.293 50.2002L66.8672 59.1064ZM75.9375 59.3408C74.3984 59.3408 73.1914 58.7822 72.3164 57.665H72.1289C72.2539 58.7588 72.3164 59.3916 72.3164 59.5635V64.8721H68.7422V46.0049H71.6484L72.1523 47.7041H72.3164C73.1523 46.4072 74.3906 45.7588 76.0312 45.7588C77.5781 45.7588 78.7891 46.3564 79.6641 47.5518C80.5391 48.7471 80.9766 50.4072 80.9766 52.5322C80.9766 53.9307 80.7695 55.1455 80.3555 56.1768C79.9492 57.208 79.3672 57.9932 78.6094 58.5322C77.8516 59.0713 76.9609 59.3408 75.9375 59.3408ZM74.8828 48.6182C74 48.6182 73.3555 48.8916 72.9492 49.4385C72.543 49.9775 72.332 50.8721 72.3164 52.1221V52.5088C72.3164 53.915 72.5234 54.9229 72.9375 55.5322C73.3594 56.1416 74.0234 56.4463 74.9297 56.4463C76.5312 56.4463 77.332 55.126 77.332 52.4854C77.332 51.1963 77.1328 50.2314 76.7344 49.5908C76.3438 48.9424 75.7266 48.6182 74.8828 48.6182ZM89.3555 48.3018C88.5977 48.3018 88.0039 48.5439 87.5742 49.0283C87.1445 49.5049 86.8984 50.1846 86.8359 51.0674H91.8516C91.8359 50.1846 91.6055 49.5049 91.1602 49.0283C90.7148 48.5439 90.1133 48.3018 89.3555 48.3018ZM89.8594 59.3408C87.75 59.3408 86.1016 58.7588 84.9141 57.5947C83.7266 56.4307 83.1328 54.7822 83.1328 52.6494C83.1328 50.4541 83.6797 48.7588 84.7734 47.5635C85.875 46.3604 87.3945 45.7588 89.332 45.7588C91.1836 45.7588 92.625 46.2861 93.6562 47.3408C94.6875 48.3955 95.2031 49.8525 95.2031 51.7119V53.4463H86.7539C86.793 54.4619 87.0938 55.2549 87.6562 55.8252C88.2188 56.3955 89.0078 56.6807 90.0234 56.6807C90.8125 56.6807 91.5586 56.5986 92.2617 56.4346C92.9648 56.2705 93.6992 56.0088 94.4648 55.6494V58.415C93.8398 58.7275 93.1719 58.958 92.4609 59.1064C91.75 59.2627 90.8828 59.3408 89.8594 59.3408ZM114.621 59.1064H111.281V48.7822L111.094 49.5088C110.672 51.1572 110.293 52.4033 109.957 53.2471L107.637 59.1064H105.094L102.738 53.2002C102.402 52.3408 102.043 51.1338 101.66 49.5791L101.438 48.7822V59.1064H98.1094V46.0049H103.031L105.281 51.5947C105.516 52.1963 105.73 52.8877 105.926 53.6689C106.129 54.4502 106.266 55.1182 106.336 55.6729C106.594 54.501 106.793 53.6611 106.934 53.1533C107.082 52.6377 107.242 52.165 107.414 51.7354C107.586 51.3057 108.363 49.3955 109.746 46.0049H114.621V59.1064Z" fill="#3EBDAC"/>
</svg>
