<svg width="137" height="140" viewBox="0 0 137 140" fill="none" xmlns="http://www.w3.org/2000/svg">
<path d="M136.99 70.043C136.99 108.498 106.308 139.811 68.6294 139.811C30.6814 139.811 0 108.498 0 70.043C0 31.3134 30.6814 0 68.3603 0C106.308 0 136.99 31.3134 136.99 70.043Z" fill="#683065"/>
<path d="M73.2061 48.8931H78.3196V57.9575H77.7813V49.7171H73.7443V57.9575H73.2061V48.8931Z" fill="white" stroke="white" stroke-width="0.1625" stroke-miterlimit="3.8637"/>
<path d="M79.6653 56.0338C79.6653 54.6604 80.4727 53.8364 81.8184 53.8364C82.6258 53.8364 82.8949 53.8364 83.4332 54.111V53.8364C83.4332 52.463 82.8949 51.9136 81.8184 51.9136C81.2801 51.9136 80.7418 52.1883 80.2036 52.463L79.9344 51.9136C80.4727 51.6389 81.011 51.3643 81.5492 51.3643C82.0875 51.3643 82.6258 51.6389 83.164 52.1883C83.4332 52.7376 83.7023 53.287 83.7023 54.111V58.2312H83.4332V57.1325C83.164 57.6819 82.6258 58.5059 81.5492 58.5059C80.7418 57.9565 79.6653 57.4072 79.6653 56.0338ZM83.4332 55.4844V54.6604C82.8949 54.3857 82.3566 54.3857 81.8184 54.3857C80.7418 54.3857 80.2036 54.9351 80.2036 56.0338C80.2036 56.8578 80.7418 57.4072 81.5492 57.4072C82.6258 57.4072 83.4332 56.5831 83.4332 55.4844Z" fill="white" stroke="white" stroke-width="0.1625" stroke-miterlimit="3.8637"/>
<path d="M85.5868 51.3635H86.1251V52.7369C86.6633 51.9129 87.2016 51.0889 88.009 51.0889C89.0856 51.0889 90.4312 52.4623 90.4312 54.385C90.4312 56.5824 89.3547 57.6812 88.009 57.6812C86.9325 57.6812 86.3942 56.8571 86.1251 56.0331V59.6039H85.5868V51.3635ZM89.893 54.6597C89.893 53.0116 89.0856 51.9129 88.009 51.9129C86.9325 51.9129 86.1251 53.0116 86.1251 54.6597C86.1251 56.3078 87.2016 57.4065 88.009 57.4065C89.0856 57.4065 89.893 56.3078 89.893 54.6597Z" fill="white" stroke="white" stroke-width="0.1625" stroke-miterlimit="3.8637"/>
<path d="M91.5076 56.0338C91.5076 54.6604 92.315 53.8364 93.6606 53.8364C94.4681 53.8364 94.7372 53.8364 95.2755 54.111V53.8364C95.2755 52.463 94.7372 51.9136 93.6606 51.9136C93.1224 51.9136 92.5841 52.1883 92.0458 52.463L91.7767 51.9136C92.315 51.6389 92.8532 51.3643 93.3915 51.3643C93.9298 51.3643 94.4681 51.6389 95.0063 52.1883C95.2755 52.7376 95.5446 53.287 95.5446 54.111V58.2312H95.0063V57.1325C94.7372 57.6819 94.1989 58.5059 93.1224 58.5059C92.315 57.9565 91.5076 57.4072 91.5076 56.0338ZM95.2755 55.4844V54.6604C94.7372 54.3857 94.1989 54.3857 93.6606 54.3857C92.5841 54.3857 92.0458 54.9351 92.0458 56.0338C92.0458 56.8578 92.5841 57.4072 93.3915 57.4072C94.4681 57.4072 95.2755 56.5831 95.2755 55.4844Z" fill="white" stroke="white" stroke-width="0.1625" stroke-miterlimit="3.8637"/>
<path d="M97.1584 54.3857C97.1584 52.1882 97.1585 50.2655 98.7733 49.7161L101.465 48.8921V49.4414L98.7733 50.2655C97.6967 50.5402 97.4276 51.3642 97.1584 52.7376C97.4276 51.9136 98.235 51.0895 99.3115 51.0895C100.657 51.0895 101.734 52.7376 101.734 54.3857C101.734 56.3084 100.657 57.6818 99.3115 57.6818C98.235 57.9565 97.1584 56.5831 97.1584 54.3857ZM101.465 54.6603C101.465 53.0123 100.657 51.9136 99.5807 51.9136C98.5041 51.9136 97.6967 53.2869 97.6967 54.6603C97.6967 56.3084 98.5041 57.4071 99.5807 57.4071C100.657 57.4071 101.465 56.0337 101.465 54.6603Z" fill="white" stroke="white" stroke-width="0.1625" stroke-miterlimit="3.8637"/>
<path d="M103.081 54.6604C103.081 52.7376 104.157 51.3643 105.503 51.3643C106.849 51.3643 107.656 52.7376 107.656 54.6604V54.9351H103.619C103.619 56.5831 104.696 57.4072 105.503 57.4072C106.31 57.4072 106.849 56.8578 107.118 56.3085L107.387 56.5831C106.849 57.4072 106.31 57.6819 105.503 57.6819C104.157 57.9565 103.081 56.5831 103.081 54.6604ZM107.118 54.3857C107.118 53.0123 106.58 51.9136 105.503 51.9136C104.426 51.9136 103.888 53.0123 103.619 54.3857H107.118Z" fill="white" stroke="white" stroke-width="0.1625" stroke-miterlimit="3.8637"/>
<path d="M109.002 51.3643H109.54V54.3857H112.77V51.3643H113.039V57.9565H112.5V54.9351H109.271V57.9565H108.733V51.3643H109.002Z" fill="white" stroke="white" stroke-width="0.1625" stroke-miterlimit="3.8637"/>
<path d="M114.921 48.8921H115.46V49.7161H114.921V48.8921ZM114.921 51.3642H115.46V57.9565H114.921V51.3642Z" fill="white" stroke="white" stroke-width="0.1625" stroke-miterlimit="3.8637"/>
<path d="M117.344 51.3638H119.497C120.304 51.3638 121.112 51.9131 121.112 53.0118C121.112 53.8359 120.573 54.3852 120.304 54.3852C120.843 54.6599 121.381 55.2093 121.381 56.0333C121.381 57.132 120.573 57.6814 119.766 57.6814H117.344V51.3638ZM119.497 54.1106C120.304 54.1106 120.573 53.5612 120.573 52.7372C120.573 52.1878 120.304 51.6384 119.497 51.6384H117.882V54.1106H119.497ZM119.497 57.4067C120.304 57.4067 120.843 56.8573 120.843 56.0333C120.843 55.2093 120.304 54.9346 119.497 54.9346H117.882V57.4067H119.497Z" fill="white" stroke="white" stroke-width="0.1625" stroke-miterlimit="3.8637"/>
<path d="M73.2061 65.6479H78.0505V66.1973H73.7443V69.7681H77.5122V70.3175H73.7443V74.163H78.0505V74.7123H73.2061V65.6479Z" fill="white" stroke="white" stroke-width="0.1625" stroke-miterlimit="3.8637"/>
<path d="M80.4729 68.669H78.589V68.1196H82.626V68.669H80.7421V74.7119H80.2038V68.669H80.4729Z" fill="white" stroke="white" stroke-width="0.1625" stroke-miterlimit="3.8637"/>
<path d="M83.7021 72.7892C83.7021 71.4158 84.5096 70.5917 85.8552 70.5917C86.6626 70.5917 86.9318 70.5917 87.47 70.8664V70.5917C87.47 69.2183 86.9318 68.669 85.8552 68.669C85.317 68.669 84.7787 68.9437 84.2404 69.2183L83.9713 68.669C84.5096 68.3943 85.0478 68.1196 85.5861 68.1196C86.1244 68.1196 86.6626 68.3943 87.2009 68.9437C87.47 69.493 87.7392 70.0424 87.7392 70.8664V74.9866H87.2009V73.8879C86.9318 74.4372 86.3935 75.2613 85.317 75.2613C84.5096 74.7119 83.7021 74.1626 83.7021 72.7892ZM87.47 72.2398V71.4158C86.9318 71.1411 86.3935 71.1411 85.8552 71.1411C84.7787 71.1411 84.2404 71.6905 84.2404 72.7892C84.2404 73.6132 84.7787 74.1626 85.5861 74.1626C86.3935 74.1626 87.47 73.3385 87.47 72.2398Z" fill="white" stroke="white" stroke-width="0.1625" stroke-miterlimit="3.8637"/>
<path d="M89.6237 68.1196H90.1619V71.1411H93.3916V68.1196H93.9298V74.7119H93.3916V71.6905H90.1619V74.7119H89.6237V68.1196Z" fill="white" stroke="white" stroke-width="0.1625" stroke-miterlimit="3.8637"/>
<path d="M95.0063 71.4158C95.0063 69.493 96.0829 68.1196 97.4286 68.1196C98.7742 68.1196 99.8508 69.7677 99.8508 71.4158C99.8508 73.3385 98.7742 74.7119 97.4286 74.7119C96.0829 74.7119 95.0063 73.3385 95.0063 71.4158ZM99.5816 71.4158C99.5816 69.7677 98.7742 68.669 97.6977 68.669C96.6212 68.669 95.8138 70.0424 95.8138 71.4158C95.8138 73.0638 96.6212 74.1626 97.6977 74.1626C98.7742 74.1626 99.5816 73.0638 99.5816 71.4158Z" fill="white" stroke="white" stroke-width="0.1625" stroke-miterlimit="3.8637"/>
<path d="M100.657 74.7119V74.1626H100.927C101.465 74.1626 102.003 73.8879 102.003 68.3943V68.1196H105.233V74.7119H104.964V68.669H102.541V68.9437C102.541 74.4372 102.003 74.7119 100.927 74.7119H100.657Z" fill="white" stroke="white" stroke-width="0.1625" stroke-miterlimit="3.8637"/>
<path d="M106.847 76.3598L107.116 75.8104C107.386 76.0851 107.655 76.0851 107.924 76.0851C108.462 76.0851 108.731 75.8104 109 74.437L106.578 67.8447H107.116L109 73.613L110.615 67.8447H111.153L109 74.7117C108.462 76.0851 108.193 76.6344 107.386 76.6344C107.386 76.6344 107.116 76.6344 106.847 76.3598Z" fill="white" stroke="white" stroke-width="0.1625" stroke-miterlimit="3.8637"/>
<path d="M73.2061 82.4033H77.7813V82.9527H73.7443V86.2488H75.8974C77.2431 86.2488 78.3196 87.0729 78.3196 88.7209C78.3196 90.369 77.5122 91.4677 75.8974 91.4677H73.2061V82.4033ZM75.8974 90.9183C76.9739 90.9183 77.7813 90.369 77.7813 88.9956C77.7813 87.6222 76.9739 87.0729 75.8974 87.0729H73.7443V90.9183H75.8974Z" fill="white" stroke="white" stroke-width="0.1625" stroke-miterlimit="3.8637"/>
<path d="M79.3955 89.545C79.3955 88.1716 80.2029 87.3476 81.5486 87.3476C82.356 87.3476 82.6251 87.3476 83.1634 87.6223V87.3476C83.1634 85.9742 82.6251 85.4248 81.5486 85.4248C81.0103 85.4248 80.4721 85.6995 79.9338 85.9742L79.6646 85.4248C80.2029 85.1502 80.7412 84.8755 81.2795 84.8755C81.8177 84.8755 82.356 85.1502 82.8943 85.6995C83.1634 86.2489 83.4325 86.7982 83.4325 87.6223V91.7425H82.8943V90.6437C82.6251 91.1931 82.0869 92.0171 81.0103 92.0171C80.2029 91.4678 79.3955 90.9184 79.3955 89.545ZM83.1634 88.9957V88.1716C82.6251 87.8969 82.0869 87.897 81.5486 87.897C80.472 87.897 79.9338 88.4463 79.9338 89.545C79.9338 90.3691 80.4721 90.9184 81.2795 90.9184C82.356 90.9184 83.1634 90.0944 83.1634 88.9957Z" fill="white" stroke="white" stroke-width="0.1625" stroke-miterlimit="3.8637"/>
<path d="M85.317 84.8753H85.8553V86.2487C86.3936 85.4246 86.9318 84.6006 87.7392 84.6006C88.8158 84.6006 90.1614 85.974 90.1614 87.8967C90.1614 90.0942 89.0849 91.1929 87.7392 91.1929C86.6627 91.1929 86.1244 90.3688 85.8553 89.5448V93.3903H85.317V84.8753ZM89.6232 88.1714C89.6232 86.5233 88.8158 85.4246 87.7392 85.4246C86.6627 85.4246 85.8553 86.5233 85.8553 88.1714C85.8553 89.8195 86.9318 90.9182 87.7392 90.9182C88.5466 90.9182 89.6232 90.0942 89.6232 88.1714Z" fill="white" stroke="white" stroke-width="0.1625" stroke-miterlimit="3.8637"/>
<path d="M91.5076 84.8755H93.6606C94.4681 84.8755 95.2755 85.4248 95.2755 86.5236C95.2755 87.3476 94.7372 87.897 94.4681 87.897C95.0063 88.1716 95.5446 88.721 95.5446 89.545C95.5446 90.6437 94.7372 91.1931 93.9298 91.1931H91.5076V84.8755ZM93.6606 87.897C94.4681 87.897 94.7372 87.3476 94.7372 86.5236C94.7372 85.9742 94.4681 85.4248 93.6606 85.4248H92.0458V87.897H93.6606ZM93.6606 90.9184C94.4681 90.9184 95.0063 90.3691 95.0063 89.545C95.0063 88.721 94.4681 88.4463 93.6606 88.4463H92.0458V90.9184H93.6606Z" fill="white" stroke="white" stroke-width="0.1625" stroke-miterlimit="3.8637"/>
<path d="M96.8896 84.8755H97.4279V87.897H100.658V84.8755H101.196V91.4678H100.658V88.4463H97.4279V91.4678H96.8896V84.8755Z" fill="white" stroke="white" stroke-width="0.1625" stroke-miterlimit="3.8637"/>
<path d="M102.811 84.8755H103.349V90.6437L106.579 84.8755H107.117V91.4678H106.579V85.6995L103.349 91.4678H102.811V84.8755Z" fill="white" stroke="white" stroke-width="0.1625" stroke-miterlimit="3.8637"/>
<path d="M109.001 84.8755H109.539V88.9957L112.499 84.8755H113.038L110.885 87.6223L113.038 91.1931H112.499L110.615 87.897L109.539 89.545V91.1931H109.001V84.8755Z" fill="white" stroke="white" stroke-width="0.1625" stroke-miterlimit="3.8637"/>
<path d="M114.115 82.4033H114.654V83.2274H114.115V82.4033ZM114.115 84.8754H114.654V91.4677H114.115V84.8754Z" fill="white" stroke="white" stroke-width="0.1625" stroke-miterlimit="3.8637"/>
<path d="M116.537 84.8755H118.69C119.498 84.8755 120.305 85.4248 120.305 86.5236C120.305 87.3476 119.767 87.897 119.498 87.897C120.036 88.1716 120.574 88.721 120.574 89.545C120.574 90.6437 119.767 91.1931 118.959 91.1931H116.537V84.8755ZM118.69 87.897C119.498 87.897 119.767 87.3476 119.767 86.5236C119.767 85.9742 119.498 85.4248 118.69 85.4248H117.075V87.897H118.69ZM118.69 90.9184C119.498 90.9184 120.036 90.3691 120.036 89.545C120.036 88.721 119.498 88.4463 118.69 88.4463H117.075V90.9184H118.69Z" fill="white" stroke="white" stroke-width="0.1625" stroke-miterlimit="3.8637"/>
<path d="M10.7646 54.9371C10.7646 50.5422 12.6486 48.0701 16.1474 48.0701C19.6461 48.0701 21.5301 50.2676 21.5301 54.9371V64.5508C21.5301 68.9457 19.6461 71.4178 16.1474 71.4178C12.6486 71.4178 10.7646 69.2204 10.7646 64.5508V54.9371ZM33.1029 47.2461H36.0633L17.493 93.3921H14.5325L33.1029 47.2461ZM16.1474 67.2976C17.2239 67.2976 17.7622 66.4736 17.7622 64.2762V55.2118C17.7622 53.289 17.2239 52.1903 16.1474 52.1903C15.0708 52.1903 14.5325 53.289 14.5325 55.2118V64.2762C14.5325 66.4736 15.0708 67.2976 16.1474 67.2976ZM29.0658 76.362C29.0658 71.9672 30.9498 69.495 34.4485 69.495C37.9473 69.495 39.8312 71.6925 39.8312 76.362V85.9758C39.8312 90.3706 37.9473 92.8427 34.4485 92.8427C30.9498 92.8427 29.0658 90.6453 29.0658 85.9758V76.362ZM34.4485 88.4479C35.5251 88.4479 36.0633 87.3492 36.0633 85.4264V76.362C36.0633 74.4393 35.5251 73.3406 34.4485 73.3406C33.372 73.3406 32.8337 74.1646 32.8337 76.362V85.4264C32.8337 87.6238 33.372 88.4479 34.4485 88.4479Z" fill="white"/>
<path d="M61.6314 79.9323C61.6314 88.7221 58.4018 93.3916 52.2117 93.3916C46.0216 93.3916 43.0611 88.7221 43.0611 79.9323V60.9795C43.0611 52.1898 46.2907 47.2456 52.2117 47.2456C58.1327 47.2456 61.6314 51.9151 61.6314 60.9795V79.9323ZM52.2117 53.0139C50.3277 53.0139 49.2512 54.9366 49.2512 57.9581V82.6791C49.2512 85.7006 50.3277 87.6233 52.2117 87.6233C54.0956 87.6233 55.4413 85.7006 55.4413 82.6791V57.9581C55.1722 54.9366 54.0956 53.0139 52.2117 53.0139Z" fill="white"/>
<path d="M66.7452 41.4766H65.6687V101.631H66.7452V41.4766Z" fill="white"/>
</svg>
