<svg width="195" height="42" viewBox="0 0 195 42" fill="none" xmlns="http://www.w3.org/2000/svg">
<path d="M104.086 20.4695C102.632 20.4695 101.177 20.9541 100.046 21.6003V34.8464C101.016 35.0079 101.985 35.0079 102.955 35.0079C106.995 35.0079 107.48 33.0695 107.48 30.3233V24.0233C107.48 21.9233 106.833 20.4695 104.086 20.4695ZM77.422 19.6618C74.6748 19.6618 74.0284 21.2772 74.0284 23.2156V24.3464H80.8156V23.2156C80.8156 21.2772 80.1692 19.6618 77.422 19.6618ZM25.8716 33.3926C25.8716 35.0079 26.518 35.8156 28.134 35.8156C29.4268 35.8156 30.8812 35.331 32.0124 34.6849V31.6156H28.2956C26.6796 31.6156 25.8716 31.9387 25.8716 33.3926ZM129.942 20.4695C128.164 20.1464 126.548 21.4387 126.225 23.2156C126.225 23.5387 126.225 23.7003 126.225 24.0233V31.2926C126.225 33.3926 128.003 35.0079 130.104 34.8464C132.043 34.8464 133.659 33.231 133.659 31.2926V24.0233C133.82 22.2464 132.528 20.631 130.75 20.4695C130.427 20.3079 130.265 20.3079 129.942 20.4695ZM12.2972 41.631H4.05562V20.7926H0.015625V13.6849H4.05562V9.32333C4.05562 3.50795 6.31803 -0.0458984 12.9436 -0.0458984H18.438V7.0618H15.0444C12.4588 7.0618 12.2972 8.03103 12.2972 9.96949V13.5233H18.438L17.7916 20.631H12.2972V41.631ZM40.254 41.631H33.4668L33.1436 39.8541C30.8812 41.3079 28.134 41.9541 25.3868 41.9541C20.3772 41.9541 17.7916 38.4003 17.7916 33.5541C17.7916 27.9003 20.862 25.8003 26.518 25.8003H32.174V24.5079C32.174 21.6003 31.8508 20.7926 27.6492 20.7926H20.7004L21.3468 13.6849H28.942C38.3148 13.6849 40.4156 16.7541 40.4156 24.6695L40.254 41.631ZM63.3628 21.2772C60.9388 20.7926 58.3532 20.4695 55.9292 20.308C52.2124 20.308 51.0812 21.1156 51.0812 24.5079V30.6464C51.0812 33.8772 52.2124 34.8464 55.9292 34.8464C58.5148 34.8464 60.9388 34.5233 63.3628 33.8772V40.8233C60.6156 41.4695 57.8684 41.9541 55.1212 41.9541C46.3948 41.9541 42.8396 37.1079 42.8396 30.1618V25.1541C42.8396 18.208 46.3948 13.2003 55.1212 13.2003C57.8684 13.2003 60.6156 13.6849 63.3628 14.331V21.2772ZM89.0572 30.1618H74.0284V30.808C74.0284 34.0387 75.1596 35.0079 78.8764 35.0079C82.1084 35.0079 85.3404 34.6849 88.4108 34.0387V40.9849C85.0172 41.7926 81.6236 42.1156 78.23 42.1156C69.5036 42.1156 65.9484 37.2695 65.9484 30.3233V24.5079C65.9484 18.3695 68.534 13.3618 77.5836 13.3618C86.6332 13.3618 89.2188 18.3695 89.2188 24.5079L89.0572 30.1618ZM115.56 30.3233C115.56 37.1079 113.782 42.1156 102.47 42.1156C98.7532 42.1156 95.198 41.7926 91.6428 40.9849V2.21564L99.8844 0.761794V14.331C101.824 13.6849 103.924 13.2003 106.025 13.3618C114.267 13.3618 115.56 17.2387 115.56 23.3772V30.3233ZM141.9 30.3233C141.9 36.1387 139.638 41.7926 129.942 41.7926C120.246 41.7926 117.984 36.1387 117.984 30.3233V24.6695C117.984 18.8541 120.246 13.2003 129.942 13.2003C139.638 13.2003 141.9 18.8541 141.9 24.6695V30.3233ZM168.08 30.3233C168.08 36.1387 165.817 41.7926 156.121 41.7926C146.425 41.7926 144.163 36.1387 144.163 30.3233V24.6695C144.163 18.8541 146.425 13.2003 156.121 13.2003C165.817 13.2003 168.08 18.8541 168.08 24.6695V30.3233ZM194.905 41.631H186.017L178.584 28.5464V41.631H170.342V2.21564L178.584 0.761794V26.1233L186.017 13.6849H194.905L186.664 27.2541L194.905 41.631ZM156.121 20.4695C154.344 20.1464 152.728 21.4387 152.404 23.2156C152.404 23.5387 152.404 23.7003 152.404 24.0233V31.2926C152.566 33.3926 154.182 35.0079 156.283 34.8464C158.222 34.6849 159.838 33.231 159.838 31.2926V24.0233C160 22.2464 158.707 20.631 156.929 20.4695C156.606 20.3079 156.444 20.3079 156.121 20.4695Z" fill="white"/>
</svg>
