<svg width="66" height="86" viewBox="0 0 66 86" fill="none" xmlns="http://www.w3.org/2000/svg">
<path d="M48.1676 23.0267V32.286C48.1676 40.4998 41.4939 47.1735 33.2801 47.1735C25.0663 47.1735 18.3926 40.4998 18.3926 32.286V23.0267C18.3926 23.0267 29.2759 23.0267 33.2801 16.969C33.2801 16.969 37.1816 22.2053 48.1676 23.0267Z" stroke="#7B487B" stroke-width="3" stroke-miterlimit="10"/>
<path d="M14.0811 57.3284V17.5942C14.0811 9.07241 20.9602 2.19336 29.482 2.19336H36.7717C45.2935 2.19336 52.1726 9.07241 52.1726 17.5942V57.1231" stroke="#7B487B" stroke-width="3" stroke-miterlimit="10"/>
<path d="M26.2989 45.8442V46.5481C26.2989 49.3203 24.6561 51.7844 22.0893 52.8111L12.9514 57.8421C6.48308 60.4089 2.27351 66.6719 2.27351 73.5509C12.8072 81.6276 39.834 92.9348 63.6716 73.5509C63.6716 66.6719 59.462 60.4089 53.0964 57.8421L43.8558 52.8111C41.289 51.7844 39.6463 49.3203 39.6463 46.5481V45.8442" stroke="#7B487B" stroke-width="3" stroke-miterlimit="10"/>
</svg>
