<svg width="201" height="57" viewBox="0 0 201 57" fill="none" xmlns="http://www.w3.org/2000/svg">
<path d="M10.291 0.160087C5.30621 2.7291 1.60781 7.38544 0.321407 12.8446C-1.44739 20.5516 6.11021 23.7629 6.59261 22.7995C7.39661 21.515 5.30621 21.1939 4.82381 17.1798C4.34141 12.2023 6.11021 7.22487 9.64781 3.69248C10.291 3.21079 10.1302 3.85304 10.1302 5.13755C10.1302 7.38544 9.96941 26.8136 9.96941 30.8277C10.1302 33.8784 9.96941 36.7685 9.32621 39.8192C8.84381 41.5854 8.20061 42.7094 8.68301 43.1911C9.32621 43.6728 11.5774 42.5488 13.0246 40.6221C14.6326 38.2136 15.4366 35.3235 15.4366 32.4333C15.5974 28.7404 15.5974 22.9601 15.5974 19.5883C15.5974 16.5375 15.5974 7.70657 15.5974 2.24741C15.7582 0.80234 12.0598 -0.482167 10.291 0.160087ZM156.458 26.0108C156.458 28.2587 155.815 30.6671 154.85 32.7545C153.403 35.8052 150.187 36.7685 148.74 32.4333C148.097 29.2221 147.936 26.0108 148.579 22.639C149.061 19.2671 150.669 16.6981 153.081 16.8587C155.493 17.0192 156.619 20.0699 156.458 26.0108ZM115.293 43.6728C115.293 48.4897 114.489 52.6643 112.881 53.7883C110.63 55.5545 107.575 54.2699 108.218 50.7375C108.701 47.6868 111.434 44.4756 115.293 40.6221C115.293 40.7826 115.293 41.5854 115.293 43.6728ZM114.65 26.0108C114.489 28.2587 114.007 30.6671 113.042 32.7545C111.595 35.8052 108.379 36.7685 106.932 32.4333C106.128 29.3826 106.128 26.1714 106.771 23.1206C107.414 19.9094 108.701 17.0192 111.273 17.0192C113.685 16.6981 114.972 19.4277 114.65 26.0108ZM90.8518 25.8502C90.8518 28.2587 90.2086 30.5066 89.2438 32.5939C87.6358 35.6446 84.5806 36.608 83.1334 32.2728C82.3294 29.0615 82.3294 25.6897 82.9726 22.4784C83.6158 18.946 85.063 16.5375 87.475 16.8587C89.887 17.0192 91.0126 20.2305 90.8518 25.8502ZM200.035 29.0615C199.392 29.0615 199.231 29.7037 198.909 30.6671C198.105 34.1995 197.301 35.0023 196.176 35.0023C195.05 35.0023 193.925 33.2361 193.603 29.7037C193.442 25.3685 193.442 21.0333 193.764 16.5375C193.764 15.4136 193.603 14.4502 190.709 13.4868C189.422 13.0052 187.653 12.3629 186.849 14.4502C185.081 18.4643 183.794 22.7995 183.151 27.1347C183.151 27.2953 182.99 27.2953 182.99 26.9742C182.669 23.6023 182.508 20.0699 182.508 16.6981C182.669 15.5742 182.025 14.2897 180.9 13.808C180.096 13.3263 177.523 12.3629 176.719 13.4868C175.593 15.4136 174.629 17.5009 174.146 19.7488C173.342 22.1573 172.86 23.6023 172.86 23.6023C172.86 23.6023 172.86 17.3404 172.86 14.9319C172.86 14.4502 172.538 13.808 172.056 13.6474C171.091 13.3263 169.965 13.1657 168.84 13.0052C168.036 13.0052 167.714 13.4868 167.714 14.1291C167.714 14.2897 167.553 22.4784 167.553 28.0981C167.553 28.4192 167.553 28.5798 167.553 28.9009C167.232 31.7911 165.624 35.3235 164.016 35.3235C162.408 35.3235 161.604 33.8784 161.604 26.9742C161.604 22.9601 161.765 21.1939 161.765 18.3037C161.765 16.6981 161.925 15.4136 161.925 15.0925C161.925 14.1291 160.317 13.808 159.674 13.6474C159.031 13.4868 158.388 13.4868 157.905 13.4868C157.262 13.4868 156.78 13.9685 156.78 14.6108C156.78 14.9319 156.78 15.5742 156.78 15.5742C155.976 14.2897 154.85 13.4868 153.564 13.0052C150.83 12.2023 147.775 13.3263 146.328 15.7347C144.559 18.1432 143.594 21.1939 143.433 24.084C143.112 26.653 143.273 29.2221 143.755 31.7911C143.112 34.3601 141.986 35.484 140.861 35.484C139.092 35.484 137.805 32.5939 137.966 27.6164C138.127 24.5657 138.609 21.6756 139.413 18.7854C139.735 17.8221 139.574 16.6981 138.77 15.8953C137.805 15.0925 136.358 14.9319 135.233 15.253C133.625 15.5742 131.856 15.8953 130.248 16.0559C130.409 15.7347 130.409 15.4136 130.409 14.9319C130.891 11.239 126.871 11.5601 125.585 12.8446C124.781 13.6474 124.298 14.6108 124.137 15.7347C123.977 17.0192 124.62 18.4643 125.745 19.1066C124.941 22.3178 123.655 25.5291 122.047 28.4192C121.404 29.7037 120.6 30.8277 119.796 32.1122C119.796 31.6305 119.796 31.3094 119.796 30.8277C119.796 24.8868 119.796 20.2305 119.957 18.4643C119.957 16.8587 120.117 15.5742 120.117 15.253C120.117 14.6108 119.796 14.2897 118.992 13.9685C118.188 13.6474 117.384 13.4868 116.58 13.4868C115.454 13.3263 114.811 13.9685 114.811 14.6108C114.811 14.7714 114.811 15.5742 114.811 15.5742C114.007 14.2897 112.881 13.4868 111.595 12.8446C108.861 12.0418 105.806 13.1657 104.359 15.5742C102.751 18.1432 101.625 21.0333 101.465 23.9235C101.143 26.3319 101.304 28.7404 101.625 31.1488C101.143 33.2361 100.017 35.3235 98.731 35.3235C96.9622 35.3235 95.9974 33.8784 95.9974 26.9742C95.9974 22.9601 96.1582 21.1939 96.1582 18.3037C96.1582 16.6981 96.319 15.4136 96.319 15.0925C96.319 14.1291 94.711 13.808 94.0678 13.6474C93.4246 13.4868 92.7814 13.4868 92.1382 13.4868C91.495 13.4868 91.0126 13.9685 91.0126 14.6108V15.5742C90.2086 14.2897 89.083 13.4868 87.7966 13.0052C85.063 12.2023 82.0078 13.3263 80.5606 15.7347C78.7918 18.1432 77.827 21.0333 77.6662 24.084C77.1838 25.208 77.1838 26.4925 77.1838 27.777C76.7014 30.9883 74.2894 34.6812 72.3598 34.6812C71.2342 34.6812 70.1086 32.5939 70.1086 27.9375C70.1086 21.8361 70.4302 13.0052 70.591 12.2023C70.591 12.2023 73.003 12.2023 73.4854 12.2023C74.611 12.2023 75.7366 12.2023 77.3446 12.2023C78.1486 12.2023 78.9526 9.3122 78.1486 8.99107C76.8622 8.83051 75.415 8.66995 74.1286 8.66995C73.1638 8.66995 70.7518 8.50938 70.7518 8.50938C70.7518 8.50938 70.9126 2.7291 71.0734 2.08685C71.0734 1.60516 70.4302 1.28403 70.1086 1.12347C69.3046 0.80234 68.3398 0.481213 67.375 0.32065C66.0886 -0.000476837 65.4454 0.32065 65.2846 1.44459C64.963 3.05023 64.963 8.02769 64.963 8.02769C63.9982 8.02769 60.6214 7.86713 59.6566 7.86713C58.6918 7.86713 57.727 11.8812 59.0134 11.8812C60.4606 11.8812 63.0334 12.0418 64.8022 12.0418C64.8022 12.0418 64.8022 20.8728 64.8022 23.6023C64.8022 23.9235 64.8022 24.2446 64.8022 24.4052C64.3198 27.2953 62.7118 29.8643 60.6214 31.9516C61.2646 28.7404 59.8174 26.3319 57.2446 24.2446C56.2798 23.4418 54.3502 21.9967 52.2598 20.5516C53.2246 19.4277 54.0286 18.3037 54.511 16.8587C55.315 15.0925 55.315 13.1657 53.3854 12.684C50.491 12.2023 47.7574 13.9685 46.9534 16.6981C46.3102 18.3037 46.6318 20.2305 47.9182 21.515C48.079 21.6756 48.079 21.6756 48.2398 21.8361C47.5966 23.1206 46.6318 25.0474 45.8278 26.4925C43.5766 30.346 41.8078 33.5573 40.5214 33.5573C39.5566 33.5573 39.5566 30.346 39.5566 27.4559C39.5566 24.8868 39.7174 21.0333 39.8782 17.1798C39.8782 16.0559 39.235 14.9319 38.1094 14.4502C37.3054 13.808 36.1798 13.4868 35.215 13.1657C33.9286 13.1657 30.391 13.3263 27.0142 23.1206C26.5318 24.4052 25.7278 26.653 25.7278 26.653V14.9319C25.7278 14.6108 25.567 14.2897 25.2454 14.2897C24.1198 13.808 22.9942 13.4868 21.8686 13.3263C21.2254 13.3263 20.9038 13.6474 20.9038 14.2897L20.743 32.5939C20.743 33.8784 20.743 35.0023 20.9038 36.2868C21.0646 36.9291 21.2254 37.4108 21.547 37.8925C21.8686 38.2136 22.1902 38.5347 22.6726 38.5347C23.155 38.6953 25.8886 39.0164 26.0494 37.8925C26.371 35.3235 26.8534 32.915 27.6574 30.346C29.9086 22.639 32.6422 18.946 34.0894 17.6615C34.2502 17.5009 34.5718 17.3404 34.5718 17.8221C34.5718 19.4277 34.2502 23.7629 34.2502 27.2953C33.9286 36.9291 35.6974 38.6953 38.1094 38.6953C40.039 38.6953 42.7726 36.7685 45.5062 31.9516C47.275 28.9009 49.0438 26.0108 50.3302 23.9235C51.1342 24.7263 52.2598 25.5291 53.2246 26.4925C55.4758 28.5798 56.2798 30.6671 55.7974 32.5939C55.4758 34.039 54.0286 35.6446 51.4558 34.1995C50.6518 33.7178 50.3302 33.3967 49.687 32.915C49.2046 32.5939 48.7222 32.5939 48.2398 32.915C47.275 33.5573 46.6318 34.5206 46.471 35.6446C46.1494 36.7685 47.275 37.2502 48.4006 37.8925C49.8478 38.3742 51.295 38.6953 52.903 38.6953C58.2094 38.8559 62.3902 36.1263 65.2846 29.2221C65.767 35.1629 68.0182 38.6953 71.8774 38.6953C74.4502 38.6953 77.023 35.3235 78.1486 32.1122C78.4702 33.3967 78.9526 34.5206 79.5958 35.6446C82.651 40.3009 88.279 39.3376 91.3342 35.3235C91.8166 34.8418 92.1382 34.1995 92.299 33.7178C92.4598 36.4474 94.711 38.6953 97.4446 38.8559C99.3742 38.8559 101.465 37.8925 102.912 34.6812C103.073 35.0023 103.233 35.3235 103.394 35.6446C106.449 40.3009 112.077 39.3376 115.133 35.3235C115.293 35.1629 115.454 35.0023 115.454 34.8418L115.615 37.2502L112.881 39.6587C108.379 43.8333 105.002 46.884 104.681 50.4164C104.359 55.0728 108.057 56.6784 110.952 56.9995C113.846 57.1601 116.58 55.715 118.188 53.3066C119.635 51.2192 120.439 46.884 120.439 42.5488C120.439 40.7826 120.439 38.5347 120.278 36.2868C122.047 34.1995 123.816 31.7911 125.263 29.3826C127.193 26.1714 128.801 22.9601 129.926 19.4277C129.926 19.4277 131.534 19.4277 133.303 19.2671C133.946 19.2671 134.107 19.2671 133.946 19.7488C133.785 20.2305 131.695 28.4192 133.625 33.7178C134.429 36.4474 136.841 38.3742 139.735 38.5347C141.986 38.3742 144.077 36.7685 144.881 34.6812C145.041 35.0023 145.202 35.1629 145.363 35.484C148.418 40.1404 154.046 39.177 157.101 35.1629C157.423 34.6812 157.905 34.039 158.066 33.5573C158.388 36.4474 160.639 38.5347 163.533 38.6953C165.302 38.6953 167.071 37.8925 168.518 34.6812C168.518 35.6446 168.679 36.7685 168.84 37.7319C169.001 37.8925 169.483 38.2136 169.805 38.3742C171.091 38.8559 172.538 38.8559 173.825 38.5347C174.307 38.3742 174.629 38.053 174.629 37.2502C174.629 34.1995 174.95 30.9883 175.433 27.9375C175.915 25.208 176.88 22.639 178.327 20.0699C178.649 19.5883 178.97 19.4277 178.97 20.0699C178.97 21.1939 179.131 24.5657 179.453 29.0615C179.613 30.9883 179.935 33.0756 180.578 35.0023C181.221 36.2868 182.508 36.9291 183.794 36.9291C184.437 36.9291 185.724 36.7685 185.724 35.6446C185.724 32.5939 186.206 29.7037 187.01 26.8136C187.653 24.4052 188.457 21.9967 189.583 19.7488C189.744 19.4277 189.905 19.5883 189.905 19.7488C189.583 24.2446 189.905 28.5798 190.548 33.0756C191.834 38.3742 195.211 39.0164 196.497 39.0164C199.07 39.0164 201.161 37.0897 201.965 31.7911C201.161 30.0249 200.839 29.0615 200.035 29.0615Z" fill="white"/>
</svg>
