<svg width="37" height="43" viewBox="0 0 37 43" fill="none" xmlns="http://www.w3.org/2000/svg">
<path d="M22.6727 2H6.13454C5.03799 2 3.98636 2.41089 3.21098 3.14228C2.4356 3.87368 2 4.86566 2 5.9V37.1C2 38.1343 2.4356 39.1263 3.21098 39.8577C3.98636 40.5891 5.03799 41 6.13454 41H30.9418C32.0383 41 33.09 40.5891 33.8653 39.8577C34.6407 39.1263 35.0763 38.1343 35.0763 37.1V13.7L22.6727 2Z" stroke="#3EBDAC" stroke-width="3" stroke-linecap="round" stroke-linejoin="round"/>
<path d="M22.6719 2V13.7H35.0756" stroke="#3EBDAC" stroke-width="3" stroke-linecap="round" stroke-linejoin="round"/>
<path d="M26.8065 23.4497H10.2684" stroke="#3EBDAC" stroke-width="3" stroke-linecap="round" stroke-linejoin="round"/>
<path d="M26.8065 31.25H10.2684" stroke="#3EBDAC" stroke-width="3" stroke-linecap="round" stroke-linejoin="round"/>
<path d="M14.4029 15.6499H12.3356H10.2684" stroke="#3EBDAC" stroke-width="3" stroke-linecap="round" stroke-linejoin="round"/>
</svg>
