<svg width="219" height="43" viewBox="0 0 219 43" fill="none" xmlns="http://www.w3.org/2000/svg">
<g clip-path="url(#clip0_1132_3613)">
<path d="M174.985 24.1652C174.507 19.6417 172.354 16.0705 167.689 16.0705C163.383 16.0705 160.872 19.4036 160.154 24.1652H174.985ZM152.858 26.427C152.858 17.4989 159.077 10.2375 167.809 10.2375C177.497 10.2375 182.401 17.9751 182.401 26.9031V28.9268H160.274C160.991 33.9265 164.221 36.7835 168.646 36.7835C172.115 36.7835 174.507 35.474 176.899 33.0932L181.205 36.7835C178.334 40.3547 174.148 42.6165 168.526 42.6165C159.675 42.4974 152.858 35.9502 152.858 26.427Z" fill="white"/>
<path d="M79.4188 18.5703C78.7012 15.9514 77.6247 13.6897 76.0698 11.904C74.5149 10.1184 72.6012 8.80899 70.3287 7.85667C68.0562 7.02339 65.4248 6.54723 62.5542 6.54723C59.8033 6.54723 57.2915 7.02339 55.019 7.85667C52.7465 8.68995 50.8328 9.9994 49.2779 11.5469C47.723 13.0944 46.5269 15.1181 45.5701 17.2609C44.7328 19.5226 44.2544 21.9034 44.2544 24.5223C44.2544 27.2603 44.7328 29.7601 45.5701 32.0219C46.4073 34.2836 47.723 36.1883 49.2779 37.8549C50.9524 39.4024 52.8661 40.7118 55.1386 41.5451C57.4111 42.3784 60.1621 42.8546 63.0327 42.8546C64.3483 42.8546 65.664 42.7355 66.9797 42.4974C68.2954 42.2594 69.7306 41.9022 70.9267 41.4261C72.2424 40.9499 73.4385 40.3547 74.6345 39.6405C75.8306 38.9262 76.7875 38.0929 77.7443 37.1406L72.362 31.7838C71.8836 32.26 71.2855 32.7361 70.5679 33.0932C69.8503 33.4504 69.013 33.8075 68.1758 34.0456C67.3385 34.2836 66.5013 34.5217 65.664 34.6408C64.8268 34.7598 63.9895 34.8789 63.1523 34.8789C60.1621 34.8789 57.77 34.1646 55.9759 32.8552C54.1818 31.4267 53.2249 29.7601 52.8661 27.6174C52.2681 22.9748 52.9857 20.594 52.9857 20.594C53.5837 18.3322 54.7798 16.6657 56.5739 15.5943C58.2484 14.5229 60.2817 13.9277 62.6738 13.9277C65.1856 13.9277 67.2189 14.5229 68.7738 15.5943C70.3287 16.6657 71.2855 18.3322 71.6444 20.594H56.0955C56.0955 20.594 55.2582 22.9748 55.9759 27.6174H79.7776C80.2561 24.2843 80.1364 21.1892 79.4188 18.5703Z" fill="#673065"/>
<path d="M16.5059 30.3552H8.61182V41.7831H16.5059V30.3552Z" fill="#673065"/>
<path d="M43.178 13.9275C43.178 13.5704 43.178 13.3323 43.178 12.9752C42.6996 7.26128 38.7526 2.49967 33.4899 0.833102C31.935 0.475981 30.2605 0.2379 28.586 0.2379H8.73129V18.332H16.6253V7.49936H28.586C28.7056 7.49936 28.8252 7.49936 28.9448 7.49936C29.0644 7.49936 29.0644 7.49936 29.184 7.49936C32.8918 7.49936 35.882 10.4754 35.882 14.1656C35.882 15.9512 35.1644 17.4988 34.0879 18.6892C33.9683 18.8082 33.9683 18.8082 33.8487 18.9272C33.4899 19.0463 33.4899 19.1653 33.3703 19.2844C33.2507 19.4034 33.1311 19.5224 33.0115 19.6415C31.935 20.3557 30.6193 20.8319 29.184 20.8319C29.0644 20.8319 29.0644 20.8319 28.9448 20.8319C28.8252 20.8319 28.7056 20.8319 28.586 20.8319H17.941H16.5057H6.21955V18.332L0 24.2841L6.21955 30.2361V27.7362H16.5057H17.941H29.184C36.3604 27.7362 42.2212 22.2604 42.9388 15.356V15.237C42.9388 15.118 42.9388 14.8799 42.9388 14.7608C43.178 14.6418 43.178 14.2847 43.178 13.9275Z" fill="#673065"/>
<path d="M150.106 20.951C150.106 20.7129 150.106 20.4748 150.106 20.2368C149.748 15.9513 146.877 12.3801 142.81 11.1897C141.734 10.9516 140.418 10.7135 139.103 10.7135H123.673V33.2122V41.7831H130.132V36.9024V31.3075H131.209H139.701C145.083 31.3075 149.508 27.2601 149.987 22.0224C149.987 22.0224 149.987 22.0224 149.987 21.9033C149.987 21.7843 149.987 21.6652 149.987 21.5462C150.106 21.4272 150.106 21.1891 150.106 20.951ZM143.289 24.5222C143.169 24.5222 143.289 24.5222 143.289 24.5222C143.169 24.6413 143.169 24.7603 143.05 24.7603C142.93 24.8793 142.93 24.8793 142.81 24.9984C142.691 25.1174 142.571 25.1174 142.571 25.2365C141.734 25.8317 140.777 26.1888 139.701 26.1888C139.581 26.1888 139.581 26.1888 139.461 26.1888C139.342 26.1888 139.342 26.1888 139.222 26.1888H131.328H130.252V16.1894H139.222C139.342 16.1894 139.342 16.1894 139.461 16.1894C139.581 16.1894 139.581 16.1894 139.701 16.1894C142.452 16.1894 144.724 18.4512 144.724 21.1891C144.605 22.3795 144.126 23.5699 143.289 24.5222Z" fill="white"/>
<path d="M110.516 0L93.2927 18.4513V0H86.5947V42.1403H93.2927V27.4983L96.6417 23.8081L110.157 42.1403H119.128L101.187 18.8084L118.41 0H110.516Z" fill="white"/>
<path d="M187.543 10.8325H195.079L203.332 24.046L211.584 10.8325H219V42.0211H212.182V21.6652L203.332 34.9977H203.092L194.361 21.7842V42.0211H187.543V10.8325Z" fill="white"/>
</g>
<defs>
<clipPath id="clip0_1132_3613">
<rect width="219" height="42.9736" fill="white"/>
</clipPath>
</defs>
</svg>
