<svg width="297" height="59" viewBox="0 0 297 59" fill="none" xmlns="http://www.w3.org/2000/svg">
<path d="M236.592 33.3348C235.946 27.1918 233.036 22.3421 226.731 22.3421C220.911 22.3421 217.517 26.8685 216.547 33.3348H236.592ZM206.686 36.4063C206.686 24.282 215.092 14.4209 226.893 14.4209C239.987 14.4209 246.615 24.9286 246.615 37.053V39.8011H216.708C217.678 46.5907 222.043 50.4705 228.024 50.4705C232.712 50.4705 235.946 48.6923 239.179 45.4591L244.998 50.4705C241.119 55.3203 235.461 58.3918 227.863 58.3918C215.9 58.2301 206.686 49.3389 206.686 36.4063Z" fill="white"/>
<path d="M107.428 25.7376C106.458 22.1811 105.003 19.1096 102.901 16.6847C100.8 14.2599 98.2131 12.4816 95.1416 11.1884C92.0701 10.0568 88.5136 9.41016 84.6339 9.41016C80.9157 9.41016 77.5209 10.0568 74.4494 11.1884C71.378 12.32 68.7914 14.0982 66.6899 16.1998C64.5883 18.3013 62.9718 21.0495 61.6785 23.9593C60.5469 27.0308 59.9003 30.264 59.9003 33.8204C59.9003 37.5386 60.5469 40.9334 61.6785 44.0049C62.8101 47.0764 64.5883 49.6629 66.6899 51.9261C68.9531 54.0276 71.5396 55.8059 74.6111 56.9375C77.6826 58.0691 81.4007 58.7157 85.2805 58.7157C87.0587 58.7157 88.837 58.5541 90.6152 58.2307C92.3934 57.9074 94.3333 57.4224 95.9499 56.7758C97.7281 56.1292 99.3447 55.3209 100.961 54.351C102.578 53.381 103.871 52.2494 105.164 50.9561L97.8898 43.6816C97.2432 44.3282 96.4349 44.9748 95.4649 45.4598C94.495 45.9448 93.3634 46.4297 92.2318 46.7531C91.1002 47.0764 89.9686 47.3997 88.837 47.5613C87.7054 47.723 86.5738 47.8847 85.4422 47.8847C81.4007 47.8847 78.1676 46.9147 75.7427 45.1365C73.3178 43.1966 72.0246 40.9334 71.5396 38.0235C70.7313 31.7189 71.7013 28.4857 71.7013 28.4857C72.5096 25.4143 74.1261 23.151 76.551 21.6961C78.8142 20.2412 81.5624 19.4329 84.7955 19.4329C88.1903 19.4329 90.9385 20.2412 93.0401 21.6961C95.1416 23.151 96.4349 25.4143 96.9198 28.4857H75.9044C75.9044 28.4857 74.7728 31.7189 75.7427 38.0235H107.913C108.559 33.4971 108.236 29.294 107.428 25.7376Z" fill="white"/>
<path d="M22.396 41.7422H11.7266V57.2613H22.396V41.7422Z" fill="white"/>
<path d="M58.2836 19.4334C58.2836 18.9484 58.2836 18.6251 58.2836 18.1401C57.637 10.3806 52.3023 3.91427 45.1894 1.65106C43.0878 1.16609 40.8246 0.842773 38.5614 0.842773H11.7262V25.4147H22.3956V10.7039H38.5614C38.7231 10.7039 38.8847 10.7039 39.0464 10.7039C39.208 10.7039 39.208 10.7039 39.3697 10.7039C44.3811 10.7039 48.4225 14.7453 48.4225 19.7567C48.4225 22.1816 47.4526 24.2831 45.9976 25.8997C45.836 26.0614 45.836 26.0613 45.6743 26.223C45.5127 26.3847 45.5127 26.3847 45.351 26.5463C45.1894 26.708 45.0277 26.8696 44.866 27.0313C43.4111 28.0012 41.6329 28.6479 39.693 28.6479C39.5313 28.6479 39.5313 28.6479 39.3697 28.6479C39.208 28.6479 39.0464 28.6479 38.8847 28.6479H24.6588H22.719H8.81641V25.2531L0.410217 33.3359L8.81641 41.4188V38.024H22.719H24.6588H39.8547C49.5541 38.024 57.4753 30.5878 58.4453 21.2116V21.05C58.4453 20.8883 58.4453 20.565 58.4453 20.4033C58.2836 20.4033 58.2836 19.9184 58.2836 19.4334Z" fill="white"/>
<path d="M202.968 28.9719C202.968 28.6486 202.968 28.3253 202.968 28.0019C202.483 22.1823 198.603 17.3325 193.106 15.716C191.652 15.3927 189.873 15.0693 188.095 15.0693H167.241V45.6226V57.262H175.971V50.634V43.0361H177.426H188.903C196.178 43.0361 202.159 37.5397 202.806 30.4268C202.806 30.4268 202.806 30.4268 202.806 30.2651C202.806 30.1035 202.806 29.9418 202.806 29.7802C202.968 29.6185 202.968 29.2952 202.968 28.9719ZM193.753 33.8216C193.591 33.8216 193.753 33.8216 193.753 33.8216C193.591 33.8216 193.591 33.8216 193.753 33.8216C193.591 33.9833 193.591 34.1449 193.43 34.1449C193.268 34.3066 193.268 34.3066 193.106 34.4682C192.945 34.6299 192.783 34.6299 192.783 34.7916C191.652 35.5998 190.358 36.0848 188.903 36.0848C188.742 36.0848 188.742 36.0848 188.58 36.0848C188.418 36.0848 188.418 36.0848 188.257 36.0848H177.587H176.132V22.5056H188.257C188.418 22.5056 188.418 22.5056 188.58 22.5056C188.742 22.5056 188.742 22.5056 188.903 22.5056C192.621 22.5056 195.693 25.5771 195.693 29.2952C195.531 30.9118 194.885 32.5284 193.753 33.8216Z" fill="white"/>
<path d="M149.297 0.519531L126.18 25.5764V0.519531H117.127V57.7463H126.18V37.8624L130.706 32.851L148.973 57.7463H161.098L136.849 26.0614L160.128 0.519531H149.297Z" fill="white"/>
<path d="M253.566 15.2305H263.589L274.905 33.1745L285.898 15.2305H296.082V57.5847H286.706V29.9413L274.905 48.047H274.582L262.781 30.103V57.5847H253.566V15.2305Z" fill="white"/>
</svg>
