<svg width="343" height="67" viewBox="0 0 343 67" fill="none" xmlns="http://www.w3.org/2000/svg">
<path d="M25.8519 47.23H13.4882V65.0108H25.8519V47.23Z" fill="#673065"/>
<path d="M274.063 37.599C273.314 30.5608 269.942 25.0043 262.636 25.0043C255.892 25.0043 251.958 30.1904 250.834 37.599H274.063ZM239.407 41.1182C239.407 27.2269 249.148 15.9287 262.823 15.9287C277.997 15.9287 285.677 27.9678 285.677 41.859V45.0077H251.022C252.146 52.7868 257.203 57.232 264.135 57.232C269.567 57.232 273.314 55.1946 277.06 51.4903L283.804 57.232C279.308 62.7885 272.752 66.3076 263.947 66.3076C250.085 66.1224 239.407 55.9355 239.407 41.1182Z" fill="#3EBDAC"/>
<path d="M124.385 28.8939C123.261 24.8191 121.575 21.3 119.14 18.5218C116.705 15.7435 113.708 13.7061 110.148 12.2244C106.589 10.9279 102.468 10.187 97.9719 10.187C93.6633 10.187 89.7294 10.9279 86.1702 12.2244C82.6109 13.5209 79.6136 15.5583 77.1784 17.9661C74.7431 20.3739 72.8698 23.5226 71.3712 26.8565C70.0599 30.3756 69.3105 34.0799 69.3105 38.1547C69.3105 42.4147 70.0599 46.3042 71.3712 49.8233C72.6825 53.3425 74.7431 56.3059 77.1784 58.899C79.801 61.3068 82.7982 63.3442 86.3575 64.6407C89.9167 65.9372 94.2253 66.6781 98.7212 66.6781C100.782 66.6781 102.842 66.4928 104.903 66.1224C106.964 65.752 109.212 65.1963 111.085 64.4555C113.146 63.7146 115.019 62.7885 116.892 61.6772C118.765 60.5659 120.264 59.2694 121.763 57.7877L113.333 49.4529C112.584 50.1938 111.647 50.9346 110.523 51.4903C109.399 52.0459 108.088 52.6016 106.776 52.972C105.465 53.3425 104.154 53.7129 102.842 53.8981C101.531 54.0833 100.22 54.2685 98.9085 54.2685C94.2253 54.2685 90.4787 53.1572 87.6688 51.1199C84.8589 48.8973 83.3602 46.3042 82.7982 42.9703C81.8616 35.7469 82.9856 32.0426 82.9856 32.0426C83.9222 28.5234 85.7955 25.9304 88.6054 24.2635C91.228 22.5965 94.4126 21.6704 98.1592 21.6704C102.093 21.6704 105.278 22.5965 107.713 24.2635C110.148 25.9304 111.647 28.5234 112.209 32.0426H87.8561C87.8561 32.0426 86.5448 35.7469 87.6688 42.9703H124.947C125.697 37.7843 125.509 32.9686 124.385 28.8939Z" fill="#673065"/>
<path d="M67.6257 21.6705C67.6257 21.1149 67.6257 20.7444 67.6257 20.1888C66.8764 11.2984 60.6946 3.88972 52.4521 1.29669C50.0168 0.741039 47.3942 0.370605 44.7716 0.370605H13.675V28.5235H26.0387V11.6688H44.7716C44.9589 11.6688 45.1463 11.6688 45.3336 11.6688C45.5209 11.6688 45.5209 11.6688 45.7083 11.6688C51.5155 11.6688 56.1987 16.2992 56.1987 22.0409C56.1987 24.8192 55.0747 27.227 53.3887 29.0792C53.2014 29.2644 53.2014 29.2644 53.0141 29.4496C52.4521 29.6348 52.4521 29.82 52.2648 30.0053C52.0774 30.1905 51.8901 30.3757 51.7028 30.5609C50.0168 31.6722 47.9562 32.4131 45.7083 32.4131C45.5209 32.4131 45.5209 32.4131 45.3336 32.4131C45.1463 32.4131 44.9589 32.4131 44.7716 32.4131H28.0993H25.8514H9.7411V28.5235L0 37.7843L9.7411 47.0452V43.1556H25.8514H28.0993H45.7083C56.948 43.1556 66.1271 34.6357 67.2511 23.8931V23.7079C67.2511 23.5227 67.2511 23.1522 67.2511 22.967C67.6257 22.7818 67.6257 22.2262 67.6257 21.6705Z" fill="#673065"/>
<path d="M235.097 32.5981C235.097 32.2276 235.097 31.8572 235.097 31.4868C234.535 24.819 230.039 19.2625 223.67 17.4103C221.984 17.0399 219.923 16.6694 217.863 16.6694H193.697V51.6754V65.0109H203.813V57.4171V48.7119H205.499H218.799C227.229 48.7119 234.16 42.4145 234.91 34.265C234.91 34.265 234.91 34.265 234.91 34.0798C234.91 33.8946 234.91 33.7094 234.91 33.5241C235.097 33.3389 235.097 32.9685 235.097 32.5981ZM224.419 38.1545C224.232 38.1545 224.419 38.1545 224.419 38.1545C224.232 38.3398 224.232 38.525 224.044 38.525C223.857 38.7102 223.857 38.7102 223.67 38.8954C223.483 39.0806 223.295 39.0806 223.295 39.2659C221.984 40.1919 220.485 40.7476 218.799 40.7476C218.612 40.7476 218.612 40.7476 218.425 40.7476C218.237 40.7476 218.237 40.7476 218.05 40.7476H205.686H204V25.1894H218.05C218.237 25.1894 218.237 25.1894 218.425 25.1894C218.612 25.1894 218.612 25.1894 218.799 25.1894C223.108 25.1894 226.667 28.7085 226.667 32.9685C226.48 34.8207 225.73 36.6728 224.419 38.1545Z" fill="#3EBDAC"/>
<path d="M173.092 0L146.116 28.7086V0H135.626V65.5666H146.116V42.785L151.362 37.0433L172.53 65.5666H186.579L158.48 29.2642L185.456 0H173.092Z" fill="#3EBDAC"/>
<path d="M293.731 16.855H305.533L318.459 37.414L331.385 16.855H342.999V65.3817H332.321V33.7097L318.459 54.4539H318.084L304.409 33.8949V65.3817H293.731V16.855Z" fill="#3EBDAC"/>
</svg>
